<svg width="48" height="48" viewBox="0 0 48 48" fill="none" xmlns="http://www.w3.org/2000/svg">
<rect width="48" height="48" fill="white"/>
<path d="M26.167 27.6553C25.7105 27.137 25.0436 26.8086 24.2988 26.8086C22.923 26.8086 21.8076 27.9244 21.8076 29.3008C21.8076 30.6771 22.923 31.7929 24.2988 31.793C25.0439 31.793 25.7105 31.4639 26.167 30.9453V42.2598H18.1582C18.6765 41.8031 19.0049 41.1359 19.0049 40.3906C19.0049 39.0142 17.8896 37.8984 16.5137 37.8984C15.1378 37.8985 14.0225 39.0143 14.0225 40.3906C14.0225 41.1359 14.3509 41.8031 14.8691 42.2598H6.85938V30.9453C6.40285 31.4638 5.7362 31.793 4.99121 31.793C3.61544 31.7929 2.50009 30.6771 2.5 29.3008C2.5 27.9244 3.61539 26.8087 4.99121 26.8086C5.73601 26.8086 6.40285 27.137 6.85938 27.6553V22.9453H26.167V27.6553ZM26.6006 5.75C29.3878 5.75 31.6475 8.00969 31.6475 10.7969H35.1338C37.1984 10.7969 38.8721 12.4706 38.8721 14.5352H44.0322C44.8286 14.5352 45.4746 15.1812 45.4746 15.9775C45.4743 19.8263 42.3537 22.9463 38.5049 22.9463H26.167V19.2637C25.7126 19.8708 24.9903 20.2656 24.1738 20.2656C22.798 20.2656 21.6826 19.1498 21.6826 17.7734C21.6826 16.3971 22.798 15.2813 24.1738 15.2812C24.99 15.2812 25.7126 15.6754 26.167 16.2822V5.75H26.6006Z" fill="#BA834B"/>
</svg>
