<svg width="32" height="32" viewBox="0 0 32 32" fill="none" xmlns="http://www.w3.org/2000/svg">
<rect x="3.20001" y="3.2002" width="25.6" height="25.6" rx="8" fill="#C99A69"/>
<path fill-rule="evenodd" clip-rule="evenodd" d="M6.39999 12.2838C6.39999 9.0342 9.03429 6.3999 12.2839 6.3999H19.7161C22.9656 6.3999 25.6 9.03419 25.6 12.2838V19.716C25.6 22.9656 22.9656 25.5999 19.7161 25.5999H12.2839C9.03429 25.5999 6.39999 22.9655 6.39999 19.716V12.2838ZM12.2839 8.25797C10.0605 8.25797 8.25806 10.0604 8.25806 12.2838V19.716C8.25806 21.9394 10.0605 23.7418 12.2839 23.7418H19.7161C21.9395 23.7418 23.7419 21.9394 23.7419 19.716V12.2838C23.7419 10.0604 21.9395 8.25797 19.7161 8.25797H12.2839Z" fill="white"/>
<path fill-rule="evenodd" clip-rule="evenodd" d="M16 13.1202C14.4094 13.1202 13.12 14.4096 13.12 16.0002C13.12 17.5908 14.4094 18.8802 16 18.8802C16.7638 18.8802 17.4963 18.5767 18.0365 18.0366C18.5766 17.4965 18.88 16.7639 18.88 16.0002C18.88 14.4096 17.5907 13.1202 16 13.1202ZM11.2 16.0002C11.2 13.3492 13.349 11.2002 16 11.2002C18.651 11.2002 20.8 13.3492 20.8 16.0002C20.8 17.2732 20.2942 18.4941 19.3941 19.3943C18.4939 20.2944 17.273 20.8002 16 20.8002C13.349 20.8002 11.2 18.6512 11.2 16.0002Z" fill="white"/>
<path d="M21.2 9.6C20.5373 9.6 20 10.1373 20 10.8C20 11.4627 20.5373 12 21.2 12C21.8627 12 22.4 11.4627 22.4 10.8C22.4 10.1373 21.8627 9.6 21.2 9.6Z" fill="white"/>
<path fill-rule="evenodd" clip-rule="evenodd" d="M21.2 12C20.5373 12 20 11.4627 20 10.8C20 10.1373 20.5373 9.6 21.2 9.6C21.8627 9.6 22.4 10.1373 22.4 10.8C22.4 11.4627 21.8627 12 21.2 12Z" fill="white"/>
</svg>
