<svg width="27" height="27" viewBox="0 0 27 27" fill="none" xmlns="http://www.w3.org/2000/svg">
<path fill-rule="evenodd" clip-rule="evenodd" d="M2.7002 9.32053C2.7002 5.66476 5.66378 2.70117 9.31955 2.70117H17.6808C21.3365 2.70117 24.3002 5.66475 24.3002 9.32053V17.6818C24.3002 21.3375 21.3366 24.3012 17.6808 24.3012H9.31955C5.66377 24.3012 2.7002 21.3375 2.7002 17.6818V9.32053ZM9.31955 4.79149C6.81823 4.79149 4.79052 6.81921 4.79052 9.32053V17.6818C4.79052 20.1831 6.81824 22.2108 9.31955 22.2108H17.6808C20.1821 22.2108 22.2099 20.1831 22.2099 17.6818V9.32053C22.2099 6.81922 20.1821 4.79149 17.6808 4.79149H9.31955Z" fill="white"/>
<path fill-rule="evenodd" clip-rule="evenodd" d="M13.5006 10.2596C11.7111 10.2596 10.2606 11.7101 10.2606 13.4996C10.2606 15.2891 11.7111 16.7396 13.5006 16.7396C14.3598 16.7396 15.184 16.3982 15.7916 15.7906C16.3992 15.183 16.7406 14.3588 16.7406 13.4996C16.7406 11.7101 15.2901 10.2596 13.5006 10.2596ZM8.10059 13.4996C8.10059 10.5172 10.5182 8.09961 13.5006 8.09961C16.483 8.09961 18.9006 10.5172 18.9006 13.4996C18.9006 14.9317 18.3316 16.3053 17.3189 17.318C16.3063 18.3306 14.9327 18.8996 13.5006 18.8996C10.5182 18.8996 8.10059 16.482 8.10059 13.4996Z" fill="white"/>
<path d="M19.35 6.3C18.6044 6.3 18 6.90442 18 7.65C18 8.39558 18.6044 9 19.35 9C20.0956 9 20.7 8.39558 20.7 7.65C20.7 6.90442 20.0956 6.3 19.35 6.3Z" fill="white"/>
</svg>
