<svg width="192" height="44" viewBox="0 0 192 44" fill="none" xmlns="http://www.w3.org/2000/svg">
<path d="M169.083 24.9053C168.627 24.3869 167.96 24.0587 167.215 24.0586C165.839 24.0586 164.724 25.1744 164.724 26.5508C164.724 27.9271 165.839 29.043 167.215 29.043C167.96 29.0429 168.627 28.7132 169.083 28.1943V39.5098H161.073C161.592 39.0531 161.921 38.386 161.921 37.6406C161.921 36.2643 160.805 35.1486 159.43 35.1484C158.054 35.1484 156.938 36.2642 156.938 37.6406C156.939 38.3861 157.267 39.0531 157.786 39.5098H149.775V28.1953C149.319 28.7135 148.652 29.042 147.907 29.042C146.532 29.0419 145.416 27.926 145.416 26.5498C145.416 25.1736 146.532 24.0578 147.907 24.0576C148.652 24.0576 149.319 24.3862 149.775 24.9043V20.1953H169.083V24.9053Z" fill="#BA834B"/>
<path d="M169.517 3C172.304 3 174.563 5.25906 174.563 8.0459H178.05C180.114 8.0459 181.788 9.71972 181.788 11.7842H186.948C187.745 11.7842 188.391 12.4302 188.391 13.2266C188.391 17.0755 185.27 20.1953 181.421 20.1953H169.083V16.5137C168.629 17.121 167.906 17.5166 167.09 17.5166C165.714 17.5166 164.599 16.4006 164.599 15.0244C164.599 13.648 165.714 12.5322 167.09 12.5322C167.906 12.5322 168.629 12.9262 169.083 13.5332V3H169.517Z" fill="#BA834B"/>
<path d="M131.211 36.1828H124.402L123.367 39.315H117.756L124.756 20.1133H130.911L137.884 39.315H132.246L131.211 36.1828ZM129.876 32.0973L127.806 25.8874L125.763 32.0973H129.876Z" fill="#4D4D4D"/>
<path d="M108.799 39.5064C106.566 39.5064 104.732 38.9799 103.298 37.9267C101.863 36.8554 101.091 35.3302 100.982 33.351H106.675C106.729 34.0228 106.929 34.5131 107.274 34.8218C107.619 35.1304 108.064 35.2848 108.609 35.2848C109.099 35.2848 109.498 35.1667 109.807 34.9307C110.134 34.6765 110.297 34.3315 110.297 33.8957C110.297 33.3328 110.034 32.897 109.507 32.5884C108.981 32.2797 108.127 31.9347 106.947 31.5534C105.694 31.1357 104.677 30.7363 103.897 30.355C103.134 29.9555 102.462 29.3835 101.881 28.6391C101.318 27.8764 101.037 26.8869 101.037 25.6703C101.037 24.4356 101.346 23.3824 101.963 22.5109C102.58 21.6211 103.434 20.9493 104.523 20.4954C105.613 20.0414 106.847 19.8145 108.227 19.8145C110.461 19.8145 112.24 20.341 113.566 21.3942C114.909 22.4292 115.627 23.8908 115.717 25.7792H109.916C109.898 25.1982 109.716 24.7624 109.371 24.4719C109.044 24.1814 108.618 24.0361 108.091 24.0361C107.692 24.0361 107.365 24.1541 107.111 24.3902C106.856 24.6262 106.729 24.9621 106.729 25.3979C106.729 25.7611 106.865 26.0788 107.138 26.3512C107.428 26.6054 107.782 26.8324 108.2 27.0321C108.618 27.2137 109.235 27.4497 110.052 27.7403C111.269 28.1579 112.267 28.5755 113.048 28.9931C113.847 29.3926 114.528 29.9646 115.091 30.709C115.672 31.4353 115.962 32.3614 115.962 33.4872C115.962 34.6311 115.672 35.657 115.091 36.5649C114.528 37.4728 113.702 38.19 112.612 38.7166C111.541 39.2431 110.27 39.5064 108.799 39.5064Z" fill="#4D4D4D"/>
<path d="M98.7898 26.5139C98.7898 27.6759 98.5175 28.7382 97.9727 29.7005C97.4462 30.6447 96.6382 31.4073 95.5487 31.9884C94.4774 32.5513 93.161 32.8327 91.5994 32.8327H88.9575V39.315H83.6191V20.1133H91.5994C93.1428 20.1133 94.4502 20.3856 95.5215 20.9304C96.6109 21.4751 97.428 22.2286 97.9727 23.191C98.5175 24.1534 98.7898 25.261 98.7898 26.5139ZM91.0819 28.5838C92.589 28.5838 93.3425 27.8938 93.3425 26.5139C93.3425 25.1157 92.589 24.4166 91.0819 24.4166H88.9575V28.5838H91.0819Z" fill="#4D4D4D"/>
<path d="M66.2938 34.986H74.274V39.3166H60.3018V35.2583L68.2003 24.4182H60.3018V20.1149H74.274V24.1731L66.2938 34.986ZM67.247 18.4262C66.6297 18.4262 66.1122 18.2265 65.6946 17.827C65.2951 17.4094 65.0954 16.8919 65.0954 16.2745C65.0954 15.639 65.2951 15.1124 65.6946 14.6948C66.1122 14.2772 66.6297 14.0684 67.247 14.0684C67.8826 14.0684 68.4091 14.2772 68.8268 14.6948C69.2444 15.1124 69.4532 15.639 69.4532 16.2745C69.4532 16.8919 69.2444 17.4094 68.8268 17.827C68.4091 18.2265 67.8826 18.4262 67.247 18.4262Z" fill="#4D4D4D"/>
<path d="M47.6135 39.5061C45.8159 39.5061 44.1635 39.0885 42.6565 38.2532C41.1494 37.3998 39.951 36.2287 39.0613 34.7397C38.1897 33.2326 37.7539 31.5349 37.7539 29.6465C37.7539 27.7581 38.1897 26.0695 39.0613 24.5805C39.951 23.0734 41.1494 21.9023 42.6565 21.067C44.1635 20.2318 45.8159 19.8141 47.6135 19.8141C49.4292 19.8141 51.0816 20.2318 52.5705 21.067C54.0776 21.9023 55.2669 23.0734 56.1385 24.5805C57.0101 26.0695 57.4458 27.7581 57.4458 29.6465C57.4458 31.5349 57.0101 33.2326 56.1385 34.7397C55.2669 36.2287 54.0776 37.3998 52.5705 38.2532C51.0634 39.0885 49.4111 39.5061 47.6135 39.5061ZM47.6135 34.5491C48.9753 34.5491 50.0466 34.1042 50.8274 33.2145C51.6263 32.3248 52.0258 31.1354 52.0258 29.6465C52.0258 28.1213 51.6263 26.9229 50.8274 26.0513C50.0466 25.1616 48.9753 24.7167 47.6135 24.7167C46.2335 24.7167 45.1531 25.1616 44.3724 26.0513C43.5916 26.9229 43.2012 28.1213 43.2012 29.6465C43.2012 31.1536 43.5916 32.352 44.3724 33.2417C45.1531 34.1133 46.2335 34.5491 47.6135 34.5491ZM50.9363 16.3279L44.1272 18.997V15.3746L50.9363 12.2969V16.3279Z" fill="#4D4D4D"/>
<path d="M35.7752 35.2568V39.315H24.4721V32.1246L22.8379 32.5876V27.9574L24.4721 27.4944V20.1133H29.8377V25.9691L31.9893 25.3427V29.9729L29.8377 30.5993V35.2568H35.7752Z" fill="#4D4D4D"/>
<path d="M9.3111 20.1133V31.253C9.3111 32.288 9.54715 33.0869 10.0192 33.6498C10.5095 34.2127 11.2449 34.4941 12.2254 34.4941C13.2059 34.4941 13.9413 34.2127 14.4315 33.6498C14.94 33.0688 15.1942 32.2698 15.1942 31.253V20.1133H20.5325V31.253C20.5325 33.0143 20.1603 34.5214 19.4158 35.7743C18.6713 37.009 17.6545 37.9441 16.3653 38.5796C15.0943 39.197 13.678 39.5057 12.1165 39.5057C10.5549 39.5057 9.15676 39.197 7.92204 38.5796C6.70548 37.9441 5.74313 37.009 5.03498 35.7743C4.34499 34.5395 4 33.0325 4 31.253V20.1133H9.3111Z" fill="#4D4D4D"/>
</svg>
