<svg width="192" height="44" viewBox="0 0 192 44" fill="none" xmlns="http://www.w3.org/2000/svg">
<path d="M169.083 24.9058C168.627 24.3874 167.96 24.0592 167.215 24.0591C165.839 24.0591 164.724 25.1749 164.724 26.5513C164.724 27.9275 165.84 29.0435 167.215 29.0435C167.961 29.0434 168.627 28.7137 169.083 28.1948V39.5103H161.074C161.592 39.0536 161.921 38.3865 161.921 37.6411C161.921 36.2648 160.806 35.149 159.43 35.1489C158.054 35.1489 156.939 36.2647 156.939 37.6411C156.939 38.3866 157.268 39.0536 157.787 39.5103H149.776V28.1958C149.319 28.714 148.652 29.0425 147.908 29.0425C146.532 29.0423 145.417 27.9265 145.417 26.5503C145.417 25.1741 146.532 24.0582 147.908 24.0581C148.652 24.0581 149.319 24.3866 149.776 24.9048V20.1958H169.083V24.9058Z" fill="#C99A69"/>
<path d="M169.517 3C172.304 3 174.564 5.25906 174.564 8.0459H178.05C180.115 8.0459 181.788 9.71972 181.789 11.7842H186.949C187.745 11.7842 188.391 12.4302 188.391 13.2266C188.391 17.0755 185.27 20.1953 181.421 20.1953H169.084V16.5137C168.629 17.121 167.907 17.5166 167.09 17.5166C165.715 17.5166 164.599 16.4006 164.599 15.0244C164.599 13.648 165.715 12.5322 167.09 12.5322C167.907 12.5322 168.629 12.9262 169.084 13.5332V3H169.517Z" fill="#C99A69"/>
<path d="M131.21 36.1828H124.401L123.366 39.315H117.755L124.755 20.1133H130.911L137.883 39.315H132.245L131.21 36.1828ZM129.876 32.0973L127.806 25.8874L125.763 32.0973H129.876Z" fill="white"/>
<path d="M108.799 39.5059C106.565 39.5059 104.732 38.9794 103.297 37.9262C101.863 36.8549 101.091 35.3297 100.982 33.3505H106.674C106.729 34.0223 106.929 34.5126 107.274 34.8213C107.619 35.1299 108.063 35.2843 108.608 35.2843C109.098 35.2843 109.498 35.1663 109.807 34.9302C110.133 34.676 110.297 34.331 110.297 33.8952C110.297 33.3323 110.034 32.8966 109.507 32.5879C108.98 32.2792 108.127 31.9342 106.947 31.5529C105.694 31.1353 104.677 30.7358 103.896 30.3545C103.134 29.955 102.462 29.383 101.881 28.6386C101.318 27.876 101.036 26.8864 101.036 25.6698C101.036 24.4351 101.345 23.3819 101.963 22.5104C102.58 21.6207 103.433 20.9488 104.523 20.4949C105.612 20.0409 106.847 19.814 108.227 19.814C110.46 19.814 112.24 20.3405 113.565 21.3937C114.909 22.4287 115.626 23.8904 115.717 25.7788H109.916C109.897 25.1977 109.716 24.7619 109.371 24.4714C109.044 24.1809 108.617 24.0356 108.091 24.0356C107.691 24.0356 107.364 24.1536 107.11 24.3897C106.856 24.6257 106.729 24.9617 106.729 25.3974C106.729 25.7606 106.865 26.0784 107.137 26.3507C107.428 26.6049 107.782 26.8319 108.2 27.0316C108.617 27.2132 109.235 27.4493 110.052 27.7398C111.268 28.1574 112.267 28.575 113.048 28.9927C113.847 29.3921 114.528 29.9641 115.09 30.7086C115.672 31.4349 115.962 32.3609 115.962 33.4867C115.962 34.6306 115.672 35.6565 115.09 36.5644C114.528 37.4723 113.701 38.1895 112.612 38.7161C111.541 39.2427 110.27 39.5059 108.799 39.5059Z" fill="white"/>
<path d="M98.7903 26.5139C98.7903 27.6759 98.5179 28.7382 97.9732 29.7005C97.4466 30.6447 96.6386 31.4073 95.5491 31.9884C94.4778 32.5513 93.1614 32.8327 91.5998 32.8327H88.9579V39.315H83.6196V20.1133H91.5998C93.1432 20.1133 94.4506 20.3856 95.5219 20.9304C96.6113 21.4751 97.4284 22.2286 97.9732 23.191C98.5179 24.1534 98.7903 25.261 98.7903 26.5139ZM91.0823 28.5838C92.5894 28.5838 93.343 27.8938 93.343 26.5139C93.343 25.1157 92.5894 24.4166 91.0823 24.4166H88.9579V28.5838H91.0823Z" fill="white"/>
<path d="M66.2933 34.9845H74.2736V39.3151H60.3013V35.2569L68.1999 24.4168H60.3013V20.1134H74.2736V24.1716L66.2933 34.9845ZM67.2466 18.4247C66.6293 18.4247 66.1118 18.225 65.6941 17.8255C65.2947 17.4079 65.0949 16.8904 65.0949 16.2731C65.0949 15.6375 65.2947 15.111 65.6941 14.6933C66.1118 14.2757 66.6293 14.0669 67.2466 14.0669C67.8821 14.0669 68.4087 14.2757 68.8263 14.6933C69.244 15.111 69.4528 15.6375 69.4528 16.2731C69.4528 16.8904 69.244 17.4079 68.8263 17.8255C68.4087 18.225 67.8821 18.4247 67.2466 18.4247Z" fill="white"/>
<path d="M47.6137 39.5056C45.8161 39.5056 44.1637 39.088 42.6566 38.2528C41.1496 37.3993 39.9512 36.2282 39.0614 34.7392C38.1899 33.2322 37.7541 31.5344 37.7541 29.646C37.7541 27.7576 38.1899 26.069 39.0614 24.58C39.9512 23.073 41.1496 21.9018 42.6566 21.0665C44.1637 20.2313 45.8161 19.8137 47.6137 19.8137C49.4294 19.8137 51.0818 20.2313 52.5707 21.0665C54.0778 21.9018 55.2671 23.073 56.1387 24.58C57.0102 26.069 57.446 27.7576 57.446 29.646C57.446 31.5344 57.0102 33.2322 56.1387 34.7392C55.2671 36.2282 54.0778 37.3993 52.5707 38.2528C51.0636 39.088 49.4113 39.5056 47.6137 39.5056ZM47.6137 34.5486C48.9755 34.5486 50.0468 34.1037 50.8276 33.214C51.6265 32.3243 52.026 31.135 52.026 29.646C52.026 28.1208 51.6265 26.9224 50.8276 26.0508C50.0468 25.1611 48.9755 24.7162 47.6137 24.7162C46.2337 24.7162 45.1533 25.1611 44.3725 26.0508C43.5918 26.9224 43.2014 28.1208 43.2014 29.646C43.2014 31.1531 43.5918 32.3515 44.3725 33.2412C45.1533 34.1128 46.2337 34.5486 47.6137 34.5486ZM50.9365 16.3274L44.1274 18.9966V15.3741L50.9365 12.2964V16.3274Z" fill="white"/>
<path d="M35.7751 35.2568V39.315H24.472V32.1246L22.8378 32.5876V27.9574L24.472 27.4944V20.1133H29.8376V25.9691L31.9893 25.3427V29.9729L29.8376 30.5993V35.2568H35.7751Z" fill="white"/>
<path d="M9.3111 20.1133V31.253C9.3111 32.288 9.54715 33.0869 10.0192 33.6498C10.5095 34.2127 11.2449 34.4941 12.2254 34.4941C13.2059 34.4941 13.9413 34.2127 14.4315 33.6498C14.94 33.0688 15.1942 32.2698 15.1942 31.253V20.1133H20.5325V31.253C20.5325 33.0143 20.1603 34.5214 19.4158 35.7743C18.6713 37.009 17.6545 37.9441 16.3653 38.5796C15.0943 39.197 13.678 39.5057 12.1165 39.5057C10.5549 39.5057 9.15676 39.197 7.92204 38.5796C6.70548 37.9441 5.74313 37.009 5.03498 35.7743C4.34499 34.5395 4 33.0325 4 31.253V20.1133H9.3111Z" fill="white"/>
</svg>
