<svg width="1784" height="354" viewBox="0 0 1784 354" fill="none" xmlns="http://www.w3.org/2000/svg">
<path d="M1597.13 211.411C1592.72 206.416 1586.28 203.265 1579.09 203.265C1565.81 203.265 1555.05 214.034 1555.05 227.319C1555.05 240.604 1565.81 251.374 1579.09 251.374C1586.28 251.374 1592.72 248.222 1597.13 243.227V352.403H1519.86C1524.85 347.996 1528 341.548 1528 334.364C1528 321.079 1517.23 310.31 1503.95 310.31C1490.67 310.31 1479.91 321.079 1479.91 334.364C1479.91 341.548 1483.06 347.996 1488.05 352.403H1410.77V243.224C1406.37 248.219 1399.92 251.371 1392.74 251.371C1379.46 251.371 1368.69 240.6 1368.69 227.315C1368.69 214.031 1379.46 203.261 1392.74 203.261C1399.92 203.261 1406.37 206.412 1410.77 211.406V165.979H1597.13V211.411Z" fill="#C99A69"/>
<path d="M1601.32 0C1628.22 4.33242e-05 1650.03 21.8086 1650.03 48.7109H1683.68C1703.61 48.7109 1719.77 64.8647 1719.77 84.792H1771.49C1778.12 84.792 1783.49 90.1646 1783.49 96.792V107.978C1783.49 140.01 1757.52 165.978 1725.49 165.978H1597.13V130.494C1592.74 136.337 1585.76 140.117 1577.89 140.117C1564.61 140.117 1553.85 129.347 1553.85 116.062C1553.85 102.777 1564.61 92.007 1577.89 92.0068C1585.76 92.0068 1592.74 95.7865 1597.13 101.629V0H1601.32Z" fill="#C99A69"/>
<path d="M1233.03 321.641H1167.03L1157 352.001H1102.61L1170.46 165.881H1230.12L1297.71 352.001H1243.06L1233.03 321.641ZM1220.09 282.041L1200.03 221.849L1180.23 282.041H1220.09Z" fill="black"/>
<path d="M1015.8 353.849C994.149 353.849 976.373 348.745 962.469 338.537C948.565 328.153 941.085 313.369 940.029 294.185H995.205C995.733 300.697 997.669 305.449 1001.01 308.441C1004.36 311.433 1008.67 312.929 1013.95 312.929C1018.7 312.929 1022.57 311.785 1025.57 309.497C1028.73 307.033 1030.32 303.689 1030.32 299.465C1030.32 294.009 1027.77 289.785 1022.66 286.793C1017.56 283.801 1009.29 280.457 997.845 276.761C985.701 272.713 975.845 268.841 968.277 265.145C960.885 261.273 954.373 255.729 948.741 248.513C943.285 241.121 940.557 231.529 940.557 219.737C940.557 207.769 943.549 197.561 949.533 189.113C955.517 180.489 963.789 173.977 974.349 169.577C984.909 165.177 996.877 162.977 1010.25 162.977C1031.9 162.977 1049.15 168.081 1062 178.289C1075.02 188.321 1081.97 202.489 1082.85 220.793H1026.62C1026.45 215.161 1024.69 210.937 1021.34 208.121C1018.17 205.305 1014.04 203.897 1008.93 203.897C1005.06 203.897 1001.89 205.041 999.429 207.329C996.965 209.617 995.733 212.873 995.733 217.097C995.733 220.617 997.053 223.697 999.693 226.337C1002.51 228.801 1005.94 231.001 1009.99 232.937C1014.04 234.697 1020.02 236.985 1027.94 239.801C1039.73 243.849 1049.41 247.897 1056.98 251.945C1064.73 255.817 1071.33 261.361 1076.78 268.577C1082.41 275.617 1085.23 284.593 1085.23 295.505C1085.23 306.593 1082.41 316.537 1076.78 325.337C1071.33 334.137 1063.32 341.089 1052.76 346.193C1042.37 351.297 1030.05 353.849 1015.8 353.849Z" fill="black"/>
<path d="M918.785 227.921C918.785 239.185 916.145 249.481 910.865 258.809C905.761 267.961 897.929 275.353 887.369 280.985C876.985 286.441 864.225 289.169 849.089 289.169H823.481V352.001H771.737V165.881H849.089C864.049 165.881 876.721 168.521 887.105 173.801C897.665 179.081 905.585 186.385 910.865 195.713C916.145 205.041 918.785 215.777 918.785 227.921ZM844.073 247.985C858.681 247.985 865.985 241.297 865.985 227.921C865.985 214.369 858.681 207.593 844.073 207.593H823.481V247.985H844.073Z" fill="black"/>
<path d="M603.796 310.023H681.148V351.999H545.716V312.663L622.276 207.591H545.716V165.879H681.148V205.215L603.796 310.023ZM613.036 149.511C607.052 149.511 602.036 147.575 597.988 143.703C594.116 139.655 592.18 134.639 592.18 128.655C592.18 122.495 594.116 117.391 597.988 113.343C602.036 109.295 607.052 107.271 613.036 107.271C619.196 107.271 624.3 109.295 628.348 113.343C632.396 117.391 634.42 122.495 634.42 128.655C634.42 134.639 632.396 139.655 628.348 143.703C624.3 147.575 619.196 149.511 613.036 149.511Z" fill="black"/>
<path d="M422.735 353.847C405.311 353.847 389.295 349.799 374.687 341.703C360.079 333.431 348.463 322.079 339.839 307.647C331.391 293.039 327.167 276.583 327.167 258.279C327.167 239.975 331.391 223.607 339.839 209.175C348.463 194.567 360.079 183.215 374.687 175.119C389.295 167.023 405.311 162.975 422.735 162.975C440.335 162.975 456.351 167.023 470.783 175.119C485.391 183.215 496.919 194.567 505.367 209.175C513.815 223.607 518.039 239.975 518.039 258.279C518.039 276.583 513.815 293.039 505.367 307.647C496.919 322.079 485.391 333.431 470.783 341.703C456.175 349.799 440.159 353.847 422.735 353.847ZM422.735 305.799C435.935 305.799 446.319 301.487 453.887 292.863C461.631 284.239 465.503 272.711 465.503 258.279C465.503 243.495 461.631 231.879 453.887 223.431C446.319 214.807 435.935 210.495 422.735 210.495C409.359 210.495 398.887 214.807 391.319 223.431C383.751 231.879 379.967 243.495 379.967 258.279C379.967 272.887 383.751 284.503 391.319 293.127C398.887 301.575 409.359 305.799 422.735 305.799ZM454.943 129.183L388.943 155.055V119.943L454.943 90.1113V129.183Z" fill="black"/>
<path d="M307.985 312.665V352.001H198.425V282.305L182.585 286.793V241.913L198.425 237.425V165.881H250.433V222.641L271.289 216.569V261.449L250.433 267.521V312.665H307.985Z" fill="black"/>
<path d="M51.4722 165.881V273.857C51.4722 283.889 53.7602 291.633 58.3362 297.089C63.0882 302.545 70.2162 305.273 79.7202 305.273C89.2242 305.273 96.3522 302.545 101.104 297.089C106.032 291.457 108.496 283.713 108.496 273.857V165.881H160.24V273.857C160.24 290.929 156.632 305.537 149.416 317.681C142.2 329.649 132.344 338.713 119.848 344.873C107.528 350.857 93.8002 353.849 78.6642 353.849C63.5282 353.849 49.9762 350.857 38.0082 344.873C26.2162 338.713 16.8882 329.649 10.0242 317.681C3.33619 305.713 -0.0078125 291.105 -0.0078125 273.857V165.881H51.4722Z" fill="black"/>
</svg>
