<svg width="480" height="480" viewBox="0 0 480 480" fill="none" xmlns="http://www.w3.org/2000/svg">
<mask id="path-1-inside-1_148_4721" fill="white">
<path d="M169.76 360C166.545 362.837 164.517 366.988 164.517 371.613C164.517 380.165 171.449 387.097 180 387.097C188.551 387.097 195.483 380.165 195.483 371.613C195.483 366.988 193.455 362.837 190.24 360H240V409.76C237.163 406.545 233.012 404.517 228.387 404.517C219.835 404.517 212.903 411.449 212.903 420C212.903 428.551 219.835 435.483 228.387 435.483C233.012 435.483 237.163 433.455 240 430.239V480H190.24C193.455 477.163 195.483 473.012 195.483 468.387C195.483 459.835 188.551 452.903 180 452.903C171.449 452.903 164.517 459.835 164.517 468.387C164.517 473.012 166.545 477.163 169.76 480H120V430.239C122.837 433.455 126.988 435.483 131.613 435.483C140.165 435.483 147.097 428.551 147.097 420C147.097 411.449 140.165 404.517 131.613 404.517C126.988 404.517 122.837 406.545 120 409.76V360H169.76Z"/>
</mask>
<path d="M169.76 360C166.545 362.837 164.517 366.988 164.517 371.613C164.517 380.165 171.449 387.097 180 387.097C188.551 387.097 195.483 380.165 195.483 371.613C195.483 366.988 193.455 362.837 190.24 360H240V409.76C237.163 406.545 233.012 404.517 228.387 404.517C219.835 404.517 212.903 411.449 212.903 420C212.903 428.551 219.835 435.483 228.387 435.483C233.012 435.483 237.163 433.455 240 430.239V480H190.24C193.455 477.163 195.483 473.012 195.483 468.387C195.483 459.835 188.551 452.903 180 452.903C171.449 452.903 164.517 459.835 164.517 468.387C164.517 473.012 166.545 477.163 169.76 480H120V430.239C122.837 433.455 126.988 435.483 131.613 435.483C140.165 435.483 147.097 428.551 147.097 420C147.097 411.449 140.165 404.517 131.613 404.517C126.988 404.517 122.837 406.545 120 409.76V360H169.76Z" fill="#F9F3ED"/>
<path d="M169.76 360L170.421 360.75L172.404 359H169.76V360ZM164.517 371.613L163.517 371.613L163.517 371.613L164.517 371.613ZM180 387.097L180 388.097H180L180 387.097ZM195.483 371.613L196.483 371.613L196.483 371.613L195.483 371.613ZM190.24 360V359H187.596L189.579 360.75L190.24 360ZM240 360H241V359H240V360ZM240 409.76L239.25 410.421L241 412.404V409.76H240ZM228.387 404.517L228.387 403.517L228.387 403.517L228.387 404.517ZM228.387 435.483L228.387 436.483H228.387V435.483ZM240 430.239H241V427.595L239.25 429.578L240 430.239ZM240 480V481H241V480H240ZM190.24 480L189.579 479.25L187.596 481H190.24V480ZM195.483 468.387L196.483 468.387L196.483 468.387L195.483 468.387ZM180 452.903L180 451.903L180 452.903ZM164.517 468.387L163.517 468.387L163.517 468.387L164.517 468.387ZM169.76 480V481H172.404L170.421 479.25L169.76 480ZM120 480H119V481H120V480ZM120 430.239L120.75 429.578L119 427.595V430.239H120ZM131.613 435.483L131.613 436.483L131.613 436.483L131.613 435.483ZM131.613 404.517L131.613 403.517H131.613V404.517ZM120 409.76H119V412.404L120.75 410.421L120 409.76ZM120 360V359H119V360H120ZM169.76 360L169.098 359.25C165.677 362.269 163.517 366.689 163.517 371.613L164.517 371.613L165.517 371.613C165.517 367.287 167.412 363.405 170.421 360.75L169.76 360ZM164.517 371.613L163.517 371.613C163.517 380.717 170.896 388.097 180 388.097L180 387.097L180 386.097C172.001 386.097 165.517 379.612 165.517 371.613L164.517 371.613ZM180 387.097L180 388.097C189.104 388.097 196.483 380.717 196.483 371.613L195.483 371.613L194.483 371.613C194.483 379.612 187.999 386.097 180 386.097L180 387.097ZM195.483 371.613L196.483 371.613C196.483 366.689 194.323 362.269 190.902 359.25L190.24 360L189.579 360.75C192.588 363.405 194.483 367.287 194.483 371.613L195.483 371.613ZM190.24 360V361H240V360V359H190.24V360ZM240 360H239V409.76H240H241V360H240ZM240 409.76L240.75 409.098C237.731 405.677 233.311 403.517 228.387 403.517V404.517V405.517C232.713 405.517 236.595 407.412 239.25 410.421L240 409.76ZM228.387 404.517L228.387 403.517C219.283 403.517 211.903 410.896 211.903 420H212.903H213.903C213.903 412.001 220.388 405.517 228.387 405.517L228.387 404.517ZM212.903 420H211.903C211.903 429.104 219.283 436.483 228.387 436.483L228.387 435.483L228.387 434.483C220.388 434.483 213.903 427.999 213.903 420H212.903ZM228.387 435.483V436.483C233.311 436.483 237.731 434.322 240.75 430.901L240 430.239L239.25 429.578C236.595 432.587 232.713 434.483 228.387 434.483V435.483ZM240 430.239H239V480H240H241V430.239H240ZM240 480V479H190.24V480V481H240V480ZM190.24 480L190.902 480.75C194.323 477.731 196.483 473.311 196.483 468.387L195.483 468.387L194.483 468.387C194.483 472.713 192.588 476.595 189.579 479.25L190.24 480ZM195.483 468.387L196.483 468.387C196.483 459.283 189.104 451.903 180 451.903L180 452.903L180 453.903C187.999 453.903 194.483 460.388 194.483 468.387L195.483 468.387ZM180 452.903L180 451.903C170.896 451.903 163.517 459.283 163.517 468.387L164.517 468.387L165.517 468.387C165.517 460.388 172.001 453.903 180 453.903L180 452.903ZM164.517 468.387L163.517 468.387C163.517 473.311 165.677 477.731 169.098 480.75L169.76 480L170.421 479.25C167.412 476.595 165.517 472.713 165.517 468.387L164.517 468.387ZM169.76 480V479H120V480V481H169.76V480ZM120 480H121V430.239H120H119V480H120ZM120 430.239L119.25 430.901C122.269 434.322 126.689 436.483 131.613 436.483V435.483V434.483C127.287 434.483 123.405 432.587 120.75 429.578L120 430.239ZM131.613 435.483L131.613 436.483C140.717 436.483 148.097 429.104 148.097 420H147.097H146.097C146.097 427.999 139.612 434.483 131.613 434.483L131.613 435.483ZM147.097 420H148.097C148.097 410.896 140.717 403.517 131.613 403.517L131.613 404.517L131.613 405.517C139.612 405.517 146.097 412.001 146.097 420H147.097ZM131.613 404.517V403.517C126.689 403.517 122.269 405.677 119.25 409.098L120 409.76L120.75 410.421C123.405 407.412 127.287 405.517 131.613 405.517V404.517ZM120 409.76H121V360H120H119V409.76H120ZM120 360V361H169.76V360V359H120V360Z" fill="#C99A69" fill-opacity="0.25" mask="url(#path-1-inside-1_148_4721)"/>
<mask id="path-3-inside-2_148_4721" fill="white">
<path d="M387.097 300C387.097 308.551 380.165 315.483 371.613 315.483C366.988 315.483 362.837 313.455 360 310.24L360 360L310.24 360C313.455 357.163 315.483 353.012 315.483 348.387C315.483 339.835 308.551 332.903 300 332.903C291.449 332.903 284.516 339.835 284.516 348.387C284.516 353.012 286.545 357.163 289.761 360L240 360L240 310.24C237.163 313.455 233.012 315.483 228.387 315.483C219.835 315.483 212.903 308.551 212.903 300C212.903 291.449 219.835 284.517 228.387 284.517C233.012 284.517 237.163 286.545 240 289.76L240 240L289.761 240C286.545 242.837 284.516 246.988 284.516 251.613C284.516 260.165 291.449 267.097 300 267.097C308.551 267.097 315.483 260.165 315.483 251.613C315.483 246.988 313.455 242.837 310.24 240L360 240L360 289.76C362.837 286.545 366.988 284.517 371.613 284.517C380.165 284.517 387.097 291.449 387.097 300Z"/>
</mask>
<path d="M387.097 300C387.097 308.551 380.165 315.483 371.613 315.483C366.988 315.483 362.837 313.455 360 310.24L360 360L310.24 360C313.455 357.163 315.483 353.012 315.483 348.387C315.483 339.835 308.551 332.903 300 332.903C291.449 332.903 284.516 339.835 284.516 348.387C284.516 353.012 286.545 357.163 289.761 360L240 360L240 310.24C237.163 313.455 233.012 315.483 228.387 315.483C219.835 315.483 212.903 308.551 212.903 300C212.903 291.449 219.835 284.517 228.387 284.517C233.012 284.517 237.163 286.545 240 289.76L240 240L289.761 240C286.545 242.837 284.516 246.988 284.516 251.613C284.516 260.165 291.449 267.097 300 267.097C308.551 267.097 315.483 260.165 315.483 251.613C315.483 246.988 313.455 242.837 310.24 240L360 240L360 289.76C362.837 286.545 366.988 284.517 371.613 284.517C380.165 284.517 387.097 291.449 387.097 300Z" fill="#F9F3ED"/>
<path d="M387.097 300L388.097 300V300L387.097 300ZM371.613 315.483L371.613 316.483L371.613 316.483L371.613 315.483ZM360 310.24L360.75 309.579L359 307.596L359 310.24L360 310.24ZM360 360L360 361L361 361L361 360L360 360ZM310.24 360L309.579 359.25L307.596 361L310.24 361L310.24 360ZM315.483 348.387L316.483 348.387L316.483 348.387L315.483 348.387ZM300 332.903L300 331.903L300 331.903L300 332.903ZM284.516 348.387L283.516 348.387L283.516 348.387L284.516 348.387ZM289.761 360L289.761 361L292.405 361L290.422 359.25L289.761 360ZM240 360L239 360L239 361L240 361L240 360ZM240 310.24L241 310.24L241 307.596L239.25 309.579L240 310.24ZM228.387 315.483L228.387 316.483L228.387 316.483L228.387 315.483ZM212.903 300L211.903 300V300L212.903 300ZM228.387 284.517L228.387 283.517L228.387 283.517L228.387 284.517ZM240 289.76L239.25 290.421L241 292.404L241 289.76L240 289.76ZM240 240L240 239L239 239L239 240L240 240ZM289.761 240L290.422 240.75L292.405 239L289.761 239L289.761 240ZM284.516 251.613L283.516 251.613L283.516 251.613L284.516 251.613ZM300 267.097L300 268.097L300 268.097L300 267.097ZM315.483 251.613L316.483 251.613L316.483 251.613L315.483 251.613ZM310.24 240L310.24 239L307.596 239L309.579 240.75L310.24 240ZM360 240L361 240L361 239L360 239L360 240ZM360 289.76L359 289.76L359 292.404L360.75 290.421L360 289.76ZM371.613 284.517L371.613 283.517L371.613 283.517L371.613 284.517ZM387.097 300L386.097 300C386.097 307.999 379.612 314.483 371.613 314.483L371.613 315.483L371.613 316.483C380.717 316.483 388.097 309.104 388.097 300L387.097 300ZM371.613 315.483L371.613 314.483C367.287 314.483 363.405 312.588 360.75 309.579L360 310.24L359.25 310.902C362.269 314.323 366.689 316.483 371.613 316.483L371.613 315.483ZM360 310.24L359 310.24L359 360L360 360L361 360L361 310.24L360 310.24ZM360 360L360 359L310.24 359L310.24 360L310.24 361L360 361L360 360ZM310.24 360L310.902 360.75C314.323 357.731 316.483 353.311 316.483 348.387L315.483 348.387L314.483 348.387C314.483 352.713 312.588 356.595 309.579 359.25L310.24 360ZM315.483 348.387L316.483 348.387C316.483 339.283 309.104 331.903 300 331.903L300 332.903L300 333.903C307.999 333.903 314.483 340.388 314.483 348.387L315.483 348.387ZM300 332.903L300 331.903C290.896 331.903 283.516 339.283 283.516 348.387L284.516 348.387L285.516 348.387C285.516 340.388 292.001 333.903 300 333.903L300 332.903ZM284.516 348.387L283.516 348.387C283.516 353.311 285.678 357.731 289.099 360.75L289.761 360L290.422 359.25C287.413 356.594 285.516 352.713 285.516 348.387L284.516 348.387ZM289.761 360L289.761 359L240 359L240 360L240 361L289.761 361L289.761 360ZM240 360L241 360L241 310.24L240 310.24L239 310.24L239 360L240 360ZM240 310.24L239.25 309.579C236.595 312.588 232.713 314.483 228.387 314.483L228.387 315.483L228.387 316.483C233.311 316.483 237.731 314.323 240.75 310.902L240 310.24ZM228.387 315.483L228.387 314.483C220.388 314.483 213.903 307.999 213.903 300L212.903 300L211.903 300C211.903 309.104 219.283 316.483 228.387 316.483L228.387 315.483ZM212.903 300L213.903 300C213.903 292.001 220.388 285.517 228.387 285.517L228.387 284.517L228.387 283.517C219.283 283.517 211.903 290.896 211.903 300L212.903 300ZM228.387 284.517L228.387 285.517C232.713 285.517 236.595 287.412 239.25 290.421L240 289.76L240.75 289.098C237.731 285.677 233.311 283.517 228.387 283.517L228.387 284.517ZM240 289.76L241 289.76L241 240L240 240L239 240L239 289.76L240 289.76ZM240 240L240 241L289.761 241L289.761 240L289.761 239L240 239L240 240ZM289.761 240L289.099 239.25C285.678 242.269 283.516 246.689 283.516 251.613L284.516 251.613L285.516 251.613C285.516 247.287 287.413 243.405 290.422 240.75L289.761 240ZM284.516 251.613L283.516 251.613C283.516 260.717 290.896 268.097 300 268.097L300 267.097L300 266.097C292.001 266.097 285.516 259.612 285.516 251.613L284.516 251.613ZM300 267.097L300 268.097C309.104 268.097 316.483 260.717 316.483 251.613L315.483 251.613L314.483 251.613C314.483 259.612 307.999 266.097 300 266.097L300 267.097ZM315.483 251.613L316.483 251.613C316.483 246.689 314.323 242.269 310.902 239.25L310.24 240L309.579 240.75C312.588 243.405 314.483 247.287 314.483 251.613L315.483 251.613ZM310.24 240L310.24 241L360 241L360 240L360 239L310.24 239L310.24 240ZM360 240L359 240L359 289.76L360 289.76L361 289.76L361 240L360 240ZM360 289.76L360.75 290.421C363.405 287.412 367.287 285.517 371.613 285.517L371.613 284.517L371.613 283.517C366.689 283.517 362.269 285.677 359.25 289.098L360 289.76ZM371.613 284.517L371.613 285.517C379.612 285.517 386.097 292.001 386.097 300L387.097 300L388.097 300C388.097 290.896 380.717 283.517 371.613 283.517L371.613 284.517Z" fill="#C99A69" fill-opacity="0.25" mask="url(#path-3-inside-2_148_4721)"/>
<mask id="path-5-inside-3_148_4721" fill="white">
<path d="M60 212.903C68.5513 212.903 75.4831 219.835 75.4834 228.387C75.4834 233.012 73.4553 237.163 70.2402 240H120V289.76C117.163 286.545 113.012 284.517 108.387 284.517C99.8354 284.517 92.9034 291.449 92.9033 300C92.9033 308.551 99.8354 315.484 108.387 315.484C113.012 315.484 117.163 313.455 120 310.239V360H70.2402C73.4553 362.837 75.4834 366.988 75.4834 371.613C75.4832 380.165 68.5514 387.097 60 387.097C51.4486 387.097 44.5168 380.165 44.5166 371.613C44.5166 366.988 46.5447 362.837 49.7598 360H0V310.239C2.83724 313.455 6.98793 315.484 11.6133 315.484C20.1646 315.484 27.0967 308.551 27.0967 300C27.0966 291.449 20.1646 284.517 11.6133 284.517C6.98824 284.517 2.83722 286.545 0 289.76V240H49.7598C46.5447 237.163 44.5166 233.012 44.5166 228.387C44.5169 219.835 51.4487 212.903 60 212.903Z"/>
</mask>
<path d="M60 212.903C68.5513 212.903 75.4831 219.835 75.4834 228.387C75.4834 233.012 73.4553 237.163 70.2402 240H120V289.76C117.163 286.545 113.012 284.517 108.387 284.517C99.8354 284.517 92.9034 291.449 92.9033 300C92.9033 308.551 99.8354 315.484 108.387 315.484C113.012 315.484 117.163 313.455 120 310.239V360H70.2402C73.4553 362.837 75.4834 366.988 75.4834 371.613C75.4832 380.165 68.5514 387.097 60 387.097C51.4486 387.097 44.5168 380.165 44.5166 371.613C44.5166 366.988 46.5447 362.837 49.7598 360H0V310.239C2.83724 313.455 6.98793 315.484 11.6133 315.484C20.1646 315.484 27.0967 308.551 27.0967 300C27.0966 291.449 20.1646 284.517 11.6133 284.517C6.98824 284.517 2.83722 286.545 0 289.76V240H49.7598C46.5447 237.163 44.5166 233.012 44.5166 228.387C44.5169 219.835 51.4487 212.903 60 212.903Z" fill="#F9F3ED"/>
<path d="M75.4834 228.387L76.4834 228.387L76.4834 228.387L75.4834 228.387ZM70.2402 240L69.5786 239.25L67.5958 241H70.2402V240ZM120 240H121V239H120V240ZM120 289.76L119.25 290.421L121 292.404V289.76H120ZM108.387 284.517L108.387 283.517L108.387 283.517L108.387 284.517ZM92.9033 300L91.9033 300V300H92.9033ZM108.387 315.484L108.387 316.484H108.387V315.484ZM120 310.239H121V307.595L119.25 309.578L120 310.239ZM120 360V361H121V360H120ZM70.2402 360V359H67.5957L69.5786 360.75L70.2402 360ZM75.4834 371.613L76.4834 371.613V371.613H75.4834ZM44.5166 371.613L43.5166 371.613L43.5166 371.613L44.5166 371.613ZM49.7598 360L50.4214 360.75L52.4043 359H49.7598V360ZM0 360H-1V361H0V360ZM0 310.239L0.749826 309.578L-1 307.595V310.239H0ZM11.6133 315.484L11.6133 316.484L11.6133 316.484L11.6133 315.484ZM27.0967 300L28.0967 300L28.0967 300L27.0967 300ZM11.6133 284.517L11.6133 283.517H11.6133V284.517ZM0 289.76H-1V292.404L0.749789 290.421L0 289.76ZM0 240V239H-1V240H0ZM49.7598 240V241H52.4042L50.4214 239.25L49.7598 240ZM44.5166 228.387L43.5166 228.387V228.387H44.5166ZM60 212.903V213.903C67.999 213.903 74.4832 220.388 74.4834 228.387L75.4834 228.387L76.4834 228.387C76.4831 219.283 69.1037 211.903 60 211.903V212.903ZM75.4834 228.387H74.4834C74.4834 232.713 72.5877 236.595 69.5786 239.25L70.2402 240L70.9019 240.75C74.3229 237.731 76.4834 233.311 76.4834 228.387H75.4834ZM70.2402 240V241H120V240V239H70.2402V240ZM120 240H119V289.76H120H121V240H120ZM120 289.76L120.75 289.098C117.731 285.677 113.311 283.517 108.387 283.517V284.517V285.517C112.713 285.517 116.595 287.412 119.25 290.421L120 289.76ZM108.387 284.517L108.387 283.517C99.2831 283.517 91.9034 290.896 91.9033 300L92.9033 300L93.9033 300C93.9034 292.001 100.388 285.517 108.387 285.517L108.387 284.517ZM92.9033 300H91.9033C91.9033 309.104 99.283 316.484 108.387 316.484L108.387 315.484L108.387 314.484C100.388 314.484 93.9033 307.999 93.9033 300H92.9033ZM108.387 315.484V316.484C113.311 316.484 117.731 314.322 120.75 310.901L120 310.239L119.25 309.578C116.594 312.587 112.713 314.484 108.387 314.484V315.484ZM120 310.239H119V360H120H121V310.239H120ZM120 360V359H70.2402V360V361H120V360ZM70.2402 360L69.5786 360.75C72.5877 363.405 74.4834 367.287 74.4834 371.613H75.4834H76.4834C76.4834 366.689 74.3229 362.269 70.9019 359.25L70.2402 360ZM75.4834 371.613L74.4834 371.613C74.4833 379.612 67.9991 386.097 60 386.097V387.097V388.097C69.1037 388.097 76.4832 380.717 76.4834 371.613L75.4834 371.613ZM60 387.097V386.097C52.0009 386.097 45.5167 379.612 45.5166 371.613L44.5166 371.613L43.5166 371.613C43.5168 380.717 50.8963 388.097 60 388.097V387.097ZM44.5166 371.613H45.5166C45.5166 367.287 47.4123 363.405 50.4214 360.75L49.7598 360L49.0981 359.25C45.6771 362.269 43.5166 366.689 43.5166 371.613H44.5166ZM49.7598 360V359H0V360V361H49.7598V360ZM0 360H1V310.239H0H-1V360H0ZM0 310.239L-0.749826 310.901C2.26897 314.322 6.68876 316.484 11.6133 316.484V315.484V314.484C7.2871 314.484 3.4055 312.587 0.749826 309.578L0 310.239ZM11.6133 315.484L11.6133 316.484C20.717 316.484 28.0967 309.104 28.0967 300H27.0967H26.0967C26.0967 307.999 19.6123 314.484 11.6133 314.484L11.6133 315.484ZM27.0967 300L28.0967 300C28.0966 290.896 20.7169 283.517 11.6133 283.517L11.6133 284.517L11.6133 285.517C19.6123 285.517 26.0966 292.001 26.0967 300L27.0967 300ZM11.6133 284.517V283.517C6.68932 283.517 2.26916 285.677 -0.749789 289.098L0 289.76L0.749789 290.421C3.40529 287.412 7.28716 285.517 11.6133 285.517V284.517ZM0 289.76H1V240H0H-1V289.76H0ZM0 240V241H49.7598V240V239H0V240ZM49.7598 240L50.4214 239.25C47.4123 236.595 45.5166 232.713 45.5166 228.387H44.5166H43.5166C43.5166 233.311 45.6771 237.731 49.0981 240.75L49.7598 240ZM44.5166 228.387L45.5166 228.387C45.5168 220.388 52.001 213.903 60 213.903V212.903V211.903C50.8963 211.903 43.5169 219.283 43.5166 228.387L44.5166 228.387Z" fill="#C99A69" fill-opacity="0.25" mask="url(#path-5-inside-3_148_4721)"/>
<mask id="path-7-inside-4_148_4721" fill="white">
<path d="M420 92.9033C428.551 92.9033 435.483 99.8354 435.483 108.387C435.483 113.012 433.455 117.163 430.24 120H480V169.76C477.163 166.545 473.012 164.517 468.387 164.517C459.835 164.517 452.903 171.449 452.903 180C452.903 188.551 459.835 195.484 468.387 195.484C473.012 195.484 477.163 193.455 480 190.239V240H430.24C433.455 242.837 435.483 246.988 435.483 251.613C435.483 260.165 428.551 267.097 420 267.097C411.449 267.097 404.517 260.165 404.517 251.613C404.517 246.988 406.545 242.837 409.76 240H360V190.239C362.837 193.455 366.988 195.484 371.613 195.484C380.165 195.484 387.097 188.551 387.097 180C387.097 171.449 380.165 164.517 371.613 164.517C366.988 164.517 362.837 166.545 360 169.76V120H409.76C406.545 117.163 404.517 113.012 404.517 108.387C404.517 99.8354 411.449 92.9033 420 92.9033Z"/>
</mask>
<path d="M420 92.9033C428.551 92.9033 435.483 99.8354 435.483 108.387C435.483 113.012 433.455 117.163 430.24 120H480V169.76C477.163 166.545 473.012 164.517 468.387 164.517C459.835 164.517 452.903 171.449 452.903 180C452.903 188.551 459.835 195.484 468.387 195.484C473.012 195.484 477.163 193.455 480 190.239V240H430.24C433.455 242.837 435.483 246.988 435.483 251.613C435.483 260.165 428.551 267.097 420 267.097C411.449 267.097 404.517 260.165 404.517 251.613C404.517 246.988 406.545 242.837 409.76 240H360V190.239C362.837 193.455 366.988 195.484 371.613 195.484C380.165 195.484 387.097 188.551 387.097 180C387.097 171.449 380.165 164.517 371.613 164.517C366.988 164.517 362.837 166.545 360 169.76V120H409.76C406.545 117.163 404.517 113.012 404.517 108.387C404.517 99.8354 411.449 92.9033 420 92.9033Z" fill="#F9F3ED"/>
<path d="M435.483 108.387L436.483 108.387L436.483 108.387L435.483 108.387ZM430.24 120L429.579 119.25L427.596 121H430.24V120ZM480 120H481V119H480V120ZM480 169.76L479.25 170.421L481 172.404V169.76H480ZM468.387 164.517L468.387 163.517L468.387 163.517L468.387 164.517ZM452.903 180L451.903 180V180H452.903ZM468.387 195.484L468.387 196.484H468.387V195.484ZM480 190.239H481V187.595L479.25 189.578L480 190.239ZM480 240V241H481V240H480ZM430.24 240V239H427.596L429.579 240.75L430.24 240ZM435.483 251.613L436.483 251.613V251.613H435.483ZM404.517 251.613L403.517 251.613L403.517 251.613L404.517 251.613ZM409.76 240L410.421 240.75L412.404 239H409.76V240ZM360 240H359V241H360V240ZM360 190.239L360.75 189.578L359 187.595V190.239H360ZM371.613 195.484L371.613 196.484L371.613 196.484L371.613 195.484ZM387.097 180L388.097 180L388.097 180L387.097 180ZM371.613 164.517L371.613 163.517H371.613V164.517ZM360 169.76H359V172.404L360.75 170.421L360 169.76ZM360 120V119H359V120H360ZM409.76 120V121H412.404L410.421 119.25L409.76 120ZM404.517 108.387L403.517 108.387V108.387H404.517ZM420 92.9033V93.9033C427.999 93.9033 434.483 100.388 434.483 108.387L435.483 108.387L436.483 108.387C436.483 99.2832 429.104 91.9033 420 91.9033V92.9033ZM435.483 108.387H434.483C434.483 112.713 432.588 116.595 429.579 119.25L430.24 120L430.902 120.75C434.323 117.731 436.483 113.311 436.483 108.387H435.483ZM430.24 120V121H480V120V119H430.24V120ZM480 120H479V169.76H480H481V120H480ZM480 169.76L480.75 169.098C477.731 165.677 473.311 163.517 468.387 163.517V164.517V165.517C472.713 165.517 476.595 167.412 479.25 170.421L480 169.76ZM468.387 164.517L468.387 163.517C459.283 163.517 451.903 170.896 451.903 180L452.903 180L453.903 180C453.903 172.001 460.388 165.517 468.387 165.517L468.387 164.517ZM452.903 180H451.903C451.903 189.104 459.283 196.484 468.387 196.484L468.387 195.484L468.387 194.484C460.388 194.484 453.903 187.999 453.903 180H452.903ZM468.387 195.484V196.484C473.311 196.484 477.731 194.322 480.75 190.901L480 190.239L479.25 189.578C476.594 192.587 472.713 194.484 468.387 194.484V195.484ZM480 190.239H479V240H480H481V190.239H480ZM480 240V239H430.24V240V241H480V240ZM430.24 240L429.579 240.75C432.588 243.405 434.483 247.287 434.483 251.613H435.483H436.483C436.483 246.689 434.323 242.269 430.902 239.25L430.24 240ZM435.483 251.613L434.483 251.613C434.483 259.612 427.999 266.097 420 266.097V267.097V268.097C429.104 268.097 436.483 260.717 436.483 251.613L435.483 251.613ZM420 267.097V266.097C412.001 266.097 405.517 259.612 405.517 251.613L404.517 251.613L403.517 251.613C403.517 260.717 410.896 268.097 420 268.097V267.097ZM404.517 251.613H405.517C405.517 247.287 407.412 243.405 410.421 240.75L409.76 240L409.098 239.25C405.677 242.269 403.517 246.689 403.517 251.613H404.517ZM409.76 240V239H360V240V241H409.76V240ZM360 240H361V190.239H360H359V240H360ZM360 190.239L359.25 190.901C362.269 194.322 366.689 196.484 371.613 196.484V195.484V194.484C367.287 194.484 363.406 192.587 360.75 189.578L360 190.239ZM371.613 195.484L371.613 196.484C380.717 196.484 388.097 189.104 388.097 180H387.097H386.097C386.097 187.999 379.612 194.484 371.613 194.484L371.613 195.484ZM387.097 180L388.097 180C388.097 170.896 380.717 163.517 371.613 163.517L371.613 164.517L371.613 165.517C379.612 165.517 386.097 172.001 386.097 180L387.097 180ZM371.613 164.517V163.517C366.689 163.517 362.269 165.677 359.25 169.098L360 169.76L360.75 170.421C363.405 167.412 367.287 165.517 371.613 165.517V164.517ZM360 169.76H361V120H360H359V169.76H360ZM360 120V121H409.76V120V119H360V120ZM409.76 120L410.421 119.25C407.412 116.595 405.517 112.713 405.517 108.387H404.517H403.517C403.517 113.311 405.677 117.731 409.098 120.75L409.76 120ZM404.517 108.387L405.517 108.387C405.517 100.388 412.001 93.9033 420 93.9033V92.9033V91.9033C410.896 91.9033 403.517 99.2832 403.517 108.387L404.517 108.387Z" fill="#C99A69" fill-opacity="0.25" mask="url(#path-7-inside-4_148_4721)"/>
<mask id="path-9-inside-5_148_4721" fill="white">
<path d="M92.9033 180C92.9033 171.449 99.8354 164.516 108.387 164.516C113.012 164.516 117.163 166.545 120 169.76L120 120L169.76 120C166.545 117.163 164.517 113.012 164.517 108.387C164.517 99.8354 171.449 92.9034 180 92.9033C188.551 92.9033 195.484 99.8353 195.484 108.387C195.484 113.012 193.455 117.163 190.239 120L240 120L240 169.761C242.837 166.545 246.989 164.517 251.614 164.517C260.166 164.517 267.098 171.449 267.098 180C267.098 188.551 260.166 195.484 251.614 195.484C246.989 195.484 242.837 193.455 240 190.239L240 240L190.24 240C193.455 242.837 195.484 246.988 195.484 251.613C195.484 260.165 188.551 267.097 180 267.097C171.449 267.097 164.517 260.165 164.517 251.613C164.517 246.989 166.544 242.837 169.759 240L120 240L120 190.24C117.163 193.455 113.012 195.483 108.387 195.483C99.8355 195.483 92.9034 188.551 92.9033 180Z"/>
</mask>
<path d="M92.9033 180C92.9033 171.449 99.8354 164.516 108.387 164.516C113.012 164.516 117.163 166.545 120 169.76L120 120L169.76 120C166.545 117.163 164.517 113.012 164.517 108.387C164.517 99.8354 171.449 92.9034 180 92.9033C188.551 92.9033 195.484 99.8353 195.484 108.387C195.484 113.012 193.455 117.163 190.239 120L240 120L240 169.761C242.837 166.545 246.989 164.517 251.614 164.517C260.166 164.517 267.098 171.449 267.098 180C267.098 188.551 260.166 195.484 251.614 195.484C246.989 195.484 242.837 193.455 240 190.239L240 240L190.24 240C193.455 242.837 195.484 246.988 195.484 251.613C195.484 260.165 188.551 267.097 180 267.097C171.449 267.097 164.517 260.165 164.517 251.613C164.517 246.989 166.544 242.837 169.759 240L120 240L120 190.24C117.163 193.455 113.012 195.483 108.387 195.483C99.8355 195.483 92.9034 188.551 92.9033 180Z" fill="#F9F3ED"/>
<path d="M92.9033 180L91.9033 180L91.9033 180L92.9033 180ZM108.387 164.516L108.387 163.516L108.387 163.516L108.387 164.516ZM120 169.76L119.25 170.421L121 172.404L121 169.76L120 169.76ZM120 120L120 119L119 119L119 120L120 120ZM169.76 120L169.76 121L172.404 121L170.421 119.25L169.76 120ZM164.517 108.387L163.517 108.387L163.517 108.387L164.517 108.387ZM180 92.9033L180 91.9033L180 91.9033L180 92.9033ZM195.484 108.387L196.484 108.387L196.484 108.387L195.484 108.387ZM190.239 120L189.578 119.25L187.595 121L190.239 121L190.239 120ZM240 120L241 120L241 119L240 119L240 120ZM240 169.761L239 169.761L239 172.406L240.75 170.422L240 169.761ZM251.614 164.517L251.614 163.517L251.614 163.517L251.614 164.517ZM267.098 180L268.098 180L268.098 180L267.098 180ZM251.614 195.484L251.614 196.484L251.614 196.484L251.614 195.484ZM240 190.239L240.75 189.578L239 187.594L239 190.239L240 190.239ZM240 240L240 241L241 241L241 240L240 240ZM190.24 240L190.24 239L187.596 239L189.579 240.75L190.24 240ZM195.484 251.613L196.484 251.613L196.484 251.613L195.484 251.613ZM180 267.097L180 268.097L180 268.097L180 267.097ZM164.517 251.613L163.517 251.613L163.517 251.613L164.517 251.613ZM169.759 240L170.421 240.75L172.403 239L169.759 239L169.759 240ZM120 240L119 240L119 241L120 241L120 240ZM120 190.24L121 190.24L121 187.596L119.25 189.579L120 190.24ZM108.387 195.483L108.387 196.483L108.387 196.483L108.387 195.483ZM92.9033 180L93.9033 180C93.9033 172.001 100.388 165.516 108.387 165.516L108.387 164.516L108.387 163.516C99.2831 163.516 91.9033 170.896 91.9033 180L92.9033 180ZM108.387 164.516L108.387 165.516C112.713 165.516 116.595 167.412 119.25 170.421L120 169.76L120.75 169.098C117.731 165.677 113.311 163.516 108.387 163.516L108.387 164.516ZM120 169.76L121 169.76L121 120L120 120L119 120L119 169.76L120 169.76ZM120 120L120 121L169.76 121L169.76 120L169.76 119L120 119L120 120ZM169.76 120L170.421 119.25C167.412 116.595 165.517 112.713 165.517 108.387L164.517 108.387L163.517 108.387C163.517 113.311 165.677 117.731 169.098 120.75L169.76 120ZM164.517 108.387L165.517 108.387C165.517 100.388 172.001 93.9034 180 93.9033L180 92.9033L180 91.9033C170.896 91.9034 163.517 99.2831 163.517 108.387L164.517 108.387ZM180 92.9033L180 93.9033C187.999 93.9033 194.484 100.388 194.484 108.387L195.484 108.387L196.484 108.387C196.484 99.283 189.104 91.9033 180 91.9033L180 92.9033ZM195.484 108.387L194.484 108.387C194.484 112.713 192.587 116.594 189.578 119.25L190.239 120L190.901 120.75C194.322 117.731 196.484 113.311 196.484 108.387L195.484 108.387ZM190.239 120L190.239 121L240 121L240 120L240 119L190.239 119L190.239 120ZM240 120L239 120L239 169.761L240 169.761L241 169.761L241 120L240 120ZM240 169.761L240.75 170.422C243.405 167.413 247.288 165.517 251.614 165.517L251.614 164.517L251.614 163.517C246.69 163.517 242.269 165.677 239.25 169.099L240 169.761ZM251.614 164.517L251.614 165.517C259.613 165.517 266.098 172.001 266.098 180L267.098 180L268.098 180C268.098 170.896 260.718 163.517 251.614 163.517L251.614 164.517ZM267.098 180L266.098 180C266.098 187.999 259.613 194.484 251.614 194.484L251.614 195.484L251.614 196.484C260.718 196.484 268.098 189.104 268.098 180L267.098 180ZM251.614 195.484L251.614 194.484C247.288 194.484 243.405 192.587 240.75 189.578L240 190.239L239.25 190.901C242.269 194.322 246.69 196.484 251.614 196.484L251.614 195.484ZM240 190.239L239 190.239L239 240L240 240L241 240L241 190.239L240 190.239ZM240 240L240 239L190.24 239L190.24 240L190.24 241L240 241L240 240ZM190.24 240L189.579 240.75C192.588 243.405 194.484 247.287 194.484 251.613L195.484 251.613L196.484 251.613C196.484 246.689 194.323 242.269 190.902 239.25L190.24 240ZM195.484 251.613L194.484 251.613C194.484 259.612 187.999 266.097 180 266.097L180 267.097L180 268.097C189.104 268.097 196.484 260.717 196.484 251.613L195.484 251.613ZM180 267.097L180 266.097C172.001 266.097 165.517 259.612 165.517 251.613L164.517 251.613L163.517 251.613C163.517 260.717 170.896 268.097 180 268.097L180 267.097ZM164.517 251.613L165.517 251.613C165.517 247.287 167.412 243.405 170.421 240.75L169.759 240L169.097 239.25C165.676 242.269 163.517 246.69 163.517 251.613L164.517 251.613ZM169.759 240L169.759 239L120 239L120 240L120 241L169.759 241L169.759 240ZM120 240L121 240L121 190.24L120 190.24L119 190.24L119 240L120 240ZM120 190.24L119.25 189.579C116.595 192.588 112.713 194.483 108.387 194.483L108.387 195.483L108.387 196.483C113.311 196.483 117.731 194.323 120.75 190.902L120 190.24ZM108.387 195.483L108.387 194.483C100.388 194.483 93.9034 187.999 93.9033 180L92.9033 180L91.9033 180C91.9034 189.104 99.2832 196.483 108.387 196.483L108.387 195.483Z" fill="#C99A69" fill-opacity="0.25" mask="url(#path-9-inside-5_148_4721)"/>
<mask id="path-11-inside-6_148_4721" fill="white">
<path d="M387.097 60C387.097 68.5514 380.165 75.4832 371.613 75.4834C366.988 75.4834 362.837 73.4553 360 70.2402L360 120L310.24 120C313.455 117.163 315.483 113.012 315.483 108.387C315.483 99.8354 308.551 92.9034 300 92.9033C291.449 92.9033 284.516 99.8354 284.516 108.387C284.516 113.012 286.545 117.163 289.761 120L240 120L240 70.2402C237.163 73.4553 233.012 75.4834 228.387 75.4834C219.835 75.4832 212.903 68.5514 212.903 60C212.903 51.4486 219.835 44.5168 228.387 44.5166C233.012 44.5166 237.163 46.5447 240 49.7598L240 -6.4298e-06L289.761 -4.25469e-06C286.545 2.83723 284.516 6.98793 284.516 11.6133C284.516 20.1646 291.449 27.0967 300 27.0967C308.551 27.0966 315.483 20.1646 315.483 11.6133C315.483 6.98823 313.455 2.83722 310.24 -3.3595e-06L360 -1.18443e-06L360 49.7598C362.837 46.5447 366.988 44.5166 371.613 44.5166C380.165 44.5168 387.097 51.4486 387.097 60Z"/>
</mask>
<path d="M387.097 60C387.097 68.5514 380.165 75.4832 371.613 75.4834C366.988 75.4834 362.837 73.4553 360 70.2402L360 120L310.24 120C313.455 117.163 315.483 113.012 315.483 108.387C315.483 99.8354 308.551 92.9034 300 92.9033C291.449 92.9033 284.516 99.8354 284.516 108.387C284.516 113.012 286.545 117.163 289.761 120L240 120L240 70.2402C237.163 73.4553 233.012 75.4834 228.387 75.4834C219.835 75.4832 212.903 68.5514 212.903 60C212.903 51.4486 219.835 44.5168 228.387 44.5166C233.012 44.5166 237.163 46.5447 240 49.7598L240 -6.4298e-06L289.761 -4.25469e-06C286.545 2.83723 284.516 6.98793 284.516 11.6133C284.516 20.1646 291.449 27.0967 300 27.0967C308.551 27.0966 315.483 20.1646 315.483 11.6133C315.483 6.98823 313.455 2.83722 310.24 -3.3595e-06L360 -1.18443e-06L360 49.7598C362.837 46.5447 366.988 44.5166 371.613 44.5166C380.165 44.5168 387.097 51.4486 387.097 60Z" fill="#F9F3ED"/>
<path d="M387.097 60L388.097 60V60L387.097 60ZM371.613 75.4834L371.613 76.4834L371.613 76.4834L371.613 75.4834ZM360 70.2402L360.75 69.5786L359 67.5958L359 70.2402L360 70.2402ZM360 120L360 121L361 121L361 120L360 120ZM310.24 120L309.579 119.25L307.596 121L310.24 121L310.24 120ZM315.483 108.387L316.483 108.387L316.483 108.387L315.483 108.387ZM300 92.9033L300 91.9033L300 91.9033L300 92.9033ZM284.516 108.387L283.516 108.387L283.516 108.387L284.516 108.387ZM289.761 120L289.761 121L292.405 121L290.422 119.25L289.761 120ZM240 120L239 120L239 121L240 121L240 120ZM240 70.2402L241 70.2402L241 67.5957L239.25 69.5786L240 70.2402ZM228.387 75.4834L228.387 76.4834L228.387 76.4834L228.387 75.4834ZM212.903 60L211.903 60V60L212.903 60ZM228.387 44.5166L228.387 43.5166L228.387 43.5166L228.387 44.5166ZM240 49.7598L239.25 50.4214L241 52.4043L241 49.7598L240 49.7598ZM240 -6.4298e-06L240 -1.00001L239 -1.00001L239 -6.47351e-06L240 -6.4298e-06ZM289.761 -4.25469e-06L290.422 0.749822L292.405 -1L289.761 -1L289.761 -4.25469e-06ZM284.516 11.6133L283.516 11.6133L283.516 11.6133L284.516 11.6133ZM300 27.0967L300 28.0967L300 28.0967L300 27.0967ZM315.483 11.6133L316.483 11.6133L316.483 11.6133L315.483 11.6133ZM310.24 -3.3595e-06L310.24 -1L307.596 -1L309.579 0.749787L310.24 -3.3595e-06ZM360 -1.18443e-06L361 -1.14072e-06L361 -1L360 -1L360 -1.18443e-06ZM360 49.7598L359 49.7598L359 52.4042L360.75 50.4214L360 49.7598ZM371.613 44.5166L371.613 43.5166L371.613 43.5166L371.613 44.5166ZM387.097 60L386.097 60C386.097 67.999 379.612 74.4832 371.613 74.4834L371.613 75.4834L371.613 76.4834C380.717 76.4831 388.097 69.1037 388.097 60L387.097 60ZM371.613 75.4834L371.613 74.4834C367.287 74.4834 363.405 72.5877 360.75 69.5786L360 70.2402L359.25 70.9019C362.269 74.3229 366.689 76.4834 371.613 76.4834L371.613 75.4834ZM360 70.2402L359 70.2402L359 120L360 120L361 120L361 70.2402L360 70.2402ZM360 120L360 119L310.24 119L310.24 120L310.24 121L360 121L360 120ZM310.24 120L310.902 120.75C314.323 117.731 316.483 113.311 316.483 108.387L315.483 108.387L314.483 108.387C314.483 112.713 312.588 116.595 309.579 119.25L310.24 120ZM315.483 108.387L316.483 108.387C316.483 99.2831 309.104 91.9034 300 91.9033L300 92.9033L300 93.9033C307.999 93.9034 314.483 100.388 314.483 108.387L315.483 108.387ZM300 92.9033L300 91.9033C290.896 91.9033 283.516 99.283 283.516 108.387L284.516 108.387L285.516 108.387C285.516 100.388 292.001 93.9033 300 93.9033L300 92.9033ZM284.516 108.387L283.516 108.387C283.516 113.311 285.678 117.731 289.099 120.75L289.761 120L290.422 119.25C287.413 116.594 285.516 112.713 285.516 108.387L284.516 108.387ZM289.761 120L289.761 119L240 119L240 120L240 121L289.761 121L289.761 120ZM240 120L241 120L241 70.2402L240 70.2402L239 70.2402L239 120L240 120ZM240 70.2402L239.25 69.5786C236.595 72.5877 232.713 74.4834 228.387 74.4834L228.387 75.4834L228.387 76.4834C233.311 76.4834 237.731 74.3229 240.75 70.9019L240 70.2402ZM228.387 75.4834L228.387 74.4834C220.388 74.4832 213.903 67.9991 213.903 60L212.903 60L211.903 60C211.903 69.1037 219.283 76.4832 228.387 76.4834L228.387 75.4834ZM212.903 60L213.903 60C213.903 52.0009 220.388 45.5167 228.387 45.5166L228.387 44.5166L228.387 43.5166C219.283 43.5168 211.903 50.8963 211.903 60L212.903 60ZM228.387 44.5166L228.387 45.5166C232.713 45.5166 236.595 47.4123 239.25 50.4214L240 49.7598L240.75 49.0981C237.731 45.6771 233.311 43.5166 228.387 43.5166L228.387 44.5166ZM240 49.7598L241 49.7598L241 -6.38609e-06L240 -6.4298e-06L239 -6.47351e-06L239 49.7598L240 49.7598ZM240 -6.4298e-06L240 0.999994L289.761 0.999996L289.761 -4.25469e-06L289.761 -1L240 -1.00001L240 -6.4298e-06ZM289.761 -4.25469e-06L289.099 -0.74983C285.678 2.26897 283.516 6.68875 283.516 11.6133L284.516 11.6133L285.516 11.6133C285.516 7.2871 287.413 3.4055 290.422 0.749822L289.761 -4.25469e-06ZM284.516 11.6133L283.516 11.6133C283.516 20.717 290.896 28.0967 300 28.0967L300 27.0967L300 26.0967C292.001 26.0967 285.516 19.6123 285.516 11.6133L284.516 11.6133ZM300 27.0967L300 28.0967C309.104 28.0966 316.483 20.7169 316.483 11.6133L315.483 11.6133L314.483 11.6133C314.483 19.6123 307.999 26.0966 300 26.0967L300 27.0967ZM315.483 11.6133L316.483 11.6133C316.483 6.68932 314.323 2.26915 310.902 -0.749793L310.24 -3.3595e-06L309.579 0.749787C312.588 3.40529 314.483 7.28715 314.483 11.6133L315.483 11.6133ZM310.24 -3.3595e-06L310.24 0.999997L360 0.999999L360 -1.18443e-06L360 -1L310.24 -1L310.24 -3.3595e-06ZM360 -1.18443e-06L359 -1.22814e-06L359 49.7598L360 49.7598L361 49.7598L361 -1.14072e-06L360 -1.18443e-06ZM360 49.7598L360.75 50.4214C363.405 47.4123 367.287 45.5166 371.613 45.5166L371.613 44.5166L371.613 43.5166C366.689 43.5166 362.269 45.6771 359.25 49.0981L360 49.7598ZM371.613 44.5166L371.613 45.5166C379.612 45.5168 386.097 52.001 386.097 60L387.097 60L388.097 60C388.097 50.8963 380.717 43.5169 371.613 43.5166L371.613 44.5166Z" fill="#C99A69" fill-opacity="0.25" mask="url(#path-11-inside-6_148_4721)"/>
</svg>
