<svg width="506" height="506" viewBox="0 0 506 506" fill="none" xmlns="http://www.w3.org/2000/svg">
<mask id="path-1-inside-1_153_4762" fill="white">
<path d="M360.097 315.763C357.259 312.546 353.107 310.516 348.48 310.516C339.929 310.516 332.997 317.448 332.997 326C332.997 334.551 339.929 341.483 348.48 341.483C353.107 341.483 357.259 339.453 360.097 336.236L360.097 386L310.337 386C313.552 383.163 315.58 379.012 315.58 374.386C315.58 365.835 308.648 358.903 300.097 358.903C291.545 358.903 284.612 365.835 284.612 374.386C284.612 379.012 286.642 383.163 289.857 386L240.097 386L240.097 336.24C237.259 339.455 233.108 341.483 228.483 341.483C219.932 341.483 213 334.551 213 326C213 317.448 219.932 310.517 228.483 310.516C233.108 310.516 237.259 312.544 240.097 315.76L240.097 266L289.857 266C286.642 268.837 284.612 272.988 284.612 277.613C284.612 286.164 291.545 293.096 300.097 293.096C308.648 293.096 315.58 286.164 315.58 277.613C315.58 272.988 313.552 268.837 310.337 266L360.097 266L360.097 315.763Z"/>
</mask>
<path d="M360.097 315.763C357.259 312.546 353.107 310.516 348.48 310.516C339.929 310.516 332.997 317.448 332.997 326C332.997 334.551 339.929 341.483 348.48 341.483C353.107 341.483 357.259 339.453 360.097 336.236L360.097 386L310.337 386C313.552 383.163 315.58 379.012 315.58 374.386C315.58 365.835 308.648 358.903 300.097 358.903C291.545 358.903 284.612 365.835 284.612 374.386C284.612 379.012 286.642 383.163 289.857 386L240.097 386L240.097 336.24C237.259 339.455 233.108 341.483 228.483 341.483C219.932 341.483 213 334.551 213 326C213 317.448 219.932 310.517 228.483 310.516C233.108 310.516 237.259 312.544 240.097 315.76L240.097 266L289.857 266C286.642 268.837 284.612 272.988 284.612 277.613C284.612 286.164 291.545 293.096 300.097 293.096C308.648 293.096 315.58 286.164 315.58 277.613C315.58 272.988 313.552 268.837 310.337 266L360.097 266L360.097 315.763Z" fill="#F9F3ED"/>
<path d="M360.097 315.763L359.347 316.425L361.097 318.409L361.097 315.763L360.097 315.763ZM348.48 310.516L348.48 309.516L348.48 309.516L348.48 310.516ZM332.997 326L331.997 326L331.997 326L332.997 326ZM348.48 341.483L348.48 342.483L348.48 342.483L348.48 341.483ZM360.097 336.236L361.097 336.236L361.097 333.59L359.347 335.575L360.097 336.236ZM360.097 386L360.097 387L361.097 387L361.097 386L360.097 386ZM310.337 386L309.675 385.25L307.692 387L310.337 387L310.337 386ZM315.58 374.386L316.58 374.386L316.58 374.386L315.58 374.386ZM300.097 358.903L300.097 357.903L300.097 357.903L300.097 358.903ZM284.612 374.386L283.612 374.386L283.612 374.386L284.612 374.386ZM289.857 386L289.857 387L292.502 387L290.519 385.25L289.857 386ZM240.097 386L239.097 386L239.097 387L240.097 387L240.097 386ZM240.097 336.24L241.097 336.24L241.097 333.595L239.347 335.578L240.097 336.24ZM228.483 341.483L228.483 342.483L228.483 342.483L228.483 341.483ZM213 326L212 326V326L213 326ZM228.483 310.516L228.483 309.516L228.483 309.516L228.483 310.516ZM240.097 315.76L239.347 316.421L241.097 318.404L241.097 315.76L240.097 315.76ZM240.097 266L240.097 265L239.097 265L239.097 266L240.097 266ZM289.857 266L290.519 266.75L292.502 265L289.857 265L289.857 266ZM284.612 277.613L283.612 277.613L283.612 277.613L284.612 277.613ZM300.097 293.096L300.097 294.096L300.097 294.096L300.097 293.096ZM315.58 277.613L316.58 277.613L316.58 277.613L315.58 277.613ZM310.337 266L310.337 265L307.692 265L309.675 266.75L310.337 266ZM360.097 266L361.097 266L361.097 265L360.097 265L360.097 266ZM360.097 315.763L360.847 315.102C357.828 311.679 353.406 309.516 348.48 309.516L348.48 310.516L348.48 311.516C352.808 311.516 356.691 313.414 359.347 316.425L360.097 315.763ZM348.48 310.516L348.48 309.516C339.377 309.516 331.997 316.896 331.997 326L332.997 326L333.997 326C333.997 318.001 340.481 311.516 348.48 311.516L348.48 310.516ZM332.997 326L331.997 326C331.997 335.104 339.377 342.483 348.48 342.483L348.48 341.483L348.48 340.483C340.481 340.483 333.997 333.999 333.997 326L332.997 326ZM348.48 341.483L348.48 342.483C353.406 342.483 357.828 340.321 360.847 336.898L360.097 336.236L359.347 335.575C356.691 338.586 352.808 340.483 348.48 340.483L348.48 341.483ZM360.097 336.236L359.097 336.236L359.097 386L360.097 386L361.097 386L361.097 336.236L360.097 336.236ZM360.097 386L360.097 385L310.337 385L310.337 386L310.337 387L360.097 387L360.097 386ZM310.337 386L310.999 386.75C314.419 383.731 316.58 379.31 316.58 374.386L315.58 374.386L314.58 374.386C314.58 378.713 312.684 382.594 309.675 385.25L310.337 386ZM315.58 374.386L316.58 374.386C316.58 365.283 309.2 357.903 300.097 357.903L300.097 358.903L300.097 359.903C308.096 359.903 314.58 366.387 314.58 374.386L315.58 374.386ZM300.097 358.903L300.097 357.903C290.993 357.903 283.612 365.283 283.612 374.386L284.612 374.386L285.612 374.386C285.612 366.387 292.097 359.903 300.097 359.903L300.097 358.903ZM284.612 374.386L283.612 374.386C283.612 379.311 285.775 383.731 289.196 386.75L289.857 386L290.519 385.25C287.509 382.594 285.612 378.713 285.612 374.386L284.612 374.386ZM289.857 386L289.857 385L240.097 385L240.097 386L240.097 387L289.857 387L289.857 386ZM240.097 386L241.097 386L241.097 336.24L240.097 336.24L239.097 336.24L239.097 386L240.097 386ZM240.097 336.24L239.347 335.578C236.691 338.587 232.81 340.483 228.483 340.483L228.483 341.483L228.483 342.483C233.407 342.483 237.827 340.323 240.846 336.902L240.097 336.24ZM228.483 341.483L228.483 340.483C220.484 340.483 214 333.999 214 326L213 326L212 326C212 335.103 219.38 342.483 228.483 342.483L228.483 341.483ZM213 326L214 326C214 318.001 220.484 311.517 228.483 311.516L228.483 310.516L228.483 309.516C219.38 309.517 212 316.896 212 326L213 326ZM228.483 310.516L228.483 311.516C232.81 311.516 236.691 313.412 239.347 316.421L240.097 315.76L240.846 315.098C237.827 311.677 233.407 309.516 228.483 309.516L228.483 310.516ZM240.097 315.76L241.097 315.76L241.097 266L240.097 266L239.097 266L239.097 315.76L240.097 315.76ZM240.097 266L240.097 267L289.857 267L289.857 266L289.857 265L240.097 265L240.097 266ZM289.857 266L289.196 265.25C285.775 268.269 283.612 272.689 283.612 277.613L284.612 277.613L285.612 277.613C285.612 273.287 287.509 269.405 290.519 266.75L289.857 266ZM284.612 277.613L283.612 277.613C283.612 286.717 290.993 294.096 300.097 294.096L300.097 293.096L300.097 292.096C292.097 292.096 285.612 285.612 285.612 277.613L284.612 277.613ZM300.097 293.096L300.097 294.096C309.2 294.096 316.58 286.717 316.58 277.613L315.58 277.613L314.58 277.613C314.58 285.612 308.096 292.096 300.097 292.096L300.097 293.096ZM315.58 277.613L316.58 277.613C316.58 272.689 314.42 268.269 310.999 265.25L310.337 266L309.675 266.75C312.684 269.405 314.58 273.287 314.58 277.613L315.58 277.613ZM310.337 266L310.337 267L360.097 267L360.097 266L360.097 265L310.337 265L310.337 266ZM360.097 266L359.097 266L359.097 315.763L360.097 315.763L361.097 315.763L361.097 266L360.097 266Z" fill="#C99A69" fill-opacity="0.25" mask="url(#path-1-inside-1_153_4762)"/>
<mask id="path-3-inside-2_153_4762" fill="white">
<path d="M180 120C188.284 120 195 126.716 195 135C195 139.346 193.151 143.26 190.197 146L240 146L240 195.803C242.74 192.849 246.654 191 251 191C259.284 191 266 197.716 266 206C266 214.284 259.284 221 251 221C246.654 221 242.74 219.151 240 216.197L240 266L190.197 266C193.151 268.739 195 272.654 195 277C195 285.284 188.284 292 180 292C171.716 292 165 285.284 165 277C165 272.654 166.849 268.739 169.803 266L120 266L120 216.197C122.74 219.151 126.654 221 131 221C139.284 221 146 214.284 146 206C146 197.716 139.284 191 131 191C126.654 191 122.74 192.849 120 195.803L120 146L169.803 146C166.849 143.26 165 139.346 165 135C165 126.716 171.716 120 180 120Z"/>
</mask>
<path d="M180 120C188.284 120 195 126.716 195 135C195 139.346 193.151 143.26 190.197 146L240 146L240 195.803C242.74 192.849 246.654 191 251 191C259.284 191 266 197.716 266 206C266 214.284 259.284 221 251 221C246.654 221 242.74 219.151 240 216.197L240 266L190.197 266C193.151 268.739 195 272.654 195 277C195 285.284 188.284 292 180 292C171.716 292 165 285.284 165 277C165 272.654 166.849 268.739 169.803 266L120 266L120 216.197C122.74 219.151 126.654 221 131 221C139.284 221 146 214.284 146 206C146 197.716 139.284 191 131 191C126.654 191 122.74 192.849 120 195.803L120 146L169.803 146C166.849 143.26 165 139.346 165 135C165 126.716 171.716 120 180 120Z" fill="#F9F3ED"/>
<path d="M180 120L180 119H180L180 120ZM195 135L196 135L196 135L195 135ZM190.197 146L189.517 145.267L187.649 147L190.197 147L190.197 146ZM240 146H241V145H240V146ZM240 195.803H239V198.351L240.733 196.483L240 195.803ZM251 191L251 190H251L251 191ZM266 206L267 206L267 206L266 206ZM251 221L251 222H251V221ZM240 216.197L240.733 215.517L239 213.648V216.197H240ZM240 266V267H241V266H240ZM190.197 266V265H187.649L189.517 266.733L190.197 266ZM195 277L196 277L196 277L195 277ZM180 292L180 293H180V292ZM165 277L164 277V277H165ZM169.803 266L170.483 266.733L172.352 265H169.803V266ZM120 266H119L119 267H120L120 266ZM120 216.197L120.733 215.517L119 213.648L119 216.197H120ZM131 221L131 222H131V221ZM146 206L147 206L147 206L146 206ZM131 191L131 190L131 190L131 191ZM120 195.803H119L119 198.351L120.733 196.483L120 195.803ZM120 146V145H119V146H120ZM169.803 146L169.803 147H172.352L170.483 145.267L169.803 146ZM165 135L164 135V135H165ZM180 120V121C187.732 121 194 127.268 194 135L195 135L196 135C196 126.163 188.837 119 180 119V120ZM195 135H194C194 139.056 192.276 142.709 189.517 145.267L190.197 146L190.877 146.733C194.026 143.812 196 139.636 196 135L195 135ZM190.197 146L190.197 147L240 147L240 146V145L190.197 145V146ZM240 146H239L239 195.803H240H241L241 146H240ZM240 195.803L240.733 196.483C243.292 193.724 246.944 192 251 192L251 191L251 190C246.364 190 242.188 191.974 239.267 195.123L240 195.803ZM251 191V192C258.732 192 265 198.268 265 206L266 206L267 206C267 197.163 259.837 190 251 190V191ZM266 206H265C265 213.732 258.732 220 251 220L251 221V222C259.837 222 267 214.837 267 206H266ZM251 221L251 220C246.944 220 243.292 218.276 240.733 215.517L240 216.197L239.267 216.877C242.188 220.026 246.364 222 251 222L251 221ZM240 216.197H239L239 266H240H241L241 216.197H240ZM240 266V265L190.197 265V266V267L240 267V266ZM190.197 266L189.517 266.733C192.276 269.291 194 272.943 194 277L195 277L196 277C196 272.364 194.027 268.188 190.877 265.267L190.197 266ZM195 277H194C194 284.732 187.732 291 180 291V292V293C188.837 293 196 285.837 196 277L195 277ZM180 292L180 291C172.268 291 166 284.732 166 277H165H164C164 285.837 171.163 293 180 293L180 292ZM165 277L166 277C166 272.943 167.724 269.291 170.483 266.733L169.803 266L169.123 265.267C165.974 268.188 164 272.364 164 277L165 277ZM169.803 266V265L120 265V266L120 267L169.803 267L169.803 266ZM120 266H121L121 216.197H120H119L119 266H120ZM120 216.197L119.267 216.877C122.188 220.026 126.364 222 131 222L131 221L131 220C126.944 220 123.292 218.276 120.733 215.517L120 216.197ZM131 221V222C139.837 222 147 214.837 147 206L146 206H145C145 213.732 138.732 220 131 220L131 221ZM146 206L147 206C147 197.163 139.837 190 131 190V191V192C138.732 192 145 198.268 145 206L146 206ZM131 191L131 190C126.364 190 122.188 191.974 119.267 195.123L120 195.803L120.733 196.483C123.292 193.724 126.944 192 131 192L131 191ZM120 195.803H121L121 146H120H119L119 195.803H120ZM120 146L120 147L169.803 147L169.803 146V145L120 145V146ZM169.803 146L170.483 145.267C167.724 142.709 166 139.056 166 135H165H164C164 139.636 165.974 143.812 169.123 146.733L169.803 146ZM165 135L166 135C166 127.268 172.268 121 180 121L180 120L180 119C171.163 119 164 126.163 164 135L165 135Z" fill="#C99A69" fill-opacity="0.25" mask="url(#path-3-inside-2_153_4762)"/>
<mask id="path-5-inside-3_153_4762" fill="white">
<path d="M360 456.197C362.739 459.151 366.654 461 371 461C379.284 461 386 454.284 386 446C386 437.716 379.284 431 371 431C366.654 431 362.739 432.849 360 435.803L360 386L409.803 386C406.849 388.74 405 392.654 405 397C405 405.284 411.716 412 420 412C428.284 412 435 405.284 435 397C435 392.654 433.151 388.74 430.197 386L480 386L480 435.803C482.739 432.849 486.654 431 491 431C499.284 431 506 437.716 506 446C506 454.284 499.284 461 491 461C486.654 461 482.739 459.151 480 456.197L480 506L430.197 506C433.151 503.26 435 499.346 435 495C435 486.716 428.284 480 420 480C411.716 480 405 486.716 405 495C405 499.346 406.849 503.26 409.803 506L360 506L360 456.197Z"/>
</mask>
<path d="M360 456.197C362.739 459.151 366.654 461 371 461C379.284 461 386 454.284 386 446C386 437.716 379.284 431 371 431C366.654 431 362.739 432.849 360 435.803L360 386L409.803 386C406.849 388.74 405 392.654 405 397C405 405.284 411.716 412 420 412C428.284 412 435 405.284 435 397C435 392.654 433.151 388.74 430.197 386L480 386L480 435.803C482.739 432.849 486.654 431 491 431C499.284 431 506 437.716 506 446C506 454.284 499.284 461 491 461C486.654 461 482.739 459.151 480 456.197L480 506L430.197 506C433.151 503.26 435 499.346 435 495C435 486.716 428.284 480 420 480C411.716 480 405 486.716 405 495C405 499.346 406.849 503.26 409.803 506L360 506L360 456.197Z" fill="#F9F3ED"/>
<path d="M360 456.197L360.733 455.517L359 453.648L359 456.197L360 456.197ZM371 461L371 462L371 462L371 461ZM386 446L387 446V446L386 446ZM371 431L371 430L371 430L371 431ZM360 435.803L359 435.803L359 438.352L360.733 436.483L360 435.803ZM360 386L360 385L359 385L359 386L360 386ZM409.803 386L410.483 386.733L412.351 385L409.803 385L409.803 386ZM405 397L404 397L404 397L405 397ZM420 412L420 413L420 413L420 412ZM435 397L436 397L436 397L435 397ZM430.197 386L430.197 385L427.648 385L429.517 386.733L430.197 386ZM480 386L481 386L481 385L480 385L480 386ZM480 435.803L479 435.803L479 438.352L480.733 436.483L480 435.803ZM491 431L491 430L491 430L491 431ZM506 446L507 446L507 446L506 446ZM491 461L491 462L491 462L491 461ZM480 456.197L480.733 455.517L479 453.648L479 456.197L480 456.197ZM480 506L480 507L481 507L481 506L480 506ZM430.197 506L429.517 505.267L427.648 507L430.197 507L430.197 506ZM435 495L436 495L436 495L435 495ZM420 480L420 479L420 479L420 480ZM405 495L404 495L404 495L405 495ZM409.803 506L409.803 507L412.351 507L410.483 505.267L409.803 506ZM360 506L359 506L359 507L360 507L360 506ZM360 456.197L359.267 456.877C362.187 460.026 366.364 462 371 462L371 461L371 460C366.943 460 363.291 458.276 360.733 455.517L360 456.197ZM371 461L371 462C379.836 462 387 454.837 387 446L386 446L385 446C385 453.732 378.732 460 371 460L371 461ZM386 446L387 446C387 437.163 379.836 430 371 430L371 431L371 432C378.732 432 385 438.268 385 446L386 446ZM371 431L371 430C366.364 430 362.187 431.974 359.267 435.123L360 435.803L360.733 436.483C363.291 433.724 366.943 432 371 432L371 431ZM360 435.803L361 435.803L361 386L360 386L359 386L359 435.803L360 435.803ZM360 386L360 387L409.803 387L409.803 386L409.803 385L360 385L360 386ZM409.803 386L409.123 385.267C405.973 388.188 404 392.364 404 397L405 397L406 397C406 392.944 407.724 389.291 410.483 386.733L409.803 386ZM405 397L404 397C404 405.837 411.163 413 420 413L420 412L420 411C412.268 411 406 404.732 406 397L405 397ZM420 412L420 413C428.836 413 436 405.837 436 397L435 397L434 397C434 404.732 427.732 411 420 411L420 412ZM435 397L436 397C436 392.364 434.026 388.188 430.877 385.267L430.197 386L429.517 386.733C432.276 389.291 434 392.943 434 397L435 397ZM430.197 386L430.197 387L480 387L480 386L480 385L430.197 385L430.197 386ZM480 386L479 386L479 435.803L480 435.803L481 435.803L481 386L480 386ZM480 435.803L480.733 436.483C483.291 433.724 486.943 432 491 432L491 431L491 430C486.364 430 482.187 431.974 479.267 435.123L480 435.803ZM491 431L491 432C498.732 432 505 438.268 505 446L506 446L507 446C507 437.163 499.836 430 491 430L491 431ZM506 446L505 446C505 453.732 498.732 460 491 460L491 461L491 462C499.836 462 507 454.837 507 446L506 446ZM491 461L491 460C486.943 460 483.291 458.276 480.733 455.517L480 456.197L479.267 456.877C482.187 460.026 486.364 462 491 462L491 461ZM480 456.197L479 456.197L479 506L480 506L481 506L481 456.197L480 456.197ZM480 506L480 505L430.197 505L430.197 506L430.197 507L480 507L480 506ZM430.197 506L430.877 506.733C434.026 503.812 436 499.636 436 495L435 495L434 495C434 499.057 432.276 502.709 429.517 505.267L430.197 506ZM435 495L436 495C436 486.163 428.836 479 420 479L420 480L420 481C427.732 481 434 487.268 434 495L435 495ZM420 480L420 479C411.163 479 404 486.163 404 495L405 495L406 495C406 487.268 412.268 481 420 481L420 480ZM405 495L404 495C404 499.636 405.973 503.812 409.123 506.733L409.803 506L410.483 505.267C407.724 502.709 406 499.056 406 495L405 495ZM409.803 506L409.803 505L360 505L360 506L360 507L409.803 507L409.803 506ZM360 506L361 506L361 456.197L360 456.197L359 456.197L359 506L360 506Z" fill="#C99A69" fill-opacity="0.25" mask="url(#path-5-inside-3_153_4762)"/>
<mask id="path-7-inside-4_153_4762" fill="white">
<path d="M300 172C291.716 172 285 165.284 285 157C285 152.654 286.849 148.74 289.803 146L240 146L240 96.1975C237.26 99.1513 233.346 101 229 101C220.716 101 214 94.2845 214 86.0002C214 77.716 220.716 71.0002 229 71.0002C233.346 71.0002 237.26 72.8492 240 75.803L240 26.0002L289.803 26.0002C286.849 23.2607 285 19.3466 285 15.0002C285 6.71597 291.716 0.000238171 300 0.000238895C308.284 0.000244258 315 6.71597 315 15.0002C315 19.3466 313.151 23.2607 310.197 26.0002L360 26.0002L360 75.803C357.26 72.8492 353.346 71.0002 349 71.0002C340.716 71.0002 334 77.716 334 86.0002C334 94.2845 340.716 101 349 101C353.346 101 357.26 99.1513 360 96.1975L360 146L310.197 146C313.151 148.74 315 152.654 315 157C315 165.284 308.284 172 300 172Z"/>
</mask>
<path d="M300 172C291.716 172 285 165.284 285 157C285 152.654 286.849 148.74 289.803 146L240 146L240 96.1975C237.26 99.1513 233.346 101 229 101C220.716 101 214 94.2845 214 86.0002C214 77.716 220.716 71.0002 229 71.0002C233.346 71.0002 237.26 72.8492 240 75.803L240 26.0002L289.803 26.0002C286.849 23.2607 285 19.3466 285 15.0002C285 6.71597 291.716 0.000238171 300 0.000238895C308.284 0.000244258 315 6.71597 315 15.0002C315 19.3466 313.151 23.2607 310.197 26.0002L360 26.0002L360 75.803C357.26 72.8492 353.346 71.0002 349 71.0002C340.716 71.0002 334 77.716 334 86.0002C334 94.2845 340.716 101 349 101C353.346 101 357.26 99.1513 360 96.1975L360 146L310.197 146C313.151 148.74 315 152.654 315 157C315 165.284 308.284 172 300 172Z" fill="#F9F3ED"/>
<path d="M300 172L300 173H300L300 172ZM285 157L284 157L284 157L285 157ZM289.803 146L290.483 146.733L292.352 145L289.803 145L289.803 146ZM240 146L239 146L239 147L240 147L240 146ZM240 96.1975L241 96.1975L241 93.6487L239.267 95.5175L240 96.1975ZM229 101L229 102H229L229 101ZM214 86.0002L213 86.0002L213 86.0002L214 86.0002ZM229 71.0002L229 70.0002H229L229 71.0002ZM240 75.803L239.267 76.483L241 78.3518L241 75.803L240 75.803ZM240 26.0002L240 25.0002L239 25.0002L239 26.0002L240 26.0002ZM289.803 26.0002L289.803 27.0002L292.352 27.0002L290.483 25.267L289.803 26.0002ZM285 15.0002L284 15.0002L284 15.0002L285 15.0002ZM300 0.000238895L300 -0.999761L300 -0.999761L300 0.000238895ZM315 15.0002L316 15.0002L316 15.0002L315 15.0002ZM310.197 26.0002L309.517 25.267L307.648 27.0002L310.197 27.0002L310.197 26.0002ZM360 26.0002L361 26.0002L361 25.0002L360 25.0002L360 26.0002ZM360 75.803L359.267 76.483L361 78.3518L361 75.803L360 75.803ZM349 71.0002L349 70.0002L349 70.0002L349 71.0002ZM334 86.0002L333 86.0002L333 86.0002L334 86.0002ZM349 101L349 102L349 102L349 101ZM360 96.1975L361 96.1975L361 93.6487L359.267 95.5175L360 96.1975ZM360 146L360 147L361 147L361 146L360 146ZM310.197 146L310.197 145L307.649 145L309.517 146.733L310.197 146ZM315 157L316 157L316 157L315 157ZM300 172L300 171C292.268 171 286 164.732 286 157L285 157L284 157C284 165.837 291.163 173 300 173L300 172ZM285 157L286 157C286 152.944 287.724 149.292 290.483 146.733L289.803 146L289.123 145.267C285.974 148.188 284 152.364 284 157L285 157ZM289.803 146L289.803 145L240 145L240 146L240 147L289.803 147L289.803 146ZM240 146L241 146L241 96.1975L240 96.1975L239 96.1975L239 146L240 146ZM240 96.1975L239.267 95.5175C236.709 98.2758 233.057 100 229 100L229 101L229 102C233.636 102 237.812 100.027 240.733 96.8775L240 96.1975ZM229 101L229 100C221.268 100 215 93.7322 215 86.0002L214 86.0002L213 86.0002C213 94.8368 220.163 102 229 102L229 101ZM214 86.0002L215 86.0002C215 78.2682 221.268 72.0002 229 72.0002L229 71.0002L229 70.0002C220.163 70.0002 213 77.1637 213 86.0002L214 86.0002ZM229 71.0002L229 72.0002C233.057 72.0002 236.709 73.7246 239.267 76.483L240 75.803L240.733 75.123C237.812 71.9738 233.636 70.0002 229 70.0002L229 71.0002ZM240 75.803L241 75.803L241 26.0002L240 26.0002L239 26.0002L239 75.803L240 75.803ZM240 26.0002L240 27.0002L289.803 27.0002L289.803 26.0002L289.803 25.0002L240 25.0002L240 26.0002ZM289.803 26.0002L290.483 25.267C287.724 22.7088 286 19.0567 286 15.0002L285 15.0002L284 15.0002C284 19.6364 285.974 23.8127 289.123 26.7334L289.803 26.0002ZM285 15.0002L286 15.0002C286 7.26825 292.268 1.00024 300 1.00024L300 0.000238895L300 -0.999761C291.163 -0.999762 284 6.16368 284 15.0002L285 15.0002ZM300 0.000238895L300 1.00024C307.732 1.00024 314 7.26826 314 15.0002L315 15.0002L316 15.0002C316 6.16369 308.837 -0.999755 300 -0.999761L300 0.000238895ZM315 15.0002L314 15.0002C314 19.0567 312.276 22.7088 309.517 25.267L310.197 26.0002L310.877 26.7334C314.026 23.8127 316 19.6364 316 15.0002L315 15.0002ZM310.197 26.0002L310.197 27.0002L360 27.0002L360 26.0002L360 25.0002L310.197 25.0002L310.197 26.0002ZM360 26.0002L359 26.0002L359 75.803L360 75.803L361 75.803L361 26.0002L360 26.0002ZM360 75.803L360.733 75.123C357.812 71.9738 353.636 70.0002 349 70.0002L349 71.0002L349 72.0002C353.057 72.0002 356.709 73.7246 359.267 76.483L360 75.803ZM349 71.0002L349 70.0002C340.163 70.0002 333 77.1637 333 86.0002L334 86.0002L335 86.0002C335 78.2683 341.268 72.0002 349 72.0002L349 71.0002ZM334 86.0002L333 86.0002C333 94.8368 340.163 102 349 102L349 101L349 100C341.268 100 335 93.7322 335 86.0002L334 86.0002ZM349 101L349 102C353.636 102 357.812 100.027 360.733 96.8775L360 96.1975L359.267 95.5175C356.709 98.2759 353.056 100 349 100L349 101ZM360 96.1975L359 96.1975L359 146L360 146L361 146L361 96.1975L360 96.1975ZM360 146L360 145L310.197 145L310.197 146L310.197 147L360 147L360 146ZM310.197 146L309.517 146.733C312.276 149.292 314 152.944 314 157L315 157L316 157C316 152.364 314.026 148.188 310.877 145.267L310.197 146ZM315 157L314 157C314 164.732 307.732 171 300 171L300 172L300 173C308.837 173 316 165.837 316 157L315 157Z" fill="#C99A69" fill-opacity="0.25" mask="url(#path-7-inside-4_153_4762)"/>
<mask id="path-9-inside-5_153_4762" fill="white">
<path d="M60 0C68.2842 0 74.9999 6.71578 75 15C75 19.3463 73.151 23.2605 70.1973 26H120V75.8027C117.26 72.849 113.346 71 109 71C100.716 71 94.0001 77.7158 94 86C94 94.2843 100.716 101 109 101C113.346 101 117.26 99.1511 120 96.1973V146H70.1963C73.1504 148.74 75 152.653 75 157C75 165.284 68.2843 172 60 172C51.7157 172 45 165.284 45 157C45 152.653 46.8496 148.74 49.8037 146H0V96.1973C2.73951 99.1511 6.65363 101 11 101C19.2843 101 26 94.2843 26 86C25.9999 77.7158 19.2842 71 11 71C6.65369 71 2.73951 72.849 0 75.8027V26H49.8027C46.849 23.2605 45 19.3463 45 15C45.0001 6.71578 51.7158 0 60 0Z"/>
</mask>
<path d="M60 0C68.2842 0 74.9999 6.71578 75 15C75 19.3463 73.151 23.2605 70.1973 26H120V75.8027C117.26 72.849 113.346 71 109 71C100.716 71 94.0001 77.7158 94 86C94 94.2843 100.716 101 109 101C113.346 101 117.26 99.1511 120 96.1973V146H70.1963C73.1504 148.74 75 152.653 75 157C75 165.284 68.2843 172 60 172C51.7157 172 45 165.284 45 157C45 152.653 46.8496 148.74 49.8037 146H0V96.1973C2.73951 99.1511 6.65363 101 11 101C19.2843 101 26 94.2843 26 86C25.9999 77.7158 19.2842 71 11 71C6.65369 71 2.73951 72.849 0 75.8027V26H49.8027C46.849 23.2605 45 19.3463 45 15C45.0001 6.71578 51.7158 0 60 0Z" fill="#F9F3ED"/>
<path d="M75 15L76 15L76 15L75 15ZM70.1973 26L69.5172 25.2668L67.6485 27H70.1973V26ZM120 26H121V25H120V26ZM120 75.8027L119.267 76.4828L121 78.3515V75.8027H120ZM94 86L93 86V86H94ZM120 96.1973H121V93.6485L119.267 95.5173L120 96.1973ZM120 146V147H121V146H120ZM70.1963 146V145H67.6473L69.5163 146.733L70.1963 146ZM75 157L76 157L76 157L75 157ZM45 157L44 157V157H45ZM49.8037 146L50.4837 146.733L52.3527 145H49.8037V146ZM0 146H-1V147H0V146ZM0 96.1973L0.733204 95.5173L-1 93.6485V96.1973H0ZM26 86L27 86L27 86L26 86ZM0 75.8027H-1V78.3515L0.733196 76.4828L0 75.8027ZM0 26V25H-1V26H0ZM49.8027 26V27H52.3515L50.4828 25.2668L49.8027 26ZM45 15L44 15V15H45ZM60 0V1C67.7319 1 73.9999 7.26806 74 15L75 15L76 15C75.9999 6.16351 68.8365 -1 60 -1V0ZM75 15H74C74 19.0565 72.2756 22.7085 69.5172 25.2668L70.1973 26L70.8773 26.7332C74.0264 23.8125 76 19.6361 76 15H75ZM70.1973 26V27H120V26V25H70.1973V26ZM120 26H119V75.8027H120H121V26H120ZM120 75.8027L120.733 75.1227C117.812 71.9736 113.636 70 109 70V71V72C113.056 72 116.709 73.7244 119.267 76.4828L120 75.8027ZM109 71V70C100.163 70 93.0001 77.1635 93 86L94 86L95 86C95.0001 78.2681 101.268 72 109 72V71ZM94 86H93C93 94.8366 100.163 102 109 102V101V100C101.268 100 95 93.732 95 86H94ZM109 101V102C113.636 102 117.812 100.027 120.733 96.8773L120 96.1973L119.267 95.5173C116.709 98.2757 113.057 100 109 100V101ZM120 96.1973H119V146H120H121V96.1973H120ZM120 146V145H70.1963V146V147H120V146ZM70.1963 146L69.5163 146.733C72.2751 149.292 74 152.943 74 157L75 157L76 157C76 152.363 74.0257 148.187 70.8763 145.267L70.1963 146ZM75 157H74C74 164.732 67.732 171 60 171V172V173C68.8366 173 76 165.837 76 157H75ZM60 172V171C52.268 171 46 164.732 46 157H45H44C44 165.837 51.1634 173 60 173V172ZM45 157L46 157C46 152.943 47.7249 149.292 50.4837 146.733L49.8037 146L49.1237 145.267C45.9743 148.187 44 152.363 44 157L45 157ZM49.8037 146V145H0V146V147H49.8037V146ZM0 146H1V96.1973H0H-1V146H0ZM0 96.1973L-0.733204 96.8773C2.18755 100.027 6.36381 102 11 102V101V100C6.94345 100 3.29148 98.2757 0.733204 95.5173L0 96.1973ZM11 101V102C19.8366 102 27 94.8366 27 86H26H25C25 93.732 18.732 100 11 100V101ZM26 86L27 86C26.9999 77.1635 19.8365 70 11 70V71V72C18.7319 72 24.9999 78.2681 25 86L26 86ZM11 71V70C6.36386 70 2.18754 71.9736 -0.733196 75.1227L0 75.8027L0.733196 76.4828C3.29148 73.7244 6.94353 72 11 72V71ZM0 75.8027H1V26H0H-1V75.8027H0ZM0 26V27H49.8027V26V25H0V26ZM49.8027 26L50.4828 25.2668C47.7244 22.7085 46 19.0565 46 15H45H44C44 19.6361 45.9736 23.8125 49.1227 26.7332L49.8027 26ZM45 15L46 15C46.0001 7.26806 52.2681 1 60 1V0V-1C51.1635 -1 44.0001 6.16351 44 15L45 15Z" fill="#C99A69" fill-opacity="0.25" mask="url(#path-9-inside-5_153_4762)"/>
</svg>
