<svg width="866" height="600" viewBox="0 0 866 600" fill="none" xmlns="http://www.w3.org/2000/svg">
<path d="M169.803 120C166.849 122.74 165 126.654 165 131C165 139.284 171.716 146 180 146C188.284 146 195 139.284 195 131C195 126.654 193.151 122.74 190.197 120H240V169.803C242.74 166.849 246.654 165 251 165C259.284 165 266 171.716 266 180C266 188.284 259.284 195 251 195C246.653 195 242.74 193.15 240 190.196V240H289.803C286.849 242.74 285 246.654 285 251C285 259.284 291.716 266 300 266C308.284 266 315 259.284 315 251C315 246.654 313.151 242.74 310.197 240H409.803C406.849 237.26 405 233.346 405 229C405 220.716 411.716 214 420 214C428.284 214 435 220.716 435 229C435 233.346 433.151 237.26 430.197 240H529.803C526.849 242.74 525 246.654 525 251C525 259.284 531.716 266 540 266C548.284 266 555 259.284 555 251C555 246.654 553.151 242.74 550.197 240H600V289.803C602.74 286.849 606.654 285 611 285C619.284 285 626 291.716 626 300C626 308.284 619.284 315 611 315C606.653 315 602.74 313.15 600 310.196V360H649.803C646.849 362.74 645 366.654 645 371C645 379.284 651.716 386 660 386C668.284 386 675 379.284 675 371C675 366.654 673.151 362.74 670.197 360H720V409.803C722.74 406.849 726.654 405 731 405C739.284 405 746 411.716 746 420C746 428.284 739.284 435 731 435C726.653 435 722.74 433.15 720 430.196V480H769.803C766.849 482.74 765 486.654 765 491C765 499.284 771.716 506 780 506C788.284 506 795 499.284 795 491C795 486.654 793.151 482.74 790.197 480H840V529.803C842.74 526.849 846.654 525 851 525C859.284 525 866 531.716 866 540C866 548.284 859.284 555 851 555C846.653 555 842.74 553.15 840 550.196V600H0V240H49.8027C46.849 242.74 45 246.654 45 251C45 259.284 51.7157 266 60 266C68.2843 266 75 259.284 75 251C75 246.653 73.1504 242.74 70.1963 240H120V190.197C117.26 193.151 113.346 195 109 195C100.716 195 94 188.284 94 180C94 171.716 100.716 165 109 165C113.346 165 117.26 166.849 120 169.803V120H169.803ZM49.8027 0C46.849 2.73951 45 6.65366 45 11C45 19.2843 51.7157 26 60 26C68.2843 26 75 19.2843 75 11C75 6.65366 73.151 2.73951 70.1973 0H120V49.8027C122.74 46.849 126.654 45 131 45C139.284 45 146 51.7157 146 60C146 68.2843 139.284 75 131 75C126.653 75 122.74 73.1504 120 70.1963V120H70.1963C73.1504 117.26 75 113.347 75 109C75 100.716 68.2843 94 60 94C51.7157 94 45 100.716 45 109C45 113.346 46.849 117.26 49.8027 120H0V0H49.8027Z" fill="#F9F3ED"/>
</svg>
