<svg width="290" height="265" viewBox="0 0 290 265" fill="none" xmlns="http://www.w3.org/2000/svg">
<mask id="path-1-inside-1_224_5399" fill="white">
<path d="M-3.71547e-06 180C-4.07758e-06 171.716 6.71578 165 15 165C18.842 165 22.3462 166.445 25 168.82L25 120L73.8203 120C71.4449 117.346 70 113.842 70 110C70 101.716 76.7158 95.0001 85 95C93.2843 95 100 101.716 100 110C100 113.842 98.5552 117.346 96.1797 120L145 120L145 168.82C147.654 166.445 151.158 165 155 165C163.284 165 170 171.716 170 180C170 188.284 163.284 195 155 195C151.158 195 147.654 193.555 145 191.18L145 240L96.1797 240C98.5551 242.654 100 246.158 100 250C99.9999 258.284 93.2842 265 85 265C76.7158 265 70.0001 258.284 70 250C70 246.158 71.445 242.654 73.8203 240L25 240L25 191.18C22.3462 193.555 18.8419 195 15 195C6.71582 195 6.21061e-05 188.284 -3.71547e-06 180Z"/>
</mask>
<path d="M-3.71547e-06 180C-4.07758e-06 171.716 6.71578 165 15 165C18.842 165 22.3462 166.445 25 168.82L25 120L73.8203 120C71.4449 117.346 70 113.842 70 110C70 101.716 76.7158 95.0001 85 95C93.2843 95 100 101.716 100 110C100 113.842 98.5552 117.346 96.1797 120L145 120L145 168.82C147.654 166.445 151.158 165 155 165C163.284 165 170 171.716 170 180C170 188.284 163.284 195 155 195C151.158 195 147.654 193.555 145 191.18L145 240L96.1797 240C98.5551 242.654 100 246.158 100 250C99.9999 258.284 93.2842 265 85 265C76.7158 265 70.0001 258.284 70 250C70 246.158 71.445 242.654 73.8203 240L25 240L25 191.18C22.3462 193.555 18.8419 195 15 195C6.71582 195 6.21061e-05 188.284 -3.71547e-06 180Z" fill="#F9F3ED"/>
<path d="M-3.71547e-06 180L-1 180L-1 180L-3.71547e-06 180ZM15 165L15 164L15 164L15 165ZM25 168.82L24.3331 169.565L26 171.057L26 168.82L25 168.82ZM25 120L25 119L24 119L24 120L25 120ZM73.8203 120L73.8203 121L76.0575 121L74.5654 119.333L73.8203 120ZM70 110L69 110L69 110L70 110ZM85 95L85 94L85 94L85 95ZM100 110L101 110L101 110L100 110ZM96.1797 120L95.4346 119.333L93.9425 121L96.1797 121L96.1797 120ZM145 120L146 120L146 119L145 119L145 120ZM145 168.82L144 168.82L144 171.058L145.667 169.565L145 168.82ZM155 165L155 164L155 164L155 165ZM170 180L171 180L171 180L170 180ZM155 195L155 196L155 196L155 195ZM145 191.18L145.667 190.435L144 188.943L144 191.18L145 191.18ZM145 240L145 241L146 241L146 240L145 240ZM96.1797 240L96.1797 239L93.9425 239L95.4346 240.667L96.1797 240ZM100 250L101 250L101 250L100 250ZM85 265L85 266L85 266L85 265ZM70 250L69 250L69 250L70 250ZM73.8203 240L74.5654 240.667L76.0575 239L73.8203 239L73.8203 240ZM25 240L24 240L24 241L25 241L25 240ZM25 191.18L26 191.18L26 188.943L24.3331 190.435L25 191.18ZM15 195L15 196L15 196L15 195ZM-3.71547e-06 180L0.999996 180C0.999996 172.268 7.26806 166 15 166L15 165L15 164C6.1635 164 -1 171.163 -1 180L-3.71547e-06 180ZM15 165L15 166C18.5864 166 21.8554 167.348 24.3331 169.565L25 168.82L25.6669 168.075C22.8369 165.542 19.0976 164 15 164L15 165ZM25 168.82L26 168.82L26 120L25 120L24 120L24 168.82L25 168.82ZM25 120L25 121L73.8203 121L73.8203 120L73.8203 119L25 119L25 120ZM73.8203 120L74.5654 119.333C72.3477 116.855 71 113.586 71 110L70 110L69 110C69 114.098 70.5421 117.837 73.0752 120.667L73.8203 120ZM70 110L71 110C71 102.268 77.2681 96.0001 85 96L85 95L85 94C76.1635 94.0001 69 101.163 69 110L70 110ZM85 95L85 96C92.732 96 99 102.268 99 110L100 110L101 110C101 101.163 93.8365 94 85 94L85 95ZM100 110L99 110C99 113.586 97.6523 116.855 95.4346 119.333L96.1797 120L96.9248 120.667C99.458 117.837 101 114.098 101 110L100 110ZM96.1797 120L96.1797 121L145 121L145 120L145 119L96.1797 119L96.1797 120ZM145 120L144 120L144 168.82L145 168.82L146 168.82L146 120L145 120ZM145 168.82L145.667 169.565C148.145 167.348 151.414 166 155 166L155 165L155 164C150.902 164 147.163 165.542 144.333 168.075L145 168.82ZM155 165L155 166C162.732 166 169 172.268 169 180L170 180L171 180C171 171.163 163.837 164 155 164L155 165ZM170 180L169 180C169 187.732 162.732 194 155 194L155 195L155 196C163.837 196 171 188.836 171 180L170 180ZM155 195L155 194C151.414 194 148.145 192.652 145.667 190.435L145 191.18L144.333 191.925C147.163 194.458 150.902 196 155 196L155 195ZM145 191.18L144 191.18L144 240L145 240L146 240L146 191.18L145 191.18ZM145 240L145 239L96.1797 239L96.1797 240L96.1797 241L145 241L145 240ZM96.1797 240L95.4346 240.667C97.6523 243.145 99 246.414 99 250L100 250L101 250C101 245.902 99.4579 242.163 96.9248 239.333L96.1797 240ZM100 250L99 250C98.9999 257.732 92.7319 264 85 264L85 265L85 266C93.8365 266 101 258.836 101 250L100 250ZM85 265L85 264C77.2681 264 71.0001 257.732 71 250L70 250L69 250C69.0001 258.836 76.1635 266 85 266L85 265ZM70 250L71 250C71 246.414 72.3477 243.145 74.5654 240.667L73.8203 240L73.0752 239.333C70.5422 242.163 69 245.902 69 250L70 250ZM73.8203 240L73.8203 239L25 239L25 240L25 241L73.8203 241L73.8203 240ZM25 240L26 240L26 191.18L25 191.18L24 191.18L24 240L25 240ZM25 191.18L24.3331 190.435C21.8554 192.652 18.5863 194 15 194L15 195L15 196C19.0975 196 22.837 194.458 25.6669 191.925L25 191.18ZM15 195L15 194C7.26811 194 1.00006 187.732 0.999996 180L-3.71547e-06 180L-1 180C-0.999934 188.836 6.16354 196 15 196L15 195Z" fill="#C99A69" fill-opacity="0.25" mask="url(#path-1-inside-1_224_5399)"/>
<mask id="path-3-inside-2_224_5399" fill="white">
<path d="M290 60C290 68.2842 283.284 74.9999 275 75C271.158 75 267.654 73.5551 265 71.1797L265 120L215.197 120C218.151 117.26 220 113.346 220 109C220 100.716 213.284 94 205 94C196.716 94 190 100.716 190 109C190 113.346 191.849 117.26 194.803 120L145 120L145 71.1797C142.346 73.5551 138.842 75 135 75C126.716 75 120 68.2843 120 60C120 51.7157 126.716 45 135 45C138.842 45 142.346 46.4449 145 48.8203L145 -6.33815e-06L194.803 -4.1612e-06C191.849 2.73951 190 6.65364 190 11C190 19.2843 196.716 26 205 26C213.284 26 220 19.2842 220 11C220 6.65368 218.151 2.73951 215.197 -3.26973e-06L265 -1.09278e-06L265 48.8203C267.654 46.4449 271.158 45 275 45C283.284 45.0001 290 51.7158 290 60Z"/>
</mask>
<path d="M290 60C290 68.2842 283.284 74.9999 275 75C271.158 75 267.654 73.5551 265 71.1797L265 120L215.197 120C218.151 117.26 220 113.346 220 109C220 100.716 213.284 94 205 94C196.716 94 190 100.716 190 109C190 113.346 191.849 117.26 194.803 120L145 120L145 71.1797C142.346 73.5551 138.842 75 135 75C126.716 75 120 68.2843 120 60C120 51.7157 126.716 45 135 45C138.842 45 142.346 46.4449 145 48.8203L145 -6.33815e-06L194.803 -4.1612e-06C191.849 2.73951 190 6.65364 190 11C190 19.2843 196.716 26 205 26C213.284 26 220 19.2842 220 11C220 6.65368 218.151 2.73951 215.197 -3.26973e-06L265 -1.09278e-06L265 48.8203C267.654 46.4449 271.158 45 275 45C283.284 45.0001 290 51.7158 290 60Z" fill="#F9F3ED"/>
<path d="M290 60L291 60V60L290 60ZM275 75L275 76L275 76L275 75ZM265 71.1797L265.667 70.4346L264 68.9425L264 71.1797L265 71.1797ZM265 120L265 121L266 121L266 120L265 120ZM215.197 120L214.517 119.267L212.649 121L215.197 121L215.197 120ZM220 109L221 109V109L220 109ZM205 94L205 93L205 93L205 94ZM190 109L189 109V109L190 109ZM194.803 120L194.803 121L197.352 121L195.483 119.267L194.803 120ZM145 120L144 120L144 121L145 121L145 120ZM145 71.1797L146 71.1797L146 68.9425L144.333 70.4346L145 71.1797ZM135 75L135 76L135 76L135 75ZM120 60L119 60L119 60L120 60ZM135 45L135 44L135 44L135 45ZM145 48.8203L144.333 49.5654L146 51.0575L146 48.8203L145 48.8203ZM145 -6.33815e-06L145 -1.00001L144 -1.00001L144 -6.38186e-06L145 -6.33815e-06ZM194.803 -4.1612e-06L195.483 0.733198L197.352 -1L194.803 -1L194.803 -4.1612e-06ZM190 11L189 11V11L190 11ZM205 26L205 27L205 27L205 26ZM220 11L221 11L221 11L220 11ZM215.197 -3.26973e-06L215.197 -1L212.649 -1L214.517 0.733195L215.197 -3.26973e-06ZM265 -1.09278e-06L266 -1.04907e-06L266 -1L265 -1L265 -1.09278e-06ZM265 48.8203L264 48.8203L264 51.0575L265.667 49.5654L265 48.8203ZM275 45L275 44L275 44L275 45ZM290 60L289 60C289 67.7319 282.732 73.9999 275 74L275 75L275 76C283.837 75.9999 291 68.8365 291 60L290 60ZM275 75L275 74C271.414 74 268.145 72.6523 265.667 70.4346L265 71.1797L264.333 71.9248C267.163 74.4579 270.903 76 275 76L275 75ZM265 71.1797L264 71.1797L264 120L265 120L266 120L266 71.1797L265 71.1797ZM265 120L265 119L215.197 119L215.197 120L215.197 121L265 121L265 120ZM215.197 120L215.877 120.733C219.027 117.812 221 113.636 221 109L220 109L219 109C219 113.056 217.276 116.709 214.517 119.267L215.197 120ZM220 109L221 109C221 100.163 213.837 93 205 93L205 94L205 95C212.732 95 219 101.268 219 109L220 109ZM205 94L205 93C196.164 93 189 100.163 189 109L190 109L191 109C191 101.268 197.268 95 205 95L205 94ZM190 109L189 109C189 113.636 190.974 117.812 194.123 120.733L194.803 120L195.483 119.267C192.725 116.709 191 113.057 191 109L190 109ZM194.803 120L194.803 119L145 119L145 120L145 121L194.803 121L194.803 120ZM145 120L146 120L146 71.1797L145 71.1797L144 71.1797L144 120L145 120ZM145 71.1797L144.333 70.4346C141.856 72.6523 138.587 74 135 74L135 75L135 76C139.098 76 142.837 74.4579 145.667 71.9248L145 71.1797ZM135 75L135 74C127.268 74 121 67.732 121 60L120 60L119 60C119 68.8365 126.164 76 135 76L135 75ZM120 60L121 60C121 52.268 127.268 46 135 46L135 45L135 44C126.164 44 119 51.1634 119 60L120 60ZM135 45L135 46C138.587 46 141.856 47.3477 144.333 49.5654L145 48.8203L145.667 48.0752C142.837 45.5421 139.098 44 135 44L135 45ZM145 48.8203L146 48.8203L146 -6.29444e-06L145 -6.33815e-06L144 -6.38186e-06L144 48.8203L145 48.8203ZM145 -6.33815e-06L145 0.999994L194.803 0.999996L194.803 -4.1612e-06L194.803 -1L145 -1.00001L145 -6.33815e-06ZM194.803 -4.1612e-06L194.123 -0.733206C190.974 2.18754 189 6.36382 189 11L190 11L191 11C191 6.94347 192.725 3.29147 195.483 0.733198L194.803 -4.1612e-06ZM190 11L189 11C189 19.8366 196.164 27 205 27L205 26L205 25C197.268 25 191 18.732 191 11L190 11ZM205 26L205 27C213.837 27 221 19.8365 221 11L220 11L219 11C219 18.732 212.732 25 205 25L205 26ZM220 11L221 11C221 6.36385 219.027 2.18754 215.877 -0.733201L215.197 -3.26973e-06L214.517 0.733195C217.276 3.29147 219 6.9435 219 11L220 11ZM215.197 -3.26973e-06L215.197 0.999997L265 0.999999L265 -1.09278e-06L265 -1L215.197 -1L215.197 -3.26973e-06ZM265 -1.09278e-06L264 -1.1365e-06L264 48.8203L265 48.8203L266 48.8203L266 -1.04907e-06L265 -1.09278e-06ZM265 48.8203L265.667 49.5654C268.145 47.3477 271.414 46 275 46L275 45L275 44C270.903 44 267.163 45.5421 264.333 48.0752L265 48.8203ZM275 45L275 46C282.732 46.0001 289 52.2681 289 60L290 60L291 60C291 51.1635 283.837 44.0001 275 44L275 45Z" fill="#C99A69" fill-opacity="0.25" mask="url(#path-3-inside-2_224_5399)"/>
</svg>
