<svg width="505" height="650" viewBox="0 0 505 650" fill="none" xmlns="http://www.w3.org/2000/svg">
<mask id="path-1-inside-1_162_4885" fill="white">
<path d="M205 240C213.284 240 220 246.716 220 255C220 258.842 218.555 262.346 216.18 265H265V313.82C267.654 311.445 271.158 310 275 310C283.284 310 290 316.716 290 325C290 333.284 283.284 340 275 340C271.158 340 267.654 338.555 265 336.18V385H216.18C218.555 382.346 220 378.842 220 375C220 366.716 213.284 360 205 360C196.716 360 190 366.716 190 375C190 378.842 191.445 382.346 193.82 385H145V336.18C147.654 338.555 151.158 340 155 340C163.284 340 170 333.284 170 325C170 316.716 163.284 310 155 310C151.158 310 147.654 311.445 145 313.82V265H193.82C191.445 262.346 190 258.842 190 255C190 246.716 196.716 240 205 240Z"/>
</mask>
<path d="M205 240C213.284 240 220 246.716 220 255C220 258.842 218.555 262.346 216.18 265H265V313.82C267.654 311.445 271.158 310 275 310C283.284 310 290 316.716 290 325C290 333.284 283.284 340 275 340C271.158 340 267.654 338.555 265 336.18V385H216.18C218.555 382.346 220 378.842 220 375C220 366.716 213.284 360 205 360C196.716 360 190 366.716 190 375C190 378.842 191.445 382.346 193.82 385H145V336.18C147.654 338.555 151.158 340 155 340C163.284 340 170 333.284 170 325C170 316.716 163.284 310 155 310C151.158 310 147.654 311.445 145 313.82V265H193.82C191.445 262.346 190 258.842 190 255C190 246.716 196.716 240 205 240Z" fill="#F9F3ED"/>
<path d="M220 255L221 255L221 255L220 255ZM216.18 265L215.435 264.333L213.943 266H216.18V265ZM265 265H266V264H265V265ZM265 313.82H264V316.057L265.667 314.565L265 313.82ZM290 325L291 325L291 325L290 325ZM265 336.18L265.667 335.435L264 333.942V336.18H265ZM265 385V386H266V385H265ZM216.18 385L215.435 384.333L213.943 386H216.18V385ZM220 375L221 375L221 375L220 375ZM190 375L189 375V375H190ZM193.82 385V386H196.057L194.565 384.333L193.82 385ZM145 385H144V386H145V385ZM145 336.18L145.667 335.435L144 333.942V336.18H145ZM170 325L171 325L171 325L170 325ZM145 313.82H144V316.057L145.667 314.565L145 313.82ZM145 265V264H144V265H145ZM193.82 265V266H196.057L194.565 264.333L193.82 265ZM190 255L189 255V255H190ZM205 240V241C212.732 241 219 247.268 219 255L220 255L221 255C221 246.164 213.837 239 205 239V240ZM220 255H219C219 258.586 217.652 261.855 215.435 264.333L216.18 265L216.925 265.667C219.458 262.837 221 259.098 221 255H220ZM216.18 265V266H265V265V264H216.18V265ZM265 265H264V313.82H265H266V265H265ZM265 313.82L265.667 314.565C268.145 312.348 271.414 311 275 311V310V309C270.902 309 267.163 310.542 264.333 313.075L265 313.82ZM275 310V311C282.732 311 289 317.268 289 325L290 325L291 325C291 316.164 283.837 309 275 309V310ZM290 325H289C289 332.732 282.732 339 275 339V340V341C283.837 341 291 333.837 291 325H290ZM275 340V339C271.414 339 268.145 337.652 265.667 335.435L265 336.18L264.333 336.925C267.163 339.458 270.902 341 275 341V340ZM265 336.18H264V385H265H266V336.18H265ZM265 385V384H216.18V385V386H265V385ZM216.18 385L216.925 385.667C219.458 382.837 221 379.098 221 375H220H219C219 378.586 217.652 381.855 215.435 384.333L216.18 385ZM220 375L221 375C221 366.164 213.837 359 205 359V360V361C212.732 361 219 367.268 219 375L220 375ZM205 360V359C196.163 359 189 366.164 189 375L190 375L191 375C191 367.268 197.268 361 205 361V360ZM190 375H189C189 379.098 190.542 382.837 193.075 385.667L193.82 385L194.565 384.333C192.348 381.855 191 378.586 191 375H190ZM193.82 385V384H145V385V386H193.82V385ZM145 385H146V336.18H145H144V385H145ZM145 336.18L144.333 336.925C147.163 339.458 150.902 341 155 341V340V339C151.414 339 148.145 337.652 145.667 335.435L145 336.18ZM155 340V341C163.837 341 171 333.837 171 325H170H169C169 332.732 162.732 339 155 339V340ZM170 325L171 325C171 316.164 163.837 309 155 309V310V311C162.732 311 169 317.268 169 325L170 325ZM155 310V309C150.902 309 147.163 310.542 144.333 313.075L145 313.82L145.667 314.565C148.145 312.348 151.414 311 155 311V310ZM145 313.82H146V265H145H144V313.82H145ZM145 265V266H193.82V265V264H145V265ZM193.82 265L194.565 264.333C192.348 261.855 191 258.586 191 255H190H189C189 259.098 190.542 262.837 193.075 265.667L193.82 265ZM190 255L191 255C191 247.268 197.268 241 205 241V240V239C196.163 239 189 246.164 189 255L190 255Z" fill="#C99A69" fill-opacity="0.25" mask="url(#path-1-inside-1_162_4885)"/>
<mask id="path-3-inside-2_162_4885" fill="white">
<path d="M170 205C170 213.285 163.284 220 155 220C151.158 220 147.654 218.556 145 216.18L145 265L95.1974 265C98.1512 262.261 100 258.347 100 254C100 245.716 93.2844 239.001 85.0002 239C76.7159 239 70.0002 245.716 70.0002 254C70.0002 258.347 71.8491 262.261 74.8029 265L25.0002 265L25.0002 216.18C22.3464 218.556 18.8421 220 15.0002 220C6.71591 220 0.000180121 213.285 0.000180483 205C0.000185484 196.716 6.71591 190 15.0002 190C18.8421 190.001 22.3464 191.445 25.0002 193.821L25.0002 145L74.8029 145C71.8491 147.74 70.0002 151.654 70.0002 156C70.0002 164.285 76.7159 171 85.0002 171C93.2844 171 100 164.285 100 156C100 151.654 98.1512 147.74 95.1974 145L145 145L145 193.821C147.654 191.445 151.158 190 155 190C163.284 190.001 170 196.716 170 205Z"/>
</mask>
<path d="M170 205C170 213.285 163.284 220 155 220C151.158 220 147.654 218.556 145 216.18L145 265L95.1974 265C98.1512 262.261 100 258.347 100 254C100 245.716 93.2844 239.001 85.0002 239C76.7159 239 70.0002 245.716 70.0002 254C70.0002 258.347 71.8491 262.261 74.8029 265L25.0002 265L25.0002 216.18C22.3464 218.556 18.8421 220 15.0002 220C6.71591 220 0.000180121 213.285 0.000180483 205C0.000185484 196.716 6.71591 190 15.0002 190C18.8421 190.001 22.3464 191.445 25.0002 193.821L25.0002 145L74.8029 145C71.8491 147.74 70.0002 151.654 70.0002 156C70.0002 164.285 76.7159 171 85.0002 171C93.2844 171 100 164.285 100 156C100 151.654 98.1512 147.74 95.1974 145L145 145L145 193.821C147.654 191.445 151.158 190 155 190C163.284 190.001 170 196.716 170 205Z" fill="#F9F3ED"/>
<path d="M170 205L171 205V205L170 205ZM155 220L155 221L155 221L155 220ZM145 216.18L145.667 215.435L144 213.943L144 216.18L145 216.18ZM145 265L145 266L146 266L146 265L145 265ZM95.1974 265L94.5174 264.267L92.6487 266L95.1974 266L95.1974 265ZM100 254L101 254V254L100 254ZM85.0002 239L85.0002 238L85.0002 238L85.0002 239ZM70.0002 254L69.0002 254V254L70.0002 254ZM74.8029 265L74.8029 266L77.3517 266L75.4829 264.267L74.8029 265ZM25.0002 265L24.0002 265L24.0002 266L25.0002 266L25.0002 265ZM25.0002 216.18L26.0002 216.18L26.0002 213.943L24.3332 215.435L25.0002 216.18ZM15.0002 220L15.0002 221L15.0002 221L15.0002 220ZM0.000180483 205L-0.99982 205L-0.99982 205L0.000180483 205ZM15.0002 190L15.0002 189L15.0002 189L15.0002 190ZM25.0002 193.821L24.3332 194.566L26.0002 196.058L26.0002 193.821L25.0002 193.821ZM25.0002 145L25.0002 144L24.0002 144L24.0002 145L25.0002 145ZM74.8029 145L75.4829 145.734L77.3517 144L74.8029 144L74.8029 145ZM70.0002 156L69.0002 156L69.0002 156L70.0002 156ZM85.0002 171L85.0002 172L85.0002 172L85.0002 171ZM100 156L101 156L101 156L100 156ZM95.1974 145L95.1974 144L92.6487 144L94.5174 145.734L95.1974 145ZM145 145L146 145L146 144L145 144L145 145ZM145 193.821L144 193.821L144 196.058L145.667 194.566L145 193.821ZM155 190L155 189L155 189L155 190ZM170 205L169 205C169 212.732 162.732 219 155 219L155 220L155 221C163.837 221 171 213.837 171 205L170 205ZM155 220L155 219C151.414 219 148.145 217.653 145.667 215.435L145 216.18L144.333 216.925C147.163 219.458 150.903 221 155 221L155 220ZM145 216.18L144 216.18L144 265L145 265L146 265L146 216.18L145 216.18ZM145 265L145 264L95.1974 264L95.1974 265L95.1974 266L145 266L145 265ZM95.1974 265L95.8775 265.734C99.0266 262.813 101 258.637 101 254L100 254L99.0002 254C99.0002 258.057 97.2758 261.709 94.5174 264.267L95.1974 265ZM100 254L101 254C101 245.164 93.8367 238.001 85.0002 238L85.0002 239L85.0002 240C92.7321 240.001 99.0002 246.269 99.0002 254L100 254ZM85.0002 239L85.0002 238C76.1636 238 69.0002 245.164 69.0002 254L70.0002 254L71.0002 254C71.0002 246.268 77.2682 240 85.0002 240L85.0002 239ZM70.0002 254L69.0002 254C69.0002 258.637 70.9737 262.813 74.1229 265.734L74.8029 265L75.4829 264.267C72.7245 261.709 71.0002 258.057 71.0002 254L70.0002 254ZM74.8029 265L74.8029 264L25.0002 264L25.0002 265L25.0002 266L74.8029 266L74.8029 265ZM25.0002 265L26.0002 265L26.0002 216.18L25.0002 216.18L24.0002 216.18L24.0002 265L25.0002 265ZM25.0002 216.18L24.3332 215.435C21.8556 217.653 18.5865 219 15.0002 219L15.0002 220L15.0002 221C19.0977 221 22.8371 219.458 25.6671 216.925L25.0002 216.18ZM15.0002 220L15.0002 219C7.26819 219 1.00018 212.732 1.00018 205L0.000180483 205L-0.99982 205C-0.99982 213.837 6.16362 221 15.0002 221L15.0002 220ZM0.000180483 205L1.00018 205C1.00019 197.268 7.2682 191 15.0002 191L15.0002 190L15.0002 189C6.16363 189 -0.999814 196.164 -0.99982 205L0.000180483 205ZM15.0002 190L15.0002 191C18.5865 191.001 21.8556 192.348 24.3332 194.566L25.0002 193.821L25.6671 193.076C22.8371 190.543 19.0977 189.001 15.0002 189L15.0002 190ZM25.0002 193.821L26.0002 193.821L26.0002 145L25.0002 145L24.0002 145L24.0002 193.821L25.0002 193.821ZM25.0002 145L25.0002 146L74.8029 146L74.8029 145L74.8029 144L25.0002 144L25.0002 145ZM74.8029 145L74.1229 144.267C70.9737 147.188 69.0002 151.364 69.0002 156L70.0002 156L71.0002 156C71.0002 151.944 72.7245 148.292 75.4829 145.734L74.8029 145ZM70.0002 156L69.0002 156C69.0002 164.837 76.1636 172 85.0002 172L85.0002 171L85.0002 170C77.2682 170 71.0002 163.732 71.0002 156L70.0002 156ZM85.0002 171L85.0002 172C93.8367 172 101 164.837 101 156L100 156L99.0002 156C99.0002 163.732 92.7321 170 85.0002 170L85.0002 171ZM100 156L101 156C101 151.364 99.0266 147.188 95.8775 144.267L95.1974 145L94.5174 145.734C97.2758 148.292 99.0002 151.944 99.0002 156L100 156ZM95.1974 145L95.1974 146L145 146L145 145L145 144L95.1974 144L95.1974 145ZM145 145L144 145L144 193.821L145 193.821L146 193.821L146 145L145 145ZM145 193.821L145.667 194.566C148.145 192.348 151.414 191 155 191L155 190L155 189C150.903 189 147.163 190.543 144.333 193.076L145 193.821ZM155 190L155 191C162.732 191.001 169 197.269 169 205L170 205L171 205C171 196.164 163.837 189.001 155 189L155 190Z" fill="#C99A69" fill-opacity="0.25" mask="url(#path-3-inside-2_162_4885)"/>
<mask id="path-5-inside-3_162_4885" fill="white">
<path d="M205 480C213.284 480 220 486.716 220 495C220 498.842 218.555 502.346 216.18 505L265 505L265 553.82C267.654 551.445 271.158 550 275 550C283.284 550 290 556.716 290 565C290 573.284 283.284 580 275 580C271.158 580 267.654 578.554 265 576.179L265 625L216.18 625C218.555 627.654 220 631.158 220 635C220 643.284 213.284 650 205 650C196.716 650 190 643.284 190 635C190 631.158 191.445 627.654 193.82 625L145 625L145 576.179C147.654 578.554 151.158 580 155 580C163.284 580 170 573.284 170 565C170 556.716 163.284 550 155 550C151.158 550 147.654 551.445 145 553.82L145 505L193.82 505C191.445 502.346 190 498.842 190 495C190 486.716 196.716 480 205 480Z"/>
</mask>
<path d="M205 480C213.284 480 220 486.716 220 495C220 498.842 218.555 502.346 216.18 505L265 505L265 553.82C267.654 551.445 271.158 550 275 550C283.284 550 290 556.716 290 565C290 573.284 283.284 580 275 580C271.158 580 267.654 578.554 265 576.179L265 625L216.18 625C218.555 627.654 220 631.158 220 635C220 643.284 213.284 650 205 650C196.716 650 190 643.284 190 635C190 631.158 191.445 627.654 193.82 625L145 625L145 576.179C147.654 578.554 151.158 580 155 580C163.284 580 170 573.284 170 565C170 556.716 163.284 550 155 550C151.158 550 147.654 551.445 145 553.82L145 505L193.82 505C191.445 502.346 190 498.842 190 495C190 486.716 196.716 480 205 480Z" fill="#F9F3ED"/>
<path d="M205 480L205 479H205L205 480ZM220 495L221 495L221 495L220 495ZM216.18 505L215.435 504.333L213.943 506H216.18L216.18 505ZM265 505H266V504H265V505ZM265 553.82H264L264 556.057L265.667 554.565L265 553.82ZM275 550L275 549H275L275 550ZM290 565L291 565V565H290ZM275 580L275 581H275V580ZM265 576.179L265.667 575.434L264 573.941V576.179H265ZM265 625V626H266V625H265ZM216.18 625V624H213.942L215.435 625.667L216.18 625ZM220 635L221 635L221 635L220 635ZM205 650L205 651H205L205 650ZM190 635L189 635L189 635H190ZM193.82 625L194.565 625.667L196.058 624H193.82V625ZM145 625H144V626H145V625ZM145 576.179L145.667 575.434L144 573.941V576.179H145ZM155 580L155 581H155L155 580ZM170 565L171 565V565H170ZM155 550L155 549L155 549L155 550ZM145 553.82H144L144 556.057L145.667 554.565L145 553.82ZM145 505V504H144V505H145ZM193.82 505V506H196.057L194.565 504.333L193.82 505ZM190 495L189 495V495H190ZM205 480V481C212.732 481 219 487.268 219 495L220 495L221 495C221 486.164 213.837 479 205 479V480ZM220 495H219C219 498.586 217.652 501.855 215.435 504.333L216.18 505L216.925 505.667C219.458 502.837 221 499.098 221 495H220ZM216.18 505L216.18 506L265 506V505V504L216.18 504V505ZM265 505L264 505L264 553.82H265H266L266 505H265ZM265 553.82L265.667 554.565C268.145 552.348 271.414 551 275 551L275 550L275 549C270.902 549 267.163 550.542 264.333 553.075L265 553.82ZM275 550V551C282.732 551 289 557.268 289 565H290H291C291 556.163 283.837 549 275 549V550ZM290 565L289 565C289 572.732 282.732 579 275 579V580V581C283.837 581 291 573.837 291 565L290 565ZM275 580L275 579C271.414 579 268.145 577.652 265.667 575.434L265 576.179L264.333 576.924C267.163 579.457 270.902 581 275 581L275 580ZM265 576.179H264L264 625H265H266L266 576.179H265ZM265 625V624L216.18 624V625V626L265 626V625ZM216.18 625L215.435 625.667C217.652 628.145 219 631.414 219 635L220 635L221 635C221 630.902 219.458 627.163 216.925 624.333L216.18 625ZM220 635H219C219 642.732 212.732 649 205 649V650L205 651C213.837 651 221 643.837 221 635L220 635ZM205 650L205 649C197.268 649 191 642.732 191 635H190H189C189 643.837 196.163 651 205 651L205 650ZM190 635L191 635C191 631.414 192.348 628.145 194.565 625.667L193.82 625L193.075 624.333C190.542 627.163 189 630.902 189 635L190 635ZM193.82 625V624L145 624V625V626L193.82 626V625ZM145 625H146L146 576.179H145H144L144 625H145ZM145 576.179L144.333 576.924C147.163 579.457 150.902 581 155 581L155 580L155 579C151.414 579 148.145 577.652 145.667 575.434L145 576.179ZM155 580L155 581C163.837 581 171 573.837 171 565L170 565L169 565C169 572.732 162.732 579 155 579V580ZM170 565H171C171 556.163 163.837 549 155 549V550V551C162.732 551 169 557.268 169 565H170ZM155 550L155 549C150.902 549 147.163 550.542 144.333 553.075L145 553.82L145.667 554.565C148.145 552.348 151.414 551 155 551L155 550ZM145 553.82H146L146 505H145H144L144 553.82H145ZM145 505V506L193.82 506V505V504L145 504V505ZM193.82 505L194.565 504.333C192.348 501.855 191 498.586 191 495H190H189C189 499.098 190.542 502.837 193.075 505.667L193.82 505ZM190 495L191 495C191 487.268 197.268 481 205 481L205 480L205 479C196.163 479 189 486.164 189 495L190 495Z" fill="#C99A69" fill-opacity="0.25" mask="url(#path-5-inside-3_162_4885)"/>
<mask id="path-7-inside-4_162_4885" fill="white">
<path d="M240 205C240 196.716 246.716 190.001 255 190C258.842 190 262.346 191.445 265 193.821L265 145L313.82 145C311.445 142.347 310 138.842 310 135C310 126.716 316.716 120.001 325 120C333.284 120 340 126.716 340 135C340 138.842 338.555 142.347 336.18 145L385 145L385 193.821C387.654 191.445 391.158 190.001 395 190C403.284 190 410 196.716 410 205C410 213.285 403.284 220 395 220C391.158 220 387.654 218.556 385 216.18L385 265L336.18 265C338.555 267.654 340 271.159 340 275C340 283.285 333.284 290 325 290C316.716 290 310 283.285 310 275C310 271.159 311.445 267.654 313.82 265L265 265L265 216.18C262.346 218.556 258.842 220 255 220C246.716 220 240 213.285 240 205Z"/>
</mask>
<path d="M240 205C240 196.716 246.716 190.001 255 190C258.842 190 262.346 191.445 265 193.821L265 145L313.82 145C311.445 142.347 310 138.842 310 135C310 126.716 316.716 120.001 325 120C333.284 120 340 126.716 340 135C340 138.842 338.555 142.347 336.18 145L385 145L385 193.821C387.654 191.445 391.158 190.001 395 190C403.284 190 410 196.716 410 205C410 213.285 403.284 220 395 220C391.158 220 387.654 218.556 385 216.18L385 265L336.18 265C338.555 267.654 340 271.159 340 275C340 283.285 333.284 290 325 290C316.716 290 310 283.285 310 275C310 271.159 311.445 267.654 313.82 265L265 265L265 216.18C262.346 218.556 258.842 220 255 220C246.716 220 240 213.285 240 205Z" fill="#F9F3ED"/>
<path d="M240 205L239 205L239 205L240 205ZM255 190L255 189L255 189L255 190ZM265 193.821L264.333 194.566L266 196.058L266 193.821L265 193.821ZM265 145L265 144L264 144L264 145L265 145ZM313.82 145L313.82 146L316.057 146L314.565 144.334L313.82 145ZM310 135L309 135L309 135L310 135ZM325 120L325 119L325 119L325 120ZM340 135L341 135L341 135L340 135ZM336.18 145L335.434 144.334L333.942 146L336.18 146L336.18 145ZM385 145L386 145L386 144L385 144L385 145ZM385 193.821L384 193.821L384 196.058L385.667 194.566L385 193.821ZM395 190L395 189L395 189L395 190ZM410 205L411 205L411 205L410 205ZM395 220L395 221L395 221L395 220ZM385 216.18L385.667 215.435L384 213.943L384 216.18L385 216.18ZM385 265L385 266L386 266L386 265L385 265ZM336.18 265L336.18 264L333.942 264L335.434 265.667L336.18 265ZM340 275L341 275L341 275L340 275ZM325 290L325 291L325 291L325 290ZM310 275L309 275L309 275L310 275ZM313.82 265L314.565 265.667L316.057 264L313.82 264L313.82 265ZM265 265L264 265L264 266L265 266L265 265ZM265 216.18L266 216.18L266 213.943L264.333 215.435L265 216.18ZM255 220L255 221L255 221L255 220ZM240 205L241 205C241 197.269 247.268 191.001 255 191L255 190L255 189C246.163 189.001 239 196.164 239 205L240 205ZM255 190L255 191C258.586 191 261.855 192.348 264.333 194.566L265 193.821L265.667 193.076C262.837 190.543 259.097 189 255 189L255 190ZM265 193.821L266 193.821L266 145L265 145L264 145L264 193.821L265 193.821ZM265 145L265 146L313.82 146L313.82 145L313.82 144L265 144L265 145ZM313.82 145L314.565 144.334C312.348 141.856 311 138.587 311 135L310 135L309 135C309 139.098 310.542 142.837 313.075 145.667L313.82 145ZM310 135L311 135C311 127.269 317.268 121.001 325 121L325 120L325 119C316.163 119.001 309 126.164 309 135L310 135ZM325 120L325 121C332.732 121 339 127.268 339 135L340 135L341 135C341 126.164 333.836 119 325 119L325 120ZM340 135L339 135C339 138.587 337.652 141.856 335.434 144.334L336.18 145L336.925 145.667C339.458 142.837 341 139.098 341 135L340 135ZM336.18 145L336.18 146L385 146L385 145L385 144L336.18 144L336.18 145ZM385 145L384 145L384 193.821L385 193.821L386 193.821L386 145L385 145ZM385 193.821L385.667 194.566C388.144 192.348 391.413 191.001 395 191L395 190L395 189C390.902 189.001 387.163 190.543 384.333 193.076L385 193.821ZM395 190L395 191C402.732 191 409 197.268 409 205L410 205L411 205C411 196.164 403.836 189 395 189L395 190ZM410 205L409 205C409 212.732 402.732 219 395 219L395 220L395 221C403.836 221 411 213.837 411 205L410 205ZM395 220L395 219C391.414 219 388.144 217.653 385.667 215.435L385 216.18L384.333 216.925C387.163 219.458 390.902 221 395 221L395 220ZM385 216.18L384 216.18L384 265L385 265L386 265L386 216.18L385 216.18ZM385 265L385 264L336.18 264L336.18 265L336.18 266L385 266L385 265ZM336.18 265L335.434 265.667C337.652 268.145 339 271.414 339 275L340 275L341 275C341 270.903 339.458 267.164 336.925 264.334L336.18 265ZM340 275L339 275C339 282.732 332.732 289 325 289L325 290L325 291C333.836 291 341 283.837 341 275L340 275ZM325 290L325 289C317.268 289 311 282.732 311 275L310 275L309 275C309 283.837 316.163 291 325 291L325 290ZM310 275L311 275C311 271.414 312.348 268.145 314.565 265.667L313.82 265L313.075 264.334C310.542 267.164 309 270.903 309 275L310 275ZM313.82 265L313.82 264L265 264L265 265L265 266L313.82 266L313.82 265ZM265 265L266 265L266 216.18L265 216.18L264 216.18L264 265L265 265ZM265 216.18L264.333 215.435C261.855 217.653 258.586 219 255 219L255 220L255 221C259.097 221 262.837 219.458 265.667 216.925L265 216.18ZM255 220L255 219C247.268 219 241 212.732 241 205L240 205L239 205C239 213.837 246.163 221 255 221L255 220Z" fill="#C99A69" fill-opacity="0.25" mask="url(#path-7-inside-4_162_4885)"/>
<mask id="path-9-inside-5_162_4885" fill="white">
<path d="M193.82 25.0005C191.445 27.6543 190 31.1585 190 35.0005C190 43.2848 196.716 50.0005 205 50.0005C213.284 50.0005 220 43.2848 220 35.0005C220 31.1585 218.555 27.6543 216.18 25.0005H265V73.8208C262.346 71.4454 258.842 70.0005 255 70.0005C246.716 70.0005 240 76.7162 240 85.0005C240 93.2848 246.716 100 255 100C258.842 100 262.346 98.5549 265 96.1792V145H216.18C218.555 142.347 220 138.842 220 135C220 126.716 213.284 120 205 120C196.716 120 190 126.716 190 135C190 138.842 191.445 142.347 193.82 145H145V96.1792C147.654 98.5549 151.158 100 155 100C163.284 100 170 93.2848 170 85.0005C170 76.7162 163.284 70.0005 155 70.0005C151.158 70.0005 147.654 71.4454 145 73.8208V25.0005H193.82Z"/>
</mask>
<path d="M193.82 25.0005C191.445 27.6543 190 31.1585 190 35.0005C190 43.2848 196.716 50.0005 205 50.0005C213.284 50.0005 220 43.2848 220 35.0005C220 31.1585 218.555 27.6543 216.18 25.0005H265V73.8208C262.346 71.4454 258.842 70.0005 255 70.0005C246.716 70.0005 240 76.7162 240 85.0005C240 93.2848 246.716 100 255 100C258.842 100 262.346 98.5549 265 96.1792V145H216.18C218.555 142.347 220 138.842 220 135C220 126.716 213.284 120 205 120C196.716 120 190 126.716 190 135C190 138.842 191.445 142.347 193.82 145H145V96.1792C147.654 98.5549 151.158 100 155 100C163.284 100 170 93.2848 170 85.0005C170 76.7162 163.284 70.0005 155 70.0005C151.158 70.0005 147.654 71.4454 145 73.8208V25.0005H193.82Z" fill="#F9F3ED"/>
<path d="M193.82 25.0005L194.565 25.6674L196.057 24.0005H193.82V25.0005ZM190 35.0005L189 35.0005V35.0005L190 35.0005ZM205 50.0005L205 51.0005H205L205 50.0005ZM220 35.0005L221 35.0005V35.0005L220 35.0005ZM216.18 25.0005V24.0005H213.943L215.435 25.6674L216.18 25.0005ZM265 25.0005H266V24.0005H265V25.0005ZM265 73.8208L264.333 74.5659L266 76.058V73.8208H265ZM265 96.1792H266V93.9419L264.333 95.4341L265 96.1792ZM265 145V146H266V145H265ZM216.18 145L215.435 144.334L213.943 146H216.18V145ZM220 135L221 135V135L220 135ZM205 120L205 119H205L205 120ZM190 135L189 135V135L190 135ZM193.82 145V146H196.057L194.565 144.334L193.82 145ZM145 145H144V146H145V145ZM145 96.1792L145.667 95.4341L144 93.9419V96.1792H145ZM145 73.8208H144V76.058L145.667 74.5659L145 73.8208ZM145 25.0005V24.0005H144V25.0005H145ZM193.82 25.0005L193.075 24.3335C190.542 27.1635 189 30.9029 189 35.0005L190 35.0005L191 35.0005C191 31.4141 192.348 28.1451 194.565 25.6674L193.82 25.0005ZM190 35.0005L189 35.0005C189 43.837 196.163 51.0005 205 51.0005L205 50.0005L205 49.0005C197.268 49.0005 191 42.7325 191 35.0005L190 35.0005ZM205 50.0005L205 51.0005C213.837 51.0005 221 43.837 221 35.0005L220 35.0005L219 35.0005C219 42.7325 212.732 49.0005 205 49.0005L205 50.0005ZM220 35.0005L221 35.0005C221 30.9029 219.458 27.1635 216.925 24.3335L216.18 25.0005L215.435 25.6674C217.652 28.1451 219 31.4141 219 35.0005L220 35.0005ZM216.18 25.0005V26.0005H265V25.0005V24.0005H216.18V25.0005ZM265 25.0005H264V73.8208H265H266V25.0005H265ZM265 73.8208L265.667 73.0757C262.837 70.5426 259.098 69.0005 255 69.0005V70.0005V71.0005C258.586 71.0005 261.855 72.3482 264.333 74.5659L265 73.8208ZM255 70.0005V69.0005C246.163 69.0005 239 76.1639 239 85.0005H240H241C241 77.2685 247.268 71.0005 255 71.0005V70.0005ZM240 85.0005H239C239 93.837 246.163 101 255 101V100V99.0005C247.268 99.0005 241 92.7325 241 85.0005H240ZM255 100V101C259.098 101 262.837 99.4576 265.667 96.9243L265 96.1792L264.333 95.4341C261.855 97.6522 258.586 99.0005 255 99.0005V100ZM265 96.1792H264V145H265H266V96.1792H265ZM265 145V144H216.18V145V146H265V145ZM216.18 145L216.925 145.667C219.458 142.837 221 139.098 221 135L220 135L219 135C219 138.587 217.652 141.856 215.435 144.334L216.18 145ZM220 135L221 135C221 126.164 213.837 119 205 119L205 120L205 121C212.732 121 219 127.269 219 135L220 135ZM205 120L205 119C196.163 119 189 126.164 189 135L190 135L191 135C191 127.269 197.268 121 205 121L205 120ZM190 135L189 135C189 139.098 190.542 142.837 193.075 145.667L193.82 145L194.565 144.334C192.348 141.856 191 138.587 191 135L190 135ZM193.82 145V144H145V145V146H193.82V145ZM145 145H146V96.1792H145H144V145H145ZM145 96.1792L144.333 96.9243C147.163 99.4576 150.902 101 155 101V100V99.0005C151.414 99.0005 148.145 97.6522 145.667 95.4341L145 96.1792ZM155 100V101C163.837 101 171 93.837 171 85.0005H170H169C169 92.7325 162.732 99.0005 155 99.0005V100ZM170 85.0005H171C171 76.1639 163.837 69.0005 155 69.0005V70.0005V71.0005C162.732 71.0005 169 77.2685 169 85.0005H170ZM155 70.0005V69.0005C150.902 69.0005 147.163 70.5426 144.333 73.0757L145 73.8208L145.667 74.5659C148.145 72.3482 151.414 71.0005 155 71.0005V70.0005ZM145 73.8208H146V25.0005H145H144V73.8208H145ZM145 25.0005V26.0005H193.82V25.0005V24.0005H145V25.0005Z" fill="#C99A69" fill-opacity="0.25" mask="url(#path-9-inside-5_162_4885)"/>
<mask id="path-11-inside-6_162_4885" fill="white">
<path d="M445 170C436.716 170 430 163.285 430 155C430 151.159 431.445 147.654 433.82 145L385 145L385 96.1802C382.346 98.5556 378.842 100 375 100C366.716 100 360 93.2847 360 85.0005C360 76.7162 366.716 70.0005 375 70.0005C378.842 70.0005 382.346 71.4461 385 73.8218L385 25.0005L433.82 25.0005C431.445 22.3467 430 18.8424 430 15.0005C430 6.71621 436.716 0.000482312 445 0.000483036C453.284 0.000488399 460 6.71622 460 15.0005C460 18.8424 458.555 22.3467 456.18 25.0005L505 25.0005L505 73.8218C502.346 71.4461 498.842 70.0005 495 70.0005C486.716 70.0005 480 76.7162 480 85.0005C480 93.2848 486.716 100 495 100C498.842 100 502.346 98.5556 505 96.1802L505 145L456.18 145C458.555 147.654 460 151.159 460 155C460 163.285 453.284 170 445 170Z"/>
</mask>
<path d="M445 170C436.716 170 430 163.285 430 155C430 151.159 431.445 147.654 433.82 145L385 145L385 96.1802C382.346 98.5556 378.842 100 375 100C366.716 100 360 93.2847 360 85.0005C360 76.7162 366.716 70.0005 375 70.0005C378.842 70.0005 382.346 71.4461 385 73.8218L385 25.0005L433.82 25.0005C431.445 22.3467 430 18.8424 430 15.0005C430 6.71621 436.716 0.000482312 445 0.000483036C453.284 0.000488399 460 6.71622 460 15.0005C460 18.8424 458.555 22.3467 456.18 25.0005L505 25.0005L505 73.8218C502.346 71.4461 498.842 70.0005 495 70.0005C486.716 70.0005 480 76.7162 480 85.0005C480 93.2848 486.716 100 495 100C498.842 100 502.346 98.5556 505 96.1802L505 145L456.18 145C458.555 147.654 460 151.159 460 155C460 163.285 453.284 170 445 170Z" fill="#F9F3ED"/>
<path d="M445 170L445 171H445L445 170ZM430 155L429 155L429 155L430 155ZM433.82 145L434.565 145.667L436.057 144L433.82 144L433.82 145ZM385 145L384 145L384 146L385 146L385 145ZM385 96.1802L386 96.1802L386 93.943L384.333 95.4351L385 96.1802ZM375 100L375 101H375L375 100ZM360 85.0005L359 85.0005L359 85.0005L360 85.0005ZM375 70.0005L375 69.0005H375L375 70.0005ZM385 73.8218L384.333 74.5668L386 76.0591L386 73.8218L385 73.8218ZM385 25.0005L385 24.0005L384 24.0005L384 25.0005L385 25.0005ZM433.82 25.0005L433.82 26.0005L436.058 26.0005L434.565 24.3335L433.82 25.0005ZM430 15.0005L429 15.0005L429 15.0005L430 15.0005ZM445 0.000483036L445 -0.999517L445 -0.999517L445 0.000483036ZM460 15.0005L461 15.0005L461 15.0005L460 15.0005ZM456.18 25.0005L455.435 24.3335L453.943 26.0005L456.18 26.0005L456.18 25.0005ZM505 25.0005L506 25.0005L506 24.0005L505 24.0005L505 25.0005ZM505 73.8218L504.333 74.5669L506 76.0591L506 73.8218L505 73.8218ZM495 70.0005L495 69.0005L495 69.0005L495 70.0005ZM480 85.0005L479 85.0005V85.0005L480 85.0005ZM495 100L495 101L495 101L495 100ZM505 96.1802L506 96.1802L506 93.943L504.333 95.4351L505 96.1802ZM505 145L505 146L506 146L506 145L505 145ZM456.18 145L456.18 144L453.943 144L455.435 145.667L456.18 145ZM460 155L461 155L461 155L460 155ZM445 170L445 169C437.268 169 431 162.732 431 155L430 155L429 155C429 163.837 436.163 171 445 171L445 170ZM430 155L431 155C431 151.414 432.348 148.145 434.565 145.667L433.82 145L433.075 144.334C430.542 147.164 429 150.903 429 155L430 155ZM433.82 145L433.82 144L385 144L385 145L385 146L433.82 146L433.82 145ZM385 145L386 145L386 96.1802L385 96.1802L384 96.1802L384 145L385 145ZM385 96.1802L384.333 95.4351C381.855 97.6528 378.586 99.0005 375 99.0005L375 100L375 101C379.098 101 382.837 99.4584 385.667 96.9253L385 96.1802ZM375 100L375 99.0005C367.268 99.0005 361 92.7325 361 85.0005L360 85.0005L359 85.0005C359 93.837 366.163 101 375 101L375 100ZM360 85.0005L361 85.0005C361 77.2685 367.268 71.0005 375 71.0005L375 70.0005L375 69.0005C366.163 69.0005 359 76.1639 359 85.0005L360 85.0005ZM375 70.0005L375 71.0005C378.586 71.0005 381.855 72.3488 384.333 74.5668L385 73.8218L385.667 73.0767C382.837 70.5434 379.098 69.0005 375 69.0005L375 70.0005ZM385 73.8218L386 73.8218L386 25.0005L385 25.0005L384 25.0005L384 73.8218L385 73.8218ZM385 25.0005L385 26.0005L433.82 26.0005L433.82 25.0005L433.82 24.0005L385 24.0005L385 25.0005ZM433.82 25.0005L434.565 24.3335C432.348 21.8559 431 18.5868 431 15.0005L430 15.0005L429 15.0005C429 19.098 430.542 22.8374 433.075 25.6674L433.82 25.0005ZM430 15.0005L431 15.0005C431 7.2685 437.268 1.00048 445 1.00048L445 0.000483036L445 -0.999517C436.163 -0.999518 429 6.16393 429 15.0005L430 15.0005ZM445 0.000483036L445 1.00048C452.732 1.00049 459 7.2685 459 15.0005L460 15.0005L461 15.0005C461 6.16393 453.837 -0.999511 445 -0.999517L445 0.000483036ZM460 15.0005L459 15.0005C459 18.5868 457.652 21.8559 455.435 24.3335L456.18 25.0005L456.925 25.6674C459.458 22.8374 461 19.098 461 15.0005L460 15.0005ZM456.18 25.0005L456.18 26.0005L505 26.0005L505 25.0005L505 24.0005L456.18 24.0005L456.18 25.0005ZM505 25.0005L504 25.0005L504 73.8218L505 73.8218L506 73.8218L506 25.0005L505 25.0005ZM505 73.8218L505.667 73.0767C502.837 70.5434 499.098 69.0005 495 69.0005L495 70.0005L495 71.0005C498.586 71.0005 501.855 72.3488 504.333 74.5669L505 73.8218ZM495 70.0005L495 69.0005C486.163 69.0005 479 76.1639 479 85.0005L480 85.0005L481 85.0005C481 77.2685 487.268 71.0005 495 71.0005L495 70.0005ZM480 85.0005L479 85.0005C479 93.837 486.163 101 495 101L495 100L495 99.0005C487.268 99.0005 481 92.7325 481 85.0005L480 85.0005ZM495 100L495 101C499.098 101 502.837 99.4584 505.667 96.9253L505 96.1802L504.333 95.4351C501.855 97.6528 498.586 99.0005 495 99.0005L495 100ZM505 96.1802L504 96.1802L504 145L505 145L506 145L506 96.1802L505 96.1802ZM505 145L505 144L456.18 144L456.18 145L456.18 146L505 146L505 145ZM456.18 145L455.435 145.667C457.652 148.145 459 151.414 459 155L460 155L461 155C461 150.903 459.458 147.164 456.925 144.334L456.18 145ZM460 155L459 155C459 162.732 452.732 169 445 169L445 170L445 171C453.837 171 461 163.837 461 155L460 155Z" fill="#C99A69" fill-opacity="0.25" mask="url(#path-11-inside-6_162_4885)"/>
</svg>
