<svg width="480" height="120" viewBox="0 0 480 120" fill="none" xmlns="http://www.w3.org/2000/svg">
<path d="M480 -1.28596e-05L360 -2.36886e-06L360 49.7598C357.163 46.5447 353.012 44.5166 348.387 44.5166C339.835 44.5169 332.903 51.4487 332.903 60C332.903 68.5513 339.835 75.4831 348.387 75.4834C353.011 75.4834 357.163 73.4559 360 70.2412L360 120L480 120L480 -1.28596e-05Z" fill="#F2E6D9"/>
<path d="M435.484 11.6138C435.484 6.98869 433.456 2.83723 430.241 -3.41582e-07C427 -3.41579e-07 423.926 -1.69686e-06 420 -1.3536e-06C416.074 -1.01034e-06 413 0 409.76 -4.58355e-07C406.544 2.83723 404.517 6.98869 404.517 11.6138C404.517 20.1653 411.449 27.0977 420 27.0977C428.552 27.0977 435.484 20.1653 435.484 11.6138Z" fill="#F9F3ED"/>
<path d="M360 49.7598C357.163 46.5448 353.012 44.5167 348.387 44.5167C339.835 44.5169 332.903 51.4487 332.903 60.0001C332.903 68.5514 339.835 75.4833 348.387 75.4835C353.012 75.4835 357.163 73.4547 360 70.2393L360 120L-2.09815e-05 120L0.000976562 1.70748e-10L360.001 6.29446e-05L360 49.7598Z" fill="#F9F3ED"/>
</svg>
