<svg width="505" height="625" viewBox="0 0 505 625" fill="none" xmlns="http://www.w3.org/2000/svg">
<mask id="path-1-inside-1_224_5709" fill="white">
<path d="M505 193.82C502.346 191.445 498.842 190 495 190C486.716 190 480 196.716 480 205C480 213.284 486.716 220 495 220C498.842 220 502.346 218.555 505 216.18L505 265L456.18 265C458.555 262.346 460 258.842 460 255C460 246.716 453.284 240 445 240C436.716 240 430 246.716 430 255C430 258.842 431.446 262.346 433.821 265L385 265L385 216.18C382.346 218.555 378.842 220 375 220C366.716 220 360 213.284 360 205C360 196.716 366.716 190 375 190C378.842 190 382.346 191.445 385 193.82L385 145L433.821 145C431.446 147.654 430 151.158 430 155C430 163.284 436.716 170 445 170C453.284 170 460 163.284 460 155C460 151.158 458.555 147.654 456.18 145L505 145L505 193.82Z"/>
</mask>
<path d="M505 193.82C502.346 191.445 498.842 190 495 190C486.716 190 480 196.716 480 205C480 213.284 486.716 220 495 220C498.842 220 502.346 218.555 505 216.18L505 265L456.18 265C458.555 262.346 460 258.842 460 255C460 246.716 453.284 240 445 240C436.716 240 430 246.716 430 255C430 258.842 431.446 262.346 433.821 265L385 265L385 216.18C382.346 218.555 378.842 220 375 220C366.716 220 360 213.284 360 205C360 196.716 366.716 190 375 190C378.842 190 382.346 191.445 385 193.82L385 145L433.821 145C431.446 147.654 430 151.158 430 155C430 163.284 436.716 170 445 170C453.284 170 460 163.284 460 155C460 151.158 458.555 147.654 456.18 145L505 145L505 193.82Z" fill="#F1E6DB"/>
<path d="M505 193.82L504.333 194.565L506 196.057L506 193.82L505 193.82ZM495 190L495 189L495 189L495 190ZM480 205L479 205V205L480 205ZM495 220L495 221L495 221L495 220ZM505 216.18L506 216.18L506 213.943L504.333 215.435L505 216.18ZM505 265L505 266L506 266L506 265L505 265ZM456.18 265L455.435 264.333L453.943 266L456.18 266L456.18 265ZM460 255L461 255V255L460 255ZM445 240L445 239L445 239L445 240ZM430 255L429 255L429 255L430 255ZM433.821 265L433.821 266L436.059 266L434.566 264.333L433.821 265ZM385 265L384 265L384 266L385 266L385 265ZM385 216.18L386 216.18L386 213.942L384.333 215.435L385 216.18ZM375 220L375 221L375 221L375 220ZM360 205L359 205L359 205L360 205ZM375 190L375 189L375 189L375 190ZM385 193.82L384.333 194.565L386 196.057L386 193.82L385 193.82ZM385 145L385 144L384 144L384 145L385 145ZM433.821 145L434.566 145.667L436.059 144L433.821 144L433.821 145ZM430 155L429 155V155L430 155ZM445 170L445 171L445 171L445 170ZM460 155L461 155V155L460 155ZM456.18 145L456.18 144L453.943 144L455.435 145.667L456.18 145ZM505 145L506 145L506 144L505 144L505 145ZM505 193.82L505.667 193.075C502.837 190.542 499.098 189 495 189L495 190L495 191C498.586 191 501.855 192.348 504.333 194.565L505 193.82ZM495 190L495 189C486.163 189 479 196.163 479 205L480 205L481 205C481 197.268 487.268 191 495 191L495 190ZM480 205L479 205C479 213.837 486.163 221 495 221L495 220L495 219C487.268 219 481 212.732 481 205L480 205ZM495 220L495 221C499.098 221 502.837 219.458 505.667 216.925L505 216.18L504.333 215.435C501.855 217.652 498.586 219 495 219L495 220ZM505 216.18L504 216.18L504 265L505 265L506 265L506 216.18L505 216.18ZM505 265L505 264L456.18 264L456.18 265L456.18 266L505 266L505 265ZM456.18 265L456.925 265.667C459.458 262.837 461 259.098 461 255L460 255L459 255C459 258.586 457.652 261.855 455.435 264.333L456.18 265ZM460 255L461 255C461 246.163 453.837 239 445 239L445 240L445 241C452.732 241 459 247.268 459 255L460 255ZM445 240L445 239C436.163 239 429 246.163 429 255L430 255L431 255C431 247.268 437.268 241 445 241L445 240ZM430 255L429 255C429 259.098 430.543 262.837 433.076 265.667L433.821 265L434.566 264.333C432.348 261.855 431 258.586 431 255L430 255ZM433.821 265L433.821 264L385 264L385 265L385 266L433.821 266L433.821 265ZM385 265L386 265L386 216.18L385 216.18L384 216.18L384 265L385 265ZM385 216.18L384.333 215.435C381.855 217.652 378.586 219 375 219L375 220L375 221C379.098 221 382.837 219.458 385.667 216.925L385 216.18ZM375 220L375 219C367.268 219 361 212.732 361 205L360 205L359 205C359 213.837 366.163 221 375 221L375 220ZM360 205L361 205C361 197.268 367.268 191 375 191L375 190L375 189C366.163 189 359 196.163 359 205L360 205ZM375 190L375 191C378.586 191 381.855 192.348 384.333 194.565L385 193.82L385.667 193.075C382.837 190.542 379.098 189 375 189L375 190ZM385 193.82L386 193.82L386 145L385 145L384 145L384 193.82L385 193.82ZM385 145L385 146L433.821 146L433.821 145L433.821 144L385 144L385 145ZM433.821 145L433.076 144.333C430.543 147.163 429 150.902 429 155L430 155L431 155C431 151.414 432.348 148.145 434.566 145.667L433.821 145ZM430 155L429 155C429 163.837 436.163 171 445 171L445 170L445 169C437.268 169 431 162.732 431 155L430 155ZM445 170L445 171C453.837 171 461 163.837 461 155L460 155L459 155C459 162.732 452.732 169 445 169L445 170ZM460 155L461 155C461 150.902 459.458 147.163 456.925 144.333L456.18 145L455.435 145.667C457.652 148.145 459 151.414 459 155L460 155ZM456.18 145L456.18 146L505 146L505 145L505 144L456.18 144L456.18 145ZM505 145L504 145L504 193.82L505 193.82L506 193.82L506 145L505 145Z" fill="#C99A69" fill-opacity="0.25" mask="url(#path-1-inside-1_224_5709)"/>
<mask id="path-3-inside-2_224_5709" fill="white">
<path d="M73.8203 265C71.4449 267.654 70 271.158 70 275C70 283.284 76.7157 290 85 290C93.2843 290 100 283.284 100 275C100 271.158 98.5551 267.654 96.1797 265H145V313.82C142.346 311.445 138.842 310 135 310C126.716 310 120 316.716 120 325C120 333.284 126.716 340 135 340C138.842 340 142.346 338.554 145 336.179V385H96.1797C98.5551 382.346 100 378.842 100 375C100 366.716 93.2843 360 85 360C76.7157 360 70 366.716 70 375C70 378.842 71.4449 382.346 73.8203 385H25V336.179C27.6539 338.554 31.1578 340 35 340C43.2843 340 50 333.284 50 325C50 316.716 43.2843 310 35 310C31.158 310 27.6538 311.445 25 313.82V265H73.8203Z"/>
</mask>
<path d="M73.8203 265C71.4449 267.654 70 271.158 70 275C70 283.284 76.7157 290 85 290C93.2843 290 100 283.284 100 275C100 271.158 98.5551 267.654 96.1797 265H145V313.82C142.346 311.445 138.842 310 135 310C126.716 310 120 316.716 120 325C120 333.284 126.716 340 135 340C138.842 340 142.346 338.554 145 336.179V385H96.1797C98.5551 382.346 100 378.842 100 375C100 366.716 93.2843 360 85 360C76.7157 360 70 366.716 70 375C70 378.842 71.4449 382.346 73.8203 385H25V336.179C27.6539 338.554 31.1578 340 35 340C43.2843 340 50 333.284 50 325C50 316.716 43.2843 310 35 310C31.158 310 27.6538 311.445 25 313.82V265H73.8203Z" fill="#F1E6DB"/>
<path d="M73.8203 265L74.5654 265.667L76.0575 264H73.8203V265ZM70 275L69 275V275L70 275ZM85 290L85 291H85L85 290ZM100 275L101 275V275L100 275ZM96.1797 265V264H93.9425L95.4346 265.667L96.1797 265ZM145 265H146V264H145V265ZM145 313.82L144.333 314.565L146 316.057V313.82H145ZM145 336.179H146V333.941L144.333 335.434L145 336.179ZM145 385V386H146V385H145ZM96.1797 385L95.4346 384.333L93.9425 386H96.1797V385ZM100 375L101 375V375L100 375ZM85 360L85 359H85L85 360ZM70 375L69 375V375L70 375ZM73.8203 385V386H76.0575L74.5654 384.333L73.8203 385ZM25 385H24V386H25V385ZM25 336.179L25.667 335.434L24 333.941V336.179H25ZM25 313.82H24V316.057L25.6669 314.565L25 313.82ZM25 265V264H24V265H25ZM73.8203 265L73.0752 264.333C70.5421 267.163 69 270.902 69 275L70 275L71 275C71 271.414 72.3477 268.145 74.5654 265.667L73.8203 265ZM70 275L69 275C69 283.837 76.1634 291 85 291L85 290L85 289C77.268 289 71 282.732 71 275L70 275ZM85 290L85 291C93.8366 291 101 283.837 101 275L100 275L99 275C99 282.732 92.732 289 85 289L85 290ZM100 275L101 275C101 270.902 99.4579 267.163 96.9248 264.333L96.1797 265L95.4346 265.667C97.6523 268.145 99 271.414 99 275L100 275ZM96.1797 265V266H145V265V264H96.1797V265ZM145 265H144V313.82H145H146V265H145ZM145 313.82L145.667 313.075C142.837 310.542 139.098 309 135 309V310V311C138.586 311 141.855 312.348 144.333 314.565L145 313.82ZM135 310V309C126.163 309 119 316.163 119 325H120H121C121 317.268 127.268 311 135 311V310ZM120 325H119C119 333.837 126.163 341 135 341V340V339C127.268 339 121 332.732 121 325H120ZM135 340V341C139.098 341 142.837 339.457 145.667 336.924L145 336.179L144.333 335.434C141.855 337.652 138.586 339 135 339V340ZM145 336.179H144V385H145H146V336.179H145ZM145 385V384H96.1797V385V386H145V385ZM96.1797 385L96.9248 385.667C99.4579 382.837 101 379.098 101 375L100 375L99 375C99 378.586 97.6523 381.855 95.4346 384.333L96.1797 385ZM100 375L101 375C101 366.163 93.8366 359 85 359L85 360L85 361C92.732 361 99 367.268 99 375L100 375ZM85 360L85 359C76.1634 359 69 366.163 69 375L70 375L71 375C71 367.268 77.268 361 85 361L85 360ZM70 375L69 375C69 379.098 70.5421 382.837 73.0752 385.667L73.8203 385L74.5654 384.333C72.3477 381.855 71 378.586 71 375L70 375ZM73.8203 385V384H25V385V386H73.8203V385ZM25 385H26V336.179H25H24V385H25ZM25 336.179L24.333 336.924C27.163 339.457 30.902 341 35 341V340V339C31.4135 339 28.1448 337.652 25.667 335.434L25 336.179ZM35 340V341C43.8366 341 51 333.837 51 325H50H49C49 332.732 42.732 339 35 339V340ZM50 325H51C51 316.163 43.8366 309 35 309V310V311C42.732 311 49 317.268 49 325H50ZM35 310V309C30.9024 309 27.1631 310.542 24.3331 313.075L25 313.82L25.6669 314.565C28.1446 312.348 31.4136 311 35 311V310ZM25 313.82H26V265H25H24V313.82H25ZM25 265V266H73.8203V265V264H25V265Z" fill="#C99A69" fill-opacity="0.25" mask="url(#path-3-inside-2_224_5709)"/>
<mask id="path-5-inside-3_224_5709" fill="white">
<path d="M325 240C333.284 240 340 246.716 340 255C340 258.842 338.555 262.346 336.18 265H385V313.82C382.346 311.445 378.842 310 375 310C366.716 310 360 316.716 360 325C360 333.284 366.716 340 375 340C378.842 340 382.346 338.555 385 336.18V385H336.18C338.555 387.654 340 391.158 340 395C340 403.284 333.284 410 325 410C316.716 410 310 403.284 310 395C310 391.158 311.445 387.654 313.82 385H265V336.18C267.654 338.555 271.158 340 275 340C283.284 340 290 333.284 290 325C290 316.716 283.284 310 275 310C271.158 310 267.654 311.445 265 313.82V265H313.82C311.445 262.346 310 258.842 310 255C310 246.716 316.716 240 325 240Z"/>
</mask>
<path d="M325 240C333.284 240 340 246.716 340 255C340 258.842 338.555 262.346 336.18 265H385V313.82C382.346 311.445 378.842 310 375 310C366.716 310 360 316.716 360 325C360 333.284 366.716 340 375 340C378.842 340 382.346 338.555 385 336.18V385H336.18C338.555 387.654 340 391.158 340 395C340 403.284 333.284 410 325 410C316.716 410 310 403.284 310 395C310 391.158 311.445 387.654 313.82 385H265V336.18C267.654 338.555 271.158 340 275 340C283.284 340 290 333.284 290 325C290 316.716 283.284 310 275 310C271.158 310 267.654 311.445 265 313.82V265H313.82C311.445 262.346 310 258.842 310 255C310 246.716 316.716 240 325 240Z" fill="#F1E6DB"/>
<path d="M340 255L341 255L341 255L340 255ZM336.18 265L335.435 264.333L333.943 266H336.18V265ZM385 265H386V264H385V265ZM385 313.82L384.333 314.565L386 316.057V313.82H385ZM360 325L359 325V325H360ZM385 336.18H386V333.942L384.333 335.435L385 336.18ZM385 385V386H386V385H385ZM336.18 385V384H333.942L335.435 385.667L336.18 385ZM340 395L341 395L341 395L340 395ZM310 395L309 395V395H310ZM313.82 385L314.565 385.667L316.058 384H313.82V385ZM265 385H264V386H265V385ZM265 336.18L265.667 335.435L264 333.942V336.18H265ZM290 325L291 325L291 325L290 325ZM265 313.82H264V316.057L265.667 314.565L265 313.82ZM265 265V264H264V265H265ZM313.82 265V266H316.057L314.565 264.333L313.82 265ZM310 255L309 255V255H310ZM325 240V241C332.732 241 339 247.268 339 255L340 255L341 255C341 246.164 333.837 239 325 239V240ZM340 255H339C339 258.586 337.652 261.855 335.435 264.333L336.18 265L336.925 265.667C339.458 262.837 341 259.098 341 255H340ZM336.18 265V266H385V265V264H336.18V265ZM385 265H384V313.82H385H386V265H385ZM385 313.82L385.667 313.075C382.837 310.542 379.098 309 375 309V310V311C378.586 311 381.855 312.348 384.333 314.565L385 313.82ZM375 310V309C366.163 309 359 316.164 359 325L360 325L361 325C361 317.268 367.268 311 375 311V310ZM360 325H359C359 333.837 366.163 341 375 341V340V339C367.268 339 361 332.732 361 325H360ZM375 340V341C379.098 341 382.837 339.458 385.667 336.925L385 336.18L384.333 335.435C381.855 337.652 378.586 339 375 339V340ZM385 336.18H384V385H385H386V336.18H385ZM385 385V384H336.18V385V386H385V385ZM336.18 385L335.435 385.667C337.652 388.145 339 391.414 339 395L340 395L341 395C341 390.902 339.458 387.163 336.925 384.333L336.18 385ZM340 395H339C339 402.732 332.732 409 325 409V410V411C333.837 411 341 403.837 341 395H340ZM325 410V409C317.268 409 311 402.732 311 395H310H309C309 403.837 316.163 411 325 411V410ZM310 395L311 395C311 391.414 312.348 388.145 314.565 385.667L313.82 385L313.075 384.333C310.542 387.163 309 390.902 309 395L310 395ZM313.82 385V384H265V385V386H313.82V385ZM265 385H266V336.18H265H264V385H265ZM265 336.18L264.333 336.925C267.163 339.458 270.902 341 275 341V340V339C271.414 339 268.145 337.652 265.667 335.435L265 336.18ZM275 340V341C283.837 341 291 333.837 291 325H290H289C289 332.732 282.732 339 275 339V340ZM290 325L291 325C291 316.164 283.837 309 275 309V310V311C282.732 311 289 317.268 289 325L290 325ZM275 310V309C270.902 309 267.163 310.542 264.333 313.075L265 313.82L265.667 314.565C268.145 312.348 271.414 311 275 311V310ZM265 313.82H266V265H265H264V313.82H265ZM265 265V266H313.82V265V264H265V265ZM313.82 265L314.565 264.333C312.348 261.855 311 258.586 311 255H310H309C309 259.098 310.542 262.837 313.075 265.667L313.82 265ZM310 255L311 255C311 247.268 317.268 241 325 241V240V239C316.163 239 309 246.164 309 255L310 255Z" fill="#C99A69" fill-opacity="0.25" mask="url(#path-5-inside-3_224_5709)"/>
<mask id="path-7-inside-4_224_5709" fill="white">
<path d="M120 445C120 436.716 126.716 430 135 430C138.842 430 142.346 431.445 145 433.82L145 385L193.82 385C191.445 382.346 190 378.842 190 375C190 366.716 196.716 360 205 360C213.284 360 220 366.716 220 375C220 378.842 218.555 382.346 216.18 385L265 385L265 433.82C267.654 431.445 271.158 430 275 430C283.284 430 290 436.716 290 445C290 453.284 283.284 460 275 460C271.158 460 267.654 458.555 265 456.18L265 505L216.18 505C218.555 507.654 220 511.158 220 515C220 523.284 213.284 530 205 530C196.716 530 190 523.284 190 515C190 511.158 191.445 507.654 193.82 505L145 505L145 456.18C142.346 458.555 138.842 460 135 460C126.716 460 120 453.284 120 445Z"/>
</mask>
<path d="M120 445C120 436.716 126.716 430 135 430C138.842 430 142.346 431.445 145 433.82L145 385L193.82 385C191.445 382.346 190 378.842 190 375C190 366.716 196.716 360 205 360C213.284 360 220 366.716 220 375C220 378.842 218.555 382.346 216.18 385L265 385L265 433.82C267.654 431.445 271.158 430 275 430C283.284 430 290 436.716 290 445C290 453.284 283.284 460 275 460C271.158 460 267.654 458.555 265 456.18L265 505L216.18 505C218.555 507.654 220 511.158 220 515C220 523.284 213.284 530 205 530C196.716 530 190 523.284 190 515C190 511.158 191.445 507.654 193.82 505L145 505L145 456.18C142.346 458.555 138.842 460 135 460C126.716 460 120 453.284 120 445Z" fill="#F1E6DB"/>
<path d="M120 445L119 445L119 445L120 445ZM135 430L135 429L135 429L135 430ZM145 433.82L144.333 434.565L146 436.057L146 433.82L145 433.82ZM145 385L145 384L144 384L144 385L145 385ZM193.82 385L193.82 386L196.057 386L194.565 384.333L193.82 385ZM190 375L189 375L189 375L190 375ZM205 360L205 359L205 359L205 360ZM220 375L221 375L221 375L220 375ZM216.18 385L215.435 384.333L213.942 386L216.18 386L216.18 385ZM265 385L266 385L266 384L265 384L265 385ZM265 433.82L264 433.82L264 436.058L265.667 434.565L265 433.82ZM275 430L275 429L275 429L275 430ZM290 445L291 445L291 445L290 445ZM275 460L275 461L275 461L275 460ZM265 456.18L265.667 455.435L264 453.943L264 456.18L265 456.18ZM265 505L265 506L266 506L266 505L265 505ZM216.18 505L216.18 504L213.943 504L215.435 505.667L216.18 505ZM220 515L221 515L221 515L220 515ZM205 530L205 531L205 531L205 530ZM190 515L189 515L189 515L190 515ZM193.82 505L194.565 505.667L196.057 504L193.82 504L193.82 505ZM145 505L144 505L144 506L145 506L145 505ZM145 456.18L146 456.18L146 453.943L144.333 455.435L145 456.18ZM135 460L135 461L135 461L135 460ZM120 445L121 445C121 437.268 127.268 431 135 431L135 430L135 429C126.164 429 119 436.163 119 445L120 445ZM135 430L135 431C138.586 431 141.855 432.348 144.333 434.565L145 433.82L145.667 433.075C142.837 430.542 139.098 429 135 429L135 430ZM145 433.82L146 433.82L146 385L145 385L144 385L144 433.82L145 433.82ZM145 385L145 386L193.82 386L193.82 385L193.82 384L145 384L145 385ZM193.82 385L194.565 384.333C192.348 381.855 191 378.586 191 375L190 375L189 375C189 379.098 190.542 382.837 193.075 385.667L193.82 385ZM190 375L191 375C191 367.268 197.268 361 205 361L205 360L205 359C196.164 359 189 366.163 189 375L190 375ZM205 360L205 361C212.732 361 219 367.268 219 375L220 375L221 375C221 366.163 213.837 359 205 359L205 360ZM220 375L219 375C219 378.586 217.652 381.855 215.435 384.333L216.18 385L216.925 385.667C219.458 382.837 221 379.098 221 375L220 375ZM216.18 385L216.18 386L265 386L265 385L265 384L216.18 384L216.18 385ZM265 385L264 385L264 433.82L265 433.82L266 433.82L266 385L265 385ZM265 433.82L265.667 434.565C268.145 432.348 271.414 431 275 431L275 430L275 429C270.902 429 267.163 430.542 264.333 433.075L265 433.82ZM275 430L275 431C282.732 431 289 437.268 289 445L290 445L291 445C291 436.163 283.837 429 275 429L275 430ZM290 445L289 445C289 452.732 282.732 459 275 459L275 460L275 461C283.837 461 291 453.836 291 445L290 445ZM275 460L275 459C271.414 459 268.145 457.652 265.667 455.435L265 456.18L264.333 456.925C267.163 459.458 270.902 461 275 461L275 460ZM265 456.18L264 456.18L264 505L265 505L266 505L266 456.18L265 456.18ZM265 505L265 504L216.18 504L216.18 505L216.18 506L265 506L265 505ZM216.18 505L215.435 505.667C217.652 508.145 219 511.414 219 515L220 515L221 515C221 510.902 219.458 507.163 216.925 504.333L216.18 505ZM220 515L219 515C219 522.732 212.732 529 205 529L205 530L205 531C213.837 531 221 523.836 221 515L220 515ZM205 530L205 529C197.268 529 191 522.732 191 515L190 515L189 515C189 523.836 196.164 531 205 531L205 530ZM190 515L191 515C191 511.414 192.348 508.145 194.565 505.667L193.82 505L193.075 504.333C190.542 507.163 189 510.902 189 515L190 515ZM193.82 505L193.82 504L145 504L145 505L145 506L193.82 506L193.82 505ZM145 505L146 505L146 456.18L145 456.18L144 456.18L144 505L145 505ZM145 456.18L144.333 455.435C141.855 457.652 138.586 459 135 459L135 460L135 461C139.098 461 142.837 459.458 145.667 456.925L145 456.18ZM135 460L135 459C127.268 459 121 452.732 121 445L120 445L119 445C119 453.836 126.164 461 135 461L135 460Z" fill="#C99A69" fill-opacity="0.25" mask="url(#path-7-inside-4_224_5709)"/>
<mask id="path-9-inside-5_224_5709" fill="white">
<path d="M170 565C170 573.284 163.284 580 155 580C151.158 580 147.654 578.555 145 576.18L145 625L95.1973 625C98.151 622.26 100 618.346 100 614C100 605.716 93.2842 599 85 599C76.7157 599 70 605.716 70 614C70 618.346 71.8489 622.26 74.8027 625L25 625L25 576.18C22.3462 578.555 18.842 580 15 580C6.71573 580 -2.9848e-06 573.284 -2.62268e-06 565C2.37812e-06 556.716 6.71573 550 15 550C18.842 550 22.3462 551.445 25 553.82L25 505L74.8027 505C71.8489 507.74 70 511.654 70 516C70 524.284 76.7157 531 85 531C93.2842 531 100 524.284 100 516C100 511.654 98.151 507.74 95.1973 505L145 505L145 553.82C147.654 551.445 151.158 550 155 550C163.284 550 170 556.716 170 565Z"/>
</mask>
<path d="M170 565C170 573.284 163.284 580 155 580C151.158 580 147.654 578.555 145 576.18L145 625L95.1973 625C98.151 622.26 100 618.346 100 614C100 605.716 93.2842 599 85 599C76.7157 599 70 605.716 70 614C70 618.346 71.8489 622.26 74.8027 625L25 625L25 576.18C22.3462 578.555 18.842 580 15 580C6.71573 580 -2.9848e-06 573.284 -2.62268e-06 565C2.37812e-06 556.716 6.71573 550 15 550C18.842 550 22.3462 551.445 25 553.82L25 505L74.8027 505C71.8489 507.74 70 511.654 70 516C70 524.284 76.7157 531 85 531C93.2842 531 100 524.284 100 516C100 511.654 98.151 507.74 95.1973 505L145 505L145 553.82C147.654 551.445 151.158 550 155 550C163.284 550 170 556.716 170 565Z" fill="#F1E6DB"/>
<path d="M170 565L171 565V565L170 565ZM155 580L155 581L155 581L155 580ZM145 576.18L145.667 575.435L144 573.943L144 576.18L145 576.18ZM145 625L145 626L146 626L146 625L145 625ZM95.1973 625L94.5172 624.267L92.6485 626L95.1973 626L95.1973 625ZM100 614L101 614V614L100 614ZM85 599L85 598L85 598L85 599ZM70 614L69 614V614L70 614ZM74.8027 625L74.8027 626L77.3515 626L75.4827 624.267L74.8027 625ZM25 625L24 625L24 626L25 626L25 625ZM25 576.18L26 576.18L26 573.942L24.3331 575.435L25 576.18ZM15 580L15 581L15 581L15 580ZM-2.62268e-06 565L-1 565L-1 565L-2.62268e-06 565ZM15 550L15 549L15 549L15 550ZM25 553.82L24.3331 554.565L26 556.057L26 553.82L25 553.82ZM25 505L25 504L24 504L24 505L25 505ZM74.8027 505L75.4827 505.733L77.3515 504L74.8027 504L74.8027 505ZM70 516L69 516L69 516L70 516ZM85 531L85 532L85 532L85 531ZM100 516L101 516L101 516L100 516ZM95.1973 505L95.1973 504L92.6485 504L94.5173 505.733L95.1973 505ZM145 505L146 505L146 504L145 504L145 505ZM145 553.82L144 553.82L144 556.057L145.667 554.565L145 553.82ZM155 550L155 549L155 549L155 550ZM170 565L169 565C169 572.732 162.732 579 155 579L155 580L155 581C163.836 581 171 573.837 171 565L170 565ZM155 580L155 579C151.414 579 148.145 577.652 145.667 575.435L145 576.18L144.333 576.925C147.163 579.458 150.902 581 155 581L155 580ZM145 576.18L144 576.18L144 625L145 625L146 625L146 576.18L145 576.18ZM145 625L145 624L95.1973 624L95.1973 625L95.1973 626L145 626L145 625ZM95.1973 625L95.8773 625.733C99.0264 622.812 101 618.636 101 614L100 614L99 614C99 618.056 97.2756 621.709 94.5172 624.267L95.1973 625ZM100 614L101 614C101 605.163 93.8365 598 85 598L85 599L85 600C92.732 600 99 606.268 99 614L100 614ZM85 599L85 598C76.1634 598 69 605.163 69 614L70 614L71 614C71 606.268 77.268 600 85 600L85 599ZM70 614L69 614C69 618.636 70.9735 622.812 74.1227 625.733L74.8027 625L75.4827 624.267C72.7244 621.709 71 618.057 71 614L70 614ZM74.8027 625L74.8027 624L25 624L25 625L25 626L74.8027 626L74.8027 625ZM25 625L26 625L26 576.18L25 576.18L24 576.18L24 625L25 625ZM25 576.18L24.3331 575.435C21.8554 577.652 18.5864 579 15 579L15 580L15 581C19.0976 581 22.8369 579.458 25.6669 576.925L25 576.18ZM15 580L15 579C7.26801 579 0.999997 572.732 0.999997 565L-2.62268e-06 565L-1 565C-1 573.837 6.16344 581 15 581L15 580ZM-2.62268e-06 565L0.999997 565C1 557.268 7.26802 551 15 551L15 550L15 549C6.16344 549 -0.999997 556.163 -1 565L-2.62268e-06 565ZM15 550L15 551C18.5864 551 21.8554 552.348 24.3331 554.565L25 553.82L25.6669 553.075C22.837 550.542 19.0976 549 15 549L15 550ZM25 553.82L26 553.82L26 505L25 505L24 505L24 553.82L25 553.82ZM25 505L25 506L74.8027 506L74.8027 505L74.8027 504L25 504L25 505ZM74.8027 505L74.1227 504.267C70.9735 507.188 69 511.364 69 516L70 516L71 516C71 511.943 72.7244 508.291 75.4827 505.733L74.8027 505ZM70 516L69 516C69 524.837 76.1634 532 85 532L85 531L85 530C77.268 530 71 523.732 71 516L70 516ZM85 531L85 532C93.8365 532 101 524.837 101 516L100 516L99 516C99 523.732 92.732 530 85 530L85 531ZM100 516L101 516C101 511.364 99.0264 507.188 95.8773 504.267L95.1973 505L94.5173 505.733C97.2756 508.291 99 511.944 99 516L100 516ZM95.1973 505L95.1973 506L145 506L145 505L145 504L95.1973 504L95.1973 505ZM145 505L144 505L144 553.82L145 553.82L146 553.82L146 505L145 505ZM145 553.82L145.667 554.565C148.145 552.348 151.414 551 155 551L155 550L155 549C150.902 549 147.163 550.542 144.333 553.075L145 553.82ZM155 550L155 551C162.732 551 169 557.268 169 565L170 565L171 565C171 556.163 163.836 549 155 549L155 550Z" fill="#C99A69" fill-opacity="0.25" mask="url(#path-9-inside-5_224_5709)"/>
<mask id="path-11-inside-6_224_5709" fill="white">
<path d="M325 170C316.716 170 310 163.284 310 155C310 151.158 311.445 147.654 313.82 145L265 145L265 96.1797C262.346 98.5551 258.842 100 255 100C246.716 100 240 93.2843 240 85C240 76.7157 246.716 70 255 70C258.842 70 262.346 71.4456 265 73.8213L265 25L313.82 25C311.445 22.3462 310 18.842 310 15C310 6.71572 316.716 -5.9696e-06 325 -5.24537e-06C333.284 1.17555e-07 340 6.71573 340 15C340 18.842 338.555 22.3462 336.18 25L385 25L385 73.8213C382.346 71.4456 378.842 70 375 70C366.716 70 360 76.7157 360 85C360 93.2843 366.716 100 375 100C378.842 100 382.346 98.5551 385 96.1797L385 145L336.18 145C338.555 147.654 340 151.158 340 155C340 163.284 333.284 170 325 170Z"/>
</mask>
<path d="M325 170C316.716 170 310 163.284 310 155C310 151.158 311.445 147.654 313.82 145L265 145L265 96.1797C262.346 98.5551 258.842 100 255 100C246.716 100 240 93.2843 240 85C240 76.7157 246.716 70 255 70C258.842 70 262.346 71.4456 265 73.8213L265 25L313.82 25C311.445 22.3462 310 18.842 310 15C310 6.71572 316.716 -5.9696e-06 325 -5.24537e-06C333.284 1.17555e-07 340 6.71573 340 15C340 18.842 338.555 22.3462 336.18 25L385 25L385 73.8213C382.346 71.4456 378.842 70 375 70C366.716 70 360 76.7157 360 85C360 93.2843 366.716 100 375 100C378.842 100 382.346 98.5551 385 96.1797L385 145L336.18 145C338.555 147.654 340 151.158 340 155C340 163.284 333.284 170 325 170Z" fill="#F1E6DB"/>
<path d="M325 170L325 171H325L325 170ZM310 155L309 155L309 155L310 155ZM313.82 145L314.565 145.667L316.057 144L313.82 144L313.82 145ZM265 145L264 145L264 146L265 146L265 145ZM265 96.1797L266 96.1797L266 93.9425L264.333 95.4346L265 96.1797ZM255 100L255 101H255L255 100ZM240 85L239 85L239 85L240 85ZM255 70L255 69H255L255 70ZM265 73.8213L264.333 74.5664L266 76.0586L266 73.8213L265 73.8213ZM265 25L265 24L264 24L264 25L265 25ZM313.82 25L313.82 26L316.058 26L314.565 24.333L313.82 25ZM310 15L309 15L309 15L310 15ZM325 -5.24537e-06L325 -1.00001L325 -1.00001L325 -5.24537e-06ZM340 15L341 15L341 15L340 15ZM336.18 25L335.435 24.333L333.943 26L336.18 26L336.18 25ZM385 25L386 25L386 24L385 24L385 25ZM385 73.8213L384.333 74.5664L386 76.0586L386 73.8213L385 73.8213ZM375 70L375 69L375 69L375 70ZM360 85L359 85V85L360 85ZM375 100L375 101L375 101L375 100ZM385 96.1797L386 96.1797L386 93.9425L384.333 95.4346L385 96.1797ZM385 145L385 146L386 146L386 145L385 145ZM336.18 145L336.18 144L333.943 144L335.435 145.667L336.18 145ZM340 155L341 155L341 155L340 155ZM325 170L325 169C317.268 169 311 162.732 311 155L310 155L309 155C309 163.836 316.163 171 325 171L325 170ZM310 155L311 155C311 151.414 312.348 148.145 314.565 145.667L313.82 145L313.075 144.333C310.542 147.163 309 150.902 309 155L310 155ZM313.82 145L313.82 144L265 144L265 145L265 146L313.82 146L313.82 145ZM265 145L266 145L266 96.1797L265 96.1797L264 96.1797L264 145L265 145ZM265 96.1797L264.333 95.4346C261.855 97.6523 258.586 99 255 99L255 100L255 101C259.098 101 262.837 99.4579 265.667 96.9248L265 96.1797ZM255 100L255 99C247.268 99 241 92.732 241 85L240 85L239 85C239 93.8365 246.163 101 255 101L255 100ZM240 85L241 85C241 77.268 247.268 71 255 71L255 70L255 69C246.163 69 239 76.1634 239 85L240 85ZM255 70L255 71C258.586 71 261.855 72.3483 264.333 74.5664L265 73.8213L265.667 73.0762C262.837 70.5429 259.098 69 255 69L255 70ZM265 73.8213L266 73.8213L266 25L265 25L264 25L264 73.8213L265 73.8213ZM265 25L265 26L313.82 26L313.82 25L313.82 24L265 24L265 25ZM313.82 25L314.565 24.333C312.348 21.8554 311 18.5864 311 15L310 15L309 15C309 19.0976 310.542 22.8369 313.075 25.6669L313.82 25ZM310 15L311 15C311 7.26801 317.268 0.999994 325 0.999995L325 -5.24537e-06L325 -1.00001C316.163 -1.00001 309 6.16344 309 15L310 15ZM325 -5.24537e-06L325 0.999995C332.732 1 339 7.26801 339 15L340 15L341 15C341 6.16344 333.837 -1 325 -1.00001L325 -5.24537e-06ZM340 15L339 15C339 18.5864 337.652 21.8554 335.435 24.333L336.18 25L336.925 25.6669C339.458 22.837 341 19.0976 341 15L340 15ZM336.18 25L336.18 26L385 26L385 25L385 24L336.18 24L336.18 25ZM385 25L384 25L384 73.8213L385 73.8213L386 73.8213L386 25L385 25ZM385 73.8213L385.667 73.0762C382.837 70.5429 379.098 69 375 69L375 70L375 71C378.586 71 381.855 72.3483 384.333 74.5664L385 73.8213ZM375 70L375 69C366.163 69 359 76.1634 359 85L360 85L361 85C361 77.268 367.268 71 375 71L375 70ZM360 85L359 85C359 93.8366 366.163 101 375 101L375 100L375 99C367.268 99 361 92.732 361 85L360 85ZM375 100L375 101C379.098 101 382.837 99.4579 385.667 96.9248L385 96.1797L384.333 95.4346C381.855 97.6523 378.586 99 375 99L375 100ZM385 96.1797L384 96.1797L384 145L385 145L386 145L386 96.1797L385 96.1797ZM385 145L385 144L336.18 144L336.18 145L336.18 146L385 146L385 145ZM336.18 145L335.435 145.667C337.652 148.145 339 151.414 339 155L340 155L341 155C341 150.902 339.458 147.163 336.925 144.333L336.18 145ZM340 155L339 155C339 162.732 332.732 169 325 169L325 170L325 171C333.837 171 341 163.836 341 155L340 155Z" fill="#C99A69" fill-opacity="0.25" mask="url(#path-11-inside-6_224_5709)"/>
</svg>
