<svg width="410" height="650" viewBox="0 0 410 650" fill="none" xmlns="http://www.w3.org/2000/svg">
<mask id="path-1-inside-1_224_5804" fill="white">
<path d="M205 240C213.284 240 220 246.715 220 255C220 258.841 218.555 262.346 216.18 265H265V313.82C267.654 311.444 271.158 310 275 310C283.284 310 290 316.715 290 325C290 333.284 283.284 340 275 340C271.158 340 267.654 338.555 265 336.179V385H216.18C218.555 382.346 220 378.841 220 375C220 366.715 213.284 360 205 360C196.716 360 190 366.715 190 375C190 378.841 191.445 382.346 193.82 385H145V336.179C147.654 338.555 151.158 340 155 340C163.284 340 170 333.284 170 325C170 316.715 163.284 310 155 310C151.158 310 147.654 311.444 145 313.82V265H193.82C191.445 262.346 190 258.841 190 255C190 246.715 196.716 240 205 240Z"/>
</mask>
<path d="M205 240C213.284 240 220 246.715 220 255C220 258.841 218.555 262.346 216.18 265H265V313.82C267.654 311.444 271.158 310 275 310C283.284 310 290 316.715 290 325C290 333.284 283.284 340 275 340C271.158 340 267.654 338.555 265 336.179V385H216.18C218.555 382.346 220 378.841 220 375C220 366.715 213.284 360 205 360C196.716 360 190 366.715 190 375C190 378.841 191.445 382.346 193.82 385H145V336.179C147.654 338.555 151.158 340 155 340C163.284 340 170 333.284 170 325C170 316.715 163.284 310 155 310C151.158 310 147.654 311.444 145 313.82V265H193.82C191.445 262.346 190 258.841 190 255C190 246.715 196.716 240 205 240Z" fill="#F1E6DB"/>
<path d="M220 255L221 255L221 255L220 255ZM216.18 265L215.435 264.333L213.943 266H216.18V265ZM265 265H266V264H265V265ZM265 313.82H264V316.057L265.667 314.565L265 313.82ZM290 325L291 325L291 325L290 325ZM265 336.179L265.667 335.434L264 333.942V336.179H265ZM265 385V386H266V385H265ZM216.18 385L215.435 384.333L213.943 386H216.18V385ZM220 375L221 375L221 375L220 375ZM190 375L189 375V375H190ZM193.82 385V386H196.057L194.565 384.333L193.82 385ZM145 385H144V386H145V385ZM145 336.179L145.667 335.434L144 333.942V336.179H145ZM170 325L171 325L171 325L170 325ZM145 313.82H144V316.057L145.667 314.565L145 313.82ZM145 265V264H144V265H145ZM193.82 265V266H196.057L194.565 264.333L193.82 265ZM190 255L189 255V255H190ZM205 240V241C212.732 241 219 247.268 219 255L220 255L221 255C221 246.163 213.837 239 205 239V240ZM220 255H219C219 258.586 217.652 261.855 215.435 264.333L216.18 265L216.925 265.666C219.458 262.836 221 259.097 221 255H220ZM216.18 265V266H265V265V264H216.18V265ZM265 265H264V313.82H265H266V265H265ZM265 313.82L265.667 314.565C268.145 312.347 271.414 311 275 311V310V309C270.902 309 267.163 310.542 264.333 313.075L265 313.82ZM275 310V311C282.732 311 289 317.268 289 325L290 325L291 325C291 316.163 283.837 309 275 309V310ZM290 325H289C289 332.731 282.732 339 275 339V340V341C283.837 341 291 333.836 291 325H290ZM275 340V339C271.414 339 268.145 337.652 265.667 335.434L265 336.179L264.333 336.924C267.163 339.457 270.902 341 275 341V340ZM265 336.179H264V385H265H266V336.179H265ZM265 385V384H216.18V385V386H265V385ZM216.18 385L216.925 385.666C219.458 382.836 221 379.097 221 375H220H219C219 378.586 217.652 381.855 215.435 384.333L216.18 385ZM220 375L221 375C221 366.163 213.837 359 205 359V360V361C212.732 361 219 367.268 219 375L220 375ZM205 360V359C196.163 359 189 366.163 189 375L190 375L191 375C191 367.268 197.268 361 205 361V360ZM190 375H189C189 379.097 190.542 382.836 193.075 385.666L193.82 385L194.565 384.333C192.348 381.855 191 378.586 191 375H190ZM193.82 385V384H145V385V386H193.82V385ZM145 385H146V336.179H145H144V385H145ZM145 336.179L144.333 336.924C147.163 339.457 150.902 341 155 341V340V339C151.414 339 148.145 337.652 145.667 335.434L145 336.179ZM155 340V341C163.837 341 171 333.836 171 325H170H169C169 332.731 162.732 339 155 339V340ZM170 325L171 325C171 316.163 163.837 309 155 309V310V311C162.732 311 169 317.268 169 325L170 325ZM155 310V309C150.902 309 147.163 310.542 144.333 313.075L145 313.82L145.667 314.565C148.145 312.347 151.414 311 155 311V310ZM145 313.82H146V265H145H144V313.82H145ZM145 265V266H193.82V265V264H145V265ZM193.82 265L194.565 264.333C192.348 261.855 191 258.586 191 255H190H189C189 259.097 190.542 262.836 193.075 265.666L193.82 265ZM190 255L191 255C191 247.268 197.268 241 205 241V240V239C196.163 239 189 246.163 189 255L190 255Z" fill="#C99A69" fill-opacity="0.25" mask="url(#path-1-inside-1_224_5804)"/>
<mask id="path-3-inside-2_224_5804" fill="white">
<path d="M170 205C170 213.284 163.284 220 155 220C151.158 220 147.654 218.555 145 216.18L145 265L95.1973 265C98.151 262.26 100 258.346 100 254C100 245.716 93.2842 239 85 239C76.7157 239 70 245.716 70 254C70 258.346 71.8489 262.26 74.8027 265L25 265L25 216.18C22.3462 218.555 18.842 220 15 220C6.71573 220 -2.9848e-06 213.284 -2.62268e-06 205C2.37812e-06 196.716 6.71573 190 15 190C18.842 190 22.3462 191.445 25 193.82L25 145L74.8027 145C71.8489 147.74 70 151.654 70 156C70 164.284 76.7157 171 85 171C93.2842 171 100 164.284 100 156C100 151.654 98.151 147.74 95.1973 145L145 145L145 193.82C147.654 191.445 151.158 190 155 190C163.284 190 170 196.716 170 205Z"/>
</mask>
<path d="M170 205C170 213.284 163.284 220 155 220C151.158 220 147.654 218.555 145 216.18L145 265L95.1973 265C98.151 262.26 100 258.346 100 254C100 245.716 93.2842 239 85 239C76.7157 239 70 245.716 70 254C70 258.346 71.8489 262.26 74.8027 265L25 265L25 216.18C22.3462 218.555 18.842 220 15 220C6.71573 220 -2.9848e-06 213.284 -2.62268e-06 205C2.37812e-06 196.716 6.71573 190 15 190C18.842 190 22.3462 191.445 25 193.82L25 145L74.8027 145C71.8489 147.74 70 151.654 70 156C70 164.284 76.7157 171 85 171C93.2842 171 100 164.284 100 156C100 151.654 98.151 147.74 95.1973 145L145 145L145 193.82C147.654 191.445 151.158 190 155 190C163.284 190 170 196.716 170 205Z" fill="#F1E6DB"/>
<path d="M170 205L171 205V205L170 205ZM155 220L155 221L155 221L155 220ZM145 216.18L145.667 215.435L144 213.943L144 216.18L145 216.18ZM145 265L145 266L146 266L146 265L145 265ZM95.1973 265L94.5172 264.267L92.6485 266L95.1973 266L95.1973 265ZM100 254L101 254V254L100 254ZM85 239L85 238L85 238L85 239ZM70 254L69 254V254L70 254ZM74.8027 265L74.8027 266L77.3515 266L75.4827 264.267L74.8027 265ZM25 265L24 265L24 266L25 266L25 265ZM25 216.18L26 216.18L26 213.942L24.3331 215.435L25 216.18ZM15 220L15 221L15 221L15 220ZM-2.62268e-06 205L-1 205L-1 205L-2.62268e-06 205ZM15 190L15 189L15 189L15 190ZM25 193.82L24.3331 194.565L26 196.057L26 193.82L25 193.82ZM25 145L25 144L24 144L24 145L25 145ZM74.8027 145L75.4827 145.733L77.3515 144L74.8027 144L74.8027 145ZM70 156L69 156L69 156L70 156ZM85 171L85 172L85 172L85 171ZM100 156L101 156L101 156L100 156ZM95.1973 145L95.1973 144L92.6485 144L94.5173 145.733L95.1973 145ZM145 145L146 145L146 144L145 144L145 145ZM145 193.82L144 193.82L144 196.057L145.667 194.565L145 193.82ZM155 190L155 189L155 189L155 190ZM170 205L169 205C169 212.732 162.732 219 155 219L155 220L155 221C163.836 221 171 213.837 171 205L170 205ZM155 220L155 219C151.414 219 148.145 217.652 145.667 215.435L145 216.18L144.333 216.925C147.163 219.458 150.902 221 155 221L155 220ZM145 216.18L144 216.18L144 265L145 265L146 265L146 216.18L145 216.18ZM145 265L145 264L95.1973 264L95.1973 265L95.1973 266L145 266L145 265ZM95.1973 265L95.8773 265.733C99.0264 262.812 101 258.636 101 254L100 254L99 254C99 258.056 97.2756 261.709 94.5172 264.267L95.1973 265ZM100 254L101 254C101 245.163 93.8365 238 85 238L85 239L85 240C92.732 240 99 246.268 99 254L100 254ZM85 239L85 238C76.1634 238 69 245.163 69 254L70 254L71 254C71 246.268 77.268 240 85 240L85 239ZM70 254L69 254C69 258.636 70.9735 262.812 74.1227 265.733L74.8027 265L75.4827 264.267C72.7244 261.709 71 258.057 71 254L70 254ZM74.8027 265L74.8027 264L25 264L25 265L25 266L74.8027 266L74.8027 265ZM25 265L26 265L26 216.18L25 216.18L24 216.18L24 265L25 265ZM25 216.18L24.3331 215.435C21.8554 217.652 18.5864 219 15 219L15 220L15 221C19.0976 221 22.8369 219.458 25.6669 216.925L25 216.18ZM15 220L15 219C7.26801 219 0.999997 212.732 0.999997 205L-2.62268e-06 205L-1 205C-1 213.837 6.16344 221 15 221L15 220ZM-2.62268e-06 205L0.999997 205C1 197.268 7.26802 191 15 191L15 190L15 189C6.16344 189 -0.999997 196.163 -1 205L-2.62268e-06 205ZM15 190L15 191C18.5864 191 21.8554 192.348 24.3331 194.565L25 193.82L25.6669 193.075C22.837 190.542 19.0976 189 15 189L15 190ZM25 193.82L26 193.82L26 145L25 145L24 145L24 193.82L25 193.82ZM25 145L25 146L74.8027 146L74.8027 145L74.8027 144L25 144L25 145ZM74.8027 145L74.1227 144.267C70.9735 147.188 69 151.364 69 156L70 156L71 156C71 151.943 72.7244 148.291 75.4827 145.733L74.8027 145ZM70 156L69 156C69 164.837 76.1634 172 85 172L85 171L85 170C77.268 170 71 163.732 71 156L70 156ZM85 171L85 172C93.8365 172 101 164.837 101 156L100 156L99 156C99 163.732 92.732 170 85 170L85 171ZM100 156L101 156C101 151.364 99.0264 147.188 95.8773 144.267L95.1973 145L94.5173 145.733C97.2756 148.291 99 151.944 99 156L100 156ZM95.1973 145L95.1973 146L145 146L145 145L145 144L95.1973 144L95.1973 145ZM145 145L144 145L144 193.82L145 193.82L146 193.82L146 145L145 145ZM145 193.82L145.667 194.565C148.145 192.348 151.414 191 155 191L155 190L155 189C150.902 189 147.163 190.542 144.333 193.075L145 193.82ZM155 190L155 191C162.732 191 169 197.268 169 205L170 205L171 205C171 196.163 163.836 189 155 189L155 190Z" fill="#C99A69" fill-opacity="0.25" mask="url(#path-3-inside-2_224_5804)"/>
<mask id="path-5-inside-3_224_5804" fill="white">
<path d="M205 480C213.284 480 220 486.715 220 495C220 498.841 218.555 502.346 216.18 505L265 505V553.82C267.654 551.444 271.158 550 275 550C283.284 550 290 556.715 290 565C290 573.284 283.284 580 275 580C271.158 580 267.654 578.554 265 576.178L265 625L216.18 625C218.555 627.653 220 631.158 220 635C220 643.284 213.284 650 205 650C196.716 650 190 643.284 190 635C190 631.158 191.445 627.653 193.82 625L145 625L145 576.178C147.654 578.554 151.158 580 155 580C163.284 580 170 573.284 170 565C170 556.715 163.284 550 155 550C151.158 550 147.654 551.444 145 553.82L145 505L193.82 505C191.445 502.346 190 498.841 190 495C190 486.715 196.716 480 205 480Z"/>
</mask>
<path d="M205 480C213.284 480 220 486.715 220 495C220 498.841 218.555 502.346 216.18 505L265 505V553.82C267.654 551.444 271.158 550 275 550C283.284 550 290 556.715 290 565C290 573.284 283.284 580 275 580C271.158 580 267.654 578.554 265 576.178L265 625L216.18 625C218.555 627.653 220 631.158 220 635C220 643.284 213.284 650 205 650C196.716 650 190 643.284 190 635C190 631.158 191.445 627.653 193.82 625L145 625L145 576.178C147.654 578.554 151.158 580 155 580C163.284 580 170 573.284 170 565C170 556.715 163.284 550 155 550C151.158 550 147.654 551.444 145 553.82L145 505L193.82 505C191.445 502.346 190 498.841 190 495C190 486.715 196.716 480 205 480Z" fill="#F1E6DB"/>
<path d="M205 480L205 479H205L205 480ZM220 495L221 495L221 495L220 495ZM216.18 505L215.435 504.333L213.943 506H216.18V505ZM265 505H266V504H265V505ZM265 553.82H264L264 556.057L265.667 554.565L265 553.82ZM275 550L275 549H275L275 550ZM290 565L291 565V565H290ZM275 580L275 581H275V580ZM265 576.178L265.667 575.433L264 573.941V576.178H265ZM265 625V626H266V625H265ZM216.18 625V624H213.942L215.435 625.666L216.18 625ZM220 635L221 635L221 635L220 635ZM205 650L205 651H205L205 650ZM190 635L189 635L189 635H190ZM193.82 625L194.565 625.666L196.058 624H193.82V625ZM145 625H144V626H145V625ZM145 576.178L145.667 575.433L144 573.941V576.178H145ZM155 580L155 581H155L155 580ZM170 565L171 565V565H170ZM155 550L155 549L155 549L155 550ZM145 553.82H144V556.057L145.667 554.565L145 553.82ZM145 505V504H144V505H145ZM193.82 505V506H196.057L194.565 504.333L193.82 505ZM190 495L189 495V495H190ZM205 480V481C212.732 481 219 487.268 219 495L220 495L221 495C221 486.163 213.837 479 205 479V480ZM220 495H219C219 498.586 217.652 501.855 215.435 504.333L216.18 505L216.925 505.666C219.458 502.836 221 499.097 221 495H220ZM216.18 505V506L265 506V505V504L216.18 504V505ZM265 505L264 505V553.82H265H266V505H265ZM265 553.82L265.667 554.565C268.145 552.347 271.414 551 275 551L275 550L275 549C270.902 549 267.163 550.542 264.333 553.075L265 553.82ZM275 550V551C282.732 551 289 557.268 289 565H290H291C291 556.163 283.837 549 275 549V550ZM290 565L289 565C289 572.731 282.732 579 275 579V580V581C283.837 581 291 573.836 291 565L290 565ZM275 580L275 579C271.414 579 268.145 577.651 265.667 575.433L265 576.178L264.333 576.923C267.163 579.457 270.902 581 275 581L275 580ZM265 576.178H264L264 625H265H266L266 576.178H265ZM265 625V624L216.18 624V625V626L265 626V625ZM216.18 625L215.435 625.666C217.652 628.144 219 631.413 219 635L220 635L221 635C221 630.902 219.458 627.163 216.925 624.333L216.18 625ZM220 635H219C219 642.731 212.732 649 205 649V650L205 651C213.837 651 221 643.836 221 635H220ZM205 650L205 649C197.268 649 191 642.731 191 635H190H189C189 643.836 196.163 651 205 651L205 650ZM190 635L191 635C191 631.413 192.348 628.144 194.565 625.666L193.82 625L193.075 624.333C190.542 627.163 189 630.902 189 635L190 635ZM193.82 625V624L145 624V625V626L193.82 626V625ZM145 625H146L146 576.178H145H144L144 625H145ZM145 576.178L144.333 576.923C147.163 579.457 150.902 581 155 581L155 580L155 579C151.414 579 148.145 577.651 145.667 575.433L145 576.178ZM155 580L155 581C163.837 581 171 573.836 171 565L170 565L169 565C169 572.731 162.732 579 155 579V580ZM170 565H171C171 556.163 163.837 549 155 549V550V551C162.732 551 169 557.268 169 565H170ZM155 550L155 549C150.902 549 147.163 550.542 144.333 553.075L145 553.82L145.667 554.565C148.145 552.347 151.414 551 155 551L155 550ZM145 553.82H146L146 505H145H144L144 553.82H145ZM145 505V506L193.82 506V505V504L145 504V505ZM193.82 505L194.565 504.333C192.348 501.855 191 498.586 191 495H190H189C189 499.097 190.542 502.836 193.075 505.666L193.82 505ZM190 495L191 495C191 487.268 197.268 481 205 481L205 480L205 479C196.163 479 189 486.163 189 495L190 495Z" fill="#C99A69" fill-opacity="0.25" mask="url(#path-5-inside-3_224_5804)"/>
<mask id="path-7-inside-4_224_5804" fill="white">
<path d="M240 205C240 196.716 246.716 190 255 190C258.842 190 262.346 191.445 265 193.82L265 145L313.82 145C311.445 142.346 310 138.842 310 135C310 126.716 316.716 120 325 120C333.284 120 340 126.716 340 135C340 138.842 338.555 142.346 336.18 145L385 145L385 193.82C387.654 191.445 391.158 190 395 190C403.284 190 410 196.716 410 205C410 213.284 403.284 220 395 220C391.158 220 387.654 218.555 385 216.18L385 265L336.18 265C338.555 267.654 340 271.158 340 275C340 283.284 333.284 290 325 290C316.716 290 310 283.284 310 275C310 271.158 311.445 267.654 313.82 265L265 265L265 216.18C262.346 218.555 258.842 220 255 220C246.716 220 240 213.284 240 205Z"/>
</mask>
<path d="M240 205C240 196.716 246.716 190 255 190C258.842 190 262.346 191.445 265 193.82L265 145L313.82 145C311.445 142.346 310 138.842 310 135C310 126.716 316.716 120 325 120C333.284 120 340 126.716 340 135C340 138.842 338.555 142.346 336.18 145L385 145L385 193.82C387.654 191.445 391.158 190 395 190C403.284 190 410 196.716 410 205C410 213.284 403.284 220 395 220C391.158 220 387.654 218.555 385 216.18L385 265L336.18 265C338.555 267.654 340 271.158 340 275C340 283.284 333.284 290 325 290C316.716 290 310 283.284 310 275C310 271.158 311.445 267.654 313.82 265L265 265L265 216.18C262.346 218.555 258.842 220 255 220C246.716 220 240 213.284 240 205Z" fill="#F1E6DB"/>
<path d="M240 205L239 205L239 205L240 205ZM255 190L255 189L255 189L255 190ZM265 193.82L264.333 194.565L266 196.057L266 193.82L265 193.82ZM265 145L265 144L264 144L264 145L265 145ZM313.82 145L313.82 146L316.057 146L314.565 144.333L313.82 145ZM310 135L309 135L309 135L310 135ZM325 120L325 119L325 119L325 120ZM340 135L341 135L341 135L340 135ZM336.18 145L335.435 144.333L333.942 146L336.18 146L336.18 145ZM385 145L386 145L386 144L385 144L385 145ZM385 193.82L384 193.82L384 196.058L385.667 194.565L385 193.82ZM395 190L395 189L395 189L395 190ZM410 205L411 205L411 205L410 205ZM395 220L395 221L395 221L395 220ZM385 216.18L385.667 215.435L384 213.943L384 216.18L385 216.18ZM385 265L385 266L386 266L386 265L385 265ZM336.18 265L336.18 264L333.943 264L335.435 265.667L336.18 265ZM340 275L341 275L341 275L340 275ZM325 290L325 291L325 291L325 290ZM310 275L309 275L309 275L310 275ZM313.82 265L314.565 265.667L316.057 264L313.82 264L313.82 265ZM265 265L264 265L264 266L265 266L265 265ZM265 216.18L266 216.18L266 213.943L264.333 215.435L265 216.18ZM255 220L255 221L255 221L255 220ZM240 205L241 205C241 197.268 247.268 191 255 191L255 190L255 189C246.164 189 239 196.163 239 205L240 205ZM255 190L255 191C258.586 191 261.855 192.348 264.333 194.565L265 193.82L265.667 193.075C262.837 190.542 259.098 189 255 189L255 190ZM265 193.82L266 193.82L266 145L265 145L264 145L264 193.82L265 193.82ZM265 145L265 146L313.82 146L313.82 145L313.82 144L265 144L265 145ZM313.82 145L314.565 144.333C312.348 141.855 311 138.586 311 135L310 135L309 135C309 139.098 310.542 142.837 313.075 145.667L313.82 145ZM310 135L311 135C311 127.268 317.268 121 325 121L325 120L325 119C316.164 119 309 126.163 309 135L310 135ZM325 120L325 121C332.732 121 339 127.268 339 135L340 135L341 135C341 126.163 333.837 119 325 119L325 120ZM340 135L339 135C339 138.586 337.652 141.855 335.435 144.333L336.18 145L336.925 145.667C339.458 142.837 341 139.098 341 135L340 135ZM336.18 145L336.18 146L385 146L385 145L385 144L336.18 144L336.18 145ZM385 145L384 145L384 193.82L385 193.82L386 193.82L386 145L385 145ZM385 193.82L385.667 194.565C388.145 192.348 391.414 191 395 191L395 190L395 189C390.902 189 387.163 190.542 384.333 193.075L385 193.82ZM395 190L395 191C402.732 191 409 197.268 409 205L410 205L411 205C411 196.163 403.837 189 395 189L395 190ZM410 205L409 205C409 212.732 402.732 219 395 219L395 220L395 221C403.837 221 411 213.836 411 205L410 205ZM395 220L395 219C391.414 219 388.145 217.652 385.667 215.435L385 216.18L384.333 216.925C387.163 219.458 390.902 221 395 221L395 220ZM385 216.18L384 216.18L384 265L385 265L386 265L386 216.18L385 216.18ZM385 265L385 264L336.18 264L336.18 265L336.18 266L385 266L385 265ZM336.18 265L335.435 265.667C337.652 268.145 339 271.414 339 275L340 275L341 275C341 270.902 339.458 267.163 336.925 264.333L336.18 265ZM340 275L339 275C339 282.732 332.732 289 325 289L325 290L325 291C333.837 291 341 283.836 341 275L340 275ZM325 290L325 289C317.268 289 311 282.732 311 275L310 275L309 275C309 283.836 316.164 291 325 291L325 290ZM310 275L311 275C311 271.414 312.348 268.145 314.565 265.667L313.82 265L313.075 264.333C310.542 267.163 309 270.902 309 275L310 275ZM313.82 265L313.82 264L265 264L265 265L265 266L313.82 266L313.82 265ZM265 265L266 265L266 216.18L265 216.18L264 216.18L264 265L265 265ZM265 216.18L264.333 215.435C261.855 217.652 258.586 219 255 219L255 220L255 221C259.098 221 262.837 219.458 265.667 216.925L265 216.18ZM255 220L255 219C247.268 219 241 212.732 241 205L240 205L239 205C239 213.836 246.164 221 255 221L255 220Z" fill="#C99A69" fill-opacity="0.25" mask="url(#path-7-inside-4_224_5804)"/>
<mask id="path-9-inside-5_224_5804" fill="white">
<path d="M205 170C196.716 170 190 163.284 190 155C190 151.158 191.445 147.654 193.82 145L145 145L145 96.1797C142.346 98.5551 138.842 100 135 100C126.716 100 120 93.2843 120 85C120 76.7157 126.716 70 135 70C138.842 70 142.346 71.4456 145 73.8213L145 25L193.82 25C191.445 22.3462 190 18.842 190 15C190 6.71572 196.716 -5.9696e-06 205 -5.24537e-06C213.284 1.17555e-07 220 6.71573 220 15C220 18.842 218.555 22.3462 216.18 25L265 25L265 73.8213C262.346 71.4456 258.842 70 255 70C246.716 70 240 76.7157 240 85C240 93.2843 246.716 100 255 100C258.842 100 262.346 98.5551 265 96.1797L265 145L216.18 145C218.555 147.654 220 151.158 220 155C220 163.284 213.284 170 205 170Z"/>
</mask>
<path d="M205 170C196.716 170 190 163.284 190 155C190 151.158 191.445 147.654 193.82 145L145 145L145 96.1797C142.346 98.5551 138.842 100 135 100C126.716 100 120 93.2843 120 85C120 76.7157 126.716 70 135 70C138.842 70 142.346 71.4456 145 73.8213L145 25L193.82 25C191.445 22.3462 190 18.842 190 15C190 6.71572 196.716 -5.9696e-06 205 -5.24537e-06C213.284 1.17555e-07 220 6.71573 220 15C220 18.842 218.555 22.3462 216.18 25L265 25L265 73.8213C262.346 71.4456 258.842 70 255 70C246.716 70 240 76.7157 240 85C240 93.2843 246.716 100 255 100C258.842 100 262.346 98.5551 265 96.1797L265 145L216.18 145C218.555 147.654 220 151.158 220 155C220 163.284 213.284 170 205 170Z" fill="#F1E6DB"/>
<path d="M205 170L205 171H205L205 170ZM190 155L189 155L189 155L190 155ZM193.82 145L194.565 145.667L196.057 144L193.82 144L193.82 145ZM145 145L144 145L144 146L145 146L145 145ZM145 96.1797L146 96.1797L146 93.9425L144.333 95.4346L145 96.1797ZM135 100L135 101H135L135 100ZM120 85L119 85L119 85L120 85ZM135 70L135 69H135L135 70ZM145 73.8213L144.333 74.5664L146 76.0586L146 73.8213L145 73.8213ZM145 25L145 24L144 24L144 25L145 25ZM193.82 25L193.82 26L196.058 26L194.565 24.333L193.82 25ZM190 15L189 15L189 15L190 15ZM205 -5.24537e-06L205 -1.00001L205 -1.00001L205 -5.24537e-06ZM220 15L221 15L221 15L220 15ZM216.18 25L215.435 24.333L213.943 26L216.18 26L216.18 25ZM265 25L266 25L266 24L265 24L265 25ZM265 73.8213L264.333 74.5664L266 76.0586L266 73.8213L265 73.8213ZM255 70L255 69L255 69L255 70ZM240 85L239 85V85L240 85ZM255 100L255 101L255 101L255 100ZM265 96.1797L266 96.1797L266 93.9425L264.333 95.4346L265 96.1797ZM265 145L265 146L266 146L266 145L265 145ZM216.18 145L216.18 144L213.943 144L215.435 145.667L216.18 145ZM220 155L221 155L221 155L220 155ZM205 170L205 169C197.268 169 191 162.732 191 155L190 155L189 155C189 163.836 196.163 171 205 171L205 170ZM190 155L191 155C191 151.414 192.348 148.145 194.565 145.667L193.82 145L193.075 144.333C190.542 147.163 189 150.902 189 155L190 155ZM193.82 145L193.82 144L145 144L145 145L145 146L193.82 146L193.82 145ZM145 145L146 145L146 96.1797L145 96.1797L144 96.1797L144 145L145 145ZM145 96.1797L144.333 95.4346C141.855 97.6523 138.586 99 135 99L135 100L135 101C139.098 101 142.837 99.4579 145.667 96.9248L145 96.1797ZM135 100L135 99C127.268 99 121 92.732 121 85L120 85L119 85C119 93.8365 126.163 101 135 101L135 100ZM120 85L121 85C121 77.268 127.268 71 135 71L135 70L135 69C126.163 69 119 76.1634 119 85L120 85ZM135 70L135 71C138.586 71 141.855 72.3483 144.333 74.5664L145 73.8213L145.667 73.0762C142.837 70.5429 139.098 69 135 69L135 70ZM145 73.8213L146 73.8213L146 25L145 25L144 25L144 73.8213L145 73.8213ZM145 25L145 26L193.82 26L193.82 25L193.82 24L145 24L145 25ZM193.82 25L194.565 24.333C192.348 21.8554 191 18.5864 191 15L190 15L189 15C189 19.0976 190.542 22.8369 193.075 25.6669L193.82 25ZM190 15L191 15C191 7.26801 197.268 0.999994 205 0.999995L205 -5.24537e-06L205 -1.00001C196.163 -1.00001 189 6.16344 189 15L190 15ZM205 -5.24537e-06L205 0.999995C212.732 1 219 7.26801 219 15L220 15L221 15C221 6.16344 213.837 -1 205 -1.00001L205 -5.24537e-06ZM220 15L219 15C219 18.5864 217.652 21.8554 215.435 24.333L216.18 25L216.925 25.6669C219.458 22.837 221 19.0976 221 15L220 15ZM216.18 25L216.18 26L265 26L265 25L265 24L216.18 24L216.18 25ZM265 25L264 25L264 73.8213L265 73.8213L266 73.8213L266 25L265 25ZM265 73.8213L265.667 73.0762C262.837 70.5429 259.098 69 255 69L255 70L255 71C258.586 71 261.855 72.3483 264.333 74.5664L265 73.8213ZM255 70L255 69C246.163 69 239 76.1634 239 85L240 85L241 85C241 77.268 247.268 71 255 71L255 70ZM240 85L239 85C239 93.8366 246.163 101 255 101L255 100L255 99C247.268 99 241 92.732 241 85L240 85ZM255 100L255 101C259.098 101 262.837 99.4579 265.667 96.9248L265 96.1797L264.333 95.4346C261.855 97.6523 258.586 99 255 99L255 100ZM265 96.1797L264 96.1797L264 145L265 145L266 145L266 96.1797L265 96.1797ZM265 145L265 144L216.18 144L216.18 145L216.18 146L265 146L265 145ZM216.18 145L215.435 145.667C217.652 148.145 219 151.414 219 155L220 155L221 155C221 150.902 219.458 147.163 216.925 144.333L216.18 145ZM220 155L219 155C219 162.732 212.732 169 205 169L205 170L205 171C213.837 171 221 163.836 221 155L220 155Z" fill="#C99A69" fill-opacity="0.25" mask="url(#path-9-inside-5_224_5804)"/>
</svg>
