<svg width="530" height="480" viewBox="0 0 530 480" fill="none" xmlns="http://www.w3.org/2000/svg">
<mask id="path-1-inside-1_155_4765" fill="white">
<path d="M145 408.82C142.346 406.445 138.842 405 135 405C126.716 405 120 411.716 120 420C120 428.284 126.716 435 135 435C138.842 435 142.346 433.555 145 431.18L145 480L96.1797 480C98.5552 477.346 100 473.842 100 470C100 461.716 93.2843 455 85.0001 455C76.7158 455 70.0001 461.716 70.0001 470C70.0001 473.842 71.4456 477.346 73.8213 480L25.0001 480L25.0001 431.18C22.3462 433.555 18.842 435 15.0001 435C6.71579 435 5.80504e-05 428.284 5.84125e-05 420C6.13516e-05 411.716 6.71579 405 15.0001 405C18.842 405 22.3462 406.445 25.0001 408.82L25.0001 360L73.8214 360C71.4457 362.654 70.0001 366.158 70.0001 370C70.0001 378.284 76.7158 385 85.0001 385C93.2843 385 100 378.284 100 370C100 366.158 98.5552 362.654 96.1797 360L145 360L145 408.82Z"/>
</mask>
<path d="M145 408.82C142.346 406.445 138.842 405 135 405C126.716 405 120 411.716 120 420C120 428.284 126.716 435 135 435C138.842 435 142.346 433.555 145 431.18L145 480L96.1797 480C98.5552 477.346 100 473.842 100 470C100 461.716 93.2843 455 85.0001 455C76.7158 455 70.0001 461.716 70.0001 470C70.0001 473.842 71.4456 477.346 73.8213 480L25.0001 480L25.0001 431.18C22.3462 433.555 18.842 435 15.0001 435C6.71579 435 5.80504e-05 428.284 5.84125e-05 420C6.13516e-05 411.716 6.71579 405 15.0001 405C18.842 405 22.3462 406.445 25.0001 408.82L25.0001 360L73.8214 360C71.4457 362.654 70.0001 366.158 70.0001 370C70.0001 378.284 76.7158 385 85.0001 385C93.2843 385 100 378.284 100 370C100 366.158 98.5552 362.654 96.1797 360L145 360L145 408.82Z" fill="#F9F3ED"/>
<path d="M145 408.82L144.333 409.565L146 411.057L146 408.82L145 408.82ZM135 405L135 404L135 404L135 405ZM120 420L119 420V420L120 420ZM135 435L135 436L135 436L135 435ZM145 431.18L146 431.18L146 428.943L144.333 430.435L145 431.18ZM145 480L145 481L146 481L146 480L145 480ZM96.1797 480L95.4346 479.333L93.9426 481L96.1797 481L96.1797 480ZM100 470L101 470L101 470L100 470ZM85.0001 455L85.0001 454L85.0001 454L85.0001 455ZM70.0001 470L69.0001 470L69.0001 470L70.0001 470ZM73.8213 480L73.8213 481L76.0587 481L74.5664 479.333L73.8213 480ZM25.0001 480L24.0001 480L24.0001 481L25.0001 481L25.0001 480ZM25.0001 431.18L26.0001 431.18L26.0001 428.942L24.3331 430.435L25.0001 431.18ZM15.0001 435L15.0001 436L15.0001 436L15.0001 435ZM5.84125e-05 420L-0.999942 420L-0.999942 420L5.84125e-05 420ZM15.0001 405L15.0001 404L15.0001 404L15.0001 405ZM25.0001 408.82L24.3331 409.565L26.0001 411.057L26.0001 408.82L25.0001 408.82ZM25.0001 360L25.0001 359L24.0001 359L24.0001 360L25.0001 360ZM73.8214 360L74.5664 360.667L76.0587 359L73.8214 359L73.8214 360ZM70.0001 370L69.0001 370V370L70.0001 370ZM85.0001 385L85.0001 386L85.0001 386L85.0001 385ZM100 370L101 370L101 370L100 370ZM96.1797 360L96.1797 359L93.9426 359L95.4346 360.667L96.1797 360ZM145 360L146 360L146 359L145 359L145 360ZM145 408.82L145.667 408.075C142.837 405.542 139.098 404 135 404L135 405L135 406C138.586 406 141.855 407.348 144.333 409.565L145 408.82ZM135 405L135 404C126.164 404 119 411.163 119 420L120 420L121 420C121 412.268 127.268 406 135 406L135 405ZM120 420L119 420C119 428.837 126.164 436 135 436L135 435L135 434C127.268 434 121 427.732 121 420L120 420ZM135 435L135 436C139.098 436 142.837 434.458 145.667 431.925L145 431.18L144.333 430.435C141.855 432.652 138.586 434 135 434L135 435ZM145 431.18L144 431.18L144 480L145 480L146 480L146 431.18L145 431.18ZM145 480L145 479L96.1797 479L96.1797 480L96.1797 481L145 481L145 480ZM96.1797 480L96.9249 480.667C99.4579 477.837 101 474.098 101 470L100 470L99.0001 470C99.0001 473.586 97.6524 476.855 95.4346 479.333L96.1797 480ZM100 470L101 470C101 461.163 93.8366 454 85.0001 454L85.0001 455L85.0001 456C92.732 456 99.0001 462.268 99.0001 470L100 470ZM85.0001 455L85.0001 454C76.1635 454 69.0001 461.163 69.0001 470L70.0001 470L71.0001 470C71.0001 462.268 77.2681 456 85.0001 456L85.0001 455ZM70.0001 470L69.0001 470C69.0001 474.098 70.543 477.837 73.0763 480.667L73.8213 480L74.5664 479.333C72.3483 476.855 71.0001 473.586 71.0001 470L70.0001 470ZM73.8213 480L73.8213 479L25.0001 479L25.0001 480L25.0001 481L73.8213 481L73.8213 480ZM25.0001 480L26.0001 480L26.0001 431.18L25.0001 431.18L24.0001 431.18L24.0001 480L25.0001 480ZM25.0001 431.18L24.3331 430.435C21.8555 432.652 18.5864 434 15.0001 434L15.0001 435L15.0001 436C19.0976 436 22.837 434.458 25.667 431.925L25.0001 431.18ZM15.0001 435L15.0001 434C7.26807 434 1.00006 427.732 1.00006 420L5.84125e-05 420L-0.999942 420C-0.999942 428.837 6.1635 436 15.0001 436L15.0001 435ZM5.84125e-05 420L1.00006 420C1.00006 412.268 7.26807 406 15.0001 406L15.0001 405L15.0001 404C6.1635 404 -0.999938 411.163 -0.999942 420L5.84125e-05 420ZM15.0001 405L15.0001 406C18.5864 406 21.8555 407.348 24.3331 409.565L25.0001 408.82L25.667 408.075C22.837 405.542 19.0976 404 15.0001 404L15.0001 405ZM25.0001 408.82L26.0001 408.82L26.0001 360L25.0001 360L24.0001 360L24.0001 408.82L25.0001 408.82ZM25.0001 360L25.0001 361L73.8214 361L73.8214 360L73.8214 359L25.0001 359L25.0001 360ZM73.8214 360L73.0763 359.333C70.543 362.163 69.0001 365.902 69.0001 370L70.0001 370L71.0001 370C71.0001 366.414 72.3483 363.145 74.5664 360.667L73.8214 360ZM70.0001 370L69.0001 370C69.0001 378.837 76.1635 386 85.0001 386L85.0001 385L85.0001 384C77.2681 384 71.0001 377.732 71.0001 370L70.0001 370ZM85.0001 385L85.0001 386C93.8366 386 101 378.837 101 370L100 370L99.0001 370C99.0001 377.732 92.732 384 85.0001 384L85.0001 385ZM100 370L101 370C101 365.902 99.458 362.163 96.9249 359.333L96.1797 360L95.4346 360.667C97.6524 363.145 99.0001 366.414 99.0001 370L100 370ZM96.1797 360L96.1797 361L145 361L145 360L145 359L96.1797 359L96.1797 360ZM145 360L144 360L144 408.82L145 408.82L146 408.82L146 360L145 360Z" fill="#C99A69" fill-opacity="0.25" mask="url(#path-1-inside-1_155_4765)"/>
<mask id="path-3-inside-2_155_4765" fill="white">
<path d="M313.82 360C311.445 362.654 310 366.158 310 370C310 378.284 316.716 385 325 385C333.284 385 340 378.284 340 370C340 366.158 338.555 362.654 336.18 360H385V408.82C382.346 406.445 378.842 405 375 405C366.716 405 360 411.716 360 420C360 428.284 366.716 435 375 435C378.842 435 382.346 433.554 385 431.179V480H336.18C338.555 477.346 340 473.842 340 470C340 461.716 333.284 455 325 455C316.716 455 310 461.716 310 470C310 473.842 311.445 477.346 313.82 480H265V431.179C267.654 433.554 271.158 435 275 435C283.284 435 290 428.284 290 420C290 411.716 283.284 405 275 405C271.158 405 267.654 406.445 265 408.82V360H313.82Z"/>
</mask>
<path d="M313.82 360C311.445 362.654 310 366.158 310 370C310 378.284 316.716 385 325 385C333.284 385 340 378.284 340 370C340 366.158 338.555 362.654 336.18 360H385V408.82C382.346 406.445 378.842 405 375 405C366.716 405 360 411.716 360 420C360 428.284 366.716 435 375 435C378.842 435 382.346 433.554 385 431.179V480H336.18C338.555 477.346 340 473.842 340 470C340 461.716 333.284 455 325 455C316.716 455 310 461.716 310 470C310 473.842 311.445 477.346 313.82 480H265V431.179C267.654 433.554 271.158 435 275 435C283.284 435 290 428.284 290 420C290 411.716 283.284 405 275 405C271.158 405 267.654 406.445 265 408.82V360H313.82Z" fill="#F9F3ED"/>
<path d="M313.82 360L314.565 360.667L316.057 359H313.82V360ZM310 370L309 370V370L310 370ZM325 385L325 386H325L325 385ZM340 370L341 370V370L340 370ZM336.18 360V359H333.943L335.435 360.667L336.18 360ZM385 360H386V359H385V360ZM385 408.82L384.333 409.565L386 411.057V408.82H385ZM385 431.179H386V428.941L384.333 430.434L385 431.179ZM385 480V481H386V480H385ZM336.18 480L335.435 479.333L333.943 481H336.18V480ZM340 470L341 470V470L340 470ZM325 455L325 454H325L325 455ZM310 470L309 470V470L310 470ZM313.82 480V481H316.057L314.565 479.333L313.82 480ZM265 480H264V481H265V480ZM265 431.179L265.667 430.434L264 428.941V431.179H265ZM265 408.82H264V411.057L265.667 409.565L265 408.82ZM265 360V359H264V360H265ZM313.82 360L313.075 359.333C310.542 362.163 309 365.902 309 370L310 370L311 370C311 366.414 312.348 363.145 314.565 360.667L313.82 360ZM310 370L309 370C309 378.837 316.163 386 325 386L325 385L325 384C317.268 384 311 377.732 311 370L310 370ZM325 385L325 386C333.837 386 341 378.837 341 370L340 370L339 370C339 377.732 332.732 384 325 384L325 385ZM340 370L341 370C341 365.902 339.458 362.163 336.925 359.333L336.18 360L335.435 360.667C337.652 363.145 339 366.414 339 370L340 370ZM336.18 360V361H385V360V359H336.18V360ZM385 360H384V408.82H385H386V360H385ZM385 408.82L385.667 408.075C382.837 405.542 379.098 404 375 404V405V406C378.586 406 381.855 407.348 384.333 409.565L385 408.82ZM375 405V404C366.163 404 359 411.163 359 420H360H361C361 412.268 367.268 406 375 406V405ZM360 420H359C359 428.837 366.163 436 375 436V435V434C367.268 434 361 427.732 361 420H360ZM375 435V436C379.098 436 382.837 434.457 385.667 431.924L385 431.179L384.333 430.434C381.855 432.652 378.586 434 375 434V435ZM385 431.179H384V480H385H386V431.179H385ZM385 480V479H336.18V480V481H385V480ZM336.18 480L336.925 480.667C339.458 477.837 341 474.098 341 470L340 470L339 470C339 473.586 337.652 476.855 335.435 479.333L336.18 480ZM340 470L341 470C341 461.163 333.837 454 325 454L325 455L325 456C332.732 456 339 462.268 339 470L340 470ZM325 455L325 454C316.163 454 309 461.163 309 470L310 470L311 470C311 462.268 317.268 456 325 456L325 455ZM310 470L309 470C309 474.098 310.542 477.837 313.075 480.667L313.82 480L314.565 479.333C312.348 476.855 311 473.586 311 470L310 470ZM313.82 480V479H265V480V481H313.82V480ZM265 480H266V431.179H265H264V480H265ZM265 431.179L264.333 431.924C267.163 434.457 270.902 436 275 436V435V434C271.414 434 268.145 432.652 265.667 430.434L265 431.179ZM275 435V436C283.837 436 291 428.837 291 420H290H289C289 427.732 282.732 434 275 434V435ZM290 420H291C291 411.163 283.837 404 275 404V405V406C282.732 406 289 412.268 289 420H290ZM275 405V404C270.902 404 267.163 405.542 264.333 408.075L265 408.82L265.667 409.565C268.145 407.348 271.414 406 275 406V405ZM265 408.82H266V360H265H264V408.82H265ZM265 360V361H313.82V360V359H265V360Z" fill="#C99A69" fill-opacity="0.25" mask="url(#path-3-inside-2_155_4765)"/>
<mask id="path-5-inside-3_155_4765" fill="white">
<path d="M205 215C213.284 215 220 221.716 220 230C220 233.842 218.555 237.346 216.18 240H265V288.82C262.346 286.445 258.842 285 255 285C246.716 285 240 291.716 240 300C240 308.284 246.716 315 255 315C258.842 315 262.346 313.555 265 311.18V360H216.18C218.555 362.654 220 366.158 220 370C220 378.284 213.284 385 205 385C196.716 385 190 378.284 190 370C190 366.158 191.445 362.654 193.82 360H145V311.18C147.654 313.555 151.158 315 155 315C163.284 315 170 308.284 170 300C170 291.716 163.284 285 155 285C151.158 285 147.654 286.445 145 288.82V240H193.82C191.445 237.346 190 233.842 190 230C190 221.716 196.716 215 205 215Z"/>
</mask>
<path d="M205 215C213.284 215 220 221.716 220 230C220 233.842 218.555 237.346 216.18 240H265V288.82C262.346 286.445 258.842 285 255 285C246.716 285 240 291.716 240 300C240 308.284 246.716 315 255 315C258.842 315 262.346 313.555 265 311.18V360H216.18C218.555 362.654 220 366.158 220 370C220 378.284 213.284 385 205 385C196.716 385 190 378.284 190 370C190 366.158 191.445 362.654 193.82 360H145V311.18C147.654 313.555 151.158 315 155 315C163.284 315 170 308.284 170 300C170 291.716 163.284 285 155 285C151.158 285 147.654 286.445 145 288.82V240H193.82C191.445 237.346 190 233.842 190 230C190 221.716 196.716 215 205 215Z" fill="#F9F3ED"/>
<path d="M220 230L221 230L221 230L220 230ZM216.18 240L215.435 239.333L213.943 241H216.18V240ZM265 240H266V239H265V240ZM265 288.82L264.333 289.565L266 291.057V288.82H265ZM240 300L239 300V300H240ZM265 311.18H266V308.942L264.333 310.434L265 311.18ZM265 360V361H266V360H265ZM216.18 360V359H213.942L215.435 360.667L216.18 360ZM220 370L221 370L221 370L220 370ZM190 370L189 370V370H190ZM193.82 360L194.565 360.667L196.058 359H193.82V360ZM145 360H144V361H145V360ZM145 311.18L145.667 310.434L144 308.942V311.18H145ZM170 300L171 300L171 300L170 300ZM145 288.82H144V291.057L145.667 289.565L145 288.82ZM145 240V239H144V240H145ZM193.82 240V241H196.057L194.565 239.333L193.82 240ZM190 230L189 230V230H190ZM205 215V216C212.732 216 219 222.268 219 230L220 230L221 230C221 221.163 213.837 214 205 214V215ZM220 230H219C219 233.586 217.652 236.855 215.435 239.333L216.18 240L216.925 240.667C219.458 237.837 221 234.097 221 230H220ZM216.18 240V241H265V240V239H216.18V240ZM265 240H264V288.82H265H266V240H265ZM265 288.82L265.667 288.075C262.837 285.542 259.098 284 255 284V285V286C258.586 286 261.855 287.348 264.333 289.565L265 288.82ZM255 285V284C246.163 284 239 291.163 239 300L240 300L241 300C241 292.268 247.268 286 255 286V285ZM240 300H239C239 308.836 246.163 316 255 316V315V314C247.268 314 241 307.732 241 300H240ZM255 315V316C259.098 316 262.837 314.458 265.667 311.925L265 311.18L264.333 310.434C261.855 312.652 258.586 314 255 314V315ZM265 311.18H264V360H265H266V311.18H265ZM265 360V359H216.18V360V361H265V360ZM216.18 360L215.435 360.667C217.652 363.144 219 366.414 219 370L220 370L221 370C221 365.902 219.458 362.163 216.925 359.333L216.18 360ZM220 370H219C219 377.732 212.732 384 205 384V385V386C213.837 386 221 378.836 221 370H220ZM205 385V384C197.268 384 191 377.732 191 370H190H189C189 378.836 196.163 386 205 386V385ZM190 370L191 370C191 366.414 192.348 363.144 194.565 360.667L193.82 360L193.075 359.333C190.542 362.163 189 365.902 189 370L190 370ZM193.82 360V359H145V360V361H193.82V360ZM145 360H146V311.18H145H144V360H145ZM145 311.18L144.333 311.925C147.163 314.458 150.902 316 155 316V315V314C151.414 314 148.145 312.652 145.667 310.434L145 311.18ZM155 315V316C163.837 316 171 308.836 171 300H170H169C169 307.732 162.732 314 155 314V315ZM170 300L171 300C171 291.163 163.837 284 155 284V285V286C162.732 286 169 292.268 169 300L170 300ZM155 285V284C150.902 284 147.163 285.542 144.333 288.075L145 288.82L145.667 289.565C148.145 287.348 151.414 286 155 286V285ZM145 288.82H146V240H145H144V288.82H145ZM145 240V241H193.82V240V239H145V240ZM193.82 240L194.565 239.333C192.348 236.855 191 233.586 191 230H190H189C189 234.097 190.542 237.837 193.075 240.667L193.82 240ZM190 230L191 230C191 222.268 197.268 216 205 216V215V214C196.163 214 189 221.163 189 230L190 230Z" fill="#C99A69" fill-opacity="0.25" mask="url(#path-5-inside-3_155_4765)"/>
<mask id="path-7-inside-4_155_4765" fill="white">
<path d="M240 180C240 171.716 246.716 165 255 165C258.842 165 262.346 166.445 265 168.82L265 120L313.82 120C311.445 117.346 310 113.842 310 110C310 101.716 316.716 95.0002 325 95.0001C333.284 95.0001 340 101.716 340 110C340 113.842 338.555 117.346 336.18 120L385 120L385 168.82C387.654 166.445 391.158 165 395 165C403.284 165 410 171.716 410 180C410 188.284 403.284 195 395 195C391.158 195 387.654 193.555 385 191.18L385 240L336.18 240C338.555 242.654 340 246.158 340 250C340 258.284 333.284 265 325 265C316.716 265 310 258.284 310 250C310 246.158 311.445 242.654 313.82 240L265 240L265 191.18C262.346 193.555 258.842 195 255 195C246.716 195 240 188.284 240 180Z"/>
</mask>
<path d="M240 180C240 171.716 246.716 165 255 165C258.842 165 262.346 166.445 265 168.82L265 120L313.82 120C311.445 117.346 310 113.842 310 110C310 101.716 316.716 95.0002 325 95.0001C333.284 95.0001 340 101.716 340 110C340 113.842 338.555 117.346 336.18 120L385 120L385 168.82C387.654 166.445 391.158 165 395 165C403.284 165 410 171.716 410 180C410 188.284 403.284 195 395 195C391.158 195 387.654 193.555 385 191.18L385 240L336.18 240C338.555 242.654 340 246.158 340 250C340 258.284 333.284 265 325 265C316.716 265 310 258.284 310 250C310 246.158 311.445 242.654 313.82 240L265 240L265 191.18C262.346 193.555 258.842 195 255 195C246.716 195 240 188.284 240 180Z" fill="#F9F3ED"/>
<path d="M240 180L239 180L239 180L240 180ZM255 165L255 164L255 164L255 165ZM265 168.82L264.333 169.566L266 171.058L266 168.82L265 168.82ZM265 120L265 119L264 119L264 120L265 120ZM313.82 120L313.82 121L316.057 121L314.565 119.333L313.82 120ZM310 110L309 110L309 110L310 110ZM325 95.0001L325 94.0001L325 94.0001L325 95.0001ZM340 110L341 110L341 110L340 110ZM336.18 120L335.434 119.333L333.942 121L336.18 121L336.18 120ZM385 120L386 120L386 119L385 119L385 120ZM385 168.82L384 168.82L384 171.058L385.667 169.566L385 168.82ZM395 165L395 164L395 164L395 165ZM410 180L411 180L411 180L410 180ZM395 195L395 196L395 196L395 195ZM385 191.18L385.667 190.435L384 188.943L384 191.18L385 191.18ZM385 240L385 241L386 241L386 240L385 240ZM336.18 240L336.18 239L333.942 239L335.434 240.667L336.18 240ZM340 250L341 250L341 250L340 250ZM325 265L325 266L325 266L325 265ZM310 250L309 250L309 250L310 250ZM313.82 240L314.565 240.667L316.057 239L313.82 239L313.82 240ZM265 240L264 240L264 241L265 241L265 240ZM265 191.18L266 191.18L266 188.943L264.333 190.435L265 191.18ZM255 195L255 196L255 196L255 195ZM240 180L241 180C241 172.268 247.268 166 255 166L255 165L255 164C246.163 164 239 171.164 239 180L240 180ZM255 165L255 166C258.586 166 261.855 167.348 264.333 169.566L265 168.82L265.667 168.075C262.837 165.542 259.097 164 255 164L255 165ZM265 168.82L266 168.82L266 120L265 120L264 120L264 168.82L265 168.82ZM265 120L265 121L313.82 121L313.82 120L313.82 119L265 119L265 120ZM313.82 120L314.565 119.333C312.348 116.856 311 113.586 311 110L310 110L309 110C309 114.098 310.542 117.837 313.075 120.667L313.82 120ZM310 110L311 110C311 102.268 317.268 96.0002 325 96.0001L325 95.0001L325 94.0001C316.163 94.0002 309 101.164 309 110L310 110ZM325 95.0001L325 96.0001C332.732 96.0001 339 102.268 339 110L340 110L341 110C341 101.164 333.836 94.0001 325 94.0001L325 95.0001ZM340 110L339 110C339 113.587 337.652 116.856 335.434 119.333L336.18 120L336.925 120.667C339.458 117.837 341 114.098 341 110L340 110ZM336.18 120L336.18 121L385 121L385 120L385 119L336.18 119L336.18 120ZM385 120L384 120L384 168.82L385 168.82L386 168.82L386 120L385 120ZM385 168.82L385.667 169.566C388.144 167.348 391.414 166 395 166L395 165L395 164C390.902 164 387.163 165.542 384.333 168.075L385 168.82ZM395 165L395 166C402.732 166 409 172.268 409 180L410 180L411 180C411 171.164 403.836 164 395 164L395 165ZM410 180L409 180C409 187.732 402.732 194 395 194L395 195L395 196C403.836 196 411 188.837 411 180L410 180ZM395 195L395 194C391.414 194 388.144 192.652 385.667 190.435L385 191.18L384.333 191.925C387.163 194.458 390.902 196 395 196L395 195ZM385 191.18L384 191.18L384 240L385 240L386 240L386 191.18L385 191.18ZM385 240L385 239L336.18 239L336.18 240L336.18 241L385 241L385 240ZM336.18 240L335.434 240.667C337.652 243.145 339 246.414 339 250L340 250L341 250C341 245.903 339.458 242.163 336.925 239.333L336.18 240ZM340 250L339 250C339 257.732 332.732 264 325 264L325 265L325 266C333.836 266 341 258.837 341 250L340 250ZM325 265L325 264C317.268 264 311 257.732 311 250L310 250L309 250C309 258.837 316.163 266 325 266L325 265ZM310 250L311 250C311 246.414 312.348 243.145 314.565 240.667L313.82 240L313.075 239.333C310.542 242.163 309 245.903 309 250L310 250ZM313.82 240L313.82 239L265 239L265 240L265 241L313.82 241L313.82 240ZM265 240L266 240L266 191.18L265 191.18L264 191.18L264 240L265 240ZM265 191.18L264.333 190.435C261.855 192.652 258.586 194 255 194L255 195L255 196C259.097 196 262.837 194.458 265.667 191.925L265 191.18ZM255 195L255 194C247.268 194 241 187.732 241 180L240 180L239 180C239 188.837 246.163 196 255 196L255 195Z" fill="#C99A69" fill-opacity="0.25" mask="url(#path-7-inside-4_155_4765)"/>
<mask id="path-9-inside-5_155_4765" fill="white">
<path d="M530 60C530 68.2842 523.284 74.9999 515 75C511.158 75 507.654 73.5551 505 71.1797L505 120L455.197 120C458.151 117.26 460 113.346 460 109C460 100.716 453.284 94 445 94C436.716 94 430 100.716 430 109C430 113.346 431.849 117.26 434.803 120L385 120L385 71.1797C382.346 73.5551 378.842 75 375 75C366.716 75 360 68.2843 360 60C360 51.7157 366.716 45 375 45C378.842 45 382.346 46.4449 385 48.8203L385 -6.33815e-06L434.803 -4.1612e-06C431.849 2.73951 430 6.65364 430 11C430 19.2843 436.716 26 445 26C453.284 26 460 19.2842 460 11C460 6.65368 458.151 2.73951 455.197 -3.26973e-06L505 -1.09278e-06L505 48.8203C507.654 46.4449 511.158 45 515 45C523.284 45.0001 530 51.7158 530 60Z"/>
</mask>
<path d="M530 60C530 68.2842 523.284 74.9999 515 75C511.158 75 507.654 73.5551 505 71.1797L505 120L455.197 120C458.151 117.26 460 113.346 460 109C460 100.716 453.284 94 445 94C436.716 94 430 100.716 430 109C430 113.346 431.849 117.26 434.803 120L385 120L385 71.1797C382.346 73.5551 378.842 75 375 75C366.716 75 360 68.2843 360 60C360 51.7157 366.716 45 375 45C378.842 45 382.346 46.4449 385 48.8203L385 -6.33815e-06L434.803 -4.1612e-06C431.849 2.73951 430 6.65364 430 11C430 19.2843 436.716 26 445 26C453.284 26 460 19.2842 460 11C460 6.65368 458.151 2.73951 455.197 -3.26973e-06L505 -1.09278e-06L505 48.8203C507.654 46.4449 511.158 45 515 45C523.284 45.0001 530 51.7158 530 60Z" fill="#F9F3ED"/>
<path d="M530 60L531 60V60L530 60ZM515 75L515 76L515 76L515 75ZM505 71.1797L505.667 70.4346L504 68.9425L504 71.1797L505 71.1797ZM505 120L505 121L506 121L506 120L505 120ZM455.197 120L454.517 119.267L452.649 121L455.197 121L455.197 120ZM460 109L461 109V109L460 109ZM445 94L445 93L445 93L445 94ZM430 109L429 109V109L430 109ZM434.803 120L434.803 121L437.352 121L435.483 119.267L434.803 120ZM385 120L384 120L384 121L385 121L385 120ZM385 71.1797L386 71.1797L386 68.9425L384.333 70.4346L385 71.1797ZM375 75L375 76L375 76L375 75ZM360 60L359 60V60L360 60ZM375 45L375 44L375 44L375 45ZM385 48.8203L384.333 49.5654L386 51.0575L386 48.8203L385 48.8203ZM385 -6.33815e-06L385 -1.00001L384 -1.00001L384 -6.38186e-06L385 -6.33815e-06ZM434.803 -4.1612e-06L435.483 0.733198L437.352 -1L434.803 -1L434.803 -4.1612e-06ZM430 11L429 11V11L430 11ZM445 26L445 27L445 27L445 26ZM460 11L461 11L461 11L460 11ZM455.197 -3.26973e-06L455.197 -1L452.649 -1L454.517 0.733195L455.197 -3.26973e-06ZM505 -1.09278e-06L506 -1.04907e-06L506 -1L505 -1L505 -1.09278e-06ZM505 48.8203L504 48.8203L504 51.0575L505.667 49.5654L505 48.8203ZM515 45L515 44L515 44L515 45ZM530 60L529 60C529 67.7319 522.732 73.9999 515 74L515 75L515 76C523.837 75.9999 531 68.8365 531 60L530 60ZM515 75L515 74C511.414 74 508.145 72.6523 505.667 70.4346L505 71.1797L504.333 71.9248C507.163 74.4579 510.903 76 515 76L515 75ZM505 71.1797L504 71.1797L504 120L505 120L506 120L506 71.1797L505 71.1797ZM505 120L505 119L455.197 119L455.197 120L455.197 121L505 121L505 120ZM455.197 120L455.877 120.733C459.027 117.812 461 113.636 461 109L460 109L459 109C459 113.056 457.276 116.709 454.517 119.267L455.197 120ZM460 109L461 109C461 100.163 453.837 93 445 93L445 94L445 95C452.732 95 459 101.268 459 109L460 109ZM445 94L445 93C436.164 93 429 100.163 429 109L430 109L431 109C431 101.268 437.268 95 445 95L445 94ZM430 109L429 109C429 113.636 430.974 117.812 434.123 120.733L434.803 120L435.483 119.267C432.724 116.709 431 113.057 431 109L430 109ZM434.803 120L434.803 119L385 119L385 120L385 121L434.803 121L434.803 120ZM385 120L386 120L386 71.1797L385 71.1797L384 71.1797L384 120L385 120ZM385 71.1797L384.333 70.4346C381.855 72.6523 378.586 74 375 74L375 75L375 76C379.098 76 382.837 74.4579 385.667 71.9248L385 71.1797ZM375 75L375 74C367.268 74 361 67.732 361 60L360 60L359 60C359 68.8365 366.164 76 375 76L375 75ZM360 60L361 60C361 52.268 367.268 46 375 46L375 45L375 44C366.164 44 359 51.1634 359 60L360 60ZM375 45L375 46C378.586 46 381.855 47.3477 384.333 49.5654L385 48.8203L385.667 48.0752C382.837 45.5421 379.098 44 375 44L375 45ZM385 48.8203L386 48.8203L386 -6.29444e-06L385 -6.33815e-06L384 -6.38186e-06L384 48.8203L385 48.8203ZM385 -6.33815e-06L385 0.999994L434.803 0.999996L434.803 -4.1612e-06L434.803 -1L385 -1.00001L385 -6.33815e-06ZM434.803 -4.1612e-06L434.123 -0.733206C430.974 2.18754 429 6.36382 429 11L430 11L431 11C431 6.94347 432.724 3.29147 435.483 0.733198L434.803 -4.1612e-06ZM430 11L429 11C429 19.8366 436.164 27 445 27L445 26L445 25C437.268 25 431 18.732 431 11L430 11ZM445 26L445 27C453.837 27 461 19.8365 461 11L460 11L459 11C459 18.732 452.732 25 445 25L445 26ZM460 11L461 11C461 6.36385 459.027 2.18754 455.877 -0.733201L455.197 -3.26973e-06L454.517 0.733195C457.276 3.29147 459 6.9435 459 11L460 11ZM455.197 -3.26973e-06L455.197 0.999997L505 0.999999L505 -1.09278e-06L505 -1L455.197 -1L455.197 -3.26973e-06ZM505 -1.09278e-06L504 -1.1365e-06L504 48.8203L505 48.8203L506 48.8203L506 -1.04907e-06L505 -1.09278e-06ZM505 48.8203L505.667 49.5654C508.145 47.3477 511.414 46 515 46L515 45L515 44C510.903 44 507.163 45.5421 504.333 48.0752L505 48.8203ZM515 45L515 46C522.732 46.0001 529 52.2681 529 60L530 60L531 60C531 51.1635 523.837 44.0001 515 44L515 45Z" fill="#C99A69" fill-opacity="0.25" mask="url(#path-9-inside-5_155_4765)"/>
</svg>
