<svg width="456" height="96" viewBox="0 0 456 96" fill="none" xmlns="http://www.w3.org/2000/svg">
<path d="M456 -1.02877e-05L360 -1.89513e-06L360 39.8115C357.73 37.2382 354.41 35.6133 350.709 35.6133C343.868 35.6135 338.322 41.1589 338.322 48C338.322 54.8411 343.868 60.3865 350.709 60.3867C354.41 60.3867 357.73 58.7625 360 56.1895L360 96L456 96L456 -1.02877e-05Z" fill="#F2E6D9"/>
<path d="M420.387 9.29064C420.387 5.59056 418.765 2.26939 416.193 -0.000389606C413.6 -0.000389606 411.141 -0.00039069 408 -0.000390416C404.859 -0.000390141 402.4 -0.000389333 399.808 -0.0003897C397.236 2.26939 395.613 5.59056 395.613 9.29064C395.613 16.1318 401.159 21.6777 408 21.6777C414.842 21.6777 420.387 16.1318 420.387 9.29064Z" fill="#F9F3ED"/>
<path d="M360 39.8096C357.73 37.2369 354.411 35.6124 350.71 35.6124C343.869 35.6124 338.322 41.1589 338.322 48.0001C338.323 54.841 343.869 60.3868 350.71 60.3868C354.411 60.3867 357.73 58.7616 360 56.1885L360 96.0001L-1.67852e-05 96L0.000976562 1.70748e-10L360 6.29444e-05L360 39.8096Z" fill="#F9F3ED"/>
</svg>
