<svg width="866" height="600" viewBox="0 0 866 600" fill="none" xmlns="http://www.w3.org/2000/svg">
<path d="M696.197 480C699.151 477.26 701 473.346 701 469C701 460.716 694.284 454 686 454C677.716 454 671 460.716 671 469C671 473.346 672.849 477.26 675.803 480L626 480L626 430.197C623.26 433.151 619.346 435 615 435C606.716 435 600 428.284 600 420C600 411.716 606.716 405 615 405C619.347 405 623.26 406.85 626 409.804L626 360L576.197 360C579.151 357.26 581 353.346 581 349C581 340.716 574.284 334 566 334C557.716 334 551 340.716 551 349C551 353.346 552.849 357.26 555.803 360L456.197 360C459.151 362.74 461 366.654 461 371C461 379.284 454.284 386 446 386C437.716 386 431 379.284 431 371C431 366.654 432.849 362.74 435.803 360L336.197 360C339.151 357.26 341 353.346 341 349C341 340.716 334.284 334 326 334C317.716 334 311 340.716 311 349C311 353.346 312.849 357.26 315.803 360L266 360L266 310.197C263.26 313.151 259.346 315 255 315C246.716 315 240 308.284 240 300C240 291.716 246.716 285 255 285C259.347 285 263.26 286.85 266 289.804L266 240L216.197 240C219.151 237.26 221 233.346 221 229C221 220.716 214.284 214 206 214C197.716 214 191 220.716 191 229C191 233.346 192.849 237.26 195.803 240L146 240L146 190.197C143.26 193.151 139.346 195 135 195C126.716 195 120 188.284 120 180C120 171.716 126.716 165 135 165C139.347 165 143.26 166.85 146 169.804L146 120L96.1971 120C99.1511 117.26 101 113.346 101 109C101 100.716 94.284 93.9999 86 93.9999C77.716 93.9999 71 100.716 71 109C71 113.346 72.849 117.26 75.803 120L26 120L26 70.197C23.26 73.151 19.346 74.9999 15 74.9999C6.71605 74.9999 4.64841e-05 68.2839 4.72083e-05 59.9999C4.79325e-05 51.7159 6.71605 44.9999 15 44.9999C19.347 44.9999 23.26 46.85 26 49.804L26.0001 -6.10352e-05L866 1.24e-05L866 360L816.197 360C819.151 357.26 821 353.346 821 349C821 340.716 814.284 334 806 334C797.716 334 791 340.716 791 349C791 353.347 792.85 357.26 795.804 360L746 360L746 409.803C748.74 406.849 752.654 405 757 405C765.284 405 772 411.716 772 420C772 428.284 765.284 435 757 435C752.654 435 748.74 433.151 746 430.197L746 480L696.197 480ZM816.197 600C819.151 597.26 821 593.346 821 589C821 580.716 814.284 574 806 574C797.716 574 791 580.716 791 589C791 593.346 792.849 597.26 795.803 600L746 600L746 550.197C743.26 553.151 739.346 555 735 555C726.716 555 720 548.284 720 540C720 531.716 726.716 525 735 525C739.347 525 743.26 526.85 746 529.804L746 480L795.804 480C792.85 482.74 791 486.653 791 491C791 499.284 797.716 506 806 506C814.284 506 821 499.284 821 491C821 486.654 819.151 482.74 816.197 480L866 480L866 600L816.197 600Z" fill="#F9F3ED"/>
</svg>
