<svg width="360" height="505" viewBox="0 0 360 505" fill="none" xmlns="http://www.w3.org/2000/svg">
<mask id="path-1-inside-1_153_4762" fill="white">
<path d="M360 433.82C357.346 431.445 353.842 430 350 430C341.716 430 335 436.715 335 445C335 453.284 341.716 460 350 460C353.842 460 357.346 458.555 360 456.179L360 505L311.18 505C313.555 502.346 315 498.842 315 495C315 486.716 308.284 480 300 480C291.716 480 285 486.715 285 495C285 498.842 286.446 502.346 288.821 505L240 505L240 456.179C237.346 458.555 233.842 460 230 460C221.716 460 215 453.284 215 445C215 436.715 221.716 430 230 430C233.842 430 237.346 431.445 240 433.82L240 385L288.821 385C286.446 387.654 285 391.158 285 395C285 403.284 291.716 410 300 410C308.284 410 315 403.284 315 395C315 391.158 313.555 387.654 311.18 385L360 385L360 433.82Z"/>
</mask>
<path d="M360 433.82C357.346 431.445 353.842 430 350 430C341.716 430 335 436.715 335 445C335 453.284 341.716 460 350 460C353.842 460 357.346 458.555 360 456.179L360 505L311.18 505C313.555 502.346 315 498.842 315 495C315 486.716 308.284 480 300 480C291.716 480 285 486.715 285 495C285 498.842 286.446 502.346 288.821 505L240 505L240 456.179C237.346 458.555 233.842 460 230 460C221.716 460 215 453.284 215 445C215 436.715 221.716 430 230 430C233.842 430 237.346 431.445 240 433.82L240 385L288.821 385C286.446 387.654 285 391.158 285 395C285 403.284 291.716 410 300 410C308.284 410 315 403.284 315 395C315 391.158 313.555 387.654 311.18 385L360 385L360 433.82Z" fill="#F9F3ED"/>
<path d="M360 433.82L359.333 434.565L361 436.057L361 433.82L360 433.82ZM350 430L350 429L350 429L350 430ZM335 445L334 445V445L335 445ZM350 460L350 461L350 461L350 460ZM360 456.179L361 456.179L361 453.942L359.333 455.434L360 456.179ZM360 505L360 506L361 506L361 505L360 505ZM311.18 505L310.435 504.333L308.943 506L311.18 506L311.18 505ZM315 495L316 495V495L315 495ZM300 480L300 479L300 479L300 480ZM285 495L284 495V495L285 495ZM288.821 505L288.821 506L291.059 506L289.566 504.333L288.821 505ZM240 505L239 505L239 506L240 506L240 505ZM240 456.179L241 456.179L241 453.942L239.333 455.434L240 456.179ZM230 460L230 461L230 461L230 460ZM215 445L214 445V445L215 445ZM230 430L230 429L230 429L230 430ZM240 433.82L239.333 434.565L241 436.057L241 433.82L240 433.82ZM240 385L240 384L239 384L239 385L240 385ZM288.821 385L289.566 385.667L291.059 384L288.821 384L288.821 385ZM285 395L284 395V395L285 395ZM300 410L300 411L300 411L300 410ZM315 395L316 395L316 395L315 395ZM311.18 385L311.18 384L308.943 384L310.435 385.667L311.18 385ZM360 385L361 385L361 384L360 384L360 385ZM360 433.82L360.667 433.075C357.837 430.542 354.098 429 350 429L350 430L350 431C353.586 431 356.855 432.347 359.333 434.565L360 433.82ZM350 430L350 429C341.164 429 334 436.163 334 445L335 445L336 445C336 437.268 342.268 431 350 431L350 430ZM335 445L334 445C334 453.836 341.164 461 350 461L350 460L350 459C342.268 459 336 452.732 336 445L335 445ZM350 460L350 461C354.098 461 357.837 459.458 360.667 456.925L360 456.179L359.333 455.434C356.855 457.652 353.586 459 350 459L350 460ZM360 456.179L359 456.179L359 505L360 505L361 505L361 456.179L360 456.179ZM360 505L360 504L311.18 504L311.18 505L311.18 506L360 506L360 505ZM311.18 505L311.925 505.667C314.458 502.837 316 499.097 316 495L315 495L314 495C314 498.586 312.652 501.855 310.435 504.333L311.18 505ZM315 495L316 495C316 486.163 308.837 479 300 479L300 480L300 481C307.732 481 314 487.268 314 495L315 495ZM300 480L300 479C291.164 479 284 486.163 284 495L285 495L286 495C286 487.268 292.268 481 300 481L300 480ZM285 495L284 495C284 499.098 285.543 502.837 288.076 505.667L288.821 505L289.566 504.333C287.348 501.855 286 498.586 286 495L285 495ZM288.821 505L288.821 504L240 504L240 505L240 506L288.821 506L288.821 505ZM240 505L241 505L241 456.179L240 456.179L239 456.179L239 505L240 505ZM240 456.179L239.333 455.434C236.855 457.652 233.586 459 230 459L230 460L230 461C234.098 461 237.837 459.458 240.667 456.925L240 456.179ZM230 460L230 459C222.268 459 216 452.732 216 445L215 445L214 445C214 453.836 221.164 461 230 461L230 460ZM215 445L216 445C216 437.268 222.268 431 230 431L230 430L230 429C221.164 429 214 436.163 214 445L215 445ZM230 430L230 431C233.586 431 236.855 432.347 239.333 434.565L240 433.82L240.667 433.075C237.837 430.542 234.098 429 230 429L230 430ZM240 433.82L241 433.82L241 385L240 385L239 385L239 433.82L240 433.82ZM240 385L240 386L288.821 386L288.821 385L288.821 384L240 384L240 385ZM288.821 385L288.076 384.333C285.543 387.163 284 390.902 284 395L285 395L286 395C286 391.413 287.348 388.145 289.566 385.667L288.821 385ZM285 395L284 395C284 403.836 291.164 411 300 411L300 410L300 409C292.268 409 286 402.732 286 395L285 395ZM300 410L300 411C308.837 411 316 403.836 316 395L315 395L314 395C314 402.732 307.732 409 300 409L300 410ZM315 395L316 395C316 390.902 314.458 387.163 311.925 384.333L311.18 385L310.435 385.667C312.652 388.144 314 391.413 314 395L315 395ZM311.18 385L311.18 386L360 386L360 385L360 384L311.18 384L311.18 385ZM360 385L359 385L359 433.82L360 433.82L361 433.82L361 385L360 385Z" fill="#C99A69" fill-opacity="0.25" mask="url(#path-1-inside-1_153_4762)"/>
<mask id="path-3-inside-2_153_4762" fill="white">
<path d="M180 240C188.284 240 195 246.716 195 255C195 258.842 193.555 262.346 191.18 265L240 265L240 313.82C242.654 311.445 246.158 310 250 310C258.284 310 265 316.716 265 325C265 333.284 258.284 340 250 340C246.158 340 242.654 338.554 240 336.179L240 385L191.18 385C193.555 387.654 195 391.158 195 395C195 403.284 188.284 410 180 410C171.716 410 165 403.284 165 395C165 391.158 166.445 387.654 168.82 385L120 385L120 336.179C122.654 338.554 126.158 340 130 340C138.284 340 145 333.284 145 325C145 316.716 138.284 310 130 310C126.158 310 122.654 311.445 120 313.82L120 265L168.82 265C166.445 262.346 165 258.842 165 255C165 246.716 171.716 240 180 240Z"/>
</mask>
<path d="M180 240C188.284 240 195 246.716 195 255C195 258.842 193.555 262.346 191.18 265L240 265L240 313.82C242.654 311.445 246.158 310 250 310C258.284 310 265 316.716 265 325C265 333.284 258.284 340 250 340C246.158 340 242.654 338.554 240 336.179L240 385L191.18 385C193.555 387.654 195 391.158 195 395C195 403.284 188.284 410 180 410C171.716 410 165 403.284 165 395C165 391.158 166.445 387.654 168.82 385L120 385L120 336.179C122.654 338.554 126.158 340 130 340C138.284 340 145 333.284 145 325C145 316.716 138.284 310 130 310C126.158 310 122.654 311.445 120 313.82L120 265L168.82 265C166.445 262.346 165 258.842 165 255C165 246.716 171.716 240 180 240Z" fill="#F9F3ED"/>
<path d="M180 240L180 239L180 239L180 240ZM195 255L196 255L196 255L195 255ZM191.18 265L190.435 264.333L188.943 266H191.18V265ZM240 265H241V264H240V265ZM240 313.82H239L239 316.057L240.667 314.565L240 313.82ZM250 310L250 309H250L250 310ZM265 325L266 325V325L265 325ZM250 340L250 341H250L250 340ZM240 336.179L240.667 335.434L239 333.941V336.179H240ZM240 385V386H241V385H240ZM191.18 385V384H188.943L190.435 385.667L191.18 385ZM195 395L196 395L196 395L195 395ZM180 410L180 411H180L180 410ZM165 395L164 395L164 395H165ZM168.82 385L169.565 385.667L171.058 384L168.82 384V385ZM120 385H119V386H120L120 385ZM120 336.179L120.667 335.434L119 333.941L119 336.179H120ZM130 340L130 341H130L130 340ZM145 325L146 325V325H145ZM130 310L130 309L130 309L130 310ZM120 313.82H119L119 316.057L120.667 314.565L120 313.82ZM120 265L120 264H119V265H120ZM168.82 265L168.82 266H171.058L169.565 264.333L168.82 265ZM165 255L164 255V255H165ZM180 240V241C187.732 241 194 247.268 194 255L195 255L196 255C196 246.164 188.837 239 180 239V240ZM195 255H194C194 258.586 192.652 261.855 190.435 264.333L191.18 265L191.925 265.667C194.458 262.837 196 259.098 196 255L195 255ZM191.18 265V266L240 266V265V264L191.18 264V265ZM240 265L239 265L239 313.82H240H241L241 265H240ZM240 313.82L240.667 314.565C243.145 312.348 246.414 311 250 311L250 310L250 309C245.902 309 242.163 310.542 239.333 313.075L240 313.82ZM250 310V311C257.732 311 264 317.268 264 325L265 325L266 325C266 316.163 258.837 309 250 309V310ZM265 325L264 325C264 332.732 257.732 339 250 339V340L250 341C258.837 341 266 333.837 266 325L265 325ZM250 340L250 339C246.414 339 243.145 337.652 240.667 335.434L240 336.179L239.333 336.924C242.163 339.457 245.902 341 250 341L250 340ZM240 336.179H239L239 385H240H241L241 336.179H240ZM240 385V384L191.18 384V385V386L240 386V385ZM191.18 385L190.435 385.667C192.652 388.145 194 391.414 194 395L195 395L196 395C196 390.902 194.458 387.163 191.925 384.333L191.18 385ZM195 395H194C194 402.732 187.732 409 180 409V410L180 411C188.837 411 196 403.837 196 395L195 395ZM180 410L180 409C172.268 409 166 402.732 166 395H165H164C164 403.837 171.163 411 180 411L180 410ZM165 395L166 395C166 391.414 167.348 388.145 169.565 385.667L168.82 385L168.075 384.333C165.542 387.163 164 390.902 164 395L165 395ZM168.82 385V384L120 384L120 385L120 386L168.82 386V385ZM120 385H121L121 336.179H120H119L119 385H120ZM120 336.179L119.333 336.924C122.163 339.457 125.902 341 130 341L130 340L130 339C126.414 339 123.145 337.652 120.667 335.434L120 336.179ZM130 340L130 341C138.837 341 146 333.837 146 325L145 325L144 325C144 332.732 137.732 339 130 339V340ZM145 325H146C146 316.163 138.837 309 130 309V310V311C137.732 311 144 317.268 144 325H145ZM130 310L130 309C125.902 309 122.163 310.542 119.333 313.075L120 313.82L120.667 314.565C123.145 312.348 126.414 311 130 311L130 310ZM120 313.82H121L121 265H120H119L119 313.82H120ZM120 265L120 266L168.82 266L168.82 265V264L120 264L120 265ZM168.82 265L169.565 264.333C167.348 261.855 166 258.586 166 255H165H164C164 259.098 165.542 262.837 168.075 265.667L168.82 265ZM165 255L166 255C166 247.268 172.268 241 180 241L180 240L180 239C171.164 239 164 246.164 164 255L165 255Z" fill="#C99A69" fill-opacity="0.25" mask="url(#path-3-inside-2_153_4762)"/>
<mask id="path-5-inside-3_153_4762" fill="white">
<path d="M94.9999 85C94.9999 76.7158 101.716 70.0001 110 70C113.842 70 117.346 71.4449 120 73.8203L120 25L168.82 25C166.445 22.3462 165 18.8419 165 15C165 6.71577 171.716 6.72618e-05 180 -3.71547e-06C188.284 -4.07759e-06 195 6.71572 195 15C195 18.842 193.555 22.3462 191.18 25L240 25L240 73.8203C242.654 71.4448 246.158 70 250 70C258.284 70 265 76.7157 265 85C265 93.2842 258.284 100 250 100C246.158 100 242.654 98.5551 240 96.1797L240 145L191.18 145C193.555 147.654 195 151.158 195 155C195 163.284 188.284 170 180 170C171.716 170 165 163.284 165 155C165 151.158 166.445 147.654 168.82 145L120 145L120 96.1797C117.346 98.555 113.842 100 110 100C101.716 99.9999 95 93.2842 94.9999 85Z"/>
</mask>
<path d="M94.9999 85C94.9999 76.7158 101.716 70.0001 110 70C113.842 70 117.346 71.4449 120 73.8203L120 25L168.82 25C166.445 22.3462 165 18.8419 165 15C165 6.71577 171.716 6.72618e-05 180 -3.71547e-06C188.284 -4.07759e-06 195 6.71572 195 15C195 18.842 193.555 22.3462 191.18 25L240 25L240 73.8203C242.654 71.4448 246.158 70 250 70C258.284 70 265 76.7157 265 85C265 93.2842 258.284 100 250 100C246.158 100 242.654 98.5551 240 96.1797L240 145L191.18 145C193.555 147.654 195 151.158 195 155C195 163.284 188.284 170 180 170C171.716 170 165 163.284 165 155C165 151.158 166.445 147.654 168.82 145L120 145L120 96.1797C117.346 98.555 113.842 100 110 100C101.716 99.9999 95 93.2842 94.9999 85Z" fill="#F9F3ED"/>
<path d="M94.9999 85L93.9999 85L93.9999 85L94.9999 85ZM110 70L110 69L110 69L110 70ZM120 73.8203L119.333 74.5654L121 76.0575L121 73.8203L120 73.8203ZM120 25L120 24L119 24L119 25L120 25ZM168.82 25L168.82 26L171.057 26L169.565 24.3331L168.82 25ZM165 15L164 15L164 15L165 15ZM180 -3.71547e-06L180 -1L180 -1L180 -3.71547e-06ZM195 15L196 15L196 15L195 15ZM191.18 25L190.434 24.333L188.942 26L191.18 26L191.18 25ZM240 25L241 25L241 24L240 24L240 25ZM240 73.8203L239 73.8203L239 76.0575L240.667 74.5654L240 73.8203ZM250 70L250 69L250 69L250 70ZM265 85L266 85L266 85L265 85ZM250 100L250 101L250 101L250 100ZM240 96.1797L240.667 95.4346L239 93.9425L239 96.1797L240 96.1797ZM240 145L240 146L241 146L241 145L240 145ZM191.18 145L191.18 144L188.942 144L190.434 145.667L191.18 145ZM195 155L196 155L196 155L195 155ZM180 170L180 171L180 171L180 170ZM165 155L164 155L164 155L165 155ZM168.82 145L169.565 145.667L171.057 144L168.82 144L168.82 145ZM120 145L119 145L119 146L120 146L120 145ZM120 96.1797L121 96.1797L121 93.9425L119.333 95.4346L120 96.1797ZM110 100L110 101L110 101L110 100ZM94.9999 85L95.9999 85C95.9999 77.2681 102.268 71.0001 110 71L110 70L110 69C101.163 69.0001 93.9999 76.1635 93.9999 85L94.9999 85ZM110 70L110 71C113.586 71 116.855 72.3477 119.333 74.5654L120 73.8203L120.667 73.0752C117.837 70.5421 114.097 69 110 69L110 70ZM120 73.8203L121 73.8203L121 25L120 25L119 25L119 73.8203L120 73.8203ZM120 25L120 26L168.82 26L168.82 25L168.82 24L120 24L120 25ZM168.82 25L169.565 24.3331C167.348 21.8554 166 18.5863 166 15L165 15L164 15C164 19.0975 165.542 22.837 168.075 25.6669L168.82 25ZM165 15L166 15C166 7.26806 172.268 1.00006 180 0.999996L180 -3.71547e-06L180 -1C171.163 -0.999928 164 6.16348 164 15L165 15ZM180 -3.71547e-06L180 0.999996C187.732 0.999996 194 7.26801 194 15L195 15L196 15C196 6.16344 188.836 -1 180 -1L180 -3.71547e-06ZM195 15L194 15C194 18.5864 192.652 21.8554 190.434 24.333L191.18 25L191.925 25.6669C194.458 22.8369 196 19.0976 196 15L195 15ZM191.18 25L191.18 26L240 26L240 25L240 24L191.18 24L191.18 25ZM240 25L239 25L239 73.8203L240 73.8203L241 73.8203L241 25L240 25ZM240 73.8203L240.667 74.5654C243.144 72.3476 246.414 71 250 71L250 70L250 69C245.902 69 242.163 70.542 239.333 73.0752L240 73.8203ZM250 70L250 71C257.732 71 264 77.268 264 85L265 85L266 85C266 76.1634 258.836 69 250 69L250 70ZM265 85L264 85C264 92.7319 257.732 99 250 99L250 100L250 101C258.836 101 266 93.8365 266 85L265 85ZM250 100L250 99C246.414 99 243.144 97.6523 240.667 95.4346L240 96.1797L239.333 96.9248C242.163 99.4579 245.902 101 250 101L250 100ZM240 96.1797L239 96.1797L239 145L240 145L241 145L241 96.1797L240 96.1797ZM240 145L240 144L191.18 144L191.18 145L191.18 146L240 146L240 145ZM191.18 145L190.434 145.667C192.652 148.145 194 151.414 194 155L195 155L196 155C196 150.902 194.458 147.163 191.925 144.333L191.18 145ZM195 155L194 155C194 162.732 187.732 169 180 169L180 170L180 171C188.836 171 196 163.836 196 155L195 155ZM180 170L180 169C172.268 169 166 162.732 166 155L165 155L164 155C164 163.836 171.163 171 180 171L180 170ZM165 155L166 155C166 151.414 167.348 148.145 169.565 145.667L168.82 145L168.075 144.333C165.542 147.163 164 150.902 164 155L165 155ZM168.82 145L168.82 144L120 144L120 145L120 146L168.82 146L168.82 145ZM120 145L121 145L121 96.1797L120 96.1797L119 96.1797L119 145L120 145ZM120 96.1797L119.333 95.4346C116.855 97.6522 113.586 99 110 99L110 100L110 101C114.097 101 117.837 99.4578 120.667 96.9248L120 96.1797ZM110 100L110 99C102.268 98.9999 96 92.7319 95.9999 85L94.9999 85L93.9999 85C94 93.8365 101.163 101 110 101L110 100Z" fill="#C99A69" fill-opacity="0.25" mask="url(#path-5-inside-3_153_4762)"/>
<mask id="path-7-inside-4_153_4762" fill="white">
<path d="M300 290C291.716 290 285 283.284 285 275C285 271.158 286.445 267.654 288.82 265L240 265L240 216.18C237.346 218.555 233.842 220 230 220C221.716 220 215 213.284 215 205C215 196.716 221.716 190 230 190C233.842 190 237.346 191.446 240 193.821L240 145L288.82 145C286.445 142.346 285 138.842 285 135C285 126.716 291.716 120 300 120C308.284 120 315 126.716 315 135C315 138.842 313.555 142.346 311.18 145L360 145L360 193.821C357.346 191.446 353.842 190 350 190C341.716 190 335 196.716 335 205C335 213.284 341.716 220 350 220C353.842 220 357.346 218.555 360 216.18L360 265L311.18 265C313.555 267.654 315 271.158 315 275C315 283.284 308.284 290 300 290Z"/>
</mask>
<path d="M300 290C291.716 290 285 283.284 285 275C285 271.158 286.445 267.654 288.82 265L240 265L240 216.18C237.346 218.555 233.842 220 230 220C221.716 220 215 213.284 215 205C215 196.716 221.716 190 230 190C233.842 190 237.346 191.446 240 193.821L240 145L288.82 145C286.445 142.346 285 138.842 285 135C285 126.716 291.716 120 300 120C308.284 120 315 126.716 315 135C315 138.842 313.555 142.346 311.18 145L360 145L360 193.821C357.346 191.446 353.842 190 350 190C341.716 190 335 196.716 335 205C335 213.284 341.716 220 350 220C353.842 220 357.346 218.555 360 216.18L360 265L311.18 265C313.555 267.654 315 271.158 315 275C315 283.284 308.284 290 300 290Z" fill="#F9F3ED"/>
<path d="M300 290L300 291H300L300 290ZM285 275L284 275L284 275L285 275ZM288.82 265L289.565 265.667L291.057 264L288.82 264L288.82 265ZM240 265L239 265L239 266L240 266L240 265ZM240 216.18L241 216.18L241 213.943L239.333 215.435L240 216.18ZM230 220L230 221H230L230 220ZM215 205L214 205L214 205L215 205ZM230 190L230 189H230L230 190ZM240 193.821L239.333 194.566L241 196.059L241 193.821L240 193.821ZM240 145L240 144L239 144L239 145L240 145ZM288.82 145L288.82 146L291.058 146L289.565 144.333L288.82 145ZM285 135L284 135L284 135L285 135ZM300 120L300 119L300 119L300 120ZM315 135L316 135L316 135L315 135ZM311.18 145L310.435 144.333L308.943 146L311.18 146L311.18 145ZM360 145L361 145L361 144L360 144L360 145ZM360 193.821L359.333 194.566L361 196.059L361 193.821L360 193.821ZM350 190L350 189L350 189L350 190ZM335 205L334 205V205L335 205ZM350 220L350 221L350 221L350 220ZM360 216.18L361 216.18L361 213.943L359.333 215.435L360 216.18ZM360 265L360 266L361 266L361 265L360 265ZM311.18 265L311.18 264L308.943 264L310.435 265.667L311.18 265ZM315 275L316 275L316 275L315 275ZM300 290L300 289C292.268 289 286 282.732 286 275L285 275L284 275C284 283.836 291.163 291 300 291L300 290ZM285 275L286 275C286 271.414 287.348 268.145 289.565 265.667L288.82 265L288.075 264.333C285.542 267.163 284 270.902 284 275L285 275ZM288.82 265L288.82 264L240 264L240 265L240 266L288.82 266L288.82 265ZM240 265L241 265L241 216.18L240 216.18L239 216.18L239 265L240 265ZM240 216.18L239.333 215.435C236.855 217.652 233.586 219 230 219L230 220L230 221C234.098 221 237.837 219.458 240.667 216.925L240 216.18ZM230 220L230 219C222.268 219 216 212.732 216 205L215 205L214 205C214 213.837 221.163 221 230 221L230 220ZM215 205L216 205C216 197.268 222.268 191 230 191L230 190L230 189C221.163 189 214 196.163 214 205L215 205ZM230 190L230 191C233.586 191 236.855 192.348 239.333 194.566L240 193.821L240.667 193.076C237.837 190.543 234.098 189 230 189L230 190ZM240 193.821L241 193.821L241 145L240 145L239 145L239 193.821L240 193.821ZM240 145L240 146L288.82 146L288.82 145L288.82 144L240 144L240 145ZM288.82 145L289.565 144.333C287.348 141.855 286 138.586 286 135L285 135L284 135C284 139.098 285.542 142.837 288.075 145.667L288.82 145ZM285 135L286 135C286 127.268 292.268 121 300 121L300 120L300 119C291.163 119 284 126.163 284 135L285 135ZM300 120L300 121C307.732 121 314 127.268 314 135L315 135L316 135C316 126.163 308.837 119 300 119L300 120ZM315 135L314 135C314 138.586 312.652 141.855 310.435 144.333L311.18 145L311.925 145.667C314.458 142.837 316 139.098 316 135L315 135ZM311.18 145L311.18 146L360 146L360 145L360 144L311.18 144L311.18 145ZM360 145L359 145L359 193.821L360 193.821L361 193.821L361 145L360 145ZM360 193.821L360.667 193.076C357.837 190.543 354.098 189 350 189L350 190L350 191C353.586 191 356.855 192.348 359.333 194.566L360 193.821ZM350 190L350 189C341.163 189 334 196.163 334 205L335 205L336 205C336 197.268 342.268 191 350 191L350 190ZM335 205L334 205C334 213.837 341.163 221 350 221L350 220L350 219C342.268 219 336 212.732 336 205L335 205ZM350 220L350 221C354.098 221 357.837 219.458 360.667 216.925L360 216.18L359.333 215.435C356.855 217.652 353.586 219 350 219L350 220ZM360 216.18L359 216.18L359 265L360 265L361 265L361 216.18L360 216.18ZM360 265L360 264L311.18 264L311.18 265L311.18 266L360 266L360 265ZM311.18 265L310.435 265.667C312.652 268.145 314 271.414 314 275L315 275L316 275C316 270.902 314.458 267.163 311.925 264.333L311.18 265ZM315 275L314 275C314 282.732 307.732 289 300 289L300 290L300 291C308.837 291 316 283.836 316 275L315 275Z" fill="#C99A69" fill-opacity="0.25" mask="url(#path-7-inside-4_153_4762)"/>
<mask id="path-9-inside-5_153_4762" fill="white">
<path d="M60 120C68.2842 120 74.9999 126.716 75 135C75 138.842 73.5551 142.346 71.1797 145H120V193.82C117.346 191.445 113.842 190 110 190C101.716 190 95.0001 196.716 95 205C95 213.284 101.716 220 110 220C113.842 220 117.346 218.555 120 216.18V265H71.1797C73.5551 267.654 75 271.158 75 275C75 283.284 68.2843 290 60 290C51.7157 290 45 283.284 45 275C45 271.158 46.4449 267.654 48.8203 265H0V216.18C2.65384 218.555 6.158 220 10 220C18.2843 220 25 213.284 25 205C24.9999 196.716 18.2842 190 10 190C6.15805 190 2.65383 191.445 0 193.82V145H48.8203C46.4449 142.346 45 138.842 45 135C45.0001 126.716 51.7158 120 60 120Z"/>
</mask>
<path d="M60 120C68.2842 120 74.9999 126.716 75 135C75 138.842 73.5551 142.346 71.1797 145H120V193.82C117.346 191.445 113.842 190 110 190C101.716 190 95.0001 196.716 95 205C95 213.284 101.716 220 110 220C113.842 220 117.346 218.555 120 216.18V265H71.1797C73.5551 267.654 75 271.158 75 275C75 283.284 68.2843 290 60 290C51.7157 290 45 283.284 45 275C45 271.158 46.4449 267.654 48.8203 265H0V216.18C2.65384 218.555 6.158 220 10 220C18.2843 220 25 213.284 25 205C24.9999 196.716 18.2842 190 10 190C6.15805 190 2.65383 191.445 0 193.82V145H48.8203C46.4449 142.346 45 138.842 45 135C45.0001 126.716 51.7158 120 60 120Z" fill="#F9F3ED"/>
<path d="M75 135L76 135L76 135L75 135ZM71.1797 145L70.4346 144.333L68.9425 146H71.1797V145ZM120 145H121V144H120V145ZM120 193.82L119.333 194.565L121 196.057V193.82H120ZM95 205L94 205V205H95ZM120 216.18H121V213.942L119.333 215.435L120 216.18ZM120 265V266H121V265H120ZM71.1797 265V264H68.9425L70.4346 265.667L71.1797 265ZM75 275L76 275L76 275L75 275ZM45 275L44 275V275H45ZM48.8203 265L49.5654 265.667L51.0575 264H48.8203V265ZM0 265H-1V266H0V265ZM0 216.18L0.666946 215.435L-1 213.942V216.18H0ZM25 205L26 205L26 205L25 205ZM0 193.82H-1V196.057L0.666938 194.565L0 193.82ZM0 145V144H-1V145H0ZM48.8203 145V146H51.0575L49.5654 144.333L48.8203 145ZM45 135L44 135V135H45ZM60 120V121C67.7319 121 73.9999 127.268 74 135L75 135L76 135C75.9999 126.164 68.8365 119 60 119V120ZM75 135H74C74 138.586 72.6523 141.855 70.4346 144.333L71.1797 145L71.9248 145.667C74.4579 142.837 76 139.098 76 135H75ZM71.1797 145V146H120V145V144H71.1797V145ZM120 145H119V193.82H120H121V145H120ZM120 193.82L120.667 193.075C117.837 190.542 114.098 189 110 189V190V191C113.586 191 116.855 192.348 119.333 194.565L120 193.82ZM110 190V189C101.163 189 94.0001 196.164 94 205L95 205L96 205C96.0001 197.268 102.268 191 110 191V190ZM95 205H94C94 213.837 101.163 221 110 221V220V219C102.268 219 96 212.732 96 205H95ZM110 220V221C114.098 221 117.837 219.458 120.667 216.925L120 216.18L119.333 215.435C116.855 217.652 113.586 219 110 219V220ZM120 216.18H119V265H120H121V216.18H120ZM120 265V264H71.1797V265V266H120V265ZM71.1797 265L70.4346 265.667C72.6523 268.145 74 271.414 74 275L75 275L76 275C76 270.902 74.4579 267.163 71.9248 264.333L71.1797 265ZM75 275H74C74 282.732 67.732 289 60 289V290V291C68.8366 291 76 283.837 76 275H75ZM60 290V289C52.268 289 46 282.732 46 275H45H44C44 283.837 51.1634 291 60 291V290ZM45 275L46 275C46 271.414 47.3477 268.145 49.5654 265.667L48.8203 265L48.0752 264.333C45.5421 267.163 44 270.902 44 275L45 275ZM48.8203 265V264H0V265V266H48.8203V265ZM0 265H1V216.18H0H-1V265H0ZM0 216.18L-0.666946 216.925C2.16307 219.458 5.90239 221 10 221V220V219C6.4136 219 3.14461 217.652 0.666946 215.435L0 216.18ZM10 220V221C18.8366 221 26 213.837 26 205H25H24C24 212.732 17.732 219 10 219V220ZM25 205L26 205C25.9999 196.164 18.8365 189 10 189V190V191C17.7319 191 23.9999 197.268 24 205L25 205ZM10 190V189C5.90244 189 2.16305 190.542 -0.666938 193.075L0 193.82L0.666938 194.565C3.1446 192.348 6.41366 191 10 191V190ZM0 193.82H1V145H0H-1V193.82H0ZM0 145V146H48.8203V145V144H0V145ZM48.8203 145L49.5654 144.333C47.3477 141.855 46 138.586 46 135H45H44C44 139.098 45.5421 142.837 48.0752 145.667L48.8203 145ZM45 135L46 135C46.0001 127.268 52.2681 121 60 121V120V119C51.1635 119 44.0001 126.164 44 135L45 135Z" fill="#C99A69" fill-opacity="0.25" mask="url(#path-9-inside-5_153_4762)"/>
</svg>
