<svg width="480" height="625" viewBox="0 0 480 625" fill="none" xmlns="http://www.w3.org/2000/svg">
<mask id="path-1-inside-1_224_5757" fill="white">
<path d="M240 193.82C237.346 191.445 233.842 190 230 190C221.716 190 215 196.716 215 205C215 213.284 221.716 220 230 220C233.842 220 237.346 218.555 240 216.18L240 265L191.18 265C193.555 262.346 195 258.842 195 255C195 246.716 188.284 240 180 240C171.716 240 165 246.716 165 255C165 258.842 166.446 262.346 168.821 265L120 265L120 216.18C117.346 218.555 113.842 220 110 220C101.716 220 95 213.284 95 205C95 196.716 101.716 190 110 190C113.842 190 117.346 191.445 120 193.82L120 145L168.821 145C166.446 147.654 165 151.158 165 155C165 163.284 171.716 170 180 170C188.284 170 195 163.284 195 155C195 151.158 193.555 147.654 191.18 145L240 145L240 193.82Z"/>
</mask>
<path d="M240 193.82C237.346 191.445 233.842 190 230 190C221.716 190 215 196.716 215 205C215 213.284 221.716 220 230 220C233.842 220 237.346 218.555 240 216.18L240 265L191.18 265C193.555 262.346 195 258.842 195 255C195 246.716 188.284 240 180 240C171.716 240 165 246.716 165 255C165 258.842 166.446 262.346 168.821 265L120 265L120 216.18C117.346 218.555 113.842 220 110 220C101.716 220 95 213.284 95 205C95 196.716 101.716 190 110 190C113.842 190 117.346 191.445 120 193.82L120 145L168.821 145C166.446 147.654 165 151.158 165 155C165 163.284 171.716 170 180 170C188.284 170 195 163.284 195 155C195 151.158 193.555 147.654 191.18 145L240 145L240 193.82Z" fill="#F1E6DB"/>
<path d="M240 193.82L239.333 194.565L241 196.057L241 193.82L240 193.82ZM230 190L230 189L230 189L230 190ZM215 205L214 205L214 205L215 205ZM230 220L230 221L230 221L230 220ZM240 216.18L241 216.18L241 213.943L239.333 215.435L240 216.18ZM240 265L240 266L241 266L241 265L240 265ZM191.18 265L190.435 264.333L188.943 266L191.18 266L191.18 265ZM195 255L196 255L196 255L195 255ZM180 240L180 239L180 239L180 240ZM165 255L164 255V255L165 255ZM168.821 265L168.821 266L171.059 266L169.566 264.333L168.821 265ZM120 265L119 265L119 266L120 266L120 265ZM120 216.18L121 216.18L121 213.942L119.333 215.435L120 216.18ZM110 220L110 221L110 221L110 220ZM95 205L94 205V205L95 205ZM110 190L110 189L110 189L110 190ZM120 193.82L119.333 194.565L121 196.057L121 193.82L120 193.82ZM120 145L120 144L119 144L119 145L120 145ZM168.821 145L169.566 145.667L171.059 144L168.821 144L168.821 145ZM165 155L164 155V155L165 155ZM180 170L180 171L180 171L180 170ZM195 155L196 155V155L195 155ZM191.18 145L191.18 144L188.943 144L190.435 145.667L191.18 145ZM240 145L241 145L241 144L240 144L240 145ZM240 193.82L240.667 193.075C237.837 190.542 234.098 189 230 189L230 190L230 191C233.586 191 236.855 192.348 239.333 194.565L240 193.82ZM230 190L230 189C221.163 189 214 196.163 214 205L215 205L216 205C216 197.268 222.268 191 230 191L230 190ZM215 205L214 205C214 213.837 221.163 221 230 221L230 220L230 219C222.268 219 216 212.732 216 205L215 205ZM230 220L230 221C234.098 221 237.837 219.458 240.667 216.925L240 216.18L239.333 215.435C236.855 217.652 233.586 219 230 219L230 220ZM240 216.18L239 216.18L239 265L240 265L241 265L241 216.18L240 216.18ZM240 265L240 264L191.18 264L191.18 265L191.18 266L240 266L240 265ZM191.18 265L191.925 265.667C194.458 262.837 196 259.098 196 255L195 255L194 255C194 258.586 192.652 261.855 190.435 264.333L191.18 265ZM195 255L196 255C196 246.163 188.837 239 180 239L180 240L180 241C187.732 241 194 247.268 194 255L195 255ZM180 240L180 239C171.163 239 164 246.163 164 255L165 255L166 255C166 247.268 172.268 241 180 241L180 240ZM165 255L164 255C164 259.098 165.543 262.837 168.076 265.667L168.821 265L169.566 264.333C167.348 261.855 166 258.586 166 255L165 255ZM168.821 265L168.821 264L120 264L120 265L120 266L168.821 266L168.821 265ZM120 265L121 265L121 216.18L120 216.18L119 216.18L119 265L120 265ZM120 216.18L119.333 215.435C116.855 217.652 113.586 219 110 219L110 220L110 221C114.098 221 117.837 219.458 120.667 216.925L120 216.18ZM110 220L110 219C102.268 219 96 212.732 96 205L95 205L94 205C94 213.837 101.163 221 110 221L110 220ZM95 205L96 205C96 197.268 102.268 191 110 191L110 190L110 189C101.163 189 94 196.163 94 205L95 205ZM110 190L110 191C113.586 191 116.855 192.348 119.333 194.565L120 193.82L120.667 193.075C117.837 190.542 114.098 189 110 189L110 190ZM120 193.82L121 193.82L121 145L120 145L119 145L119 193.82L120 193.82ZM120 145L120 146L168.821 146L168.821 145L168.821 144L120 144L120 145ZM168.821 145L168.076 144.333C165.543 147.163 164 150.902 164 155L165 155L166 155C166 151.414 167.348 148.145 169.566 145.667L168.821 145ZM165 155L164 155C164 163.837 171.163 171 180 171L180 170L180 169C172.268 169 166 162.732 166 155L165 155ZM180 170L180 171C188.837 171 196 163.837 196 155L195 155L194 155C194 162.732 187.732 169 180 169L180 170ZM195 155L196 155C196 150.902 194.458 147.163 191.925 144.333L191.18 145L190.435 145.667C192.652 148.145 194 151.414 194 155L195 155ZM191.18 145L191.18 146L240 146L240 145L240 144L191.18 144L191.18 145ZM240 145L239 145L239 193.82L240 193.82L241 193.82L241 145L240 145Z" fill="#C99A69" fill-opacity="0.25" mask="url(#path-1-inside-1_224_5757)"/>
<mask id="path-3-inside-2_224_5757" fill="white">
<path d="M180 360C188.284 360 195 366.716 195 375C195 378.842 193.555 382.346 191.18 385L240 385L240 433.82C242.654 431.445 246.158 430 250 430C258.284 430 265 436.716 265 445C265 453.284 258.284 460 250 460C246.158 460 242.654 458.554 240 456.179L240 505L191.18 505C193.555 507.654 195 511.158 195 515C195 523.284 188.284 530 180 530C171.716 530 165 523.284 165 515C165 511.158 166.445 507.654 168.82 505L120 505L120 456.179C122.654 458.554 126.158 460 130 460C138.284 460 145 453.284 145 445C145 436.716 138.284 430 130 430C126.158 430 122.654 431.445 120 433.82L120 385L168.82 385C166.445 382.346 165 378.842 165 375C165 366.716 171.716 360 180 360Z"/>
</mask>
<path d="M180 360C188.284 360 195 366.716 195 375C195 378.842 193.555 382.346 191.18 385L240 385L240 433.82C242.654 431.445 246.158 430 250 430C258.284 430 265 436.716 265 445C265 453.284 258.284 460 250 460C246.158 460 242.654 458.554 240 456.179L240 505L191.18 505C193.555 507.654 195 511.158 195 515C195 523.284 188.284 530 180 530C171.716 530 165 523.284 165 515C165 511.158 166.445 507.654 168.82 505L120 505L120 456.179C122.654 458.554 126.158 460 130 460C138.284 460 145 453.284 145 445C145 436.716 138.284 430 130 430C126.158 430 122.654 431.445 120 433.82L120 385L168.82 385C166.445 382.346 165 378.842 165 375C165 366.716 171.716 360 180 360Z" fill="#F1E6DB"/>
<path d="M180 360L180 359H180L180 360ZM195 375L196 375L196 375L195 375ZM191.18 385L190.435 384.333L188.943 386L191.18 386L191.18 385ZM240 385H241V384L240 384L240 385ZM240 433.82H239L239 436.057L240.667 434.565L240 433.82ZM250 430L250 429H250L250 430ZM265 445L266 445V445H265ZM250 460L250 461H250L250 460ZM240 456.179L240.667 455.434L239 453.941V456.179H240ZM240 505L240 506H241V505H240ZM191.18 505V504L188.942 504L190.435 505.667L191.18 505ZM195 515L196 515L196 515L195 515ZM180 530L180 531H180V530ZM165 515L164 515L164 515L165 515ZM168.82 505L169.565 505.667L171.058 504H168.82V505ZM120 505H119L119 506H120V505ZM120 456.179L120.667 455.434L119 453.941L119 456.179H120ZM130 460L130 461H130L130 460ZM145 445L146 445V445H145ZM130 430L130 429L130 429L130 430ZM120 433.82H119L119 436.057L120.667 434.565L120 433.82ZM120 385V384H119V385H120ZM168.82 385V386H171.057L169.565 384.333L168.82 385ZM165 375L164 375V375H165ZM180 360V361C187.732 361 194 367.268 194 375L195 375L196 375C196 366.164 188.837 359 180 359V360ZM195 375H194C194 378.586 192.652 381.855 190.435 384.333L191.18 385L191.925 385.667C194.458 382.837 196 379.098 196 375L195 375ZM191.18 385L191.18 386L240 386L240 385L240 384L191.18 384L191.18 385ZM240 385L239 385L239 433.82H240H241L241 385H240ZM240 433.82L240.667 434.565C243.145 432.348 246.414 431 250 431L250 430L250 429C245.902 429 242.163 430.542 239.333 433.075L240 433.82ZM250 430V431C257.732 431 264 437.268 264 445H265H266C266 436.163 258.837 429 250 429V430ZM265 445L264 445C264 452.732 257.732 459 250 459V460L250 461C258.837 461 266 453.837 266 445L265 445ZM250 460L250 459C246.414 459 243.145 457.652 240.667 455.434L240 456.179L239.333 456.924C242.163 459.457 245.902 461 250 461L250 460ZM240 456.179H239L239 505H240H241L241 456.179H240ZM240 505V504L191.18 504V505V506L240 506L240 505ZM191.18 505L190.435 505.667C192.652 508.145 194 511.414 194 515L195 515L196 515C196 510.902 194.458 507.163 191.925 504.333L191.18 505ZM195 515H194C194 522.732 187.732 529 180 529L180 530V531C188.837 531 196 523.837 196 515H195ZM180 530L180 529C172.268 529 166 522.732 166 515H165L164 515C164 523.837 171.163 531 180 531L180 530ZM165 515L166 515C166 511.414 167.348 508.145 169.565 505.667L168.82 505L168.075 504.333C165.542 507.163 164 510.902 164 515L165 515ZM168.82 505V504L120 504V505V506L168.82 506V505ZM120 505H121L121 456.179H120H119L119 505H120ZM120 456.179L119.333 456.924C122.163 459.457 125.902 461 130 461L130 460L130 459C126.414 459 123.145 457.652 120.667 455.434L120 456.179ZM130 460L130 461C138.837 461 146 453.837 146 445L145 445L144 445C144 452.732 137.732 459 130 459V460ZM145 445H146C146 436.163 138.837 429 130 429V430V431C137.732 431 144 437.268 144 445H145ZM130 430L130 429C125.902 429 122.163 430.542 119.333 433.075L120 433.82L120.667 434.565C123.145 432.348 126.414 431 130 431L130 430ZM120 433.82H121L121 385H120H119L119 433.82H120ZM120 385V386L168.82 386V385V384L120 384V385ZM168.82 385L169.565 384.333C167.348 381.855 166 378.586 166 375H165H164C164 379.098 165.542 382.837 168.075 385.667L168.82 385ZM165 375L166 375C166 367.268 172.268 361 180 361L180 360L180 359C171.163 359 164 366.164 164 375L165 375Z" fill="#C99A69" fill-opacity="0.25" mask="url(#path-3-inside-2_224_5757)"/>
<mask id="path-5-inside-3_224_5757" fill="white">
<path d="M215 325C215 316.716 221.716 310.001 230 310C233.842 310 237.346 311.445 240 313.821L240 265L288.82 265C286.445 262.347 285 258.842 285 255C285 246.716 291.716 240.001 300 240C308.284 240 315 246.716 315 255C315 258.842 313.555 262.347 311.18 265L360 265L360 313.821C362.654 311.445 366.158 310.001 370 310C378.284 310 385 316.716 385 325C385 333.285 378.284 340 370 340C366.158 340 362.654 338.556 360 336.18L360 385L311.18 385C313.555 387.654 315 391.159 315 395C315 403.285 308.284 410 300 410C291.716 410 285 403.285 285 395C285 391.159 286.445 387.654 288.82 385L240 385L240 336.18C237.346 338.556 233.842 340 230 340C221.716 340 215 333.285 215 325Z"/>
</mask>
<path d="M215 325C215 316.716 221.716 310.001 230 310C233.842 310 237.346 311.445 240 313.821L240 265L288.82 265C286.445 262.347 285 258.842 285 255C285 246.716 291.716 240.001 300 240C308.284 240 315 246.716 315 255C315 258.842 313.555 262.347 311.18 265L360 265L360 313.821C362.654 311.445 366.158 310.001 370 310C378.284 310 385 316.716 385 325C385 333.285 378.284 340 370 340C366.158 340 362.654 338.556 360 336.18L360 385L311.18 385C313.555 387.654 315 391.159 315 395C315 403.285 308.284 410 300 410C291.716 410 285 403.285 285 395C285 391.159 286.445 387.654 288.82 385L240 385L240 336.18C237.346 338.556 233.842 340 230 340C221.716 340 215 333.285 215 325Z" fill="#F1E6DB"/>
<path d="M215 325L214 325L214 325L215 325ZM230 310L230 309L230 309L230 310ZM240 313.821L239.333 314.566L241 316.058L241 313.821L240 313.821ZM240 265L240 264L239 264L239 265L240 265ZM288.82 265L288.82 266L291.057 266L289.565 264.334L288.82 265ZM285 255L284 255L284 255L285 255ZM300 240L300 239L300 239L300 240ZM315 255L316 255L316 255L315 255ZM311.18 265L310.434 264.334L308.942 266L311.18 266L311.18 265ZM360 265L361 265L361 264L360 264L360 265ZM360 313.821L359 313.821L359 316.058L360.667 314.566L360 313.821ZM370 310L370 309L370 309L370 310ZM385 325L386 325L386 325L385 325ZM370 340L370 341L370 341L370 340ZM360 336.18L360.667 335.435L359 333.943L359 336.18L360 336.18ZM360 385L360 386L361 386L361 385L360 385ZM311.18 385L311.18 384L308.942 384L310.434 385.667L311.18 385ZM315 395L316 395L316 395L315 395ZM300 410L300 411L300 411L300 410ZM285 395L284 395L284 395L285 395ZM288.82 385L289.565 385.667L291.057 384L288.82 384L288.82 385ZM240 385L239 385L239 386L240 386L240 385ZM240 336.18L241 336.18L241 333.943L239.333 335.435L240 336.18ZM230 340L230 341L230 341L230 340ZM215 325L216 325C216 317.269 222.268 311.001 230 311L230 310L230 309C221.163 309.001 214 316.164 214 325L215 325ZM230 310L230 311C233.586 311 236.855 312.348 239.333 314.566L240 313.821L240.667 313.076C237.837 310.543 234.097 309 230 309L230 310ZM240 313.821L241 313.821L241 265L240 265L239 265L239 313.821L240 313.821ZM240 265L240 266L288.82 266L288.82 265L288.82 264L240 264L240 265ZM288.82 265L289.565 264.334C287.348 261.856 286 258.587 286 255L285 255L284 255C284 259.098 285.542 262.837 288.075 265.667L288.82 265ZM285 255L286 255C286 247.269 292.268 241.001 300 241L300 240L300 239C291.163 239.001 284 246.164 284 255L285 255ZM300 240L300 241C307.732 241 314 247.268 314 255L315 255L316 255C316 246.164 308.836 239 300 239L300 240ZM315 255L314 255C314 258.587 312.652 261.856 310.434 264.334L311.18 265L311.925 265.667C314.458 262.837 316 259.098 316 255L315 255ZM311.18 265L311.18 266L360 266L360 265L360 264L311.18 264L311.18 265ZM360 265L359 265L359 313.821L360 313.821L361 313.821L361 265L360 265ZM360 313.821L360.667 314.566C363.144 312.348 366.413 311.001 370 311L370 310L370 309C365.902 309.001 362.163 310.543 359.333 313.076L360 313.821ZM370 310L370 311C377.732 311 384 317.268 384 325L385 325L386 325C386 316.164 378.836 309 370 309L370 310ZM385 325L384 325C384 332.732 377.732 339 370 339L370 340L370 341C378.836 341 386 333.837 386 325L385 325ZM370 340L370 339C366.414 339 363.144 337.653 360.667 335.435L360 336.18L359.333 336.925C362.163 339.458 365.902 341 370 341L370 340ZM360 336.18L359 336.18L359 385L360 385L361 385L361 336.18L360 336.18ZM360 385L360 384L311.18 384L311.18 385L311.18 386L360 386L360 385ZM311.18 385L310.434 385.667C312.652 388.145 314 391.414 314 395L315 395L316 395C316 390.903 314.458 387.164 311.925 384.334L311.18 385ZM315 395L314 395C314 402.732 307.732 409 300 409L300 410L300 411C308.836 411 316 403.837 316 395L315 395ZM300 410L300 409C292.268 409 286 402.732 286 395L285 395L284 395C284 403.837 291.163 411 300 411L300 410ZM285 395L286 395C286 391.414 287.348 388.145 289.565 385.667L288.82 385L288.075 384.334C285.542 387.164 284 390.903 284 395L285 395ZM288.82 385L288.82 384L240 384L240 385L240 386L288.82 386L288.82 385ZM240 385L241 385L241 336.18L240 336.18L239 336.18L239 385L240 385ZM240 336.18L239.333 335.435C236.855 337.653 233.586 339 230 339L230 340L230 341C234.097 341 237.837 339.458 240.667 336.925L240 336.18ZM230 340L230 339C222.268 339 216 332.732 216 325L215 325L214 325C214 333.837 221.163 341 230 341L230 340Z" fill="#C99A69" fill-opacity="0.25" mask="url(#path-5-inside-3_224_5757)"/>
<mask id="path-7-inside-4_224_5757" fill="white">
<path d="M420 290C411.716 290 405 283.284 405 275C405 271.158 406.445 267.654 408.82 265L360 265L360 216.18C357.346 218.555 353.842 220 350 220C341.716 220 335 213.284 335 205C335 196.716 341.716 190 350 190C353.842 190 357.346 191.446 360 193.821L360 145L408.82 145C406.445 142.346 405 138.842 405 135C405 126.716 411.716 120 420 120C428.284 120 435 126.716 435 135C435 138.842 433.555 142.346 431.18 145L480 145L480 193.821C477.346 191.446 473.842 190 470 190C461.716 190 455 196.716 455 205C455 213.284 461.716 220 470 220C473.842 220 477.346 218.555 480 216.18L480 265L431.18 265C433.555 267.654 435 271.158 435 275C435 283.284 428.284 290 420 290Z"/>
</mask>
<path d="M420 290C411.716 290 405 283.284 405 275C405 271.158 406.445 267.654 408.82 265L360 265L360 216.18C357.346 218.555 353.842 220 350 220C341.716 220 335 213.284 335 205C335 196.716 341.716 190 350 190C353.842 190 357.346 191.446 360 193.821L360 145L408.82 145C406.445 142.346 405 138.842 405 135C405 126.716 411.716 120 420 120C428.284 120 435 126.716 435 135C435 138.842 433.555 142.346 431.18 145L480 145L480 193.821C477.346 191.446 473.842 190 470 190C461.716 190 455 196.716 455 205C455 213.284 461.716 220 470 220C473.842 220 477.346 218.555 480 216.18L480 265L431.18 265C433.555 267.654 435 271.158 435 275C435 283.284 428.284 290 420 290Z" fill="#F1E6DB"/>
<path d="M420 290L420 291H420L420 290ZM405 275L404 275L404 275L405 275ZM408.82 265L409.565 265.667L411.057 264L408.82 264L408.82 265ZM360 265L359 265L359 266L360 266L360 265ZM360 216.18L361 216.18L361 213.943L359.333 215.435L360 216.18ZM350 220L350 221H350L350 220ZM335 205L334 205L334 205L335 205ZM350 190L350 189H350L350 190ZM360 193.821L359.333 194.566L361 196.059L361 193.821L360 193.821ZM360 145L360 144L359 144L359 145L360 145ZM408.82 145L408.82 146L411.058 146L409.565 144.333L408.82 145ZM405 135L404 135L404 135L405 135ZM420 120L420 119L420 119L420 120ZM435 135L436 135L436 135L435 135ZM431.18 145L430.435 144.333L428.943 146L431.18 146L431.18 145ZM480 145L481 145L481 144L480 144L480 145ZM480 193.821L479.333 194.566L481 196.059L481 193.821L480 193.821ZM470 190L470 189L470 189L470 190ZM455 205L454 205V205L455 205ZM470 220L470 221L470 221L470 220ZM480 216.18L481 216.18L481 213.943L479.333 215.435L480 216.18ZM480 265L480 266L481 266L481 265L480 265ZM431.18 265L431.18 264L428.943 264L430.435 265.667L431.18 265ZM435 275L436 275L436 275L435 275ZM420 290L420 289C412.268 289 406 282.732 406 275L405 275L404 275C404 283.836 411.163 291 420 291L420 290ZM405 275L406 275C406 271.414 407.348 268.145 409.565 265.667L408.82 265L408.075 264.333C405.542 267.163 404 270.902 404 275L405 275ZM408.82 265L408.82 264L360 264L360 265L360 266L408.82 266L408.82 265ZM360 265L361 265L361 216.18L360 216.18L359 216.18L359 265L360 265ZM360 216.18L359.333 215.435C356.855 217.652 353.586 219 350 219L350 220L350 221C354.098 221 357.837 219.458 360.667 216.925L360 216.18ZM350 220L350 219C342.268 219 336 212.732 336 205L335 205L334 205C334 213.837 341.163 221 350 221L350 220ZM335 205L336 205C336 197.268 342.268 191 350 191L350 190L350 189C341.163 189 334 196.163 334 205L335 205ZM350 190L350 191C353.586 191 356.855 192.348 359.333 194.566L360 193.821L360.667 193.076C357.837 190.543 354.098 189 350 189L350 190ZM360 193.821L361 193.821L361 145L360 145L359 145L359 193.821L360 193.821ZM360 145L360 146L408.82 146L408.82 145L408.82 144L360 144L360 145ZM408.82 145L409.565 144.333C407.348 141.855 406 138.586 406 135L405 135L404 135C404 139.098 405.542 142.837 408.075 145.667L408.82 145ZM405 135L406 135C406 127.268 412.268 121 420 121L420 120L420 119C411.163 119 404 126.163 404 135L405 135ZM420 120L420 121C427.732 121 434 127.268 434 135L435 135L436 135C436 126.163 428.837 119 420 119L420 120ZM435 135L434 135C434 138.586 432.652 141.855 430.435 144.333L431.18 145L431.925 145.667C434.458 142.837 436 139.098 436 135L435 135ZM431.18 145L431.18 146L480 146L480 145L480 144L431.18 144L431.18 145ZM480 145L479 145L479 193.821L480 193.821L481 193.821L481 145L480 145ZM480 193.821L480.667 193.076C477.837 190.543 474.098 189 470 189L470 190L470 191C473.586 191 476.855 192.348 479.333 194.566L480 193.821ZM470 190L470 189C461.163 189 454 196.163 454 205L455 205L456 205C456 197.268 462.268 191 470 191L470 190ZM455 205L454 205C454 213.837 461.163 221 470 221L470 220L470 219C462.268 219 456 212.732 456 205L455 205ZM470 220L470 221C474.098 221 477.837 219.458 480.667 216.925L480 216.18L479.333 215.435C476.855 217.652 473.586 219 470 219L470 220ZM480 216.18L479 216.18L479 265L480 265L481 265L481 216.18L480 216.18ZM480 265L480 264L431.18 264L431.18 265L431.18 266L480 266L480 265ZM431.18 265L430.435 265.667C432.652 268.145 434 271.414 434 275L435 275L436 275C436 270.902 434.458 267.163 431.925 264.333L431.18 265ZM435 275L434 275C434 282.732 427.732 289 420 289L420 290L420 291C428.837 291 436 283.836 436 275L435 275Z" fill="#C99A69" fill-opacity="0.25" mask="url(#path-7-inside-4_224_5757)"/>
<mask id="path-9-inside-5_224_5757" fill="white">
<path d="M300 0C308.284 0 315 6.71578 315 15C315 18.8419 313.555 22.3462 311.18 25H360V73.8203C357.346 71.4449 353.842 70 350 70C341.716 70 335 76.7158 335 85C335 93.2843 341.716 100 350 100C353.842 100 357.346 98.5551 360 96.1797V145H311.18C313.555 147.654 315 151.158 315 155C315 163.284 308.284 170 300 170C291.716 170 285 163.284 285 155C285 151.158 286.445 147.654 288.82 145H240V96.1797C242.654 98.5551 246.158 100 250 100C258.284 100 265 93.2843 265 85C265 76.7158 258.284 70 250 70C246.158 70 242.654 71.4449 240 73.8203V25H288.82C286.445 22.3462 285 18.8419 285 15C285 6.71578 291.716 0 300 0Z"/>
</mask>
<path d="M300 0C308.284 0 315 6.71578 315 15C315 18.8419 313.555 22.3462 311.18 25H360V73.8203C357.346 71.4449 353.842 70 350 70C341.716 70 335 76.7158 335 85C335 93.2843 341.716 100 350 100C353.842 100 357.346 98.5551 360 96.1797V145H311.18C313.555 147.654 315 151.158 315 155C315 163.284 308.284 170 300 170C291.716 170 285 163.284 285 155C285 151.158 286.445 147.654 288.82 145H240V96.1797C242.654 98.5551 246.158 100 250 100C258.284 100 265 93.2843 265 85C265 76.7158 258.284 70 250 70C246.158 70 242.654 71.4449 240 73.8203V25H288.82C286.445 22.3462 285 18.8419 285 15C285 6.71578 291.716 0 300 0Z" fill="#F1E6DB"/>
<path d="M315 15L316 15L316 15L315 15ZM311.18 25L310.435 24.3331L308.943 26H311.18V25ZM360 25H361V24H360V25ZM360 73.8203L359.333 74.5654L361 76.0575V73.8203H360ZM335 85L334 85V85H335ZM360 96.1797H361V93.9425L359.333 95.4346L360 96.1797ZM360 145V146H361V145H360ZM311.18 145V144H308.942L310.435 145.667L311.18 145ZM315 155L316 155L316 155L315 155ZM285 155L284 155V155H285ZM288.82 145L289.565 145.667L291.058 144H288.82V145ZM240 145H239V146H240V145ZM240 96.1797L240.667 95.4346L239 93.9425V96.1797H240ZM265 85L266 85L266 85L265 85ZM240 73.8203H239V76.0575L240.667 74.5654L240 73.8203ZM240 25V24H239V25H240ZM288.82 25V26H291.057L289.565 24.3331L288.82 25ZM285 15L284 15V15H285ZM300 0V1C307.732 1 314 7.26806 314 15L315 15L316 15C316 6.16351 308.837 -1 300 -1V0ZM315 15H314C314 18.5863 312.652 21.8554 310.435 24.3331L311.18 25L311.925 25.6669C314.458 22.8369 316 19.0976 316 15H315ZM311.18 25V26H360V25V24H311.18V25ZM360 25H359V73.8203H360H361V25H360ZM360 73.8203L360.667 73.0752C357.837 70.5421 354.098 69 350 69V70V71C353.586 71 356.855 72.3477 359.333 74.5654L360 73.8203ZM350 70V69C341.163 69 334 76.1635 334 85L335 85L336 85C336 77.2681 342.268 71 350 71V70ZM335 85H334C334 93.8366 341.163 101 350 101V100V99C342.268 99 336 92.732 336 85H335ZM350 100V101C354.098 101 357.837 99.4579 360.667 96.9248L360 96.1797L359.333 95.4346C356.855 97.6523 353.586 99 350 99V100ZM360 96.1797H359V145H360H361V96.1797H360ZM360 145V144H311.18V145V146H360V145ZM311.18 145L310.435 145.667C312.652 148.145 314 151.414 314 155L315 155L316 155C316 150.902 314.458 147.163 311.925 144.333L311.18 145ZM315 155H314C314 162.732 307.732 169 300 169V170V171C308.837 171 316 163.837 316 155H315ZM300 170V169C292.268 169 286 162.732 286 155H285H284C284 163.837 291.163 171 300 171V170ZM285 155L286 155C286 151.414 287.348 148.145 289.565 145.667L288.82 145L288.075 144.333C285.542 147.163 284 150.902 284 155L285 155ZM288.82 145V144H240V145V146H288.82V145ZM240 145H241V96.1797H240H239V145H240ZM240 96.1797L239.333 96.9248C242.163 99.4579 245.902 101 250 101V100V99C246.414 99 243.145 97.6523 240.667 95.4346L240 96.1797ZM250 100V101C258.837 101 266 93.8366 266 85H265H264C264 92.732 257.732 99 250 99V100ZM265 85L266 85C266 76.1635 258.837 69 250 69V70V71C257.732 71 264 77.2681 264 85L265 85ZM250 70V69C245.902 69 242.163 70.5421 239.333 73.0752L240 73.8203L240.667 74.5654C243.145 72.3477 246.414 71 250 71V70ZM240 73.8203H241V25H240H239V73.8203H240ZM240 25V26H288.82V25V24H240V25ZM288.82 25L289.565 24.3331C287.348 21.8554 286 18.5863 286 15H285H284C284 19.0976 285.542 22.8369 288.075 25.6669L288.82 25ZM285 15L286 15C286 7.26806 292.268 1 300 1V0V-1C291.163 -1 284 6.16351 284 15L285 15Z" fill="#C99A69" fill-opacity="0.25" mask="url(#path-9-inside-5_224_5757)"/>
<mask id="path-11-inside-6_224_5757" fill="white">
<path d="M48.8203 505C46.4449 507.654 45 511.158 45 515C45 523.284 51.7157 530 60 530C68.2843 530 75 523.284 75 515C75 511.158 73.5551 507.654 71.1797 505H120V553.82C117.346 551.445 113.842 550 110 550C101.716 550 95 556.716 95 565C95 573.284 101.716 580 110 580C113.842 580 117.346 578.554 120 576.179V625H71.1797C73.5551 622.346 75 618.842 75 615C75 606.716 68.2843 600 60 600C51.7157 600 45 606.716 45 615C45 618.842 46.4449 622.346 48.8203 625H0V576.179C2.65389 578.554 6.15779 580 10 580C18.2843 580 25 573.284 25 565C25 556.716 18.2843 550 10 550C6.15803 550 2.65383 551.445 0 553.82V505H48.8203Z"/>
</mask>
<path d="M48.8203 505C46.4449 507.654 45 511.158 45 515C45 523.284 51.7157 530 60 530C68.2843 530 75 523.284 75 515C75 511.158 73.5551 507.654 71.1797 505H120V553.82C117.346 551.445 113.842 550 110 550C101.716 550 95 556.716 95 565C95 573.284 101.716 580 110 580C113.842 580 117.346 578.554 120 576.179V625H71.1797C73.5551 622.346 75 618.842 75 615C75 606.716 68.2843 600 60 600C51.7157 600 45 606.716 45 615C45 618.842 46.4449 622.346 48.8203 625H0V576.179C2.65389 578.554 6.15779 580 10 580C18.2843 580 25 573.284 25 565C25 556.716 18.2843 550 10 550C6.15803 550 2.65383 551.445 0 553.82V505H48.8203Z" fill="#F1E6DB"/>
<path d="M48.8203 505L49.5654 505.667L51.0575 504H48.8203V505ZM45 515L44 515V515L45 515ZM60 530L60 531H60L60 530ZM75 515L76 515V515L75 515ZM71.1797 505V504H68.9425L70.4346 505.667L71.1797 505ZM120 505H121V504H120V505ZM120 553.82L119.333 554.565L121 556.057V553.82H120ZM120 576.179H121V573.941L119.333 575.434L120 576.179ZM120 625V626H121V625H120ZM71.1797 625L70.4346 624.333L68.9425 626H71.1797V625ZM75 615L76 615V615L75 615ZM60 600L60 599H60L60 600ZM45 615L44 615V615L45 615ZM48.8203 625V626H51.0575L49.5654 624.333L48.8203 625ZM0 625H-1V626H0V625ZM0 576.179L0.666974 575.434L-1 573.941L-1 576.179H0ZM0 553.82H-1V556.057L0.666942 554.565L0 553.82ZM0 505V504H-1V505H0ZM48.8203 505L48.0752 504.333C45.5421 507.163 44 510.902 44 515L45 515L46 515C46 511.414 47.3477 508.145 49.5654 505.667L48.8203 505ZM45 515L44 515C44 523.837 51.1634 531 60 531L60 530L60 529C52.268 529 46 522.732 46 515L45 515ZM60 530L60 531C68.8366 531 76 523.837 76 515L75 515L74 515C74 522.732 67.732 529 60 529L60 530ZM75 515L76 515C76 510.902 74.4579 507.163 71.9248 504.333L71.1797 505L70.4346 505.667C72.6523 508.145 74 511.414 74 515L75 515ZM71.1797 505V506H120V505V504H71.1797V505ZM120 505H119V553.82H120H121V505H120ZM120 553.82L120.667 553.075C117.837 550.542 114.098 549 110 549V550V551C113.586 551 116.855 552.348 119.333 554.565L120 553.82ZM110 550V549C101.163 549 94 556.163 94 565H95H96C96 557.268 102.268 551 110 551V550ZM95 565H94C94 573.837 101.163 581 110 581V580V579C102.268 579 96 572.732 96 565H95ZM110 580V581C114.098 581 117.837 579.457 120.667 576.924L120 576.179L119.333 575.434C116.855 577.652 113.586 579 110 579V580ZM120 576.179H119V625H120H121V576.179H120ZM120 625V624H71.1797V625V626H120V625ZM71.1797 625L71.9248 625.667C74.4579 622.837 76 619.098 76 615L75 615L74 615C74 618.586 72.6523 621.855 70.4346 624.333L71.1797 625ZM75 615L76 615C76 606.163 68.8366 599 60 599L60 600L60 601C67.732 601 74 607.268 74 615L75 615ZM60 600L60 599C51.1634 599 44 606.163 44 615L45 615L46 615C46 607.268 52.268 601 60 601L60 600ZM45 615L44 615C44 619.098 45.5421 622.837 48.0752 625.667L48.8203 625L49.5654 624.333C47.3477 621.855 46 618.586 46 615L45 615ZM48.8203 625V624H0V625V626H48.8203V625ZM0 625H1V576.179H0H-1V625H0ZM0 576.179L-0.666974 576.924C2.16299 579.457 5.90204 581 10 581V580V579C6.41354 579 3.14479 577.652 0.666974 575.434L0 576.179ZM10 580V581C18.8366 581 26 573.837 26 565H25H24C24 572.732 17.732 579 10 579V580ZM25 565H26C26 556.163 18.8366 549 10 549V550V551C17.732 551 24 557.268 24 565H25ZM10 550V549C5.90242 549 2.16306 550.542 -0.666942 553.075L0 553.82L0.666942 554.565C3.1446 552.348 6.41363 551 10 551V550ZM0 553.82H1V505H0H-1V553.82H0ZM0 505V506H48.8203V505V504H0V505Z" fill="#C99A69" fill-opacity="0.25" mask="url(#path-11-inside-6_224_5757)"/>
</svg>
