<svg width="265" height="650" viewBox="0 0 265 650" fill="none" xmlns="http://www.w3.org/2000/svg">
<mask id="path-1-inside-1_162_4948" fill="white">
<path d="M60.0002 120C68.2844 120 75.0001 126.716 75.0002 135C75.0002 138.842 73.5553 142.346 71.1799 145L120 145L120 193.82C122.654 191.445 126.158 190 130 190C138.284 190 145 196.716 145 205C145 213.284 138.284 220 130 220C126.158 220 122.654 218.555 120 216.18L120 265H71.1799C73.5553 262.346 75.0002 258.842 75.0002 255C75.0001 246.716 68.2844 240 60.0002 240C51.716 240 45.0002 246.716 45.0002 255C45.0002 258.842 46.4451 262.346 48.8205 265H0.000183105L0.000183105 216.18C2.65402 218.555 6.15818 220 10.0002 220C18.2845 220 25.0002 213.284 25.0002 205C25.0001 196.716 18.2844 190 10.0002 190C6.15824 190 2.65401 191.445 0.000183105 193.82L0.000183105 145H48.8205C46.4451 142.346 45.0002 138.842 45.0002 135C45.0002 126.716 51.716 120 60.0002 120Z"/>
</mask>
<path d="M60.0002 120C68.2844 120 75.0001 126.716 75.0002 135C75.0002 138.842 73.5553 142.346 71.1799 145L120 145L120 193.82C122.654 191.445 126.158 190 130 190C138.284 190 145 196.716 145 205C145 213.284 138.284 220 130 220C126.158 220 122.654 218.555 120 216.18L120 265H71.1799C73.5553 262.346 75.0002 258.842 75.0002 255C75.0001 246.716 68.2844 240 60.0002 240C51.716 240 45.0002 246.716 45.0002 255C45.0002 258.842 46.4451 262.346 48.8205 265H0.000183105L0.000183105 216.18C2.65402 218.555 6.15818 220 10.0002 220C18.2845 220 25.0002 213.284 25.0002 205C25.0001 196.716 18.2844 190 10.0002 190C6.15824 190 2.65401 191.445 0.000183105 193.82L0.000183105 145H48.8205C46.4451 142.346 45.0002 138.842 45.0002 135C45.0002 126.716 51.716 120 60.0002 120Z" fill="#F9F3ED"/>
<path d="M75.0002 135L76.0002 135L76.0002 135L75.0002 135ZM71.1799 145L70.4348 144.333L68.9427 146H71.1799V145ZM120 145H121V144H120V145ZM120 193.82H119V196.057L120.667 194.565L120 193.82ZM145 205L146 205L146 205L145 205ZM120 216.18L120.667 215.435L119 213.942V216.18H120ZM120 265V266H121V265H120ZM71.1799 265L70.4348 264.333L68.9427 266H71.1799V265ZM75.0002 255L76.0002 255L76.0002 255L75.0002 255ZM45.0002 255L44.0002 255V255H45.0002ZM48.8205 265V266H51.0577L49.5656 264.333L48.8205 265ZM0.000183105 265H-0.999817L-0.999817 266H0.000183105L0.000183105 265ZM0.000183105 216.18L0.667129 215.435L-0.999817 213.942V216.18H0.000183105ZM25.0002 205L26.0002 205L26.0002 205L25.0002 205ZM0.000183105 193.82H-0.999817L-0.999817 196.057L0.667121 194.565L0.000183105 193.82ZM0.000183105 145L0.000183105 144H-0.999817L-0.999817 145H0.000183105ZM48.8205 145V146H51.0577L49.5656 144.333L48.8205 145ZM45.0002 135L44.0002 135V135H45.0002ZM60.0002 120V121C67.7321 121 74.0001 127.268 74.0002 135L75.0002 135L76.0002 135C76.0001 126.164 68.8367 119 60.0002 119V120ZM75.0002 135H74.0002C74.0002 138.586 72.6525 141.855 70.4348 144.333L71.1799 145L71.925 145.667C74.4581 142.837 76.0002 139.098 76.0002 135H75.0002ZM71.1799 145V146L120 146V145V144L71.1799 144V145ZM120 145H119L119 193.82H120H121L121 145H120ZM120 193.82L120.667 194.565C123.145 192.348 126.414 191 130 191V190V189C125.903 189 122.163 190.542 119.333 193.075L120 193.82ZM130 190V191C137.732 191 144 197.268 144 205L145 205L146 205C146 196.164 138.837 189 130 189V190ZM145 205H144C144 212.732 137.732 219 130 219V220V221C138.837 221 146 213.837 146 205H145ZM130 220V219C126.414 219 123.145 217.652 120.667 215.435L120 216.18L119.333 216.925C122.163 219.458 125.903 221 130 221V220ZM120 216.18H119L119 265H120H121L121 216.18H120ZM120 265V264H71.1799V265V266H120V265ZM71.1799 265L71.925 265.667C74.4581 262.837 76.0002 259.098 76.0002 255H75.0002H74.0002C74.0002 258.586 72.6525 261.855 70.4348 264.333L71.1799 265ZM75.0002 255L76.0002 255C76.0001 246.164 68.8367 239 60.0002 239V240V241C67.7321 241 74.0001 247.268 74.0002 255L75.0002 255ZM60.0002 240V239C51.1637 239 44.0003 246.164 44.0002 255L45.0002 255L46.0002 255C46.0002 247.268 52.2682 241 60.0002 241V240ZM45.0002 255H44.0002C44.0002 259.098 45.5423 262.837 48.0754 265.667L48.8205 265L49.5656 264.333C47.3479 261.855 46.0002 258.586 46.0002 255H45.0002ZM48.8205 265V264H0.000183105L0.000183105 265L0.000183105 266H48.8205V265ZM0.000183105 265H1.00018L1.00018 216.18H0.000183105H-0.999817L-0.999817 265H0.000183105ZM0.000183105 216.18L-0.666763 216.925C2.16325 219.458 5.90258 221 10.0002 221V220V219C6.41378 219 3.14479 217.652 0.667129 215.435L0.000183105 216.18ZM10.0002 220V221C18.8367 221 26.0002 213.837 26.0002 205H25.0002H24.0002C24.0002 212.732 17.7322 219 10.0002 219V220ZM25.0002 205L26.0002 205C26.0001 196.164 18.8367 189 10.0002 189V190V191C17.7321 191 24.0001 197.268 24.0002 205L25.0002 205ZM10.0002 190V189C5.90263 189 2.16324 190.542 -0.666754 193.075L0.000183105 193.82L0.667121 194.565C3.14478 192.348 6.41385 191 10.0002 191V190ZM0.000183105 193.82H1.00018L1.00018 145H0.000183105H-0.999817L-0.999817 193.82H0.000183105ZM0.000183105 145L0.000183105 146H48.8205V145V144H0.000183105L0.000183105 145ZM48.8205 145L49.5656 144.333C47.3479 141.855 46.0002 138.586 46.0002 135H45.0002H44.0002C44.0002 139.098 45.5423 142.837 48.0754 145.667L48.8205 145ZM45.0002 135L46.0002 135C46.0002 127.268 52.2682 121 60.0002 121V120V119C51.1637 119 44.0003 126.164 44.0002 135L45.0002 135Z" fill="#C99A69" fill-opacity="0.25" mask="url(#path-1-inside-1_162_4948)"/>
<mask id="path-3-inside-2_162_4948" fill="white">
<path d="M95.0001 325C95.0001 316.716 101.716 310 110 310C113.842 310 117.346 311.445 120 313.82L120 265L168.82 265C166.445 262.346 165 258.842 165 255C165 246.716 171.716 240 180 240C188.284 240 195 246.716 195 255C195 258.842 193.554 262.346 191.179 265L240 265L240 313.82C242.654 311.445 246.158 310 250 310C258.284 310 265 316.716 265 325C265 333.284 258.284 340 250 340C246.158 340 242.654 338.555 240 336.18L240 385L191.179 385C193.554 382.346 195 378.842 195 375C195 366.716 188.284 360 180 360C171.716 360 165 366.716 165 375C165 378.842 166.445 382.346 168.82 385L120 385L120 336.18C117.346 338.555 113.842 340 110 340C101.716 340 95.0001 333.284 95.0001 325Z"/>
</mask>
<path d="M95.0001 325C95.0001 316.716 101.716 310 110 310C113.842 310 117.346 311.445 120 313.82L120 265L168.82 265C166.445 262.346 165 258.842 165 255C165 246.716 171.716 240 180 240C188.284 240 195 246.716 195 255C195 258.842 193.554 262.346 191.179 265L240 265L240 313.82C242.654 311.445 246.158 310 250 310C258.284 310 265 316.716 265 325C265 333.284 258.284 340 250 340C246.158 340 242.654 338.555 240 336.18L240 385L191.179 385C193.554 382.346 195 378.842 195 375C195 366.716 188.284 360 180 360C171.716 360 165 366.716 165 375C165 378.842 166.445 382.346 168.82 385L120 385L120 336.18C117.346 338.555 113.842 340 110 340C101.716 340 95.0001 333.284 95.0001 325Z" fill="#F9F3ED"/>
<path d="M95.0001 325L94.0001 325V325L95.0001 325ZM110 310L110 309L110 309L110 310ZM120 313.82L119.333 314.565L121 316.057L121 313.82L120 313.82ZM120 265L120 264L119 264L119 265L120 265ZM168.82 265L168.82 266L171.058 266L169.565 264.333L168.82 265ZM165 255L164 255V255L165 255ZM180 240L180 239L180 239L180 240ZM195 255L196 255V255L195 255ZM191.179 265L190.434 264.333L188.941 266L191.179 266L191.179 265ZM240 265L241 265L241 264L240 264L240 265ZM240 313.82L239 313.82L239 316.058L240.667 314.565L240 313.82ZM250 310L250 309L250 309L250 310ZM265 325L266 325V325L265 325ZM250 340L250 341L250 341L250 340ZM240 336.18L240.667 335.435L239 333.942L239 336.18L240 336.18ZM240 385L240 386L241 386L241 385L240 385ZM191.179 385L190.434 384.333L188.941 386L191.179 386L191.179 385ZM195 375L196 375L196 375L195 375ZM180 360L180 359H180L180 360ZM165 375L164 375L164 375L165 375ZM168.82 385L168.82 386L171.058 386L169.565 384.333L168.82 385ZM120 385L119 385L119 386L120 386L120 385ZM120 336.18L121 336.18L121 333.943L119.333 335.435L120 336.18ZM110 340L110 341L110 341L110 340ZM95.0001 325L96.0001 325C96.0001 317.268 102.268 311 110 311L110 310L110 309C101.164 309 94.0001 316.163 94.0001 325L95.0001 325ZM110 310L110 311C113.586 311 116.855 312.348 119.333 314.565L120 313.82L120.667 313.075C117.837 310.542 114.098 309 110 309L110 310ZM120 313.82L121 313.82L121 265L120 265L119 265L119 313.82L120 313.82ZM120 265L120 266L168.82 266L168.82 265L168.82 264L120 264L120 265ZM168.82 265L169.565 264.333C167.348 261.855 166 258.586 166 255L165 255L164 255C164 259.098 165.542 262.837 168.075 265.667L168.82 265ZM165 255L166 255C166 247.268 172.268 241 180 241L180 240L180 239C171.163 239 164 246.163 164 255L165 255ZM180 240L180 241C187.732 241 194 247.268 194 255L195 255L196 255C196 246.163 188.837 239 180 239L180 240ZM195 255L194 255C194 258.586 192.652 261.855 190.434 264.333L191.179 265L191.924 265.667C194.457 262.837 196 259.098 196 255L195 255ZM191.179 265L191.179 266L240 266L240 265L240 264L191.179 264L191.179 265ZM240 265L239 265L239 313.82L240 313.82L241 313.82L241 265L240 265ZM240 313.82L240.667 314.565C243.145 312.348 246.414 311 250 311L250 310L250 309C245.902 309 242.163 310.542 239.333 313.075L240 313.82ZM250 310L250 311C257.732 311 264 317.268 264 325L265 325L266 325C266 316.163 258.837 309 250 309L250 310ZM265 325L264 325C264 332.732 257.732 339 250 339L250 340L250 341C258.837 341 266 333.837 266 325L265 325ZM250 340L250 339C246.414 339 243.145 337.652 240.667 335.435L240 336.18L239.333 336.925C242.163 339.458 245.903 341 250 341L250 340ZM240 336.18L239 336.18L239 385L240 385L241 385L241 336.18L240 336.18ZM240 385L240 384L191.179 384L191.179 385L191.179 386L240 386L240 385ZM191.179 385L191.924 385.667C194.457 382.837 196 379.098 196 375L195 375L194 375C194 378.586 192.652 381.855 190.434 384.333L191.179 385ZM195 375L196 375C196 366.163 188.837 359 180 359L180 360L180 361C187.732 361 194 367.268 194 375L195 375ZM180 360L180 359C171.164 359 164 366.163 164 375L165 375L166 375C166 367.268 172.268 361 180 361L180 360ZM165 375L164 375C164 379.098 165.542 382.837 168.075 385.667L168.82 385L169.565 384.333C167.348 381.855 166 378.586 166 375L165 375ZM168.82 385L168.82 384L120 384L120 385L120 386L168.82 386L168.82 385ZM120 385L121 385L121 336.18L120 336.18L119 336.18L119 385L120 385ZM120 336.18L119.333 335.435C116.855 337.652 113.586 339 110 339L110 340L110 341C114.098 341 117.837 339.458 120.667 336.925L120 336.18ZM110 340L110 339C102.268 339 96.0001 332.732 96.0001 325L95.0001 325L94.0001 325C94.0001 333.837 101.164 341 110 341L110 340Z" fill="#C99A69" fill-opacity="0.25" mask="url(#path-3-inside-2_162_4948)"/>
<mask id="path-5-inside-3_162_4948" fill="white">
<path d="M95.0001 85C95.0001 76.7158 101.716 70.0001 110 70C113.842 70 117.346 71.4449 120 73.8203L120 25L168.82 25C166.445 22.3462 165 18.8419 165 15C165 6.71577 171.716 6.72618e-05 180 -3.71547e-06C188.284 -4.07759e-06 195 6.71572 195 15C195 18.842 193.555 22.3462 191.18 25L240 25L240 73.8203C242.654 71.4448 246.158 70 250 70C258.284 70 265 76.7157 265 85C265 93.2842 258.284 100 250 100C246.158 100 242.654 98.5551 240 96.1797L240 145L191.18 145C193.555 147.654 195 151.158 195 155C195 163.284 188.284 170 180 170C171.716 170 165 163.284 165 155C165 151.158 166.445 147.654 168.82 145L120 145L120 96.1797C117.346 98.555 113.842 100 110 100C101.716 99.9999 95.0002 93.2842 95.0001 85Z"/>
</mask>
<path d="M95.0001 85C95.0001 76.7158 101.716 70.0001 110 70C113.842 70 117.346 71.4449 120 73.8203L120 25L168.82 25C166.445 22.3462 165 18.8419 165 15C165 6.71577 171.716 6.72618e-05 180 -3.71547e-06C188.284 -4.07759e-06 195 6.71572 195 15C195 18.842 193.555 22.3462 191.18 25L240 25L240 73.8203C242.654 71.4448 246.158 70 250 70C258.284 70 265 76.7157 265 85C265 93.2842 258.284 100 250 100C246.158 100 242.654 98.5551 240 96.1797L240 145L191.18 145C193.555 147.654 195 151.158 195 155C195 163.284 188.284 170 180 170C171.716 170 165 163.284 165 155C165 151.158 166.445 147.654 168.82 145L120 145L120 96.1797C117.346 98.555 113.842 100 110 100C101.716 99.9999 95.0002 93.2842 95.0001 85Z" fill="#F9F3ED"/>
<path d="M95.0001 85L94.0001 85L94.0001 85L95.0001 85ZM110 70L110 69L110 69L110 70ZM120 73.8203L119.333 74.5654L121 76.0575L121 73.8203L120 73.8203ZM120 25L120 24L119 24L119 25L120 25ZM168.82 25L168.82 26L171.058 26L169.566 24.3331L168.82 25ZM165 15L164 15L164 15L165 15ZM180 -3.71547e-06L180 -1L180 -1L180 -3.71547e-06ZM195 15L196 15L196 15L195 15ZM191.18 25L190.435 24.333L188.943 26L191.18 26L191.18 25ZM240 25L241 25L241 24L240 24L240 25ZM240 73.8203L239 73.8203L239 76.0575L240.667 74.5654L240 73.8203ZM250 70L250 69L250 69L250 70ZM265 85L266 85L266 85L265 85ZM250 100L250 101L250 101L250 100ZM240 96.1797L240.667 95.4346L239 93.9425L239 96.1797L240 96.1797ZM240 145L240 146L241 146L241 145L240 145ZM191.18 145L191.18 144L188.943 144L190.435 145.667L191.18 145ZM195 155L196 155L196 155L195 155ZM180 170L180 171L180 171L180 170ZM165 155L164 155L164 155L165 155ZM168.82 145L169.566 145.667L171.058 144L168.82 144L168.82 145ZM120 145L119 145L119 146L120 146L120 145ZM120 96.1797L121 96.1797L121 93.9425L119.333 95.4346L120 96.1797ZM110 100L110 101L110 101L110 100ZM95.0001 85L96.0001 85C96.0001 77.2681 102.268 71.0001 110 71L110 70L110 69C101.164 69.0001 94.0001 76.1635 94.0001 85L95.0001 85ZM110 70L110 71C113.586 71 116.856 72.3477 119.333 74.5654L120 73.8203L120.667 73.0752C117.837 70.5421 114.098 69 110 69L110 70ZM120 73.8203L121 73.8203L121 25L120 25L119 25L119 73.8203L120 73.8203ZM120 25L120 26L168.82 26L168.82 25L168.82 24L120 24L120 25ZM168.82 25L169.566 24.3331C167.348 21.8554 166 18.5863 166 15L165 15L164 15C164 19.0975 165.542 22.837 168.075 25.6669L168.82 25ZM165 15L166 15C166 7.26806 172.268 1.00006 180 0.999996L180 -3.71547e-06L180 -1C171.164 -0.999928 164 6.16348 164 15L165 15ZM180 -3.71547e-06L180 0.999996C187.732 0.999996 194 7.26801 194 15L195 15L196 15C196 6.16344 188.837 -1 180 -1L180 -3.71547e-06ZM195 15L194 15C194 18.5864 192.652 21.8554 190.435 24.333L191.18 25L191.925 25.6669C194.458 22.8369 196 19.0976 196 15L195 15ZM191.18 25L191.18 26L240 26L240 25L240 24L191.18 24L191.18 25ZM240 25L239 25L239 73.8203L240 73.8203L241 73.8203L241 25L240 25ZM240 73.8203L240.667 74.5654C243.145 72.3476 246.414 71 250 71L250 70L250 69C245.903 69 242.163 70.542 239.333 73.0752L240 73.8203ZM250 70L250 71C257.732 71 264 77.268 264 85L265 85L266 85C266 76.1634 258.837 69 250 69L250 70ZM265 85L264 85C264 92.7319 257.732 99 250 99L250 100L250 101C258.837 101 266 93.8365 266 85L265 85ZM250 100L250 99C246.414 99 243.145 97.6523 240.667 95.4346L240 96.1797L239.333 96.9248C242.163 99.4579 245.903 101 250 101L250 100ZM240 96.1797L239 96.1797L239 145L240 145L241 145L241 96.1797L240 96.1797ZM240 145L240 144L191.18 144L191.18 145L191.18 146L240 146L240 145ZM191.18 145L190.435 145.667C192.652 148.145 194 151.414 194 155L195 155L196 155C196 150.902 194.458 147.163 191.925 144.333L191.18 145ZM195 155L194 155C194 162.732 187.732 169 180 169L180 170L180 171C188.837 171 196 163.836 196 155L195 155ZM180 170L180 169C172.268 169 166 162.732 166 155L165 155L164 155C164 163.836 171.164 171 180 171L180 170ZM165 155L166 155C166 151.414 167.348 148.145 169.566 145.667L168.82 145L168.075 144.333C165.542 147.163 164 150.902 164 155L165 155ZM168.82 145L168.82 144L120 144L120 145L120 146L168.82 146L168.82 145ZM120 145L121 145L121 96.1797L120 96.1797L119 96.1797L119 145L120 145ZM120 96.1797L119.333 95.4346C116.856 97.6522 113.586 99 110 99L110 100L110 101C114.098 101 117.837 99.4578 120.667 96.9248L120 96.1797ZM110 100L110 99C102.268 98.9999 96.0002 92.7319 96.0001 85L95.0001 85L94.0001 85C94.0002 93.8365 101.164 101 110 101L110 100Z" fill="#C99A69" fill-opacity="0.25" mask="url(#path-5-inside-3_162_4948)"/>
<mask id="path-7-inside-4_162_4948" fill="white">
<path d="M180 650C171.716 650 165 643.284 165 635C165 631.158 166.445 627.654 168.82 625L120 625L120 576.18C117.346 578.555 113.842 580 110 580C101.716 580 95 573.284 95 565C95 556.716 101.716 550 110 550C113.842 550 117.346 551.446 120 553.821L120 505L168.82 505C166.445 502.346 165 498.842 165 495C165 486.716 171.716 480 180 480C188.284 480 195 486.716 195 495C195 498.842 193.555 502.346 191.18 505L240 505L240 553.821C237.346 551.446 233.842 550 230 550C221.716 550 215 556.716 215 565C215 573.284 221.716 580 230 580C233.842 580 237.346 578.555 240 576.18L240 625L191.18 625C193.555 627.654 195 631.158 195 635C195 643.284 188.284 650 180 650Z"/>
</mask>
<path d="M180 650C171.716 650 165 643.284 165 635C165 631.158 166.445 627.654 168.82 625L120 625L120 576.18C117.346 578.555 113.842 580 110 580C101.716 580 95 573.284 95 565C95 556.716 101.716 550 110 550C113.842 550 117.346 551.446 120 553.821L120 505L168.82 505C166.445 502.346 165 498.842 165 495C165 486.716 171.716 480 180 480C188.284 480 195 486.716 195 495C195 498.842 193.555 502.346 191.18 505L240 505L240 553.821C237.346 551.446 233.842 550 230 550C221.716 550 215 556.716 215 565C215 573.284 221.716 580 230 580C233.842 580 237.346 578.555 240 576.18L240 625L191.18 625C193.555 627.654 195 631.158 195 635C195 643.284 188.284 650 180 650Z" fill="#F9F3ED"/>
<path d="M180 650L180 651H180L180 650ZM165 635L164 635L164 635L165 635ZM168.82 625L169.565 625.667L171.057 624L168.82 624L168.82 625ZM120 625L119 625L119 626L120 626L120 625ZM120 576.18L121 576.18L121 573.943L119.333 575.435L120 576.18ZM110 580L110 581H110L110 580ZM95 565L94 565L94 565L95 565ZM110 550L110 549H110L110 550ZM120 553.821L119.333 554.566L121 556.059L121 553.821L120 553.821ZM120 505L120 504L119 504L119 505L120 505ZM168.82 505L168.82 506L171.058 506L169.565 504.333L168.82 505ZM165 495L164 495L164 495L165 495ZM180 480L180 479L180 479L180 480ZM195 495L196 495L196 495L195 495ZM191.18 505L190.435 504.333L188.943 506L191.18 506L191.18 505ZM240 505L241 505L241 504L240 504L240 505ZM240 553.821L239.333 554.566L241 556.059L241 553.821L240 553.821ZM230 550L230 549L230 549L230 550ZM215 565L214 565V565L215 565ZM230 580L230 581L230 581L230 580ZM240 576.18L241 576.18L241 573.943L239.333 575.435L240 576.18ZM240 625L240 626L241 626L241 625L240 625ZM191.18 625L191.18 624L188.943 624L190.435 625.667L191.18 625ZM195 635L196 635L196 635L195 635ZM180 650L180 649C172.268 649 166 642.732 166 635L165 635L164 635C164 643.836 171.163 651 180 651L180 650ZM165 635L166 635C166 631.414 167.348 628.145 169.565 625.667L168.82 625L168.075 624.333C165.542 627.163 164 630.902 164 635L165 635ZM168.82 625L168.82 624L120 624L120 625L120 626L168.82 626L168.82 625ZM120 625L121 625L121 576.18L120 576.18L119 576.18L119 625L120 625ZM120 576.18L119.333 575.435C116.855 577.652 113.586 579 110 579L110 580L110 581C114.098 581 117.837 579.458 120.667 576.925L120 576.18ZM110 580L110 579C102.268 579 96 572.732 96 565L95 565L94 565C94 573.837 101.163 581 110 581L110 580ZM95 565L96 565C96 557.268 102.268 551 110 551L110 550L110 549C101.163 549 94 556.163 94 565L95 565ZM110 550L110 551C113.586 551 116.855 552.348 119.333 554.566L120 553.821L120.667 553.076C117.837 550.543 114.098 549 110 549L110 550ZM120 553.821L121 553.821L121 505L120 505L119 505L119 553.821L120 553.821ZM120 505L120 506L168.82 506L168.82 505L168.82 504L120 504L120 505ZM168.82 505L169.565 504.333C167.348 501.855 166 498.586 166 495L165 495L164 495C164 499.098 165.542 502.837 168.075 505.667L168.82 505ZM165 495L166 495C166 487.268 172.268 481 180 481L180 480L180 479C171.163 479 164 486.163 164 495L165 495ZM180 480L180 481C187.732 481 194 487.268 194 495L195 495L196 495C196 486.163 188.837 479 180 479L180 480ZM195 495L194 495C194 498.586 192.652 501.855 190.435 504.333L191.18 505L191.925 505.667C194.458 502.837 196 499.098 196 495L195 495ZM191.18 505L191.18 506L240 506L240 505L240 504L191.18 504L191.18 505ZM240 505L239 505L239 553.821L240 553.821L241 553.821L241 505L240 505ZM240 553.821L240.667 553.076C237.837 550.543 234.098 549 230 549L230 550L230 551C233.586 551 236.855 552.348 239.333 554.566L240 553.821ZM230 550L230 549C221.163 549 214 556.163 214 565L215 565L216 565C216 557.268 222.268 551 230 551L230 550ZM215 565L214 565C214 573.837 221.163 581 230 581L230 580L230 579C222.268 579 216 572.732 216 565L215 565ZM230 580L230 581C234.098 581 237.837 579.458 240.667 576.925L240 576.18L239.333 575.435C236.855 577.652 233.586 579 230 579L230 580ZM240 576.18L239 576.18L239 625L240 625L241 625L241 576.18L240 576.18ZM240 625L240 624L191.18 624L191.18 625L191.18 626L240 626L240 625ZM191.18 625L190.435 625.667C192.652 628.145 194 631.414 194 635L195 635L196 635C196 630.902 194.458 627.163 191.925 624.333L191.18 625ZM195 635L194 635C194 642.732 187.732 649 180 649L180 650L180 651C188.837 651 196 643.836 196 635L195 635Z" fill="#C99A69" fill-opacity="0.25" mask="url(#path-7-inside-4_162_4948)"/>
</svg>
