<svg width="480" height="480" viewBox="0 0 480 480" fill="none" xmlns="http://www.w3.org/2000/svg">
<mask id="path-1-inside-1_148_4626" fill="white">
<path d="M169.76 360C166.545 362.837 164.517 366.988 164.517 371.613C164.517 380.165 171.449 387.097 180 387.097C188.551 387.097 195.483 380.165 195.483 371.613C195.483 366.988 193.455 362.837 190.24 360H240V409.76C237.163 406.545 233.012 404.517 228.387 404.517C219.835 404.517 212.903 411.449 212.903 420C212.903 428.551 219.835 435.483 228.387 435.483C233.012 435.483 237.163 433.455 240 430.239V480H190.24C193.455 477.163 195.483 473.012 195.483 468.387C195.483 459.835 188.551 452.903 180 452.903C171.449 452.903 164.517 459.835 164.517 468.387C164.517 473.012 166.545 477.163 169.76 480H120V430.239C122.837 433.455 126.988 435.483 131.613 435.483C140.165 435.483 147.097 428.551 147.097 420C147.097 411.449 140.165 404.517 131.613 404.517C126.988 404.517 122.837 406.545 120 409.76V360H169.76Z"/>
</mask>
<path d="M169.76 360C166.545 362.837 164.517 366.988 164.517 371.613C164.517 380.165 171.449 387.097 180 387.097C188.551 387.097 195.483 380.165 195.483 371.613C195.483 366.988 193.455 362.837 190.24 360H240V409.76C237.163 406.545 233.012 404.517 228.387 404.517C219.835 404.517 212.903 411.449 212.903 420C212.903 428.551 219.835 435.483 228.387 435.483C233.012 435.483 237.163 433.455 240 430.239V480H190.24C193.455 477.163 195.483 473.012 195.483 468.387C195.483 459.835 188.551 452.903 180 452.903C171.449 452.903 164.517 459.835 164.517 468.387C164.517 473.012 166.545 477.163 169.76 480H120V430.239C122.837 433.455 126.988 435.483 131.613 435.483C140.165 435.483 147.097 428.551 147.097 420C147.097 411.449 140.165 404.517 131.613 404.517C126.988 404.517 122.837 406.545 120 409.76V360H169.76Z" fill="#F9F3ED"/>
<path d="M169.76 360L171.083 361.5L175.049 358H169.76V360ZM164.517 371.613L162.517 371.613L162.517 371.613L164.517 371.613ZM180 387.097L180 389.097H180L180 387.097ZM195.483 371.613L197.483 371.613L197.483 371.613L195.483 371.613ZM190.24 360V358H184.951L188.917 361.5L190.24 360ZM240 360H242V358H240V360ZM240 409.76L238.5 411.083L242 415.049V409.76H240ZM228.387 404.517L228.387 402.517L228.387 402.517L228.387 404.517ZM228.387 435.483L228.387 437.483H228.387V435.483ZM240 430.239H242V424.95L238.5 428.916L240 430.239ZM240 480V482H242V480H240ZM190.24 480L188.917 478.5L184.951 482H190.24V480ZM195.483 468.387L197.483 468.387L197.483 468.387L195.483 468.387ZM180 452.903L180 450.903L180 452.903ZM164.517 468.387L162.517 468.387L162.517 468.387L164.517 468.387ZM169.76 480V482H175.049L171.083 478.5L169.76 480ZM120 480H118V482H120V480ZM120 430.239L121.5 428.916L118 424.95V430.239H120ZM131.613 435.483L131.613 437.483L131.613 437.483L131.613 435.483ZM131.613 404.517L131.613 402.517H131.613V404.517ZM120 409.76H118V415.049L121.5 411.083L120 409.76ZM120 360V358H118V360H120ZM169.76 360L168.436 358.5C164.809 361.701 162.517 366.39 162.517 371.613L164.517 371.613L166.517 371.613C166.517 367.586 168.28 363.973 171.083 361.5L169.76 360ZM164.517 371.613L162.517 371.613C162.517 381.269 170.344 389.097 180 389.097L180 387.097L180 385.097C172.553 385.097 166.517 379.06 166.517 371.613L164.517 371.613ZM180 387.097L180 389.097C189.656 389.097 197.483 381.269 197.483 371.613L195.483 371.613L193.483 371.613C193.483 379.06 187.447 385.097 180 385.097L180 387.097ZM195.483 371.613L197.483 371.613C197.483 366.39 195.191 361.701 191.564 358.5L190.24 360L188.917 361.5C191.72 363.973 193.483 367.586 193.483 371.613L195.483 371.613ZM190.24 360V362H240V360V358H190.24V360ZM240 360H238V409.76H240H242V360H240ZM240 409.76L241.5 408.436C238.299 404.809 233.61 402.517 228.387 402.517V404.517V406.517C232.414 406.517 236.027 408.28 238.5 411.083L240 409.76ZM228.387 404.517L228.387 402.517C218.731 402.517 210.903 410.344 210.903 420H212.903H214.903C214.903 412.553 220.94 406.517 228.387 406.517L228.387 404.517ZM212.903 420H210.903C210.903 429.656 218.731 437.483 228.387 437.483L228.387 435.483L228.387 433.483C220.94 433.483 214.903 427.447 214.903 420H212.903ZM228.387 435.483V437.483C233.61 437.483 238.299 435.19 241.5 431.563L240 430.239L238.5 428.916C236.026 431.72 232.414 433.483 228.387 433.483V435.483ZM240 430.239H238V480H240H242V430.239H240ZM240 480V478H190.24V480V482H240V480ZM190.24 480L191.564 481.5C195.191 478.299 197.483 473.61 197.483 468.387L195.483 468.387L193.483 468.387C193.483 472.414 191.72 476.027 188.917 478.5L190.24 480ZM195.483 468.387L197.483 468.387C197.483 458.731 189.656 450.903 180 450.903L180 452.903L180 454.903C187.447 454.903 193.483 460.94 193.483 468.387L195.483 468.387ZM180 452.903L180 450.903C170.344 450.903 162.517 458.731 162.517 468.387L164.517 468.387L166.517 468.387C166.517 460.94 172.553 454.903 180 454.903L180 452.903ZM164.517 468.387L162.517 468.387C162.517 473.61 164.809 478.299 168.436 481.5L169.76 480L171.083 478.5C168.28 476.027 166.517 472.414 166.517 468.387L164.517 468.387ZM169.76 480V478H120V480V482H169.76V480ZM120 480H122V430.239H120H118V480H120ZM120 430.239L118.5 431.563C121.701 435.19 126.39 437.483 131.613 437.483V435.483V433.483C127.586 433.483 123.974 431.72 121.5 428.916L120 430.239ZM131.613 435.483L131.613 437.483C141.269 437.483 149.097 429.656 149.097 420H147.097H145.097C145.097 427.447 139.06 433.483 131.613 433.483L131.613 435.483ZM147.097 420H149.097C149.097 410.344 141.269 402.517 131.613 402.517L131.613 404.517L131.613 406.517C139.06 406.517 145.097 412.553 145.097 420H147.097ZM131.613 404.517V402.517C126.39 402.517 121.701 404.809 118.5 408.436L120 409.76L121.5 411.083C123.973 408.28 127.586 406.517 131.613 406.517V404.517ZM120 409.76H122V360H120H118V409.76H120ZM120 360V362H169.76V360V358H120V360Z" fill="#C99A69" fill-opacity="0.25" mask="url(#path-1-inside-1_148_4626)"/>
<mask id="path-3-inside-2_148_4626" fill="white">
<path d="M387.097 300C387.097 308.551 380.165 315.483 371.613 315.483C366.988 315.483 362.837 313.455 360 310.24L360 360L310.24 360C313.455 357.163 315.483 353.012 315.483 348.387C315.483 339.835 308.551 332.903 300 332.903C291.449 332.903 284.516 339.835 284.516 348.387C284.516 353.012 286.545 357.163 289.761 360L240 360L240 310.24C237.163 313.455 233.012 315.483 228.387 315.483C219.835 315.483 212.903 308.551 212.903 300C212.903 291.449 219.835 284.517 228.387 284.517C233.012 284.517 237.163 286.545 240 289.76L240 240L289.761 240C286.545 242.837 284.516 246.988 284.516 251.613C284.516 260.165 291.449 267.097 300 267.097C308.551 267.097 315.483 260.165 315.483 251.613C315.483 246.988 313.455 242.837 310.24 240L360 240L360 289.76C362.837 286.545 366.988 284.517 371.613 284.517C380.165 284.517 387.097 291.449 387.097 300Z"/>
</mask>
<path d="M387.097 300C387.097 308.551 380.165 315.483 371.613 315.483C366.988 315.483 362.837 313.455 360 310.24L360 360L310.24 360C313.455 357.163 315.483 353.012 315.483 348.387C315.483 339.835 308.551 332.903 300 332.903C291.449 332.903 284.516 339.835 284.516 348.387C284.516 353.012 286.545 357.163 289.761 360L240 360L240 310.24C237.163 313.455 233.012 315.483 228.387 315.483C219.835 315.483 212.903 308.551 212.903 300C212.903 291.449 219.835 284.517 228.387 284.517C233.012 284.517 237.163 286.545 240 289.76L240 240L289.761 240C286.545 242.837 284.516 246.988 284.516 251.613C284.516 260.165 291.449 267.097 300 267.097C308.551 267.097 315.483 260.165 315.483 251.613C315.483 246.988 313.455 242.837 310.24 240L360 240L360 289.76C362.837 286.545 366.988 284.517 371.613 284.517C380.165 284.517 387.097 291.449 387.097 300Z" fill="#F9F3ED"/>
<path d="M387.097 300L389.097 300V300L387.097 300ZM371.613 315.483L371.613 317.483L371.613 317.483L371.613 315.483ZM360 310.24L361.5 308.917L358 304.951L358 310.24L360 310.24ZM360 360L360 362L362 362L362 360L360 360ZM310.24 360L308.917 358.5L304.951 362L310.24 362L310.24 360ZM315.483 348.387L317.483 348.387L317.483 348.387L315.483 348.387ZM300 332.903L300 330.903L300 330.903L300 332.903ZM284.516 348.387L282.516 348.387L282.516 348.387L284.516 348.387ZM289.761 360L289.761 362L295.05 362L291.084 358.5L289.761 360ZM240 360L238 360L238 362L240 362L240 360ZM240 310.24L242 310.24L242 304.951L238.5 308.917L240 310.24ZM228.387 315.483L228.387 317.483L228.387 317.483L228.387 315.483ZM212.903 300L210.903 300V300L212.903 300ZM228.387 284.517L228.387 282.517L228.387 282.517L228.387 284.517ZM240 289.76L238.5 291.083L242 295.049L242 289.76L240 289.76ZM240 240L240 238L238 238L238 240L240 240ZM289.761 240L291.084 241.5L295.05 238L289.761 238L289.761 240ZM284.516 251.613L282.516 251.613L282.516 251.613L284.516 251.613ZM300 267.097L300 269.097L300 269.097L300 267.097ZM315.483 251.613L317.483 251.613L317.483 251.613L315.483 251.613ZM310.24 240L310.24 238L304.951 238L308.917 241.5L310.24 240ZM360 240L362 240L362 238L360 238L360 240ZM360 289.76L358 289.76L358 295.049L361.5 291.083L360 289.76ZM371.613 284.517L371.613 282.517L371.613 282.517L371.613 284.517ZM387.097 300L385.097 300C385.097 307.447 379.06 313.483 371.613 313.483L371.613 315.483L371.613 317.483C381.269 317.483 389.097 309.656 389.097 300L387.097 300ZM371.613 315.483L371.613 313.483C367.586 313.483 363.973 311.72 361.5 308.917L360 310.24L358.5 311.564C361.701 315.19 366.39 317.483 371.613 317.483L371.613 315.483ZM360 310.24L358 310.24L358 360L360 360L362 360L362 310.24L360 310.24ZM360 360L360 358L310.24 358L310.24 360L310.24 362L360 362L360 360ZM310.24 360L311.564 361.5C315.19 358.299 317.483 353.61 317.483 348.387L315.483 348.387L313.483 348.387C313.483 352.414 311.72 356.027 308.917 358.5L310.24 360ZM315.483 348.387L317.483 348.387C317.483 338.731 309.656 330.903 300 330.903L300 332.903L300 334.903C307.447 334.903 313.483 340.94 313.483 348.387L315.483 348.387ZM300 332.903L300 330.903C290.344 330.903 282.516 338.731 282.516 348.387L284.516 348.387L286.516 348.387C286.516 340.94 292.553 334.903 300 334.903L300 332.903ZM284.516 348.387L282.516 348.387C282.516 353.61 284.811 358.299 288.437 361.5L289.761 360L291.084 358.5C288.28 356.026 286.516 352.414 286.516 348.387L284.516 348.387ZM289.761 360L289.761 358L240 358L240 360L240 362L289.761 362L289.761 360ZM240 360L242 360L242 310.24L240 310.24L238 310.24L238 360L240 360ZM240 310.24L238.5 308.917C236.027 311.72 232.414 313.483 228.387 313.483L228.387 315.483L228.387 317.483C233.61 317.483 238.299 315.191 241.5 311.564L240 310.24ZM228.387 315.483L228.387 313.483C220.94 313.483 214.903 307.447 214.903 300L212.903 300L210.903 300C210.903 309.656 218.731 317.483 228.387 317.483L228.387 315.483ZM212.903 300L214.903 300C214.903 292.553 220.94 286.517 228.387 286.517L228.387 284.517L228.387 282.517C218.731 282.517 210.903 290.344 210.903 300L212.903 300ZM228.387 284.517L228.387 286.517C232.414 286.517 236.027 288.28 238.5 291.083L240 289.76L241.5 288.436C238.299 284.809 233.61 282.517 228.387 282.517L228.387 284.517ZM240 289.76L242 289.76L242 240L240 240L238 240L238 289.76L240 289.76ZM240 240L240 242L289.761 242L289.761 240L289.761 238L240 238L240 240ZM289.761 240L288.437 238.5C284.811 241.701 282.516 246.39 282.516 251.613L284.516 251.613L286.516 251.613C286.516 247.586 288.28 243.974 291.084 241.5L289.761 240ZM284.516 251.613L282.516 251.613C282.516 261.269 290.344 269.097 300 269.097L300 267.097L300 265.097C292.553 265.097 286.516 259.06 286.516 251.613L284.516 251.613ZM300 267.097L300 269.097C309.656 269.097 317.483 261.269 317.483 251.613L315.483 251.613L313.483 251.613C313.483 259.06 307.447 265.097 300 265.097L300 267.097ZM315.483 251.613L317.483 251.613C317.483 246.39 315.19 241.701 311.564 238.5L310.24 240L308.917 241.5C311.72 243.973 313.483 247.586 313.483 251.613L315.483 251.613ZM310.24 240L310.24 242L360 242L360 240L360 238L310.24 238L310.24 240ZM360 240L358 240L358 289.76L360 289.76L362 289.76L362 240L360 240ZM360 289.76L361.5 291.083C363.973 288.28 367.586 286.517 371.613 286.517L371.613 284.517L371.613 282.517C366.39 282.517 361.701 284.81 358.5 288.436L360 289.76ZM371.613 284.517L371.613 286.517C379.06 286.517 385.097 292.553 385.097 300L387.097 300L389.097 300C389.097 290.344 381.269 282.517 371.613 282.517L371.613 284.517Z" fill="#C99A69" fill-opacity="0.25" mask="url(#path-3-inside-2_148_4626)"/>
<mask id="path-5-inside-3_148_4626" fill="white">
<path d="M60 212.903C68.5513 212.903 75.4831 219.835 75.4834 228.387C75.4834 233.012 73.4553 237.163 70.2402 240H120V289.76C117.163 286.545 113.012 284.517 108.387 284.517C99.8354 284.517 92.9034 291.449 92.9033 300C92.9033 308.551 99.8354 315.484 108.387 315.484C113.012 315.484 117.163 313.455 120 310.239V360H70.2402C73.4553 362.837 75.4834 366.988 75.4834 371.613C75.4832 380.165 68.5514 387.097 60 387.097C51.4486 387.097 44.5168 380.165 44.5166 371.613C44.5166 366.988 46.5447 362.837 49.7598 360H0V310.239C2.83724 313.455 6.98793 315.484 11.6133 315.484C20.1646 315.484 27.0967 308.551 27.0967 300C27.0966 291.449 20.1646 284.517 11.6133 284.517C6.98824 284.517 2.83722 286.545 0 289.76V240H49.7598C46.5447 237.163 44.5166 233.012 44.5166 228.387C44.5169 219.835 51.4487 212.903 60 212.903Z"/>
</mask>
<path d="M60 212.903C68.5513 212.903 75.4831 219.835 75.4834 228.387C75.4834 233.012 73.4553 237.163 70.2402 240H120V289.76C117.163 286.545 113.012 284.517 108.387 284.517C99.8354 284.517 92.9034 291.449 92.9033 300C92.9033 308.551 99.8354 315.484 108.387 315.484C113.012 315.484 117.163 313.455 120 310.239V360H70.2402C73.4553 362.837 75.4834 366.988 75.4834 371.613C75.4832 380.165 68.5514 387.097 60 387.097C51.4486 387.097 44.5168 380.165 44.5166 371.613C44.5166 366.988 46.5447 362.837 49.7598 360H0V310.239C2.83724 313.455 6.98793 315.484 11.6133 315.484C20.1646 315.484 27.0967 308.551 27.0967 300C27.0966 291.449 20.1646 284.517 11.6133 284.517C6.98824 284.517 2.83722 286.545 0 289.76V240H49.7598C46.5447 237.163 44.5166 233.012 44.5166 228.387C44.5169 219.835 51.4487 212.903 60 212.903Z" fill="#F9F3ED"/>
<path d="M75.4834 228.387L77.4834 228.387L77.4834 228.387L75.4834 228.387ZM70.2402 240L68.9169 238.5L64.9513 242H70.2402V240ZM120 240H122V238H120V240ZM120 289.76L118.5 291.083L122 295.049V289.76H120ZM108.387 284.517L108.387 282.517L108.387 282.517L108.387 284.517ZM92.9033 300L90.9033 300V300H92.9033ZM108.387 315.484L108.387 317.484H108.387V315.484ZM120 310.239H122V304.95L118.5 308.916L120 310.239ZM120 360V362H122V360H120ZM70.2402 360V358H64.9512L68.9169 361.5L70.2402 360ZM75.4834 371.613L77.4834 371.613V371.613H75.4834ZM44.5166 371.613L42.5166 371.613L42.5166 371.613L44.5166 371.613ZM49.7598 360L51.0831 361.5L55.0488 358H49.7598V360ZM0 360H-2V362H0V360ZM0 310.239L1.49965 308.916L-2 304.95V310.239H0ZM11.6133 315.484L11.6133 317.484L11.6133 317.484L11.6133 315.484ZM27.0967 300L29.0967 300L29.0967 300L27.0967 300ZM11.6133 284.517L11.6133 282.517H11.6133V284.517ZM0 289.76H-2V295.049L1.49958 291.083L0 289.76ZM0 240V238H-2V240H0ZM49.7598 240V242H55.0487L51.0831 238.5L49.7598 240ZM44.5166 228.387L42.5166 228.387V228.387H44.5166ZM60 212.903V214.903C67.4467 214.903 73.4832 220.94 73.4834 228.387L75.4834 228.387L77.4834 228.387C77.4831 218.731 69.656 210.903 60 210.903V212.903ZM75.4834 228.387H73.4834C73.4834 232.414 71.7201 236.027 68.9169 238.5L70.2402 240L71.5636 241.5C75.1905 238.299 77.4834 233.61 77.4834 228.387H75.4834ZM70.2402 240V242H120V240V238H70.2402V240ZM120 240H118V289.76H120H122V240H120ZM120 289.76L121.5 288.436C118.299 284.81 113.61 282.517 108.387 282.517V284.517V286.517C112.414 286.517 116.027 288.28 118.5 291.083L120 289.76ZM108.387 284.517L108.387 282.517C98.7309 282.517 90.9034 290.344 90.9033 300L92.9033 300L94.9033 300C94.9034 292.553 100.94 286.517 108.387 286.517L108.387 284.517ZM92.9033 300H90.9033C90.9033 309.656 98.7307 317.484 108.387 317.484L108.387 315.484L108.387 313.484C100.94 313.484 94.9033 307.447 94.9033 300H92.9033ZM108.387 315.484V317.484C113.61 317.484 118.299 315.189 121.5 311.563L120 310.239L118.5 308.916C116.026 311.72 112.414 313.484 108.387 313.484V315.484ZM120 310.239H118V360H120H122V310.239H120ZM120 360V358H70.2402V360V362H120V360ZM70.2402 360L68.9169 361.5C71.7201 363.973 73.4834 367.586 73.4834 371.613H75.4834H77.4834C77.4834 366.39 75.1905 361.701 71.5636 358.5L70.2402 360ZM75.4834 371.613L73.4834 371.613C73.4833 379.06 67.4468 385.097 60 385.097V387.097V389.097C69.656 389.097 77.4832 381.269 77.4834 371.613L75.4834 371.613ZM60 387.097V385.097C52.5532 385.097 46.5167 379.06 46.5166 371.613L44.5166 371.613L42.5166 371.613C42.5168 381.269 50.344 389.097 60 389.097V387.097ZM44.5166 371.613H46.5166C46.5166 367.586 48.2799 363.973 51.0831 361.5L49.7598 360L48.4364 358.5C44.8095 361.701 42.5166 366.39 42.5166 371.613H44.5166ZM49.7598 360V358H0V360V362H49.7598V360ZM0 360H2V310.239H0H-2V360H0ZM0 310.239L-1.49965 311.563C1.70071 315.189 6.38958 317.484 11.6133 317.484V315.484V313.484C7.58627 313.484 3.97377 311.72 1.49965 308.916L0 310.239ZM11.6133 315.484L11.6133 317.484C21.2693 317.484 29.0967 309.656 29.0967 300H27.0967H25.0967C25.0967 307.447 19.0599 313.484 11.6132 313.484L11.6133 315.484ZM27.0967 300L29.0967 300C29.0966 290.344 21.2691 282.517 11.6133 282.517L11.6133 284.517L11.6132 286.517C19.06 286.517 25.0966 292.553 25.0967 300L27.0967 300ZM11.6133 284.517V282.517C6.39041 282.517 1.70109 284.81 -1.49958 288.436L0 289.76L1.49958 291.083C3.97336 288.28 7.58607 286.517 11.6133 286.517V284.517ZM0 289.76H2V240H0H-2V289.76H0ZM0 240V242H49.7598V240V238H0V240ZM49.7598 240L51.0831 238.5C48.2799 236.027 46.5166 232.414 46.5166 228.387H44.5166H42.5166C42.5166 233.61 44.8095 238.299 48.4364 241.5L49.7598 240ZM44.5166 228.387L46.5166 228.387C46.5168 220.94 52.5533 214.903 60 214.903V212.903V210.903C50.344 210.903 42.5169 218.731 42.5166 228.387L44.5166 228.387Z" fill="#C99A69" fill-opacity="0.25" mask="url(#path-5-inside-3_148_4626)"/>
<mask id="path-7-inside-4_148_4626" fill="white">
<path d="M420 92.9033C428.551 92.9033 435.483 99.8354 435.483 108.387C435.483 113.012 433.455 117.163 430.24 120H480V169.76C477.163 166.545 473.012 164.517 468.387 164.517C459.835 164.517 452.903 171.449 452.903 180C452.903 188.551 459.835 195.484 468.387 195.484C473.012 195.484 477.163 193.455 480 190.239V240H430.24C433.455 242.837 435.483 246.988 435.483 251.613C435.483 260.165 428.551 267.097 420 267.097C411.449 267.097 404.517 260.165 404.517 251.613C404.517 246.988 406.545 242.837 409.76 240H360V190.239C362.837 193.455 366.988 195.484 371.613 195.484C380.165 195.484 387.097 188.551 387.097 180C387.097 171.449 380.165 164.517 371.613 164.517C366.988 164.517 362.837 166.545 360 169.76V120H409.76C406.545 117.163 404.517 113.012 404.517 108.387C404.517 99.8354 411.449 92.9033 420 92.9033Z"/>
</mask>
<path d="M420 92.9033C428.551 92.9033 435.483 99.8354 435.483 108.387C435.483 113.012 433.455 117.163 430.24 120H480V169.76C477.163 166.545 473.012 164.517 468.387 164.517C459.835 164.517 452.903 171.449 452.903 180C452.903 188.551 459.835 195.484 468.387 195.484C473.012 195.484 477.163 193.455 480 190.239V240H430.24C433.455 242.837 435.483 246.988 435.483 251.613C435.483 260.165 428.551 267.097 420 267.097C411.449 267.097 404.517 260.165 404.517 251.613C404.517 246.988 406.545 242.837 409.76 240H360V190.239C362.837 193.455 366.988 195.484 371.613 195.484C380.165 195.484 387.097 188.551 387.097 180C387.097 171.449 380.165 164.517 371.613 164.517C366.988 164.517 362.837 166.545 360 169.76V120H409.76C406.545 117.163 404.517 113.012 404.517 108.387C404.517 99.8354 411.449 92.9033 420 92.9033Z" fill="#F9F3ED"/>
<path d="M435.483 108.387L437.483 108.387L437.483 108.387L435.483 108.387ZM430.24 120L428.917 118.5L424.951 122H430.24V120ZM480 120H482V118H480V120ZM480 169.76L478.5 171.083L482 175.049V169.76H480ZM468.387 164.517L468.387 162.517L468.387 162.517L468.387 164.517ZM452.903 180L450.903 180V180H452.903ZM468.387 195.484L468.387 197.484H468.387V195.484ZM480 190.239H482V184.95L478.5 188.916L480 190.239ZM480 240V242H482V240H480ZM430.24 240V238H424.951L428.917 241.5L430.24 240ZM435.483 251.613L437.483 251.613V251.613H435.483ZM404.517 251.613L402.517 251.613L402.517 251.613L404.517 251.613ZM409.76 240L411.083 241.5L415.049 238H409.76V240ZM360 240H358V242H360V240ZM360 190.239L361.5 188.916L358 184.95V190.239H360ZM371.613 195.484L371.613 197.484L371.613 197.484L371.613 195.484ZM387.097 180L389.097 180L389.097 180L387.097 180ZM371.613 164.517L371.613 162.517H371.613V164.517ZM360 169.76H358V175.049L361.5 171.083L360 169.76ZM360 120V118H358V120H360ZM409.76 120V122H415.049L411.083 118.5L409.76 120ZM404.517 108.387L402.517 108.387V108.387H404.517ZM420 92.9033V94.9033C427.447 94.9033 433.483 100.94 433.483 108.387L435.483 108.387L437.483 108.387C437.483 98.7309 429.656 90.9033 420 90.9033V92.9033ZM435.483 108.387H433.483C433.483 112.414 431.72 116.027 428.917 118.5L430.24 120L431.564 121.5C435.19 118.299 437.483 113.61 437.483 108.387H435.483ZM430.24 120V122H480V120V118H430.24V120ZM480 120H478V169.76H480H482V120H480ZM480 169.76L481.5 168.436C478.299 164.81 473.61 162.517 468.387 162.517V164.517V166.517C472.414 166.517 476.027 168.28 478.5 171.083L480 169.76ZM468.387 164.517L468.387 162.517C458.731 162.517 450.903 170.344 450.903 180L452.903 180L454.903 180C454.903 172.553 460.94 166.517 468.387 166.517L468.387 164.517ZM452.903 180H450.903C450.903 189.656 458.731 197.484 468.387 197.484L468.387 195.484L468.387 193.484C460.94 193.484 454.903 187.447 454.903 180H452.903ZM468.387 195.484V197.484C473.61 197.484 478.299 195.189 481.5 191.563L480 190.239L478.5 188.916C476.026 191.72 472.414 193.484 468.387 193.484V195.484ZM480 190.239H478V240H480H482V190.239H480ZM480 240V238H430.24V240V242H480V240ZM430.24 240L428.917 241.5C431.72 243.973 433.483 247.586 433.483 251.613H435.483H437.483C437.483 246.39 435.191 241.701 431.564 238.5L430.24 240ZM435.483 251.613L433.483 251.613C433.483 259.06 427.447 265.097 420 265.097V267.097V269.097C429.656 269.097 437.483 261.269 437.483 251.613L435.483 251.613ZM420 267.097V265.097C412.553 265.097 406.517 259.06 406.517 251.613L404.517 251.613L402.517 251.613C402.517 261.269 410.344 269.097 420 269.097V267.097ZM404.517 251.613H406.517C406.517 247.586 408.28 243.973 411.083 241.5L409.76 240L408.436 238.5C404.809 241.701 402.517 246.39 402.517 251.613H404.517ZM409.76 240V238H360V240V242H409.76V240ZM360 240H362V190.239H360H358V240H360ZM360 190.239L358.5 191.563C361.701 195.189 366.39 197.484 371.613 197.484V195.484V193.484C367.586 193.484 363.974 191.72 361.5 188.916L360 190.239ZM371.613 195.484L371.613 197.484C381.269 197.484 389.097 189.656 389.097 180H387.097H385.097C385.097 187.447 379.06 193.484 371.613 193.484L371.613 195.484ZM387.097 180L389.097 180C389.097 170.344 381.269 162.517 371.613 162.517L371.613 164.517L371.613 166.517C379.06 166.517 385.097 172.553 385.097 180L387.097 180ZM371.613 164.517V162.517C366.39 162.517 361.701 164.81 358.5 168.436L360 169.76L361.5 171.083C363.973 168.28 367.586 166.517 371.613 166.517V164.517ZM360 169.76H362V120H360H358V169.76H360ZM360 120V122H409.76V120V118H360V120ZM409.76 120L411.083 118.5C408.28 116.027 406.517 112.414 406.517 108.387H404.517H402.517C402.517 113.61 404.81 118.299 408.436 121.5L409.76 120ZM404.517 108.387L406.517 108.387C406.517 100.94 412.553 94.9033 420 94.9033V92.9033V90.9033C410.344 90.9033 402.517 98.7309 402.517 108.387L404.517 108.387Z" fill="#C99A69" fill-opacity="0.25" mask="url(#path-7-inside-4_148_4626)"/>
<mask id="path-9-inside-5_148_4626" fill="white">
<path d="M92.9033 180C92.9033 171.449 99.8354 164.516 108.387 164.516C113.012 164.516 117.163 166.545 120 169.76L120 120L169.76 120C166.545 117.163 164.517 113.012 164.517 108.387C164.517 99.8354 171.449 92.9034 180 92.9033C188.551 92.9033 195.484 99.8353 195.484 108.387C195.484 113.012 193.455 117.163 190.239 120L240 120L240 169.761C242.837 166.545 246.989 164.517 251.614 164.517C260.166 164.517 267.098 171.449 267.098 180C267.098 188.551 260.166 195.484 251.614 195.484C246.989 195.484 242.837 193.455 240 190.239L240 240L190.24 240C193.455 242.837 195.484 246.988 195.484 251.613C195.484 260.165 188.551 267.097 180 267.097C171.449 267.097 164.517 260.165 164.517 251.613C164.517 246.989 166.544 242.837 169.759 240L120 240L120 190.24C117.163 193.455 113.012 195.483 108.387 195.483C99.8355 195.483 92.9034 188.551 92.9033 180Z"/>
</mask>
<path d="M92.9033 180C92.9033 171.449 99.8354 164.516 108.387 164.516C113.012 164.516 117.163 166.545 120 169.76L120 120L169.76 120C166.545 117.163 164.517 113.012 164.517 108.387C164.517 99.8354 171.449 92.9034 180 92.9033C188.551 92.9033 195.484 99.8353 195.484 108.387C195.484 113.012 193.455 117.163 190.239 120L240 120L240 169.761C242.837 166.545 246.989 164.517 251.614 164.517C260.166 164.517 267.098 171.449 267.098 180C267.098 188.551 260.166 195.484 251.614 195.484C246.989 195.484 242.837 193.455 240 190.239L240 240L190.24 240C193.455 242.837 195.484 246.988 195.484 251.613C195.484 260.165 188.551 267.097 180 267.097C171.449 267.097 164.517 260.165 164.517 251.613C164.517 246.989 166.544 242.837 169.759 240L120 240L120 190.24C117.163 193.455 113.012 195.483 108.387 195.483C99.8355 195.483 92.9034 188.551 92.9033 180Z" fill="#F9F3ED"/>
<path d="M92.9033 180L90.9033 180L90.9033 180L92.9033 180ZM108.387 164.516L108.387 162.516L108.387 162.516L108.387 164.516ZM120 169.76L118.5 171.083L122 175.049L122 169.76L120 169.76ZM120 120L120 118L118 118L118 120L120 120ZM169.76 120L169.76 122L175.049 122L171.083 118.5L169.76 120ZM164.517 108.387L162.517 108.387L162.517 108.387L164.517 108.387ZM180 92.9033L180 90.9033L180 90.9033L180 92.9033ZM195.484 108.387L197.484 108.387L197.484 108.387L195.484 108.387ZM190.239 120L188.916 118.5L184.95 122L190.239 122L190.239 120ZM240 120L242 120L242 118L240 118L240 120ZM240 169.761L238 169.761L238 175.05L241.5 171.084L240 169.761ZM251.614 164.517L251.614 162.517L251.614 162.517L251.614 164.517ZM267.098 180L269.098 180L269.098 180L267.098 180ZM251.614 195.484L251.614 197.484L251.614 197.484L251.614 195.484ZM240 190.239L241.5 188.916L238 184.95L238 190.239L240 190.239ZM240 240L240 242L242 242L242 240L240 240ZM190.24 240L190.24 238L184.951 238L188.917 241.5L190.24 240ZM195.484 251.613L197.484 251.613L197.484 251.613L195.484 251.613ZM180 267.097L180 269.097L180 269.097L180 267.097ZM164.517 251.613L162.517 251.613L162.517 251.613L164.517 251.613ZM169.759 240L171.082 241.5L175.047 238L169.759 238L169.759 240ZM120 240L118 240L118 242L120 242L120 240ZM120 190.24L122 190.24L122 184.951L118.5 188.917L120 190.24ZM108.387 195.483L108.387 197.483L108.387 197.483L108.387 195.483ZM92.9033 180L94.9033 180C94.9033 172.553 100.94 166.516 108.387 166.516L108.387 164.516L108.387 162.516C98.7307 162.516 90.9033 170.344 90.9033 180L92.9033 180ZM108.387 164.516L108.387 166.516C112.414 166.516 116.026 168.28 118.5 171.083L120 169.76L121.5 168.436C118.299 164.81 113.61 162.516 108.387 162.516L108.387 164.516ZM120 169.76L122 169.76L122 120L120 120L118 120L118 169.76L120 169.76ZM120 120L120 122L169.76 122L169.76 120L169.76 118L120 118L120 120ZM169.76 120L171.083 118.5C168.28 116.027 166.517 112.414 166.517 108.387L164.517 108.387L162.517 108.387C162.517 113.61 164.809 118.299 168.436 121.5L169.76 120ZM164.517 108.387L166.517 108.387C166.517 100.94 172.553 94.9034 180 94.9033L180 92.9033L180 90.9033C170.344 90.9034 162.517 98.7308 162.517 108.387L164.517 108.387ZM180 92.9033L180 94.9033C187.447 94.9033 193.484 100.94 193.484 108.387L195.484 108.387L197.484 108.387C197.484 98.7306 189.656 90.9033 180 90.9033L180 92.9033ZM195.484 108.387L193.484 108.387C193.484 112.414 191.72 116.026 188.916 118.5L190.239 120L191.563 121.5C195.19 118.299 197.484 113.61 197.484 108.387L195.484 108.387ZM190.239 120L190.239 122L240 122L240 120L240 118L190.239 118L190.239 120ZM240 120L238 120L238 169.761L240 169.761L242 169.761L242 120L240 120ZM240 169.761L241.5 171.084C243.973 168.28 247.587 166.517 251.614 166.517L251.614 164.517L251.614 162.517C246.391 162.517 241.701 164.81 238.5 168.438L240 169.761ZM251.614 164.517L251.614 166.517C259.061 166.517 265.098 172.553 265.098 180L267.098 180L269.098 180C269.098 170.344 261.27 162.517 251.614 162.517L251.614 164.517ZM267.098 180L265.098 180C265.098 187.447 259.061 193.484 251.614 193.484L251.614 195.484L251.614 197.484C261.27 197.484 269.098 189.656 269.098 180L267.098 180ZM251.614 195.484L251.614 193.484C247.587 193.484 243.974 191.72 241.5 188.916L240 190.239L238.5 191.562C241.701 195.19 246.391 197.484 251.614 197.484L251.614 195.484ZM240 190.239L238 190.239L238 240L240 240L242 240L242 190.239L240 190.239ZM240 240L240 238L190.24 238L190.24 240L190.24 242L240 242L240 240ZM190.24 240L188.917 241.5C191.72 243.974 193.484 247.586 193.484 251.613L195.484 251.613L197.484 251.613C197.484 246.39 195.19 241.701 191.564 238.5L190.24 240ZM195.484 251.613L193.484 251.613C193.484 259.06 187.447 265.097 180 265.097L180 267.097L180 269.097C189.656 269.097 197.484 261.269 197.484 251.613L195.484 251.613ZM180 267.097L180 265.097C172.553 265.097 166.517 259.06 166.517 251.613L164.517 251.613L162.517 251.613C162.517 261.269 170.344 269.097 180 269.097L180 267.097ZM164.517 251.613L166.517 251.613C166.517 247.586 168.279 243.973 171.082 241.5L169.759 240L168.435 238.5C164.809 241.701 162.517 246.391 162.517 251.613L164.517 251.613ZM169.759 240L169.759 238L120 238L120 240L120 242L169.759 242L169.759 240ZM120 240L122 240L122 190.24L120 190.24L118 190.24L118 240L120 240ZM120 190.24L118.5 188.917C116.027 191.72 112.414 193.483 108.387 193.483L108.387 195.483L108.387 197.483C113.61 197.483 118.299 195.19 121.5 191.564L120 190.24ZM108.387 195.483L108.387 193.483C100.94 193.483 94.9034 187.447 94.9033 180L92.9033 180L90.9033 180C90.9034 189.656 98.7309 197.483 108.387 197.483L108.387 195.483Z" fill="#C99A69" fill-opacity="0.25" mask="url(#path-9-inside-5_148_4626)"/>
<mask id="path-11-inside-6_148_4626" fill="white">
<path d="M387.097 60C387.097 68.5514 380.165 75.4832 371.613 75.4834C366.988 75.4834 362.837 73.4553 360 70.2402L360 120L310.24 120C313.455 117.163 315.483 113.012 315.483 108.387C315.483 99.8354 308.551 92.9034 300 92.9033C291.449 92.9033 284.516 99.8354 284.516 108.387C284.516 113.012 286.545 117.163 289.761 120L240 120L240 70.2402C237.163 73.4553 233.012 75.4834 228.387 75.4834C219.835 75.4832 212.903 68.5514 212.903 60C212.903 51.4486 219.835 44.5168 228.387 44.5166C233.012 44.5166 237.163 46.5447 240 49.7598L240 -6.4298e-06L289.761 -4.25469e-06C286.545 2.83723 284.516 6.98793 284.516 11.6133C284.516 20.1646 291.449 27.0967 300 27.0967C308.551 27.0966 315.483 20.1646 315.483 11.6133C315.483 6.98823 313.455 2.83722 310.24 -3.3595e-06L360 -1.18443e-06L360 49.7598C362.837 46.5447 366.988 44.5166 371.613 44.5166C380.165 44.5168 387.097 51.4486 387.097 60Z"/>
</mask>
<path d="M387.097 60C387.097 68.5514 380.165 75.4832 371.613 75.4834C366.988 75.4834 362.837 73.4553 360 70.2402L360 120L310.24 120C313.455 117.163 315.483 113.012 315.483 108.387C315.483 99.8354 308.551 92.9034 300 92.9033C291.449 92.9033 284.516 99.8354 284.516 108.387C284.516 113.012 286.545 117.163 289.761 120L240 120L240 70.2402C237.163 73.4553 233.012 75.4834 228.387 75.4834C219.835 75.4832 212.903 68.5514 212.903 60C212.903 51.4486 219.835 44.5168 228.387 44.5166C233.012 44.5166 237.163 46.5447 240 49.7598L240 -6.4298e-06L289.761 -4.25469e-06C286.545 2.83723 284.516 6.98793 284.516 11.6133C284.516 20.1646 291.449 27.0967 300 27.0967C308.551 27.0966 315.483 20.1646 315.483 11.6133C315.483 6.98823 313.455 2.83722 310.24 -3.3595e-06L360 -1.18443e-06L360 49.7598C362.837 46.5447 366.988 44.5166 371.613 44.5166C380.165 44.5168 387.097 51.4486 387.097 60Z" fill="#F9F3ED"/>
<path d="M387.097 60L389.097 60V60L387.097 60ZM371.613 75.4834L371.613 77.4834L371.613 77.4834L371.613 75.4834ZM360 70.2402L361.5 68.9169L358 64.9513L358 70.2402L360 70.2402ZM360 120L360 122L362 122L362 120L360 120ZM310.24 120L308.917 118.5L304.951 122L310.24 122L310.24 120ZM315.483 108.387L317.483 108.387L317.483 108.387L315.483 108.387ZM300 92.9033L300 90.9033L300 90.9033L300 92.9033ZM284.516 108.387L282.516 108.387L282.516 108.387L284.516 108.387ZM289.761 120L289.761 122L295.05 122L291.084 118.5L289.761 120ZM240 120L238 120L238 122L240 122L240 120ZM240 70.2402L242 70.2402L242 64.9512L238.5 68.9169L240 70.2402ZM228.387 75.4834L228.387 77.4834L228.387 77.4834L228.387 75.4834ZM212.903 60L210.903 60V60L212.903 60ZM228.387 44.5166L228.387 42.5166L228.387 42.5166L228.387 44.5166ZM240 49.7598L238.5 51.0831L242 55.0488L242 49.7598L240 49.7598ZM240 -6.4298e-06L240 -2.00001L238 -2.00001L238 -6.51722e-06L240 -6.4298e-06ZM289.761 -4.25469e-06L291.084 1.49965L295.05 -2L289.761 -2L289.761 -4.25469e-06ZM284.516 11.6133L282.516 11.6133L282.516 11.6133L284.516 11.6133ZM300 27.0967L300 29.0967L300 29.0967L300 27.0967ZM315.483 11.6133L317.483 11.6133L317.483 11.6133L315.483 11.6133ZM310.24 -3.3595e-06L310.24 -2L304.951 -2L308.917 1.49958L310.24 -3.3595e-06ZM360 -1.18443e-06L362 -1.09701e-06L362 -2L360 -2L360 -1.18443e-06ZM360 49.7598L358 49.7598L358 55.0487L361.5 51.0831L360 49.7598ZM371.613 44.5166L371.613 42.5166L371.613 42.5166L371.613 44.5166ZM387.097 60L385.097 60C385.097 67.4467 379.06 73.4832 371.613 73.4834L371.613 75.4834L371.613 77.4834C381.269 77.4831 389.097 69.656 389.097 60L387.097 60ZM371.613 75.4834L371.613 73.4834C367.586 73.4834 363.973 71.7201 361.5 68.9169L360 70.2402L358.5 71.5636C361.701 75.1905 366.39 77.4834 371.613 77.4834L371.613 75.4834ZM360 70.2402L358 70.2402L358 120L360 120L362 120L362 70.2402L360 70.2402ZM360 120L360 118L310.24 118L310.24 120L310.24 122L360 122L360 120ZM310.24 120L311.564 121.5C315.19 118.299 317.483 113.61 317.483 108.387L315.483 108.387L313.483 108.387C313.483 112.414 311.72 116.027 308.917 118.5L310.24 120ZM315.483 108.387L317.483 108.387C317.483 98.7309 309.656 90.9034 300 90.9033L300 92.9033L300 94.9033C307.447 94.9033 313.483 100.94 313.483 108.387L315.483 108.387ZM300 92.9033L300 90.9033C290.344 90.9033 282.516 98.7307 282.516 108.387L284.516 108.387L286.516 108.387C286.516 100.94 292.553 94.9033 300 94.9033L300 92.9033ZM284.516 108.387L282.516 108.387C282.516 113.61 284.811 118.299 288.437 121.5L289.761 120L291.084 118.5C288.28 116.026 286.516 112.414 286.516 108.387L284.516 108.387ZM289.761 120L289.761 118L240 118L240 120L240 122L289.761 122L289.761 120ZM240 120L242 120L242 70.2402L240 70.2402L238 70.2402L238 120L240 120ZM240 70.2402L238.5 68.9169C236.027 71.7201 232.414 73.4834 228.387 73.4834L228.387 75.4834L228.387 77.4834C233.61 77.4834 238.299 75.1905 241.5 71.5636L240 70.2402ZM228.387 75.4834L228.387 73.4834C220.94 73.4832 214.903 67.4468 214.903 60L212.903 60L210.903 60C210.903 69.656 218.731 77.4832 228.387 77.4834L228.387 75.4834ZM212.903 60L214.903 60C214.903 52.5532 220.94 46.5167 228.387 46.5166L228.387 44.5166L228.387 42.5166C218.731 42.5168 210.903 50.344 210.903 60L212.903 60ZM228.387 44.5166L228.387 46.5166C232.414 46.5166 236.027 48.2799 238.5 51.0831L240 49.7598L241.5 48.4364C238.299 44.8095 233.61 42.5166 228.387 42.5166L228.387 44.5166ZM240 49.7598L242 49.7598L242 -6.34238e-06L240 -6.4298e-06L238 -6.51722e-06L238 49.7598L240 49.7598ZM240 -6.4298e-06L240 1.99999L289.761 2L289.761 -4.25469e-06L289.761 -2L240 -2.00001L240 -6.4298e-06ZM289.761 -4.25469e-06L288.437 -1.49966C284.811 1.7007 282.516 6.38958 282.516 11.6133L284.516 11.6133L286.516 11.6133C286.516 7.58627 288.28 3.97376 291.084 1.49965L289.761 -4.25469e-06ZM284.516 11.6133L282.516 11.6133C282.516 21.2693 290.344 29.0967 300 29.0967L300 27.0967L300 25.0967C292.553 25.0967 286.516 19.0599 286.516 11.6132L284.516 11.6133ZM300 27.0967L300 29.0967C309.656 29.0966 317.483 21.2691 317.483 11.6133L315.483 11.6133L313.483 11.6132C313.483 19.06 307.447 25.0966 300 25.0967L300 27.0967ZM315.483 11.6133L317.483 11.6133C317.483 6.3904 315.19 1.70109 311.564 -1.49958L310.24 -3.3595e-06L308.917 1.49958C311.72 3.97335 313.483 7.58606 313.483 11.6133L315.483 11.6133ZM310.24 -3.3595e-06L310.24 2L360 2L360 -1.18443e-06L360 -2L310.24 -2L310.24 -3.3595e-06ZM360 -1.18443e-06L358 -1.27186e-06L358 49.7598L360 49.7598L362 49.7598L362 -1.09701e-06L360 -1.18443e-06ZM360 49.7598L361.5 51.0831C363.973 48.2799 367.586 46.5166 371.613 46.5166L371.613 44.5166L371.613 42.5166C366.39 42.5166 361.701 44.8095 358.5 48.4364L360 49.7598ZM371.613 44.5166L371.613 46.5166C379.06 46.5168 385.097 52.5533 385.097 60L387.097 60L389.097 60C389.097 50.344 381.269 42.5169 371.613 42.5166L371.613 44.5166Z" fill="#C99A69" fill-opacity="0.25" mask="url(#path-11-inside-6_148_4626)"/>
</svg>
