<svg width="121" height="71" viewBox="0 0 121 71" fill="none" xmlns="http://www.w3.org/2000/svg">
<path d="M9.96035 71L8.11597 66.9534C11.5591 65.4819 14.8792 63.7651 18.0763 61.8031C21.2735 59.8411 24.1016 57.7565 26.561 55.5492C29.2663 53.0967 31.3568 50.7668 32.8324 48.5596L29.1433 45.2487H25.4544C20.2897 45.2487 15.7399 44.2677 11.8049 42.3057C8.11588 40.3437 5.16459 37.6459 2.95118 34.2124C0.983701 30.7789 0 26.8549 0 22.4404C0 18.0259 1.10682 14.1019 3.32023 10.6684C5.77958 7.2349 8.97674 4.65977 12.9117 2.94301C16.8467 0.981004 21.2734 0 26.1921 0C31.1108 0 35.5377 0.981004 39.4727 2.94301C43.4076 4.90502 46.4817 7.60277 48.6951 11.0363C50.9085 14.4698 52.0153 18.3938 52.0153 22.8083C52.0153 28.2038 50.9085 33.3541 48.6951 38.2591C46.7276 42.9188 43.8995 47.3333 40.2104 51.5026C36.5214 55.6718 32.0945 59.4732 26.9299 62.9067C21.7652 66.095 16.1087 68.7927 9.96035 71ZM78.9452 71L77.1006 66.9534C80.5437 65.4819 83.8638 63.7651 87.061 61.8031C90.2581 59.8411 93.0865 57.7565 95.5458 55.5492C98.2511 53.0967 100.341 50.7668 101.817 48.5596L98.1281 45.2487H94.439C89.2744 45.2487 84.7247 44.2677 80.7897 42.3057C77.1007 40.3437 74.1494 37.6459 71.936 34.2124C69.9685 30.7789 68.9848 26.8549 68.9848 22.4404C68.9848 18.0259 70.0915 14.1019 72.3049 10.6684C74.7642 7.2349 77.9614 4.65977 81.8964 2.94301C85.8313 0.981004 90.2582 0 95.1769 0C100.096 0 104.522 0.981004 108.457 2.94301C112.392 4.90502 115.467 7.60277 117.68 11.0363C119.893 14.4698 121 18.3938 121 22.8083C121 28.2038 119.893 33.3541 117.68 38.2591C115.712 42.9188 112.884 47.3333 109.195 51.5026C105.506 55.6718 101.079 59.4732 95.9147 62.9067C90.7501 66.095 85.0936 68.7927 78.9452 71Z" fill="white" fill-opacity="0.3"/>
</svg>
