<svg width="626" height="240" viewBox="0 0 626 240" fill="none" xmlns="http://www.w3.org/2000/svg">
<path d="M626 120H576.197C579.151 117.261 581 113.346 581 109C581 100.716 574.284 94 566 94C557.716 94 551 100.716 551 109C551 113.346 552.849 117.261 555.803 120H506V70.1963C503.26 73.1504 499.347 75 495 75C486.716 75 480 68.2843 480 60C480 51.7158 486.716 45 495 45C499.346 45 503.26 46.849 506 49.8028V3.05176e-05H626V120Z" fill="#EFE5DA"/>
<path d="M506 2.52722e-05L506 49.8028C503.26 46.849 499.346 45 495 45C486.716 45 480 51.7158 480 60C480 68.2843 486.716 75 495 75C499.346 75 503.26 73.1511 506 70.1973L506 120L456.196 120C459.15 122.74 461 126.653 461 131C461 139.284 454.284 146 446 146C437.716 146 431 139.284 431 131C431 126.654 432.849 122.74 435.803 120L386 120L386 70.1973C388.74 73.1511 392.654 75 397 75C405.284 75 412 68.2843 412 60C412 51.7158 405.284 45 397 45C392.654 45 388.74 46.849 386 49.8028L386 3.05176e-05L506 2.52722e-05Z" fill="#EFE5DA"/>
<path d="M26 70.1973C23.2605 73.1511 19.3463 75 15 75C6.71572 75 -4.52113e-06 68.2843 -5.24536e-06 60C-5.9696e-06 51.7158 6.71572 45 15 45C19.3466 45 23.2605 46.8497 26 49.8038L26 4.32813e-05L146 3.27906e-05L146 49.8037C148.74 46.8497 152.653 45 157 45C165.284 45 172 51.7158 172 60C172 68.2843 165.284 75 157 75C152.654 75 148.74 73.1511 146 70.1973L146 120L96.1973 120C99.151 117.261 101 113.346 101 109C101 100.716 94.2843 94 86 94C77.7157 94 71 100.716 71 109C71 113.346 72.849 117.261 75.8027 120L26 120L26 70.1973Z" fill="#EFE5DA"/>
<path d="M266 70.1973C263.26 73.1511 259.346 75 255 75C246.716 75 240 68.2843 240 60C240 51.7158 246.716 45 255 45C259.347 45 263.26 46.8497 266 49.8038L266 4.32813e-05L386 3.27906e-05L386 49.8037C388.74 46.8497 392.653 45 397 45C405.284 45 412 51.7158 412 60C412 68.2843 405.284 75 397 75C392.654 75 388.74 73.1511 386 70.1973L386 120L336.197 120C339.151 117.261 341 113.346 341 109C341 100.716 334.284 94 326 94C317.716 94 311 100.716 311 109C311 113.346 312.849 117.261 315.803 120L266 120L266 70.1973Z" fill="#EFE5DA"/>
<path d="M386 190.197C383.26 193.151 379.346 195 375 195C366.716 195 360 188.284 360 180C360 171.716 366.716 165 375 165C379.347 165 383.26 166.85 386 169.804L386 120L435.803 120C432.849 122.74 431 126.654 431 131C431 139.284 437.716 146 446 146C454.284 146 461 139.284 461 131C461 126.654 459.151 122.74 456.197 120L506 120L506 169.804C508.74 166.85 512.653 165 517 165C525.284 165 532 171.716 532 180C532 188.284 525.284 195 517 195C512.654 195 508.74 193.151 506 190.197L506 240L456.197 240C459.151 237.261 461 233.346 461 229C461 220.716 454.284 214 446 214C437.716 214 431 220.716 431 229C431 233.346 432.849 237.261 435.803 240L386 240L386 190.197Z" fill="#EFE5DA"/>
</svg>
