<svg width="386" height="240" viewBox="0 0 386 240" fill="none" xmlns="http://www.w3.org/2000/svg">
<path d="M147.097 180.006C147.097 188.557 140.165 195.49 131.613 195.49C126.988 195.49 122.837 193.461 120 190.246L120 240.006L4.37181e-05 240.006L4.22871e-05 120.006L49.7598 120.006C46.5447 117.169 44.5157 113.018 44.5157 108.393C44.5159 99.8413 51.4487 92.9092 60 92.9092C68.5514 92.9092 75.4832 99.8413 75.4834 108.393C75.4834 113.017 73.456 117.169 70.2413 120.006L120 120.006L120 169.766C122.837 166.551 126.988 164.522 131.613 164.522C140.165 164.523 147.097 171.455 147.097 180.006Z" fill="#F9F3ED"/>
<path d="M360 169.802C362.74 166.848 366.654 164.999 371 164.999C379.284 164.999 386 171.715 386 179.999C386 188.283 379.284 194.999 371 194.999C366.653 194.999 362.74 193.149 360 190.195L360 239.999L240 239.999L240 190.195C237.26 193.149 233.347 194.999 229 194.999C220.716 194.999 214 188.283 214 179.999C214 171.715 220.716 164.999 229 164.999C233.346 164.999 237.261 166.848 240 169.802L240 119.999L289.803 119.999C286.849 122.739 285 126.653 285 130.999C285 139.283 291.716 145.999 300 145.999C308.284 145.999 315 139.283 315 130.999C315 126.653 313.151 122.739 310.197 119.999L360 119.999L360 169.802Z" fill="#F9F3ED"/>
<path d="M240.001 49.8028C242.741 46.849 246.655 45 251.001 45C259.285 45 266.001 51.7158 266.001 60C266.001 68.2843 259.285 75 251.001 75C246.654 75 242.741 73.1504 240.001 70.1963L240.001 120L190.198 120C193.152 117.261 195.001 113.346 195.001 109C195.001 100.716 188.285 94 180.001 94C171.717 94 165.001 100.716 165.001 109C165.001 113.346 166.85 117.261 169.804 120L120.001 120L120.001 70.1963C117.261 73.1504 113.348 75 109.001 75C100.717 75 94.001 68.2843 94.001 60C94.001 51.7157 100.717 45 109.001 45C113.347 45 117.261 46.849 120.001 49.8027L120.001 4.54598e-06L169.804 1.32538e-05C166.85 2.73952 165.001 6.65367 165.001 11C165.001 19.2843 171.717 26 180.001 26C188.285 26 195.001 19.2843 195.001 11C195.001 6.65368 193.152 2.73953 190.198 1.68197e-05L240.001 2.55275e-05L240.001 49.8028Z" fill="#F9F3ED"/>
</svg>
